%TF.GenerationSoftware,KiCad,Pcbnew,9.0.3*%
%TF.CreationDate,2025-10-25T15:11:56+05:30*%
%TF.ProjectId,Vicharak,56696368-6172-4616-9b2e-6b696361645f,rev?*%
%TF.SameCoordinates,Original*%
%TF.FileFunction,Copper,L2,Bot*%
%TF.FilePolarity,Positive*%
%FSLAX46Y46*%
G04 Gerber Fmt 4.6, Leading zero omitted, Abs format (unit mm)*
G04 Created by KiCad (PCBNEW 9.0.3) date 2025-10-25 15:11:56*
%MOMM*%
%LPD*%
G01*
G04 APERTURE LIST*
G04 Aperture macros list*
%AMRoundRect*
0 Rectangle with rounded corners*
0 $1 Rounding radius*
0 $2 $3 $4 $5 $6 $7 $8 $9 X,Y pos of 4 corners*
0 Add a 4 corners polygon primitive as box body*
4,1,4,$2,$3,$4,$5,$6,$7,$8,$9,$2,$3,0*
0 Add four circle primitives for the rounded corners*
1,1,$1+$1,$2,$3*
1,1,$1+$1,$4,$5*
1,1,$1+$1,$6,$7*
1,1,$1+$1,$8,$9*
0 Add four rect primitives between the rounded corners*
20,1,$1+$1,$2,$3,$4,$5,0*
20,1,$1+$1,$4,$5,$6,$7,0*
20,1,$1+$1,$6,$7,$8,$9,0*
20,1,$1+$1,$8,$9,$2,$3,0*%
G04 Aperture macros list end*
%TA.AperFunction,ComponentPad*%
%ADD10R,2.000000X1.905000*%
%TD*%
%TA.AperFunction,ComponentPad*%
%ADD11O,2.000000X1.905000*%
%TD*%
%TA.AperFunction,ComponentPad*%
%ADD12C,1.600000*%
%TD*%
%TA.AperFunction,ComponentPad*%
%ADD13R,1.905000X2.000000*%
%TD*%
%TA.AperFunction,ComponentPad*%
%ADD14O,1.905000X2.000000*%
%TD*%
%TA.AperFunction,ComponentPad*%
%ADD15RoundRect,0.250000X1.550000X-0.750000X1.550000X0.750000X-1.550000X0.750000X-1.550000X-0.750000X0*%
%TD*%
%TA.AperFunction,ComponentPad*%
%ADD16O,3.600000X2.000000*%
%TD*%
%TA.AperFunction,ComponentPad*%
%ADD17RoundRect,0.250000X-0.550000X-0.550000X0.550000X-0.550000X0.550000X0.550000X-0.550000X0.550000X0*%
%TD*%
%TA.AperFunction,ComponentPad*%
%ADD18RoundRect,0.249999X0.850001X0.850001X-0.850001X0.850001X-0.850001X-0.850001X0.850001X-0.850001X0*%
%TD*%
%TA.AperFunction,ComponentPad*%
%ADD19C,2.200000*%
%TD*%
%TA.AperFunction,ComponentPad*%
%ADD20RoundRect,0.249999X-0.850001X-0.850001X0.850001X-0.850001X0.850001X0.850001X-0.850001X0.850001X0*%
%TD*%
%TA.AperFunction,ComponentPad*%
%ADD21R,4.500000X2.500000*%
%TD*%
%TA.AperFunction,ComponentPad*%
%ADD22O,4.500000X2.500000*%
%TD*%
%TA.AperFunction,ComponentPad*%
%ADD23RoundRect,0.250000X-0.650000X-1.550000X0.650000X-1.550000X0.650000X1.550000X-0.650000X1.550000X0*%
%TD*%
%TA.AperFunction,ComponentPad*%
%ADD24O,1.800000X3.600000*%
%TD*%
%TA.AperFunction,ComponentPad*%
%ADD25RoundRect,0.250000X-1.550000X0.650000X-1.550000X-0.650000X1.550000X-0.650000X1.550000X0.650000X0*%
%TD*%
%TA.AperFunction,ComponentPad*%
%ADD26O,3.600000X1.800000*%
%TD*%
%TA.AperFunction,ViaPad*%
%ADD27C,0.600000*%
%TD*%
%TA.AperFunction,Conductor*%
%ADD28C,0.400000*%
%TD*%
%TA.AperFunction,Conductor*%
%ADD29C,0.300000*%
%TD*%
%TA.AperFunction,Conductor*%
%ADD30C,0.500000*%
%TD*%
%TA.AperFunction,Conductor*%
%ADD31C,0.600000*%
%TD*%
%TA.AperFunction,Conductor*%
%ADD32C,0.200000*%
%TD*%
G04 APERTURE END LIST*
D10*
%TO.P,Q1,1,B*%
%TO.N,Earth*%
X53800000Y-74020000D03*
D11*
%TO.P,Q1,2,C*%
%TO.N,Net-(Q1-C)*%
X53800000Y-76560000D03*
%TO.P,Q1,3,E*%
%TO.N,Net-(Q1-E)*%
X53800000Y-79100000D03*
%TD*%
D12*
%TO.P,R6,1*%
%TO.N,Net-(D3-A)*%
X49745000Y-85050000D03*
%TO.P,R6,2*%
%TO.N,Net-(C9-Pad1)*%
X47205000Y-85050000D03*
%TD*%
%TO.P,R7,1*%
%TO.N,Net-(C5-Pad1)*%
X62050000Y-77840000D03*
%TO.P,R7,2*%
%TO.N,Net-(C6-Pad1)*%
X62050000Y-75300000D03*
%TD*%
%TO.P,R_T1,1*%
%TO.N,Net-(U2--)*%
X35605000Y-83790000D03*
%TO.P,R_T1,2*%
%TO.N,Net-(C_T1-Pad1)*%
X38145000Y-83790000D03*
%TD*%
%TO.P,R4,1*%
%TO.N,Net-(J1-Pin_1)*%
X14810000Y-88600000D03*
%TO.P,R4,2*%
%TO.N,Net-(U2-+)*%
X17350000Y-88600000D03*
%TD*%
%TO.P,R1,1*%
%TO.N,Net-(Q1-C)*%
X49940000Y-68350000D03*
%TO.P,R1,2*%
%TO.N,Net-(D1-K)*%
X47400000Y-68350000D03*
%TD*%
%TO.P,C15,1*%
%TO.N,Net-(J2-Pin_1)*%
X67350000Y-58550000D03*
%TO.P,C15,2*%
%TO.N,Earth*%
X69850000Y-58550000D03*
%TD*%
%TO.P,C_T1,1*%
%TO.N,Net-(C_T1-Pad1)*%
X35450000Y-77150000D03*
%TO.P,C_T1,2*%
%TO.N,OUT*%
X37950000Y-77150000D03*
%TD*%
%TO.P,C7,1*%
%TO.N,Net-(D3-A)*%
X35950000Y-95350000D03*
%TO.P,C7,2*%
%TO.N,Earth*%
X38450000Y-95350000D03*
%TD*%
D13*
%TO.P,Q2,1,B*%
%TO.N,Net-(D2-K)*%
X75220000Y-59450000D03*
D14*
%TO.P,Q2,2,C*%
%TO.N,+15V*%
X77760000Y-59450000D03*
%TO.P,Q2,3,E*%
%TO.N,Earth*%
X80300000Y-59450000D03*
%TD*%
D12*
%TO.P,R10,1*%
%TO.N,Net-(C12-Pad1)*%
X106505000Y-70600000D03*
%TO.P,R10,2*%
%TO.N,Earth*%
X109045000Y-70600000D03*
%TD*%
%TO.P,C10,1*%
%TO.N,Net-(D2-A)*%
X100700000Y-79750000D03*
%TO.P,C10,2*%
%TO.N,+15V*%
X103200000Y-79750000D03*
%TD*%
D15*
%TO.P,J1,1,Pin_1*%
%TO.N,Net-(J1-Pin_1)*%
X15450000Y-80450000D03*
D16*
%TO.P,J1,2,Pin_2*%
%TO.N,Earth*%
X15450000Y-72950000D03*
%TD*%
D17*
%TO.P,D5,1,K*%
%TO.N,Net-(D5-K)*%
X73830000Y-67250000D03*
D12*
%TO.P,D5,2,A*%
%TO.N,Net-(D5-A)*%
X81450000Y-67250000D03*
%TD*%
D18*
%TO.P,D4,1,K*%
%TO.N,Net-(D4-K)*%
X76550000Y-73700000D03*
D19*
%TO.P,D4,2,A*%
%TO.N,+15V*%
X66390000Y-73700000D03*
%TD*%
D12*
%TO.P,C2,1*%
%TO.N,Net-(D1-K)*%
X34800000Y-58000000D03*
%TO.P,C2,2*%
%TO.N,Earth*%
X37300000Y-58000000D03*
%TD*%
%TO.P,C8,1*%
%TO.N,Net-(D3-A)*%
X43000000Y-95400000D03*
%TO.P,C8,2*%
%TO.N,Earth*%
X45500000Y-95400000D03*
%TD*%
D17*
%TO.P,D6,1,K*%
%TO.N,Net-(D6-K)*%
X73690000Y-91400000D03*
D12*
%TO.P,D6,2,A*%
%TO.N,Net-(D6-A)*%
X81310000Y-91400000D03*
%TD*%
D20*
%TO.P,D1,1,K*%
%TO.N,Net-(D1-K)*%
X35140000Y-64550000D03*
D19*
%TO.P,D1,2,A*%
%TO.N,Earth*%
X45300000Y-64550000D03*
%TD*%
D12*
%TO.P,C12,1*%
%TO.N,Net-(C12-Pad1)*%
X100200000Y-71000000D03*
%TO.P,C12,2*%
%TO.N,Net-(D2-A)*%
X102700000Y-71000000D03*
%TD*%
%TO.P,C13,1*%
%TO.N,Net-(D4-K)*%
X81600000Y-80200000D03*
%TO.P,C13,2*%
%TO.N,Net-(Q3-S)*%
X81600000Y-82700000D03*
%TD*%
%TO.P,R8,1*%
%TO.N,Net-(J2-Pin_1)*%
X53160000Y-68350000D03*
%TO.P,R8,2*%
%TO.N,Net-(D1-K)*%
X55700000Y-68350000D03*
%TD*%
%TO.P,C19,1*%
%TO.N,OUT*%
X116800000Y-81850000D03*
%TO.P,C19,2*%
%TO.N,Earth*%
X119300000Y-81850000D03*
%TD*%
D20*
%TO.P,D3,1,K*%
%TO.N,Earth*%
X35540000Y-88550000D03*
D19*
%TO.P,D3,2,A*%
%TO.N,Net-(D3-A)*%
X45700000Y-88550000D03*
%TD*%
D12*
%TO.P,C14,1*%
%TO.N,Net-(J2-Pin_1)*%
X60150000Y-58450000D03*
%TO.P,C14,2*%
%TO.N,Earth*%
X62650000Y-58450000D03*
%TD*%
D17*
%TO.P,U2,1,GND*%
%TO.N,Earth*%
X41395000Y-72990000D03*
D12*
%TO.P,U2,2,+*%
%TO.N,Net-(U2-+)*%
X41395000Y-75530000D03*
%TO.P,U2,3,-*%
%TO.N,Net-(U2--)*%
X41395000Y-78070000D03*
%TO.P,U2,4,V-*%
%TO.N,Net-(D3-A)*%
X41395000Y-80610000D03*
%TO.P,U2,5,BAL*%
%TO.N,unconnected-(U2-BAL-Pad5)*%
X49015000Y-80610000D03*
%TO.P,U2,6,STRB*%
%TO.N,unconnected-(U2-STRB-Pad6)*%
X49015000Y-78070000D03*
%TO.P,U2,7*%
%TO.N,Net-(Q1-C)*%
X49015000Y-75530000D03*
%TO.P,U2,8,V+*%
%TO.N,Net-(D1-K)*%
X49015000Y-72990000D03*
%TD*%
%TO.P,C4,1*%
%TO.N,Net-(U2-+)*%
X14750000Y-63250000D03*
%TO.P,C4,2*%
%TO.N,Earth*%
X17250000Y-63250000D03*
%TD*%
%TO.P,R11,1*%
%TO.N,Net-(D5-A)*%
X85210000Y-67100000D03*
%TO.P,R11,2*%
%TO.N,Net-(D5-K)*%
X87750000Y-67100000D03*
%TD*%
%TO.P,C16,1*%
%TO.N,Earth*%
X99400000Y-62150000D03*
%TO.P,C16,2*%
%TO.N,Net-(D2-A)*%
X101900000Y-62150000D03*
%TD*%
D21*
%TO.P,Q4,1,G*%
%TO.N,Net-(D6-A)*%
X93850000Y-82000000D03*
D22*
%TO.P,Q4,2,D*%
%TO.N,Net-(Q3-S)*%
X93850000Y-87450000D03*
%TO.P,Q4,3,S*%
%TO.N,Net-(D2-A)*%
X93850000Y-92900000D03*
%TD*%
D12*
%TO.P,R12,1*%
%TO.N,Net-(D6-A)*%
X85405000Y-91350000D03*
%TO.P,R12,2*%
%TO.N,Net-(D6-K)*%
X87945000Y-91350000D03*
%TD*%
%TO.P,R3,1*%
%TO.N,Net-(J1-Pin_1)*%
X20610000Y-88550000D03*
%TO.P,R3,2*%
%TO.N,Earth*%
X23150000Y-88550000D03*
%TD*%
%TO.P,C6,1*%
%TO.N,Net-(C6-Pad1)*%
X62000000Y-69400000D03*
%TO.P,C6,2*%
%TO.N,Net-(U3-CT)*%
X62000000Y-66900000D03*
%TD*%
%TO.P,C5,1*%
%TO.N,Net-(C5-Pad1)*%
X62300000Y-86150000D03*
%TO.P,C5,2*%
%TO.N,Net-(Q1-E)*%
X62300000Y-83650000D03*
%TD*%
%TO.P,C18,1*%
%TO.N,OUT*%
X112700000Y-70450000D03*
%TO.P,C18,2*%
%TO.N,Earth*%
X115200000Y-70450000D03*
%TD*%
D20*
%TO.P,D2,1,K*%
%TO.N,Net-(D2-K)*%
X84640000Y-58750000D03*
D19*
%TO.P,D2,2,A*%
%TO.N,Net-(D2-A)*%
X94800000Y-58750000D03*
%TD*%
D12*
%TO.P,C1,1*%
%TO.N,Net-(D1-K)*%
X41850000Y-58200000D03*
%TO.P,C1,2*%
%TO.N,Earth*%
X44350000Y-58200000D03*
%TD*%
D21*
%TO.P,Q3,1,G*%
%TO.N,Net-(D5-A)*%
X93850000Y-64950000D03*
D22*
%TO.P,Q3,2,D*%
%TO.N,Net-(J2-Pin_1)*%
X93850000Y-70400000D03*
%TO.P,Q3,3,S*%
%TO.N,Net-(Q3-S)*%
X93850000Y-75850000D03*
%TD*%
D23*
%TO.P,J2,1,Pin_1*%
%TO.N,Net-(J2-Pin_1)*%
X51250000Y-59450000D03*
D24*
%TO.P,J2,2,Pin_2*%
%TO.N,Earth*%
X54750000Y-59450000D03*
%TD*%
D12*
%TO.P,R5,1*%
%TO.N,Net-(C9-Pad1)*%
X53160000Y-85050000D03*
%TO.P,R5,2*%
%TO.N,Net-(Q1-E)*%
X55700000Y-85050000D03*
%TD*%
%TO.P,R9,1*%
%TO.N,Net-(U3-RT)*%
X68355000Y-67300000D03*
%TO.P,R9,2*%
%TO.N,Net-(U3-CT)*%
X70895000Y-67300000D03*
%TD*%
%TO.P,C17,1*%
%TO.N,Earth*%
X106700000Y-62050000D03*
%TO.P,C17,2*%
%TO.N,Net-(D2-A)*%
X109200000Y-62050000D03*
%TD*%
%TO.P,C11,1*%
%TO.N,Net-(D2-A)*%
X101150000Y-88650000D03*
%TO.P,C11,2*%
%TO.N,+15V*%
X103650000Y-88650000D03*
%TD*%
%TO.P,C9,1*%
%TO.N,Net-(C9-Pad1)*%
X57650000Y-94700000D03*
%TO.P,C9,2*%
%TO.N,Net-(U3-CT)*%
X57650000Y-92200000D03*
%TD*%
D23*
%TO.P,J3,1,Pin_1*%
%TO.N,Net-(D2-A)*%
X115000000Y-60550000D03*
D24*
%TO.P,J3,2,Pin_2*%
%TO.N,Earth*%
X118500000Y-60550000D03*
%TD*%
D12*
%TO.P,R_T2,1*%
%TO.N,Net-(U2--)*%
X35705000Y-70450000D03*
%TO.P,R_T2,2*%
%TO.N,OUT*%
X38245000Y-70450000D03*
%TD*%
%TO.P,R_T3,1*%
%TO.N,Earth*%
X30550000Y-78695000D03*
%TO.P,R_T3,2*%
%TO.N,Net-(U2--)*%
X30550000Y-76155000D03*
%TD*%
D25*
%TO.P,J4,1,Pin_1*%
%TO.N,OUT*%
X123250000Y-68900000D03*
D26*
%TO.P,J4,2,Pin_2*%
%TO.N,Earth*%
X123250000Y-72400000D03*
%TD*%
D17*
%TO.P,U3,1,VCC*%
%TO.N,+15V*%
X68800000Y-78920000D03*
D12*
%TO.P,U3,2,RT*%
%TO.N,Net-(U3-RT)*%
X68800000Y-81460000D03*
%TO.P,U3,3,CT*%
%TO.N,Net-(U3-CT)*%
X68800000Y-84000000D03*
%TO.P,U3,4,COM*%
%TO.N,Net-(D2-A)*%
X68800000Y-86540000D03*
%TO.P,U3,5,LO*%
%TO.N,Net-(D6-K)*%
X76420000Y-86540000D03*
%TO.P,U3,6,VS*%
%TO.N,Net-(Q3-S)*%
X76420000Y-84000000D03*
%TO.P,U3,7,HO*%
%TO.N,Net-(D5-K)*%
X76420000Y-81460000D03*
%TO.P,U3,8,VB*%
%TO.N,Net-(D4-K)*%
X76420000Y-78920000D03*
%TD*%
D27*
%TO.N,+15V*%
X122200000Y-94350000D03*
%TD*%
D28*
%TO.N,Earth*%
X69967858Y-60652000D02*
X79098000Y-60652000D01*
X79098000Y-60652000D02*
X80300000Y-59450000D01*
X68447001Y-59131143D02*
X69967858Y-60652000D01*
X79098000Y-58248000D02*
X70152000Y-58248000D01*
X68447000Y-57968858D02*
X68447001Y-59131143D01*
X62650000Y-58450000D02*
X64050000Y-57050000D01*
X64050000Y-57050000D02*
X67528142Y-57050000D01*
X70152000Y-58248000D02*
X69850000Y-58550000D01*
X67528142Y-57050000D02*
X68447000Y-57968858D01*
X80300000Y-59450000D02*
X79098000Y-58248000D01*
D29*
%TO.N,Net-(D1-K)*%
X49015000Y-72990000D02*
X49015000Y-69965000D01*
X47400000Y-68350000D02*
X47400000Y-63750000D01*
X47400000Y-63750000D02*
X41850000Y-58200000D01*
X49015000Y-69965000D02*
X47400000Y-68350000D01*
%TO.N,Net-(U2-+)*%
X26154000Y-79796000D02*
X17350000Y-88600000D01*
X41395000Y-75530000D02*
X37129000Y-79796000D01*
X37129000Y-79796000D02*
X26154000Y-79796000D01*
%TO.N,Net-(D2-A)*%
X101900000Y-62150000D02*
X101900000Y-70200000D01*
X109200000Y-62050000D02*
X108099000Y-63151000D01*
X102901000Y-63151000D02*
X101900000Y-62150000D01*
X108099000Y-63151000D02*
X102901000Y-63151000D01*
X101900000Y-70200000D02*
X102700000Y-71000000D01*
D30*
%TO.N,Net-(Q3-S)*%
X91299000Y-84899000D02*
X91299000Y-78401000D01*
X87000000Y-82700000D02*
X93850000Y-75850000D01*
X81600000Y-82700000D02*
X87000000Y-82700000D01*
X93850000Y-87450000D02*
X91299000Y-84899000D01*
X91299000Y-78401000D02*
X93850000Y-75850000D01*
D29*
%TO.N,Net-(J2-Pin_1)*%
X60150000Y-58450000D02*
X59049000Y-57349000D01*
X66349000Y-59551000D02*
X67350000Y-58550000D01*
X60150000Y-58450000D02*
X61251000Y-59551000D01*
X79200000Y-70400000D02*
X93850000Y-70400000D01*
X67350000Y-58550000D02*
X79200000Y-70400000D01*
X61251000Y-59551000D02*
X66349000Y-59551000D01*
X53351000Y-57349000D02*
X51250000Y-59450000D01*
X59049000Y-57349000D02*
X53351000Y-57349000D01*
D31*
%TO.N,OUT*%
X123250000Y-68900000D02*
X114250000Y-68900000D01*
X112700000Y-70450000D02*
X112700000Y-77750000D01*
X112700000Y-77750000D02*
X116800000Y-81850000D01*
X114250000Y-68900000D02*
X112700000Y-70450000D01*
D32*
%TO.N,Net-(D2-K)*%
X69493949Y-57349001D02*
X68749000Y-58093950D01*
X68749000Y-59006050D02*
X69442950Y-59700000D01*
X74970000Y-59700000D02*
X75220000Y-59450000D01*
X84640000Y-58750000D02*
X83239001Y-57349001D01*
X69442950Y-59700000D02*
X74970000Y-59700000D01*
X83239001Y-57349001D02*
X69493949Y-57349001D01*
X68749000Y-58093950D02*
X68749000Y-59006050D01*
D29*
%TO.N,Net-(Q1-C)*%
X49015000Y-75530000D02*
X52770000Y-75530000D01*
X52770000Y-75530000D02*
X53800000Y-76560000D01*
%TO.N,Net-(U2--)*%
X36806000Y-71551000D02*
X35705000Y-70450000D01*
X41395000Y-78070000D02*
X35675000Y-83790000D01*
X42496000Y-72204840D02*
X41842160Y-71551000D01*
X42496000Y-76969000D02*
X42496000Y-72204840D01*
X41395000Y-78070000D02*
X42496000Y-76969000D01*
X35675000Y-83790000D02*
X35605000Y-83790000D01*
X41842160Y-71551000D02*
X36806000Y-71551000D01*
%TD*%
%TA.AperFunction,Conductor*%
%TO.N,Earth*%
G36*
X73836285Y-57969186D02*
G01*
X73882040Y-58021990D01*
X73891984Y-58091148D01*
X73868513Y-58147812D01*
X73823704Y-58207669D01*
X73823702Y-58207671D01*
X73773408Y-58342517D01*
X73767001Y-58402116D01*
X73767000Y-58402135D01*
X73767000Y-58975500D01*
X73747315Y-59042539D01*
X73694511Y-59088294D01*
X73643000Y-59099500D01*
X71209029Y-59099500D01*
X71141990Y-59079815D01*
X71096235Y-59027011D01*
X71086291Y-58957853D01*
X71091098Y-58937181D01*
X71117990Y-58854417D01*
X71150000Y-58652317D01*
X71150000Y-58447682D01*
X71117990Y-58245582D01*
X71074527Y-58111820D01*
X71072532Y-58041979D01*
X71108612Y-57982146D01*
X71171312Y-57951317D01*
X71192458Y-57949501D01*
X73769246Y-57949501D01*
X73836285Y-57969186D01*
G37*
%TD.AperFunction*%
%TA.AperFunction,Conductor*%
G36*
X79477355Y-57958382D02*
G01*
X79508083Y-57965528D01*
X79510636Y-57968155D01*
X79514147Y-57969186D01*
X79534786Y-57993005D01*
X79556778Y-58015634D01*
X79557505Y-58019224D01*
X79559902Y-58021990D01*
X79564389Y-58053199D01*
X79570653Y-58084112D01*
X79569324Y-58087523D01*
X79569846Y-58091148D01*
X79556743Y-58119838D01*
X79545304Y-58149221D01*
X79541745Y-58152679D01*
X79540821Y-58154704D01*
X79519994Y-58173819D01*
X79353758Y-58294597D01*
X79353757Y-58294597D01*
X79192097Y-58456257D01*
X79130627Y-58540864D01*
X79075297Y-58583529D01*
X79005684Y-58589508D01*
X78943889Y-58556902D01*
X78929991Y-58540864D01*
X78868286Y-58455934D01*
X78706566Y-58294214D01*
X78540857Y-58173819D01*
X78498192Y-58118489D01*
X78492213Y-58048875D01*
X78524819Y-57987080D01*
X78585658Y-57952723D01*
X78613743Y-57949501D01*
X79447108Y-57949501D01*
X79477355Y-57958382D01*
G37*
%TD.AperFunction*%
%TA.AperFunction,Conductor*%
G36*
X129442539Y-52520185D02*
G01*
X129488294Y-52572989D01*
X129499500Y-52624500D01*
X129499500Y-99375500D01*
X129479815Y-99442539D01*
X129427011Y-99488294D01*
X129375500Y-99499500D01*
X11624500Y-99499500D01*
X11557461Y-99479815D01*
X11511706Y-99427011D01*
X11500500Y-99375500D01*
X11500500Y-95247648D01*
X34649500Y-95247648D01*
X34649500Y-95452351D01*
X34681522Y-95654534D01*
X34744781Y-95849223D01*
X34787248Y-95932567D01*
X34837585Y-96031359D01*
X34837715Y-96031613D01*
X34958028Y-96197213D01*
X35102786Y-96341971D01*
X35223226Y-96429474D01*
X35268390Y-96462287D01*
X35384607Y-96521503D01*
X35450776Y-96555218D01*
X35450778Y-96555218D01*
X35450781Y-96555220D01*
X35555137Y-96589127D01*
X35645465Y-96618477D01*
X35746557Y-96634488D01*
X35847648Y-96650500D01*
X35847649Y-96650500D01*
X36052351Y-96650500D01*
X36052352Y-96650500D01*
X36254534Y-96618477D01*
X36449219Y-96555220D01*
X36631610Y-96462287D01*
X36724590Y-96394732D01*
X36797213Y-96341971D01*
X36797215Y-96341968D01*
X36797219Y-96341966D01*
X36941966Y-96197219D01*
X36941968Y-96197215D01*
X36941971Y-96197213D01*
X37062286Y-96031611D01*
X37062415Y-96031359D01*
X37089795Y-95977621D01*
X37137769Y-95926826D01*
X37205589Y-95910030D01*
X37271725Y-95932567D01*
X37310765Y-95977621D01*
X37338141Y-96031350D01*
X37338147Y-96031359D01*
X37370523Y-96075921D01*
X37370524Y-96075922D01*
X38050000Y-95396446D01*
X38050000Y-95402661D01*
X38077259Y-95504394D01*
X38129920Y-95595606D01*
X38204394Y-95670080D01*
X38295606Y-95722741D01*
X38397339Y-95750000D01*
X38403553Y-95750000D01*
X37724076Y-96429474D01*
X37768650Y-96461859D01*
X37950968Y-96554755D01*
X38145582Y-96617990D01*
X38347683Y-96650000D01*
X38552317Y-96650000D01*
X38754417Y-96617990D01*
X38949031Y-96554755D01*
X39131349Y-96461859D01*
X39175921Y-96429474D01*
X38496447Y-95750000D01*
X38502661Y-95750000D01*
X38604394Y-95722741D01*
X38695606Y-95670080D01*
X38770080Y-95595606D01*
X38822741Y-95504394D01*
X38850000Y-95402661D01*
X38850000Y-95396447D01*
X39529474Y-96075921D01*
X39561859Y-96031349D01*
X39654755Y-95849031D01*
X39717990Y-95654417D01*
X39750000Y-95452317D01*
X39750000Y-95297648D01*
X41699500Y-95297648D01*
X41699500Y-95502352D01*
X41703878Y-95529995D01*
X41731522Y-95704534D01*
X41794781Y-95899223D01*
X41834728Y-95977622D01*
X41887585Y-96081359D01*
X41887715Y-96081613D01*
X42008028Y-96247213D01*
X42152786Y-96391971D01*
X42248981Y-96461859D01*
X42318390Y-96512287D01*
X42402647Y-96555218D01*
X42500776Y-96605218D01*
X42500778Y-96605218D01*
X42500781Y-96605220D01*
X42605137Y-96639127D01*
X42695465Y-96668477D01*
X42796557Y-96684488D01*
X42897648Y-96700500D01*
X42897649Y-96700500D01*
X43102351Y-96700500D01*
X43102352Y-96700500D01*
X43304534Y-96668477D01*
X43499219Y-96605220D01*
X43681610Y-96512287D01*
X43774590Y-96444732D01*
X43847213Y-96391971D01*
X43847215Y-96391968D01*
X43847219Y-96391966D01*
X43991966Y-96247219D01*
X43991968Y-96247215D01*
X43991971Y-96247213D01*
X44112286Y-96081611D01*
X44112415Y-96081359D01*
X44139795Y-96027621D01*
X44187769Y-95976826D01*
X44255589Y-95960030D01*
X44321725Y-95982567D01*
X44360765Y-96027621D01*
X44388141Y-96081350D01*
X44388147Y-96081359D01*
X44420523Y-96125921D01*
X44420524Y-96125922D01*
X45100000Y-95446446D01*
X45100000Y-95452661D01*
X45127259Y-95554394D01*
X45179920Y-95645606D01*
X45254394Y-95720080D01*
X45345606Y-95772741D01*
X45447339Y-95800000D01*
X45453553Y-95800000D01*
X44774076Y-96479474D01*
X44818650Y-96511859D01*
X45000968Y-96604755D01*
X45195582Y-96667990D01*
X45397683Y-96700000D01*
X45602317Y-96700000D01*
X45804417Y-96667990D01*
X45999031Y-96604755D01*
X46181349Y-96511859D01*
X46225921Y-96479474D01*
X45546447Y-95800000D01*
X45552661Y-95800000D01*
X45654394Y-95772741D01*
X45745606Y-95720080D01*
X45820080Y-95645606D01*
X45872741Y-95554394D01*
X45900000Y-95452661D01*
X45900000Y-95446447D01*
X46579474Y-96125921D01*
X46611859Y-96081349D01*
X46704755Y-95899031D01*
X46767990Y-95704417D01*
X46800000Y-95502317D01*
X46800000Y-95297682D01*
X46767990Y-95095582D01*
X46704755Y-94900968D01*
X46611859Y-94718650D01*
X46579474Y-94674077D01*
X46579474Y-94674076D01*
X45900000Y-95353551D01*
X45900000Y-95347339D01*
X45872741Y-95245606D01*
X45820080Y-95154394D01*
X45745606Y-95079920D01*
X45654394Y-95027259D01*
X45552661Y-95000000D01*
X45546446Y-95000000D01*
X46225922Y-94320524D01*
X46225921Y-94320523D01*
X46181359Y-94288147D01*
X46181350Y-94288141D01*
X45999031Y-94195244D01*
X45804417Y-94132009D01*
X45602317Y-94100000D01*
X45397683Y-94100000D01*
X45195582Y-94132009D01*
X45000968Y-94195244D01*
X44818644Y-94288143D01*
X44774077Y-94320523D01*
X44774077Y-94320524D01*
X45453554Y-95000000D01*
X45447339Y-95000000D01*
X45345606Y-95027259D01*
X45254394Y-95079920D01*
X45179920Y-95154394D01*
X45127259Y-95245606D01*
X45100000Y-95347339D01*
X45100000Y-95353553D01*
X44420524Y-94674077D01*
X44420523Y-94674077D01*
X44388143Y-94718644D01*
X44360765Y-94772378D01*
X44312790Y-94823174D01*
X44244969Y-94839969D01*
X44178834Y-94817431D01*
X44139795Y-94772378D01*
X44112287Y-94718390D01*
X44112285Y-94718387D01*
X44112284Y-94718385D01*
X43991971Y-94552786D01*
X43847213Y-94408028D01*
X43681613Y-94287715D01*
X43681612Y-94287714D01*
X43681610Y-94287713D01*
X43624653Y-94258691D01*
X43499223Y-94194781D01*
X43304534Y-94131522D01*
X43129995Y-94103878D01*
X43102352Y-94099500D01*
X42897648Y-94099500D01*
X42873329Y-94103351D01*
X42695465Y-94131522D01*
X42500776Y-94194781D01*
X42318386Y-94287715D01*
X42152786Y-94408028D01*
X42008028Y-94552786D01*
X41887715Y-94718386D01*
X41794781Y-94900776D01*
X41731522Y-95095465D01*
X41707419Y-95247648D01*
X41699500Y-95297648D01*
X39750000Y-95297648D01*
X39750000Y-95247682D01*
X39717990Y-95045582D01*
X39654755Y-94850968D01*
X39561859Y-94668650D01*
X39529474Y-94624077D01*
X39529474Y-94624076D01*
X38850000Y-95303551D01*
X38850000Y-95297339D01*
X38822741Y-95195606D01*
X38770080Y-95104394D01*
X38695606Y-95029920D01*
X38604394Y-94977259D01*
X38502661Y-94950000D01*
X38496446Y-94950000D01*
X39175922Y-94270524D01*
X39175921Y-94270523D01*
X39131359Y-94238147D01*
X39131350Y-94238141D01*
X38949031Y-94145244D01*
X38754417Y-94082009D01*
X38552317Y-94050000D01*
X38347683Y-94050000D01*
X38145582Y-94082009D01*
X37950968Y-94145244D01*
X37768644Y-94238143D01*
X37724077Y-94270523D01*
X37724077Y-94270524D01*
X38403554Y-94950000D01*
X38397339Y-94950000D01*
X38295606Y-94977259D01*
X38204394Y-95029920D01*
X38129920Y-95104394D01*
X38077259Y-95195606D01*
X38050000Y-95297339D01*
X38050000Y-95303553D01*
X37370524Y-94624077D01*
X37370523Y-94624077D01*
X37338143Y-94668644D01*
X37310765Y-94722378D01*
X37262790Y-94773174D01*
X37194969Y-94789969D01*
X37128834Y-94767431D01*
X37089795Y-94722378D01*
X37062287Y-94668390D01*
X37062285Y-94668387D01*
X37062284Y-94668385D01*
X36941971Y-94502786D01*
X36797213Y-94358028D01*
X36631613Y-94237715D01*
X36631612Y-94237714D01*
X36631610Y-94237713D01*
X36548260Y-94195244D01*
X36449223Y-94144781D01*
X36254534Y-94081522D01*
X36079995Y-94053878D01*
X36052352Y-94049500D01*
X35847648Y-94049500D01*
X35823329Y-94053351D01*
X35645465Y-94081522D01*
X35450776Y-94144781D01*
X35268386Y-94237715D01*
X35102786Y-94358028D01*
X34958028Y-94502786D01*
X34837715Y-94668386D01*
X34744781Y-94850776D01*
X34681522Y-95045465D01*
X34649500Y-95247648D01*
X11500500Y-95247648D01*
X11500500Y-92097648D01*
X56349500Y-92097648D01*
X56349500Y-92302351D01*
X56381522Y-92504534D01*
X56444781Y-92699223D01*
X56537715Y-92881613D01*
X56658028Y-93047213D01*
X56802786Y-93191971D01*
X56968388Y-93312286D01*
X57021828Y-93339516D01*
X57072623Y-93387490D01*
X57089418Y-93455312D01*
X57066880Y-93521446D01*
X57021828Y-93560484D01*
X56968388Y-93587713D01*
X56802786Y-93708028D01*
X56658028Y-93852786D01*
X56537715Y-94018386D01*
X56444781Y-94200776D01*
X56381522Y-94395465D01*
X56349500Y-94597648D01*
X56349500Y-94802351D01*
X56381522Y-95004534D01*
X56444781Y-95199223D01*
X56494932Y-95297648D01*
X56521607Y-95350001D01*
X56537715Y-95381613D01*
X56658028Y-95547213D01*
X56802786Y-95691971D01*
X56913959Y-95772741D01*
X56968390Y-95812287D01*
X57084607Y-95871503D01*
X57150776Y-95905218D01*
X57150778Y-95905218D01*
X57150781Y-95905220D01*
X57255137Y-95939127D01*
X57345465Y-95968477D01*
X57403198Y-95977621D01*
X57547648Y-96000500D01*
X57547649Y-96000500D01*
X57752351Y-96000500D01*
X57752352Y-96000500D01*
X57954534Y-95968477D01*
X58149219Y-95905220D01*
X58331610Y-95812287D01*
X58458523Y-95720080D01*
X58497213Y-95691971D01*
X58497215Y-95691968D01*
X58497219Y-95691966D01*
X58641966Y-95547219D01*
X58641968Y-95547215D01*
X58641971Y-95547213D01*
X58710916Y-95452317D01*
X58762287Y-95381610D01*
X58855220Y-95199219D01*
X58918477Y-95004534D01*
X58950500Y-94802352D01*
X58950500Y-94597648D01*
X58918477Y-94395466D01*
X58855220Y-94200781D01*
X58855218Y-94200778D01*
X58855218Y-94200776D01*
X58812278Y-94116503D01*
X58762287Y-94018390D01*
X58727731Y-93970827D01*
X58641971Y-93852786D01*
X58497213Y-93708028D01*
X58331613Y-93587715D01*
X58331612Y-93587714D01*
X58331610Y-93587713D01*
X58278171Y-93560484D01*
X58227376Y-93512510D01*
X58210581Y-93444689D01*
X58233118Y-93378554D01*
X58278172Y-93339515D01*
X58331610Y-93312287D01*
X58428037Y-93242229D01*
X58497213Y-93191971D01*
X58497215Y-93191968D01*
X58497219Y-93191966D01*
X58641966Y-93047219D01*
X58641968Y-93047215D01*
X58641971Y-93047213D01*
X58694732Y-92974590D01*
X58762287Y-92881610D01*
X58811381Y-92785258D01*
X91099500Y-92785258D01*
X91099500Y-93014741D01*
X91122833Y-93191966D01*
X91129452Y-93242238D01*
X91183698Y-93444689D01*
X91188842Y-93463887D01*
X91276650Y-93675876D01*
X91276657Y-93675890D01*
X91391392Y-93874617D01*
X91531081Y-94056661D01*
X91531089Y-94056670D01*
X91693330Y-94218911D01*
X91693338Y-94218918D01*
X91693339Y-94218919D01*
X91718392Y-94238143D01*
X91875382Y-94358607D01*
X91875385Y-94358608D01*
X91875388Y-94358611D01*
X92074112Y-94473344D01*
X92074117Y-94473346D01*
X92074123Y-94473349D01*
X92145179Y-94502781D01*
X92286113Y-94561158D01*
X92507762Y-94620548D01*
X92735266Y-94650500D01*
X92735273Y-94650500D01*
X94964727Y-94650500D01*
X94964734Y-94650500D01*
X95192238Y-94620548D01*
X95413887Y-94561158D01*
X95625888Y-94473344D01*
X95824612Y-94358611D01*
X95938589Y-94271153D01*
X121399500Y-94271153D01*
X121399500Y-94428846D01*
X121430261Y-94583489D01*
X121430264Y-94583501D01*
X121490602Y-94729172D01*
X121490609Y-94729185D01*
X121578210Y-94860288D01*
X121578213Y-94860292D01*
X121689707Y-94971786D01*
X121689711Y-94971789D01*
X121820814Y-95059390D01*
X121820827Y-95059397D01*
X121907907Y-95095466D01*
X121966503Y-95119737D01*
X122121153Y-95150499D01*
X122121156Y-95150500D01*
X122121158Y-95150500D01*
X122278844Y-95150500D01*
X122278845Y-95150499D01*
X122433497Y-95119737D01*
X122579179Y-95059394D01*
X122710289Y-94971789D01*
X122821789Y-94860289D01*
X122909394Y-94729179D01*
X122969737Y-94583497D01*
X123000500Y-94428842D01*
X123000500Y-94271158D01*
X123000500Y-94271155D01*
X123000499Y-94271153D01*
X122986500Y-94200776D01*
X122969737Y-94116503D01*
X122929096Y-94018386D01*
X122909397Y-93970827D01*
X122909390Y-93970814D01*
X122821789Y-93839711D01*
X122821786Y-93839707D01*
X122710292Y-93728213D01*
X122710288Y-93728210D01*
X122579185Y-93640609D01*
X122579172Y-93640602D01*
X122433501Y-93580264D01*
X122433489Y-93580261D01*
X122278845Y-93549500D01*
X122278842Y-93549500D01*
X122121158Y-93549500D01*
X122121155Y-93549500D01*
X121966510Y-93580261D01*
X121966498Y-93580264D01*
X121820827Y-93640602D01*
X121820814Y-93640609D01*
X121689711Y-93728210D01*
X121689707Y-93728213D01*
X121578213Y-93839707D01*
X121578210Y-93839711D01*
X121490609Y-93970814D01*
X121490602Y-93970827D01*
X121430264Y-94116498D01*
X121430261Y-94116510D01*
X121399500Y-94271153D01*
X95938589Y-94271153D01*
X96006661Y-94218919D01*
X96006665Y-94218914D01*
X96006670Y-94218911D01*
X96168911Y-94056670D01*
X96168914Y-94056665D01*
X96168919Y-94056661D01*
X96308611Y-93874612D01*
X96423344Y-93675888D01*
X96511158Y-93463887D01*
X96570548Y-93242238D01*
X96600500Y-93014734D01*
X96600500Y-92785266D01*
X96570548Y-92557762D01*
X96511158Y-92336113D01*
X96423344Y-92124112D01*
X96308611Y-91925388D01*
X96308608Y-91925385D01*
X96308607Y-91925382D01*
X96168918Y-91743338D01*
X96168911Y-91743330D01*
X96006670Y-91581089D01*
X96006661Y-91581081D01*
X95824617Y-91441392D01*
X95625890Y-91326657D01*
X95625876Y-91326650D01*
X95413887Y-91238842D01*
X95192238Y-91179452D01*
X95154215Y-91174446D01*
X94964741Y-91149500D01*
X94964734Y-91149500D01*
X92735266Y-91149500D01*
X92735258Y-91149500D01*
X92518715Y-91178009D01*
X92507762Y-91179452D01*
X92414076Y-91204554D01*
X92286112Y-91238842D01*
X92074123Y-91326650D01*
X92074109Y-91326657D01*
X91875382Y-91441392D01*
X91693338Y-91581081D01*
X91531081Y-91743338D01*
X91391392Y-91925382D01*
X91276657Y-92124109D01*
X91276650Y-92124123D01*
X91188842Y-92336112D01*
X91129453Y-92557759D01*
X91129451Y-92557770D01*
X91099500Y-92785258D01*
X58811381Y-92785258D01*
X58855220Y-92699219D01*
X58918477Y-92504534D01*
X58950500Y-92302352D01*
X58950500Y-92097648D01*
X58935034Y-92000001D01*
X58918477Y-91895465D01*
X58869048Y-91743339D01*
X58855220Y-91700781D01*
X58855218Y-91700778D01*
X58855218Y-91700776D01*
X58821503Y-91634607D01*
X58762287Y-91518390D01*
X58714308Y-91452352D01*
X58641971Y-91352786D01*
X58497213Y-91208028D01*
X58331613Y-91087715D01*
X58331612Y-91087714D01*
X58331610Y-91087713D01*
X58248694Y-91045465D01*
X58149223Y-90994781D01*
X57954534Y-90931522D01*
X57877407Y-90919307D01*
X57833394Y-90912336D01*
X57752352Y-90899500D01*
X57547648Y-90899500D01*
X57523329Y-90903351D01*
X57345465Y-90931522D01*
X57150776Y-90994781D01*
X56968386Y-91087715D01*
X56802786Y-91208028D01*
X56658028Y-91352786D01*
X56537715Y-91518386D01*
X56444781Y-91700776D01*
X56381522Y-91895465D01*
X56349500Y-92097648D01*
X11500500Y-92097648D01*
X11500500Y-90799983D01*
X72389500Y-90799983D01*
X72389500Y-92000001D01*
X72389501Y-92000018D01*
X72400000Y-92102796D01*
X72400001Y-92102799D01*
X72455185Y-92269331D01*
X72455187Y-92269336D01*
X72490069Y-92325888D01*
X72547288Y-92418656D01*
X72671344Y-92542712D01*
X72820666Y-92634814D01*
X72987203Y-92689999D01*
X73089991Y-92700500D01*
X74290008Y-92700499D01*
X74302539Y-92699219D01*
X74307895Y-92698671D01*
X74392797Y-92689999D01*
X74559334Y-92634814D01*
X74708656Y-92542712D01*
X74832712Y-92418656D01*
X74924814Y-92269334D01*
X74979999Y-92102797D01*
X74990500Y-92000009D01*
X74990499Y-91297648D01*
X80009500Y-91297648D01*
X80009500Y-91502351D01*
X80041522Y-91704534D01*
X80104781Y-91899223D01*
X80197715Y-92081613D01*
X80318028Y-92247213D01*
X80462786Y-92391971D01*
X80559566Y-92462284D01*
X80628390Y-92512287D01*
X80744607Y-92571503D01*
X80810776Y-92605218D01*
X80810778Y-92605218D01*
X80810781Y-92605220D01*
X80901856Y-92634812D01*
X81005465Y-92668477D01*
X81106557Y-92684488D01*
X81207648Y-92700500D01*
X81207649Y-92700500D01*
X81412351Y-92700500D01*
X81412352Y-92700500D01*
X81614534Y-92668477D01*
X81614537Y-92668476D01*
X81614538Y-92668476D01*
X81630541Y-92663276D01*
X81630542Y-92663276D01*
X81686005Y-92645254D01*
X81809219Y-92605220D01*
X81991610Y-92512287D01*
X82120482Y-92418657D01*
X82157213Y-92391971D01*
X82157215Y-92391968D01*
X82157219Y-92391966D01*
X82301966Y-92247219D01*
X82301968Y-92247215D01*
X82301971Y-92247213D01*
X82354732Y-92174590D01*
X82422287Y-92081610D01*
X82515220Y-91899219D01*
X82578477Y-91704534D01*
X82610500Y-91502352D01*
X82610500Y-91297648D01*
X82602581Y-91247648D01*
X84104500Y-91247648D01*
X84104500Y-91452351D01*
X84136522Y-91654534D01*
X84199781Y-91849223D01*
X84263691Y-91974653D01*
X84276611Y-92000009D01*
X84292715Y-92031613D01*
X84413028Y-92197213D01*
X84557786Y-92341971D01*
X84712749Y-92454556D01*
X84723390Y-92462287D01*
X84839607Y-92521503D01*
X84905776Y-92555218D01*
X84905778Y-92555218D01*
X84905781Y-92555220D01*
X85010137Y-92589127D01*
X85100465Y-92618477D01*
X85201557Y-92634488D01*
X85302648Y-92650500D01*
X85302649Y-92650500D01*
X85507351Y-92650500D01*
X85507352Y-92650500D01*
X85709534Y-92618477D01*
X85904219Y-92555220D01*
X86086610Y-92462287D01*
X86179590Y-92394732D01*
X86252213Y-92341971D01*
X86252215Y-92341968D01*
X86252219Y-92341966D01*
X86396966Y-92197219D01*
X86396968Y-92197215D01*
X86396971Y-92197213D01*
X86517284Y-92031614D01*
X86517285Y-92031613D01*
X86517287Y-92031610D01*
X86564516Y-91938917D01*
X86612489Y-91888123D01*
X86680310Y-91871328D01*
X86746445Y-91893865D01*
X86785483Y-91938917D01*
X86816615Y-92000016D01*
X86832715Y-92031614D01*
X86953028Y-92197213D01*
X87097786Y-92341971D01*
X87252749Y-92454556D01*
X87263390Y-92462287D01*
X87379607Y-92521503D01*
X87445776Y-92555218D01*
X87445778Y-92555218D01*
X87445781Y-92555220D01*
X87550137Y-92589127D01*
X87640465Y-92618477D01*
X87741557Y-92634488D01*
X87842648Y-92650500D01*
X87842649Y-92650500D01*
X88047351Y-92650500D01*
X88047352Y-92650500D01*
X88249534Y-92618477D01*
X88444219Y-92555220D01*
X88626610Y-92462287D01*
X88719590Y-92394732D01*
X88792213Y-92341971D01*
X88792215Y-92341968D01*
X88792219Y-92341966D01*
X88936966Y-92197219D01*
X88936968Y-92197215D01*
X88936971Y-92197213D01*
X88990083Y-92124109D01*
X89057287Y-92031610D01*
X89150220Y-91849219D01*
X89213477Y-91654534D01*
X89245500Y-91452352D01*
X89245500Y-91247648D01*
X89234699Y-91179452D01*
X89213477Y-91045465D01*
X89150218Y-90850776D01*
X89071968Y-90697204D01*
X89057287Y-90668390D01*
X89049556Y-90657749D01*
X88936971Y-90502786D01*
X88792213Y-90358028D01*
X88626613Y-90237715D01*
X88626612Y-90237714D01*
X88626610Y-90237713D01*
X88569653Y-90208691D01*
X88444223Y-90144781D01*
X88249534Y-90081522D01*
X88074995Y-90053878D01*
X88047352Y-90049500D01*
X87842648Y-90049500D01*
X87818329Y-90053351D01*
X87640465Y-90081522D01*
X87445776Y-90144781D01*
X87263386Y-90237715D01*
X87097786Y-90358028D01*
X86953028Y-90502786D01*
X86832715Y-90668386D01*
X86785485Y-90761080D01*
X86737510Y-90811876D01*
X86669689Y-90828671D01*
X86603554Y-90806134D01*
X86564515Y-90761080D01*
X86531968Y-90697204D01*
X86517287Y-90668390D01*
X86509556Y-90657749D01*
X86396971Y-90502786D01*
X86252213Y-90358028D01*
X86086613Y-90237715D01*
X86086612Y-90237714D01*
X86086610Y-90237713D01*
X86029653Y-90208691D01*
X85904223Y-90144781D01*
X85709534Y-90081522D01*
X85534995Y-90053878D01*
X85507352Y-90049500D01*
X85302648Y-90049500D01*
X85278329Y-90053351D01*
X85100465Y-90081522D01*
X84905776Y-90144781D01*
X84723386Y-90237715D01*
X84557786Y-90358028D01*
X84413028Y-90502786D01*
X84292715Y-90668386D01*
X84199781Y-90850776D01*
X84136522Y-91045465D01*
X84104500Y-91247648D01*
X82602581Y-91247648D01*
X82578477Y-91095466D01*
X82515220Y-90900781D01*
X82515218Y-90900778D01*
X82515218Y-90900776D01*
X82478478Y-90828671D01*
X82422287Y-90718390D01*
X82406892Y-90697200D01*
X82301971Y-90552786D01*
X82157213Y-90408028D01*
X81991613Y-90287715D01*
X81991612Y-90287714D01*
X81991610Y-90287713D01*
X81893480Y-90237713D01*
X81809223Y-90194781D01*
X81614534Y-90131522D01*
X81439995Y-90103878D01*
X81412352Y-90099500D01*
X81207648Y-90099500D01*
X81183329Y-90103351D01*
X81005465Y-90131522D01*
X80810776Y-90194781D01*
X80628386Y-90287715D01*
X80462786Y-90408028D01*
X80318028Y-90552786D01*
X80197715Y-90718386D01*
X80104781Y-90900776D01*
X80041522Y-91095465D01*
X80009500Y-91297648D01*
X74990499Y-91297648D01*
X74990499Y-90799992D01*
X74979999Y-90697203D01*
X74924814Y-90530666D01*
X74832712Y-90381344D01*
X74708656Y-90257288D01*
X74559334Y-90165186D01*
X74392797Y-90110001D01*
X74392795Y-90110000D01*
X74290010Y-90099500D01*
X73089998Y-90099500D01*
X73089981Y-90099501D01*
X72987203Y-90110000D01*
X72987200Y-90110001D01*
X72820668Y-90165185D01*
X72820663Y-90165187D01*
X72671342Y-90257289D01*
X72547289Y-90381342D01*
X72455187Y-90530663D01*
X72455186Y-90530666D01*
X72400001Y-90697203D01*
X72400001Y-90697204D01*
X72400000Y-90697204D01*
X72389500Y-90799983D01*
X11500500Y-90799983D01*
X11500500Y-88497648D01*
X13509500Y-88497648D01*
X13509500Y-88702352D01*
X13513759Y-88729239D01*
X13541522Y-88904534D01*
X13604781Y-89099223D01*
X13656385Y-89200499D01*
X13695961Y-89278172D01*
X13697715Y-89281613D01*
X13818028Y-89447213D01*
X13962786Y-89591971D01*
X14058981Y-89661859D01*
X14128390Y-89712287D01*
X14243214Y-89770793D01*
X14310776Y-89805218D01*
X14310778Y-89805218D01*
X14310781Y-89805220D01*
X14415137Y-89839127D01*
X14505465Y-89868477D01*
X14606557Y-89884488D01*
X14707648Y-89900500D01*
X14707649Y-89900500D01*
X14912351Y-89900500D01*
X14912352Y-89900500D01*
X15114534Y-89868477D01*
X15309219Y-89805220D01*
X15491610Y-89712287D01*
X15584590Y-89644732D01*
X15657213Y-89591971D01*
X15657215Y-89591968D01*
X15657219Y-89591966D01*
X15801966Y-89447219D01*
X15801968Y-89447215D01*
X15801971Y-89447213D01*
X15922284Y-89281614D01*
X15922285Y-89281613D01*
X15922287Y-89281610D01*
X15969516Y-89188917D01*
X16017489Y-89138123D01*
X16085310Y-89121328D01*
X16151445Y-89143865D01*
X16190483Y-89188917D01*
X16212104Y-89231349D01*
X16237715Y-89281614D01*
X16358028Y-89447213D01*
X16502786Y-89591971D01*
X16598981Y-89661859D01*
X16668390Y-89712287D01*
X16783214Y-89770793D01*
X16850776Y-89805218D01*
X16850778Y-89805218D01*
X16850781Y-89805220D01*
X16955137Y-89839127D01*
X17045465Y-89868477D01*
X17146557Y-89884488D01*
X17247648Y-89900500D01*
X17247649Y-89900500D01*
X17452351Y-89900500D01*
X17452352Y-89900500D01*
X17654534Y-89868477D01*
X17849219Y-89805220D01*
X18031610Y-89712287D01*
X18124590Y-89644732D01*
X18197213Y-89591971D01*
X18197215Y-89591968D01*
X18197219Y-89591966D01*
X18341966Y-89447219D01*
X18341968Y-89447215D01*
X18341971Y-89447213D01*
X18425960Y-89331610D01*
X18462287Y-89281610D01*
X18555220Y-89099219D01*
X18618477Y-88904534D01*
X18650500Y-88702352D01*
X18650500Y-88497648D01*
X18642581Y-88447648D01*
X19309500Y-88447648D01*
X19309500Y-88652351D01*
X19341522Y-88854534D01*
X19404781Y-89049223D01*
X19463457Y-89164379D01*
X19497585Y-89231359D01*
X19497715Y-89231613D01*
X19618028Y-89397213D01*
X19762786Y-89541971D01*
X19883226Y-89629474D01*
X19928390Y-89662287D01*
X20044607Y-89721503D01*
X20110776Y-89755218D01*
X20110778Y-89755218D01*
X20110781Y-89755220D01*
X20215137Y-89789127D01*
X20305465Y-89818477D01*
X20406557Y-89834488D01*
X20507648Y-89850500D01*
X20507649Y-89850500D01*
X20712351Y-89850500D01*
X20712352Y-89850500D01*
X20914534Y-89818477D01*
X21109219Y-89755220D01*
X21291610Y-89662287D01*
X21387459Y-89592649D01*
X21457213Y-89541971D01*
X21457215Y-89541968D01*
X21457219Y-89541966D01*
X21601966Y-89397219D01*
X21601968Y-89397215D01*
X21601971Y-89397213D01*
X21722286Y-89231611D01*
X21722415Y-89231359D01*
X21769795Y-89138369D01*
X21817769Y-89087573D01*
X21885590Y-89070778D01*
X21951725Y-89093315D01*
X21990765Y-89138369D01*
X22038141Y-89231350D01*
X22038147Y-89231359D01*
X22070523Y-89275921D01*
X22070524Y-89275922D01*
X22750000Y-88596446D01*
X22750000Y-88602661D01*
X22777259Y-88704394D01*
X22829920Y-88795606D01*
X22904394Y-88870080D01*
X22995606Y-88922741D01*
X23097339Y-88950000D01*
X23103553Y-88950000D01*
X22424076Y-89629474D01*
X22468650Y-89661859D01*
X22650968Y-89754755D01*
X22845582Y-89817990D01*
X23047683Y-89850000D01*
X23252317Y-89850000D01*
X23454417Y-89817990D01*
X23649031Y-89754755D01*
X23831349Y-89661859D01*
X23875921Y-89629474D01*
X23196447Y-88950000D01*
X23202661Y-88950000D01*
X23304394Y-88922741D01*
X23395606Y-88870080D01*
X23470080Y-88795606D01*
X23522741Y-88704394D01*
X23550000Y-88602661D01*
X23550000Y-88596447D01*
X24229474Y-89275921D01*
X24261859Y-89231349D01*
X24354755Y-89049031D01*
X24417989Y-88854417D01*
X24437816Y-88729240D01*
X24437816Y-88729239D01*
X24450000Y-88652316D01*
X24450000Y-88447682D01*
X24417990Y-88245582D01*
X24354755Y-88050968D01*
X24261859Y-87868650D01*
X24229474Y-87824077D01*
X24229474Y-87824076D01*
X23550000Y-88503551D01*
X23550000Y-88497339D01*
X23522741Y-88395606D01*
X23470080Y-88304394D01*
X23395606Y-88229920D01*
X23304394Y-88177259D01*
X23202661Y-88150000D01*
X23196446Y-88150000D01*
X23696434Y-87650013D01*
X33940000Y-87650013D01*
X33940000Y-88300000D01*
X35049252Y-88300000D01*
X35027482Y-88337708D01*
X34990000Y-88477591D01*
X34990000Y-88622409D01*
X35027482Y-88762292D01*
X35049252Y-88800000D01*
X33940001Y-88800000D01*
X33940001Y-89449986D01*
X33950494Y-89552696D01*
X33950494Y-89552698D01*
X34005640Y-89719119D01*
X34005645Y-89719130D01*
X34097680Y-89868340D01*
X34097683Y-89868344D01*
X34221655Y-89992316D01*
X34221659Y-89992319D01*
X34370869Y-90084354D01*
X34370880Y-90084359D01*
X34537302Y-90139505D01*
X34640019Y-90149999D01*
X35289999Y-90149999D01*
X35290000Y-90149998D01*
X35290000Y-89040747D01*
X35327708Y-89062518D01*
X35467591Y-89100000D01*
X35612409Y-89100000D01*
X35752292Y-89062518D01*
X35790000Y-89040747D01*
X35790000Y-90149999D01*
X36439972Y-90149999D01*
X36439986Y-90149998D01*
X36542696Y-90139505D01*
X36542698Y-90139505D01*
X36709119Y-90084359D01*
X36709130Y-90084354D01*
X36858340Y-89992319D01*
X36858344Y-89992316D01*
X36982316Y-89868344D01*
X36982319Y-89868340D01*
X37074354Y-89719130D01*
X37074359Y-89719119D01*
X37129505Y-89552697D01*
X37139999Y-89449986D01*
X37140000Y-89449973D01*
X37140000Y-88800000D01*
X36030748Y-88800000D01*
X36052518Y-88762292D01*
X36090000Y-88622409D01*
X36090000Y-88477591D01*
X36075650Y-88424038D01*
X44099500Y-88424038D01*
X44099500Y-88675962D01*
X44135547Y-88903553D01*
X44138910Y-88924785D01*
X44216760Y-89164383D01*
X44331132Y-89388848D01*
X44479201Y-89592649D01*
X44479205Y-89592654D01*
X44657345Y-89770794D01*
X44657350Y-89770798D01*
X44773545Y-89855218D01*
X44861155Y-89918870D01*
X45004184Y-89991747D01*
X45085616Y-90033239D01*
X45085618Y-90033239D01*
X45085621Y-90033241D01*
X45325215Y-90111090D01*
X45574038Y-90150500D01*
X45574039Y-90150500D01*
X45825961Y-90150500D01*
X45825962Y-90150500D01*
X46074785Y-90111090D01*
X46314379Y-90033241D01*
X46538845Y-89918870D01*
X46742656Y-89770793D01*
X46920793Y-89592656D01*
X47068870Y-89388845D01*
X47183241Y-89164379D01*
X47261090Y-88924785D01*
X47300500Y-88675962D01*
X47300500Y-88424038D01*
X47261090Y-88175215D01*
X47183241Y-87935621D01*
X47183239Y-87935618D01*
X47183239Y-87935616D01*
X47134774Y-87840500D01*
X47068870Y-87711155D01*
X47049952Y-87685117D01*
X46920798Y-87507350D01*
X46920794Y-87507345D01*
X46742654Y-87329205D01*
X46742649Y-87329201D01*
X46538848Y-87181132D01*
X46538847Y-87181131D01*
X46538845Y-87181130D01*
X46461981Y-87141966D01*
X46314383Y-87066760D01*
X46074785Y-86988910D01*
X45825962Y-86949500D01*
X45574038Y-86949500D01*
X45449626Y-86969205D01*
X45325214Y-86988910D01*
X45085616Y-87066760D01*
X44861151Y-87181132D01*
X44657350Y-87329201D01*
X44657345Y-87329205D01*
X44479205Y-87507345D01*
X44479201Y-87507350D01*
X44331132Y-87711151D01*
X44216760Y-87935616D01*
X44138910Y-88175214D01*
X44127783Y-88245465D01*
X44099500Y-88424038D01*
X36075650Y-88424038D01*
X36052518Y-88337708D01*
X36030748Y-88300000D01*
X37139999Y-88300000D01*
X37139999Y-87650028D01*
X37139998Y-87650013D01*
X37129505Y-87547303D01*
X37129505Y-87547301D01*
X37074359Y-87380880D01*
X37074354Y-87380869D01*
X36982319Y-87231659D01*
X36982316Y-87231655D01*
X36858344Y-87107683D01*
X36858340Y-87107680D01*
X36709130Y-87015645D01*
X36709119Y-87015640D01*
X36542697Y-86960494D01*
X36439986Y-86950000D01*
X35790000Y-86950000D01*
X35790000Y-88059252D01*
X35752292Y-88037482D01*
X35612409Y-88000000D01*
X35467591Y-88000000D01*
X35327708Y-88037482D01*
X35290000Y-88059252D01*
X35290000Y-86950000D01*
X34640028Y-86950000D01*
X34640012Y-86950001D01*
X34537303Y-86960494D01*
X34537301Y-86960494D01*
X34370880Y-87015640D01*
X34370869Y-87015645D01*
X34221659Y-87107680D01*
X34221655Y-87107683D01*
X34097683Y-87231655D01*
X34097680Y-87231659D01*
X34005645Y-87380869D01*
X34005640Y-87380880D01*
X33950494Y-87547302D01*
X33940000Y-87650013D01*
X23696434Y-87650013D01*
X23787264Y-87559183D01*
X23875922Y-87470524D01*
X23875921Y-87470523D01*
X23831359Y-87438147D01*
X23831350Y-87438141D01*
X23649031Y-87345244D01*
X23454417Y-87282009D01*
X23252317Y-87250000D01*
X23047683Y-87250000D01*
X22845582Y-87282009D01*
X22650968Y-87345244D01*
X22468644Y-87438143D01*
X22424077Y-87470523D01*
X22424077Y-87470524D01*
X23103554Y-88150000D01*
X23097339Y-88150000D01*
X22995606Y-88177259D01*
X22904394Y-88229920D01*
X22829920Y-88304394D01*
X22777259Y-88395606D01*
X22750000Y-88497339D01*
X22750000Y-88503553D01*
X22070524Y-87824077D01*
X22070523Y-87824077D01*
X22038143Y-87868644D01*
X21990765Y-87961630D01*
X21942790Y-88012426D01*
X21874969Y-88029221D01*
X21808834Y-88006683D01*
X21769795Y-87961630D01*
X21722284Y-87868385D01*
X21601971Y-87702786D01*
X21457213Y-87558028D01*
X21291613Y-87437715D01*
X21291612Y-87437714D01*
X21291610Y-87437713D01*
X21234653Y-87408691D01*
X21109223Y-87344781D01*
X20914534Y-87281522D01*
X20739995Y-87253878D01*
X20712352Y-87249500D01*
X20507648Y-87249500D01*
X20483329Y-87253351D01*
X20305465Y-87281522D01*
X20110776Y-87344781D01*
X19928386Y-87437715D01*
X19762786Y-87558028D01*
X19618028Y-87702786D01*
X19497715Y-87868386D01*
X19404781Y-88050776D01*
X19341522Y-88245465D01*
X19309500Y-88447648D01*
X18642581Y-88447648D01*
X18622345Y-88319886D01*
X18631300Y-88250592D01*
X18657134Y-88212810D01*
X26387126Y-80482819D01*
X26448449Y-80449334D01*
X26474807Y-80446500D01*
X37193071Y-80446500D01*
X37277615Y-80429682D01*
X37318744Y-80421501D01*
X37437127Y-80372465D01*
X37462489Y-80355519D01*
X37478758Y-80344649D01*
X37496015Y-80333118D01*
X37543669Y-80301277D01*
X39882819Y-77962125D01*
X39944142Y-77928641D01*
X40013834Y-77933625D01*
X40069767Y-77975497D01*
X40094184Y-78040961D01*
X40094500Y-78049807D01*
X40094500Y-78172352D01*
X40099609Y-78204611D01*
X40122654Y-78350111D01*
X40113699Y-78419405D01*
X40087862Y-78457190D01*
X36049305Y-82495747D01*
X35987982Y-82529232D01*
X35923307Y-82525997D01*
X35909542Y-82521524D01*
X35909535Y-82521523D01*
X35746793Y-82495747D01*
X35707352Y-82489500D01*
X35502648Y-82489500D01*
X35478329Y-82493351D01*
X35300465Y-82521522D01*
X35105776Y-82584781D01*
X34923386Y-82677715D01*
X34757786Y-82798028D01*
X34613028Y-82942786D01*
X34492715Y-83108386D01*
X34399781Y-83290776D01*
X34336522Y-83485465D01*
X34304500Y-83687648D01*
X34304500Y-83892351D01*
X34336522Y-84094534D01*
X34399781Y-84289223D01*
X34492715Y-84471613D01*
X34613028Y-84637213D01*
X34757786Y-84781971D01*
X34858607Y-84855220D01*
X34923390Y-84902287D01*
X35012416Y-84947648D01*
X35105776Y-84995218D01*
X35105778Y-84995218D01*
X35105781Y-84995220D01*
X35152759Y-85010484D01*
X35300465Y-85058477D01*
X35401557Y-85074488D01*
X35502648Y-85090500D01*
X35502649Y-85090500D01*
X35707351Y-85090500D01*
X35707352Y-85090500D01*
X35909534Y-85058477D01*
X36104219Y-84995220D01*
X36286610Y-84902287D01*
X36388096Y-84828554D01*
X36452213Y-84781971D01*
X36452215Y-84781968D01*
X36452219Y-84781966D01*
X36596966Y-84637219D01*
X36596968Y-84637215D01*
X36596971Y-84637213D01*
X36717284Y-84471614D01*
X36717285Y-84471613D01*
X36717287Y-84471610D01*
X36764516Y-84378917D01*
X36812489Y-84328123D01*
X36880310Y-84311328D01*
X36946445Y-84333865D01*
X36985485Y-84378919D01*
X37032715Y-84471614D01*
X37153028Y-84637213D01*
X37297786Y-84781971D01*
X37398607Y-84855220D01*
X37463390Y-84902287D01*
X37552416Y-84947648D01*
X37645776Y-84995218D01*
X37645778Y-84995218D01*
X37645781Y-84995220D01*
X37692759Y-85010484D01*
X37840465Y-85058477D01*
X37941557Y-85074488D01*
X38042648Y-85090500D01*
X38042649Y-85090500D01*
X38247351Y-85090500D01*
X38247352Y-85090500D01*
X38449534Y-85058477D01*
X38644219Y-84995220D01*
X38737584Y-84947648D01*
X45904500Y-84947648D01*
X45904500Y-85152351D01*
X45936522Y-85354534D01*
X45999781Y-85549223D01*
X46057847Y-85663181D01*
X46091613Y-85729452D01*
X46092715Y-85731613D01*
X46213028Y-85897213D01*
X46357786Y-86041971D01*
X46480438Y-86131081D01*
X46523390Y-86162287D01*
X46637995Y-86220681D01*
X46705776Y-86255218D01*
X46705778Y-86255218D01*
X46705781Y-86255220D01*
X46810137Y-86289127D01*
X46900465Y-86318477D01*
X47001557Y-86334488D01*
X47102648Y-86350500D01*
X47102649Y-86350500D01*
X47307351Y-86350500D01*
X47307352Y-86350500D01*
X47509534Y-86318477D01*
X47704219Y-86255220D01*
X47886610Y-86162287D01*
X47979590Y-86094732D01*
X48052213Y-86041971D01*
X48052215Y-86041968D01*
X48052219Y-86041966D01*
X48196966Y-85897219D01*
X48196968Y-85897215D01*
X48196971Y-85897213D01*
X48317284Y-85731614D01*
X48317285Y-85731613D01*
X48317287Y-85731610D01*
X48364516Y-85638917D01*
X48412489Y-85588123D01*
X48480310Y-85571328D01*
X48546445Y-85593865D01*
X48585485Y-85638919D01*
X48632715Y-85731614D01*
X48753028Y-85897213D01*
X48897786Y-86041971D01*
X49020438Y-86131081D01*
X49063390Y-86162287D01*
X49177995Y-86220681D01*
X49245776Y-86255218D01*
X49245778Y-86255218D01*
X49245781Y-86255220D01*
X49350137Y-86289127D01*
X49440465Y-86318477D01*
X49541557Y-86334488D01*
X49642648Y-86350500D01*
X49642649Y-86350500D01*
X49847351Y-86350500D01*
X49847352Y-86350500D01*
X50049534Y-86318477D01*
X50244219Y-86255220D01*
X50426610Y-86162287D01*
X50519590Y-86094732D01*
X50592213Y-86041971D01*
X50592215Y-86041968D01*
X50592219Y-86041966D01*
X50736966Y-85897219D01*
X50736968Y-85897215D01*
X50736971Y-85897213D01*
X50815706Y-85788842D01*
X50857287Y-85731610D01*
X50950220Y-85549219D01*
X51013477Y-85354534D01*
X51045500Y-85152352D01*
X51045500Y-84947648D01*
X51859500Y-84947648D01*
X51859500Y-85152351D01*
X51891522Y-85354534D01*
X51954781Y-85549223D01*
X52012847Y-85663181D01*
X52046613Y-85729452D01*
X52047715Y-85731613D01*
X52168028Y-85897213D01*
X52312786Y-86041971D01*
X52435438Y-86131081D01*
X52478390Y-86162287D01*
X52592995Y-86220681D01*
X52660776Y-86255218D01*
X52660778Y-86255218D01*
X52660781Y-86255220D01*
X52765137Y-86289127D01*
X52855465Y-86318477D01*
X52956557Y-86334488D01*
X53057648Y-86350500D01*
X53057649Y-86350500D01*
X53262351Y-86350500D01*
X53262352Y-86350500D01*
X53464534Y-86318477D01*
X53659219Y-86255220D01*
X53841610Y-86162287D01*
X53934590Y-86094732D01*
X54007213Y-86041971D01*
X54007215Y-86041968D01*
X54007219Y-86041966D01*
X54151966Y-85897219D01*
X54151968Y-85897215D01*
X54151971Y-85897213D01*
X54272284Y-85731614D01*
X54272285Y-85731613D01*
X54272287Y-85731610D01*
X54319516Y-85638917D01*
X54367489Y-85588123D01*
X54435310Y-85571328D01*
X54501445Y-85593865D01*
X54540485Y-85638919D01*
X54587715Y-85731614D01*
X54708028Y-85897213D01*
X54852786Y-86041971D01*
X54975438Y-86131081D01*
X55018390Y-86162287D01*
X55132995Y-86220681D01*
X55200776Y-86255218D01*
X55200778Y-86255218D01*
X55200781Y-86255220D01*
X55305137Y-86289127D01*
X55395465Y-86318477D01*
X55496557Y-86334488D01*
X55597648Y-86350500D01*
X55597649Y-86350500D01*
X55802351Y-86350500D01*
X55802352Y-86350500D01*
X56004534Y-86318477D01*
X56199219Y-86255220D01*
X56381610Y-86162287D01*
X56474590Y-86094732D01*
X56547213Y-86041971D01*
X56547215Y-86041968D01*
X56547219Y-86041966D01*
X56691966Y-85897219D01*
X56691968Y-85897215D01*
X56691971Y-85897213D01*
X56770706Y-85788842D01*
X56812287Y-85731610D01*
X56905220Y-85549219D01*
X56968477Y-85354534D01*
X57000500Y-85152352D01*
X57000500Y-84947648D01*
X56968477Y-84745466D01*
X56905220Y-84550781D01*
X56905218Y-84550778D01*
X56905218Y-84550776D01*
X56859515Y-84461080D01*
X56812287Y-84368390D01*
X56804556Y-84357749D01*
X56691971Y-84202786D01*
X56547213Y-84058028D01*
X56381613Y-83937715D01*
X56381612Y-83937714D01*
X56381610Y-83937713D01*
X56302978Y-83897648D01*
X56199223Y-83844781D01*
X56004534Y-83781522D01*
X55829995Y-83753878D01*
X55802352Y-83749500D01*
X55597648Y-83749500D01*
X55573329Y-83753351D01*
X55395465Y-83781522D01*
X55200776Y-83844781D01*
X55018386Y-83937715D01*
X54852786Y-84058028D01*
X54708028Y-84202786D01*
X54587715Y-84368386D01*
X54540485Y-84461080D01*
X54492510Y-84511876D01*
X54424689Y-84528671D01*
X54358554Y-84506134D01*
X54319515Y-84461080D01*
X54318883Y-84459840D01*
X54272287Y-84368390D01*
X54264556Y-84357749D01*
X54151971Y-84202786D01*
X54007213Y-84058028D01*
X53841613Y-83937715D01*
X53841612Y-83937714D01*
X53841610Y-83937713D01*
X53762978Y-83897648D01*
X53659223Y-83844781D01*
X53464534Y-83781522D01*
X53289995Y-83753878D01*
X53262352Y-83749500D01*
X53057648Y-83749500D01*
X53033329Y-83753351D01*
X52855465Y-83781522D01*
X52660776Y-83844781D01*
X52478386Y-83937715D01*
X52312786Y-84058028D01*
X52168028Y-84202786D01*
X52047715Y-84368386D01*
X51954781Y-84550776D01*
X51891522Y-84745465D01*
X51859500Y-84947648D01*
X51045500Y-84947648D01*
X51013477Y-84745466D01*
X50950220Y-84550781D01*
X50950218Y-84550778D01*
X50950218Y-84550776D01*
X50904515Y-84461080D01*
X50857287Y-84368390D01*
X50849556Y-84357749D01*
X50736971Y-84202786D01*
X50592213Y-84058028D01*
X50426613Y-83937715D01*
X50426612Y-83937714D01*
X50426610Y-83937713D01*
X50347978Y-83897648D01*
X50244223Y-83844781D01*
X50049534Y-83781522D01*
X49874995Y-83753878D01*
X49847352Y-83749500D01*
X49642648Y-83749500D01*
X49618329Y-83753351D01*
X49440465Y-83781522D01*
X49245776Y-83844781D01*
X49063386Y-83937715D01*
X48897786Y-84058028D01*
X48753028Y-84202786D01*
X48632715Y-84368386D01*
X48585485Y-84461080D01*
X48537510Y-84511876D01*
X48469689Y-84528671D01*
X48403554Y-84506134D01*
X48364515Y-84461080D01*
X48363883Y-84459840D01*
X48317287Y-84368390D01*
X48309556Y-84357749D01*
X48196971Y-84202786D01*
X48052213Y-84058028D01*
X47886613Y-83937715D01*
X47886612Y-83937714D01*
X47886610Y-83937713D01*
X47807978Y-83897648D01*
X47704223Y-83844781D01*
X47509534Y-83781522D01*
X47334995Y-83753878D01*
X47307352Y-83749500D01*
X47102648Y-83749500D01*
X47078329Y-83753351D01*
X46900465Y-83781522D01*
X46705776Y-83844781D01*
X46523386Y-83937715D01*
X46357786Y-84058028D01*
X46213028Y-84202786D01*
X46092715Y-84368386D01*
X45999781Y-84550776D01*
X45936522Y-84745465D01*
X45904500Y-84947648D01*
X38737584Y-84947648D01*
X38826610Y-84902287D01*
X38992219Y-84781966D01*
X39136966Y-84637219D01*
X39136968Y-84637215D01*
X39136971Y-84637213D01*
X39237225Y-84499223D01*
X39257287Y-84471610D01*
X39350220Y-84289219D01*
X39413477Y-84094534D01*
X39445500Y-83892352D01*
X39445500Y-83687648D01*
X39423326Y-83547648D01*
X60999500Y-83547648D01*
X60999500Y-83752351D01*
X61031522Y-83954534D01*
X61094781Y-84149223D01*
X61158691Y-84274653D01*
X61185936Y-84328123D01*
X61187715Y-84331613D01*
X61308028Y-84497213D01*
X61452786Y-84641971D01*
X61618388Y-84762286D01*
X61671828Y-84789516D01*
X61722623Y-84837490D01*
X61739418Y-84905312D01*
X61716880Y-84971446D01*
X61671828Y-85010484D01*
X61618388Y-85037713D01*
X61452786Y-85158028D01*
X61452782Y-85158032D01*
X61308034Y-85302781D01*
X61308032Y-85302783D01*
X61187715Y-85468386D01*
X61094781Y-85650776D01*
X61031522Y-85845465D01*
X60999500Y-86047648D01*
X60999500Y-86252351D01*
X61031522Y-86454534D01*
X61094781Y-86649223D01*
X61187715Y-86831613D01*
X61308028Y-86997213D01*
X61452786Y-87141971D01*
X61600790Y-87249500D01*
X61618390Y-87262287D01*
X61691425Y-87299500D01*
X61800776Y-87355218D01*
X61800778Y-87355218D01*
X61800781Y-87355220D01*
X61899245Y-87387213D01*
X61995465Y-87418477D01*
X62096557Y-87434488D01*
X62197648Y-87450500D01*
X62197649Y-87450500D01*
X62402351Y-87450500D01*
X62402352Y-87450500D01*
X62604534Y-87418477D01*
X62799219Y-87355220D01*
X62981610Y-87262287D01*
X63093314Y-87181130D01*
X63147213Y-87141971D01*
X63147215Y-87141968D01*
X63147219Y-87141966D01*
X63291966Y-86997219D01*
X63291968Y-86997215D01*
X63291971Y-86997213D01*
X63344732Y-86924590D01*
X63412287Y-86831610D01*
X63505220Y-86649219D01*
X63568477Y-86454534D01*
X63600500Y-86252352D01*
X63600500Y-86047648D01*
X63570524Y-85858390D01*
X63568477Y-85845465D01*
X63518868Y-85692786D01*
X63505220Y-85650781D01*
X63505218Y-85650778D01*
X63505218Y-85650776D01*
X63464737Y-85571328D01*
X63412287Y-85468390D01*
X63346191Y-85377416D01*
X63291968Y-85302783D01*
X63147213Y-85158028D01*
X62981613Y-85037715D01*
X62981612Y-85037714D01*
X62981610Y-85037713D01*
X62928171Y-85010484D01*
X62877376Y-84962510D01*
X62860581Y-84894689D01*
X62883118Y-84828554D01*
X62928172Y-84789515D01*
X62981610Y-84762287D01*
X63092653Y-84681610D01*
X63147213Y-84641971D01*
X63147215Y-84641968D01*
X63147219Y-84641966D01*
X63291966Y-84497219D01*
X63291968Y-84497215D01*
X63291971Y-84497213D01*
X63377915Y-84378919D01*
X63412287Y-84331610D01*
X63505220Y-84149219D01*
X63568477Y-83954534D01*
X63600500Y-83752352D01*
X63600500Y-83547648D01*
X63568477Y-83345466D01*
X63559679Y-83318390D01*
X63505871Y-83152786D01*
X63505220Y-83150781D01*
X63505218Y-83150778D01*
X63505218Y-83150776D01*
X63456292Y-83054755D01*
X63412287Y-82968390D01*
X63353674Y-82887715D01*
X63291971Y-82802786D01*
X63147213Y-82658028D01*
X62981613Y-82537715D01*
X62981612Y-82537714D01*
X62981610Y-82537713D01*
X62924653Y-82508691D01*
X62799223Y-82444781D01*
X62604534Y-82381522D01*
X62429995Y-82353878D01*
X62402352Y-82349500D01*
X62197648Y-82349500D01*
X62173329Y-82353351D01*
X61995465Y-82381522D01*
X61800776Y-82444781D01*
X61618386Y-82537715D01*
X61452786Y-82658028D01*
X61308028Y-82802786D01*
X61187715Y-82968386D01*
X61094781Y-83150776D01*
X61031522Y-83345465D01*
X60999500Y-83547648D01*
X39423326Y-83547648D01*
X39413477Y-83485466D01*
X39350220Y-83290781D01*
X39350218Y-83290778D01*
X39350218Y-83290776D01*
X39303567Y-83199219D01*
X39257287Y-83108390D01*
X39218656Y-83055218D01*
X39136971Y-82942786D01*
X38992213Y-82798028D01*
X38826613Y-82677715D01*
X38826612Y-82677714D01*
X38826610Y-82677713D01*
X38769653Y-82648691D01*
X38644223Y-82584781D01*
X38449534Y-82521522D01*
X38274995Y-82493878D01*
X38247352Y-82489500D01*
X38194807Y-82489500D01*
X38127768Y-82469815D01*
X38082013Y-82417011D01*
X38072069Y-82347853D01*
X38101094Y-82284297D01*
X38107126Y-82277819D01*
X39882819Y-80502126D01*
X39944142Y-80468641D01*
X40013834Y-80473625D01*
X40069767Y-80515497D01*
X40094184Y-80580961D01*
X40094500Y-80589807D01*
X40094500Y-80712351D01*
X40126522Y-80914534D01*
X40189781Y-81109223D01*
X40231944Y-81191971D01*
X40273319Y-81273174D01*
X40282715Y-81291613D01*
X40403028Y-81457213D01*
X40547786Y-81601971D01*
X40693764Y-81708028D01*
X40713390Y-81722287D01*
X40829607Y-81781503D01*
X40895776Y-81815218D01*
X40895778Y-81815218D01*
X40895781Y-81815220D01*
X41000137Y-81849127D01*
X41090465Y-81878477D01*
X41191557Y-81894488D01*
X41292648Y-81910500D01*
X41292649Y-81910500D01*
X41497351Y-81910500D01*
X41497352Y-81910500D01*
X41699534Y-81878477D01*
X41894219Y-81815220D01*
X42076610Y-81722287D01*
X42181644Y-81645976D01*
X42242213Y-81601971D01*
X42242215Y-81601968D01*
X42242219Y-81601966D01*
X42386966Y-81457219D01*
X42386968Y-81457215D01*
X42386971Y-81457213D01*
X42464297Y-81350781D01*
X42507287Y-81291610D01*
X42600220Y-81109219D01*
X42663477Y-80914534D01*
X42695500Y-80712352D01*
X42695500Y-80507648D01*
X42681856Y-80421502D01*
X42663477Y-80305465D01*
X42633390Y-80212868D01*
X42600220Y-80110781D01*
X42600218Y-80110778D01*
X42600218Y-80110776D01*
X42538196Y-79989053D01*
X42507287Y-79928390D01*
X42452042Y-79852351D01*
X42386971Y-79762786D01*
X42242213Y-79618028D01*
X42076614Y-79497715D01*
X42070006Y-79494348D01*
X41983917Y-79450483D01*
X41933123Y-79402511D01*
X41916328Y-79334690D01*
X41938865Y-79268555D01*
X41983917Y-79229516D01*
X42076610Y-79182287D01*
X42097816Y-79166880D01*
X42242213Y-79061971D01*
X42242215Y-79061968D01*
X42242219Y-79061966D01*
X42386966Y-78917219D01*
X42386968Y-78917215D01*
X42386971Y-78917213D01*
X42474079Y-78797317D01*
X42507287Y-78751610D01*
X42600220Y-78569219D01*
X42663477Y-78374534D01*
X42695500Y-78172352D01*
X42695500Y-77967648D01*
X42667345Y-77789887D01*
X42676300Y-77720594D01*
X42702137Y-77682808D01*
X43001273Y-77383672D01*
X43001276Y-77383669D01*
X43072465Y-77277127D01*
X43121501Y-77158744D01*
X43125933Y-77136465D01*
X43146500Y-77033069D01*
X43146500Y-72140771D01*
X43146500Y-72140768D01*
X43121502Y-72015101D01*
X43121501Y-72015100D01*
X43121501Y-72015096D01*
X43072465Y-71896713D01*
X43059770Y-71877713D01*
X43059768Y-71877710D01*
X43059768Y-71877709D01*
X43001279Y-71790174D01*
X43001273Y-71790166D01*
X42256833Y-71045726D01*
X42256829Y-71045723D01*
X42150287Y-70974535D01*
X42124585Y-70963889D01*
X42031904Y-70925499D01*
X42031898Y-70925497D01*
X41906231Y-70900500D01*
X41906229Y-70900500D01*
X39635543Y-70900500D01*
X39568504Y-70880815D01*
X39522749Y-70828011D01*
X39512805Y-70758853D01*
X39513070Y-70757102D01*
X39513477Y-70754534D01*
X39545500Y-70552352D01*
X39545500Y-70347648D01*
X39535705Y-70285808D01*
X39513477Y-70145465D01*
X39469267Y-70009401D01*
X39450220Y-69950781D01*
X39450218Y-69950778D01*
X39450218Y-69950776D01*
X39408722Y-69869336D01*
X39357287Y-69768390D01*
X39345950Y-69752786D01*
X39236971Y-69602786D01*
X39092213Y-69458028D01*
X38926613Y-69337715D01*
X38926612Y-69337714D01*
X38926610Y-69337713D01*
X38847978Y-69297648D01*
X38744223Y-69244781D01*
X38549534Y-69181522D01*
X38374995Y-69153878D01*
X38347352Y-69149500D01*
X38142648Y-69149500D01*
X38118329Y-69153351D01*
X37940465Y-69181522D01*
X37745776Y-69244781D01*
X37563386Y-69337715D01*
X37397786Y-69458028D01*
X37253028Y-69602786D01*
X37132715Y-69768386D01*
X37085485Y-69861080D01*
X37037510Y-69911876D01*
X36969689Y-69928671D01*
X36903554Y-69906134D01*
X36864515Y-69861080D01*
X36863883Y-69859840D01*
X36817287Y-69768390D01*
X36805950Y-69752786D01*
X36696971Y-69602786D01*
X36552213Y-69458028D01*
X36386613Y-69337715D01*
X36386612Y-69337714D01*
X36386610Y-69337713D01*
X36307978Y-69297648D01*
X36204223Y-69244781D01*
X36009534Y-69181522D01*
X35834995Y-69153878D01*
X35807352Y-69149500D01*
X35602648Y-69149500D01*
X35578329Y-69153351D01*
X35400465Y-69181522D01*
X35205776Y-69244781D01*
X35023386Y-69337715D01*
X34857786Y-69458028D01*
X34713028Y-69602786D01*
X34592715Y-69768386D01*
X34499781Y-69950776D01*
X34436522Y-70145465D01*
X34404500Y-70347648D01*
X34404500Y-70552351D01*
X34436522Y-70754534D01*
X34499781Y-70949223D01*
X34542248Y-71032567D01*
X34592585Y-71131359D01*
X34592715Y-71131613D01*
X34713028Y-71297213D01*
X34857786Y-71441971D01*
X34978226Y-71529474D01*
X35023390Y-71562287D01*
X35139607Y-71621503D01*
X35205776Y-71655218D01*
X35205778Y-71655218D01*
X35205781Y-71655220D01*
X35310137Y-71689127D01*
X35400465Y-71718477D01*
X35501557Y-71734488D01*
X35602648Y-71750500D01*
X35602649Y-71750500D01*
X35807351Y-71750500D01*
X35807352Y-71750500D01*
X35985112Y-71722345D01*
X36054405Y-71731299D01*
X36092191Y-71757137D01*
X36196916Y-71861861D01*
X36300724Y-71965669D01*
X36350150Y-72015095D01*
X36391332Y-72056277D01*
X36497866Y-72127461D01*
X36497872Y-72127464D01*
X36497873Y-72127465D01*
X36616256Y-72176501D01*
X36616260Y-72176501D01*
X36616261Y-72176502D01*
X36741928Y-72201500D01*
X36741931Y-72201500D01*
X39976946Y-72201500D01*
X40043985Y-72221185D01*
X40089740Y-72273989D01*
X40100304Y-72338103D01*
X40095000Y-72390013D01*
X40095000Y-72740000D01*
X41079314Y-72740000D01*
X41074920Y-72744394D01*
X41022259Y-72835606D01*
X40995000Y-72937339D01*
X40995000Y-73042661D01*
X41022259Y-73144394D01*
X41074920Y-73235606D01*
X41079314Y-73240000D01*
X40095001Y-73240000D01*
X40095001Y-73589986D01*
X40105494Y-73692697D01*
X40160641Y-73859119D01*
X40160643Y-73859124D01*
X40252684Y-74008345D01*
X40376654Y-74132315D01*
X40525875Y-74224356D01*
X40525882Y-74224359D01*
X40608067Y-74251592D01*
X40665512Y-74291364D01*
X40692336Y-74355880D01*
X40680021Y-74424656D01*
X40641949Y-74469616D01*
X40547787Y-74538028D01*
X40547782Y-74538032D01*
X40403028Y-74682786D01*
X40282715Y-74848386D01*
X40189781Y-75030776D01*
X40126522Y-75225465D01*
X40094500Y-75427648D01*
X40094500Y-75632351D01*
X40122654Y-75810111D01*
X40113699Y-75879405D01*
X40087862Y-75917190D01*
X39343091Y-76661961D01*
X39281768Y-76695446D01*
X39212076Y-76690462D01*
X39156143Y-76648590D01*
X39144925Y-76630575D01*
X39111354Y-76564690D01*
X39062287Y-76468390D01*
X39022689Y-76413887D01*
X38941971Y-76302786D01*
X38797213Y-76158028D01*
X38631613Y-76037715D01*
X38631612Y-76037714D01*
X38631610Y-76037713D01*
X38561998Y-76002244D01*
X38449223Y-75944781D01*
X38254534Y-75881522D01*
X38079995Y-75853878D01*
X38052352Y-75849500D01*
X37847648Y-75849500D01*
X37823329Y-75853351D01*
X37645465Y-75881522D01*
X37450776Y-75944781D01*
X37268386Y-76037715D01*
X37102786Y-76158028D01*
X36958028Y-76302786D01*
X36837713Y-76468388D01*
X36810484Y-76521828D01*
X36762510Y-76572623D01*
X36694688Y-76589418D01*
X36628554Y-76566880D01*
X36589516Y-76521828D01*
X36562286Y-76468388D01*
X36441971Y-76302786D01*
X36297213Y-76158028D01*
X36131613Y-76037715D01*
X36131612Y-76037714D01*
X36131610Y-76037713D01*
X36061998Y-76002244D01*
X35949223Y-75944781D01*
X35754534Y-75881522D01*
X35579995Y-75853878D01*
X35552352Y-75849500D01*
X35347648Y-75849500D01*
X35323329Y-75853351D01*
X35145465Y-75881522D01*
X34950776Y-75944781D01*
X34768386Y-76037715D01*
X34602786Y-76158028D01*
X34458028Y-76302786D01*
X34337715Y-76468386D01*
X34244781Y-76650776D01*
X34181522Y-76845465D01*
X34149500Y-77047648D01*
X34149500Y-77252351D01*
X34181522Y-77454534D01*
X34244781Y-77649223D01*
X34337715Y-77831613D01*
X34458028Y-77997213D01*
X34602786Y-78141971D01*
X34735493Y-78238386D01*
X34768390Y-78262287D01*
X34881621Y-78319981D01*
X34950776Y-78355218D01*
X34950778Y-78355218D01*
X34950781Y-78355220D01*
X35055137Y-78389127D01*
X35145465Y-78418477D01*
X35246557Y-78434488D01*
X35347648Y-78450500D01*
X35347649Y-78450500D01*
X35552351Y-78450500D01*
X35552352Y-78450500D01*
X35754534Y-78418477D01*
X35949219Y-78355220D01*
X36131610Y-78262287D01*
X36255396Y-78172352D01*
X36297213Y-78141971D01*
X36297215Y-78141968D01*
X36297219Y-78141966D01*
X36441966Y-77997219D01*
X36441968Y-77997215D01*
X36441971Y-77997213D01*
X36500669Y-77916421D01*
X36562287Y-77831610D01*
X36589515Y-77778171D01*
X36637490Y-77727376D01*
X36705311Y-77710581D01*
X36771446Y-77733118D01*
X36810484Y-77778171D01*
X36822991Y-77802717D01*
X36837715Y-77831613D01*
X36958028Y-77997213D01*
X37102786Y-78141971D01*
X37268385Y-78262284D01*
X37268387Y-78262285D01*
X37268390Y-78262287D01*
X37417890Y-78338461D01*
X37430576Y-78344925D01*
X37481372Y-78392900D01*
X37498167Y-78460721D01*
X37475630Y-78526856D01*
X37461962Y-78543091D01*
X36895873Y-79109181D01*
X36834550Y-79142666D01*
X36808192Y-79145500D01*
X31940038Y-79145500D01*
X31872999Y-79125815D01*
X31827244Y-79073011D01*
X31817300Y-79003853D01*
X31817565Y-79002102D01*
X31850000Y-78797317D01*
X31850000Y-78592682D01*
X31817990Y-78390582D01*
X31754755Y-78195968D01*
X31661859Y-78013650D01*
X31629474Y-77969077D01*
X31629474Y-77969076D01*
X30950000Y-78648551D01*
X30950000Y-78642339D01*
X30922741Y-78540606D01*
X30870080Y-78449394D01*
X30795606Y-78374920D01*
X30704394Y-78322259D01*
X30602661Y-78295000D01*
X30596446Y-78295000D01*
X31275922Y-77615524D01*
X31275921Y-77615523D01*
X31231359Y-77583147D01*
X31231350Y-77583141D01*
X31138369Y-77535765D01*
X31087573Y-77487790D01*
X31070778Y-77419969D01*
X31093315Y-77353835D01*
X31138370Y-77314795D01*
X31150515Y-77308607D01*
X31231610Y-77267287D01*
X31292868Y-77222781D01*
X31397213Y-77146971D01*
X31397215Y-77146968D01*
X31397219Y-77146966D01*
X31541966Y-77002219D01*
X31541968Y-77002215D01*
X31541971Y-77002213D01*
X31641820Y-76864780D01*
X31662287Y-76836610D01*
X31755220Y-76654219D01*
X31818477Y-76459534D01*
X31850500Y-76257352D01*
X31850500Y-76052648D01*
X31848135Y-76037715D01*
X31818477Y-75850465D01*
X31755218Y-75655776D01*
X31701084Y-75549533D01*
X31662287Y-75473390D01*
X31620482Y-75415850D01*
X31541971Y-75307786D01*
X31397213Y-75163028D01*
X31231613Y-75042715D01*
X31231612Y-75042714D01*
X31231610Y-75042713D01*
X31138881Y-74995465D01*
X31049223Y-74949781D01*
X30854534Y-74886522D01*
X30679995Y-74858878D01*
X30652352Y-74854500D01*
X30447648Y-74854500D01*
X30423329Y-74858351D01*
X30245465Y-74886522D01*
X30050776Y-74949781D01*
X29868386Y-75042715D01*
X29702786Y-75163028D01*
X29558028Y-75307786D01*
X29437715Y-75473386D01*
X29344781Y-75655776D01*
X29281522Y-75850465D01*
X29249500Y-76052648D01*
X29249500Y-76257351D01*
X29281522Y-76459534D01*
X29344781Y-76654223D01*
X29406746Y-76775834D01*
X29431602Y-76824617D01*
X29437715Y-76836613D01*
X29558028Y-77002213D01*
X29702786Y-77146971D01*
X29868385Y-77267284D01*
X29868387Y-77267285D01*
X29868390Y-77267287D01*
X29949485Y-77308607D01*
X29961630Y-77314795D01*
X30012426Y-77362770D01*
X30029221Y-77430591D01*
X30006684Y-77496725D01*
X29961630Y-77535765D01*
X29868644Y-77583143D01*
X29824077Y-77615523D01*
X29824077Y-77615524D01*
X30503554Y-78295000D01*
X30497339Y-78295000D01*
X30395606Y-78322259D01*
X30304394Y-78374920D01*
X30229920Y-78449394D01*
X30177259Y-78540606D01*
X30150000Y-78642339D01*
X30150000Y-78648553D01*
X29470524Y-77969077D01*
X29470523Y-77969077D01*
X29438143Y-78013644D01*
X29345244Y-78195968D01*
X29282009Y-78390582D01*
X29250000Y-78592682D01*
X29250000Y-78797317D01*
X29282435Y-79002102D01*
X29273480Y-79071395D01*
X29228484Y-79124847D01*
X29161733Y-79145487D01*
X29159962Y-79145500D01*
X26089929Y-79145500D01*
X25964261Y-79170497D01*
X25964255Y-79170499D01*
X25845875Y-79219533D01*
X25845866Y-79219538D01*
X25739331Y-79290723D01*
X25739327Y-79290726D01*
X17737190Y-87292862D01*
X17675867Y-87326347D01*
X17630111Y-87327654D01*
X17484611Y-87304609D01*
X17452352Y-87299500D01*
X17247648Y-87299500D01*
X17223329Y-87303351D01*
X17045465Y-87331522D01*
X16850776Y-87394781D01*
X16668386Y-87487715D01*
X16502786Y-87608028D01*
X16358028Y-87752786D01*
X16237715Y-87918386D01*
X16190485Y-88011080D01*
X16142510Y-88061876D01*
X16074689Y-88078671D01*
X16008554Y-88056134D01*
X15969515Y-88011080D01*
X15947761Y-87968386D01*
X15922287Y-87918390D01*
X15886145Y-87868644D01*
X15801971Y-87752786D01*
X15657213Y-87608028D01*
X15491613Y-87487715D01*
X15491612Y-87487714D01*
X15491610Y-87487713D01*
X15434653Y-87458691D01*
X15309223Y-87394781D01*
X15114534Y-87331522D01*
X14939995Y-87303878D01*
X14912352Y-87299500D01*
X14707648Y-87299500D01*
X14683329Y-87303351D01*
X14505465Y-87331522D01*
X14310776Y-87394781D01*
X14128386Y-87487715D01*
X13962786Y-87608028D01*
X13818028Y-87752786D01*
X13697715Y-87918386D01*
X13604781Y-88100776D01*
X13541522Y-88295465D01*
X13515118Y-88462175D01*
X13509500Y-88497648D01*
X11500500Y-88497648D01*
X11500500Y-79649983D01*
X13149500Y-79649983D01*
X13149500Y-81250001D01*
X13149501Y-81250018D01*
X13160000Y-81352796D01*
X13160001Y-81352797D01*
X13215185Y-81519331D01*
X13215187Y-81519336D01*
X13221715Y-81529920D01*
X13307288Y-81668656D01*
X13431344Y-81792712D01*
X13580666Y-81884814D01*
X13747203Y-81939999D01*
X13849991Y-81950500D01*
X17050008Y-81950499D01*
X17152797Y-81939999D01*
X17319334Y-81884814D01*
X17468656Y-81792712D01*
X17592712Y-81668656D01*
X17684814Y-81519334D01*
X17739999Y-81352797D01*
X17750500Y-81250009D01*
X17750499Y-79649992D01*
X17747234Y-79618034D01*
X17739999Y-79547203D01*
X17739998Y-79547200D01*
X17723600Y-79497715D01*
X17684814Y-79380666D01*
X17592712Y-79231344D01*
X17468656Y-79107288D01*
X17330952Y-79022352D01*
X17319336Y-79015187D01*
X17319331Y-79015185D01*
X17279849Y-79002102D01*
X17152797Y-78960001D01*
X17152795Y-78960000D01*
X17050010Y-78949500D01*
X13849998Y-78949500D01*
X13849981Y-78949501D01*
X13747203Y-78960000D01*
X13747200Y-78960001D01*
X13580668Y-79015185D01*
X13580663Y-79015187D01*
X13431342Y-79107289D01*
X13307289Y-79231342D01*
X13215187Y-79380663D01*
X13215186Y-79380666D01*
X13160001Y-79547203D01*
X13160001Y-79547204D01*
X13160000Y-79547204D01*
X13149500Y-79649983D01*
X11500500Y-79649983D01*
X11500500Y-72700000D01*
X13170898Y-72700000D01*
X14795879Y-72700000D01*
X14776901Y-72745818D01*
X14750000Y-72881056D01*
X14750000Y-73018944D01*
X14776901Y-73154182D01*
X14795879Y-73200000D01*
X13170898Y-73200000D01*
X13186934Y-73301247D01*
X13259897Y-73525802D01*
X13367085Y-73736171D01*
X13505866Y-73927186D01*
X13672813Y-74094133D01*
X13863828Y-74232914D01*
X14074197Y-74340102D01*
X14298752Y-74413065D01*
X14298751Y-74413065D01*
X14531948Y-74450000D01*
X15200000Y-74450000D01*
X15200000Y-73604120D01*
X15245818Y-73623099D01*
X15381056Y-73650000D01*
X15518944Y-73650000D01*
X15654182Y-73623099D01*
X15700000Y-73604120D01*
X15700000Y-74450000D01*
X16368052Y-74450000D01*
X16601247Y-74413065D01*
X16825802Y-74340102D01*
X17036171Y-74232914D01*
X17227186Y-74094133D01*
X17394133Y-73927186D01*
X17532914Y-73736171D01*
X17640102Y-73525802D01*
X17713065Y-73301247D01*
X17729102Y-73200000D01*
X16104121Y-73200000D01*
X16123099Y-73154182D01*
X16150000Y-73018944D01*
X16150000Y-72881056D01*
X16123099Y-72745818D01*
X16104121Y-72700000D01*
X17729102Y-72700000D01*
X17713065Y-72598752D01*
X17640102Y-72374197D01*
X17532914Y-72163828D01*
X17394133Y-71972813D01*
X17227186Y-71805866D01*
X17036171Y-71667085D01*
X16825802Y-71559897D01*
X16601247Y-71486934D01*
X16601248Y-71486934D01*
X16368052Y-71450000D01*
X15700000Y-71450000D01*
X15700000Y-72295879D01*
X15654182Y-72276901D01*
X15518944Y-72250000D01*
X15381056Y-72250000D01*
X15245818Y-72276901D01*
X15200000Y-72295879D01*
X15200000Y-71450000D01*
X14531948Y-71450000D01*
X14298752Y-71486934D01*
X14074197Y-71559897D01*
X13863828Y-71667085D01*
X13672813Y-71805866D01*
X13505866Y-71972813D01*
X13367085Y-72163828D01*
X13259897Y-72374197D01*
X13186934Y-72598752D01*
X13170898Y-72700000D01*
X11500500Y-72700000D01*
X11500500Y-63147648D01*
X13449500Y-63147648D01*
X13449500Y-63352351D01*
X13481522Y-63554534D01*
X13544781Y-63749223D01*
X13584865Y-63827891D01*
X13637585Y-63931359D01*
X13637715Y-63931613D01*
X13758028Y-64097213D01*
X13902786Y-64241971D01*
X14057749Y-64354556D01*
X14068390Y-64362287D01*
X14184607Y-64421503D01*
X14250776Y-64455218D01*
X14250778Y-64455218D01*
X14250781Y-64455220D01*
X14319632Y-64477591D01*
X14445465Y-64518477D01*
X14546557Y-64534488D01*
X14647648Y-64550500D01*
X14647649Y-64550500D01*
X14852351Y-64550500D01*
X14852352Y-64550500D01*
X15054534Y-64518477D01*
X15249219Y-64455220D01*
X15431610Y-64362287D01*
X15524590Y-64294732D01*
X15597213Y-64241971D01*
X15597215Y-64241968D01*
X15597219Y-64241966D01*
X15741966Y-64097219D01*
X15741968Y-64097215D01*
X15741971Y-64097213D01*
X15862286Y-63931611D01*
X15862415Y-63931359D01*
X15889795Y-63877621D01*
X15937769Y-63826826D01*
X16005589Y-63810030D01*
X16071725Y-63832567D01*
X16110765Y-63877621D01*
X16138141Y-63931350D01*
X16138147Y-63931359D01*
X16170523Y-63975921D01*
X16170524Y-63975922D01*
X16850000Y-63296446D01*
X16850000Y-63302661D01*
X16877259Y-63404394D01*
X16929920Y-63495606D01*
X17004394Y-63570080D01*
X17095606Y-63622741D01*
X17197339Y-63650000D01*
X17203553Y-63650000D01*
X16524076Y-64329474D01*
X16568650Y-64361859D01*
X16750968Y-64454755D01*
X16945582Y-64517990D01*
X17147683Y-64550000D01*
X17352317Y-64550000D01*
X17554417Y-64517990D01*
X17749031Y-64454755D01*
X17931349Y-64361859D01*
X17975921Y-64329474D01*
X17296447Y-63650000D01*
X17302661Y-63650000D01*
X17404394Y-63622741D01*
X17495606Y-63570080D01*
X17570080Y-63495606D01*
X17622741Y-63404394D01*
X17650000Y-63302661D01*
X17650000Y-63296447D01*
X18329474Y-63975921D01*
X18361859Y-63931349D01*
X18454755Y-63749031D01*
X18486939Y-63649982D01*
X33539500Y-63649982D01*
X33539500Y-65450017D01*
X33550000Y-65552796D01*
X33576088Y-65631523D01*
X33605186Y-65719335D01*
X33697288Y-65868656D01*
X33821344Y-65992712D01*
X33970665Y-66084814D01*
X34137202Y-66139999D01*
X34239990Y-66150500D01*
X34239995Y-66150500D01*
X36040005Y-66150500D01*
X36040010Y-66150500D01*
X36142798Y-66139999D01*
X36309335Y-66084814D01*
X36458656Y-65992712D01*
X36582712Y-65868656D01*
X36674814Y-65719335D01*
X36729999Y-65552798D01*
X36740500Y-65450010D01*
X36740500Y-63649990D01*
X36729999Y-63547202D01*
X36674814Y-63380665D01*
X36582712Y-63231344D01*
X36458656Y-63107288D01*
X36309335Y-63015186D01*
X36142798Y-62960001D01*
X36142796Y-62960000D01*
X36040017Y-62949500D01*
X36040010Y-62949500D01*
X34239990Y-62949500D01*
X34239982Y-62949500D01*
X34137203Y-62960000D01*
X34137202Y-62960001D01*
X34054669Y-62987349D01*
X33970667Y-63015185D01*
X33970662Y-63015187D01*
X33821342Y-63107289D01*
X33697289Y-63231342D01*
X33605187Y-63380662D01*
X33605185Y-63380667D01*
X33592656Y-63418477D01*
X33550001Y-63547202D01*
X33550001Y-63547203D01*
X33550000Y-63547203D01*
X33539500Y-63649982D01*
X18486939Y-63649982D01*
X18500413Y-63608514D01*
X18500413Y-63608513D01*
X18517989Y-63554421D01*
X18517989Y-63554418D01*
X18550000Y-63352317D01*
X18550000Y-63147682D01*
X18517990Y-62945582D01*
X18454755Y-62750968D01*
X18361859Y-62568650D01*
X18329474Y-62524077D01*
X18329474Y-62524076D01*
X17650000Y-63203551D01*
X17650000Y-63197339D01*
X17622741Y-63095606D01*
X17570080Y-63004394D01*
X17495606Y-62929920D01*
X17404394Y-62877259D01*
X17302661Y-62850000D01*
X17296446Y-62850000D01*
X17975922Y-62170524D01*
X17975921Y-62170523D01*
X17931359Y-62138147D01*
X17931350Y-62138141D01*
X17749031Y-62045244D01*
X17554417Y-61982009D01*
X17352317Y-61950000D01*
X17147683Y-61950000D01*
X16945582Y-61982009D01*
X16750968Y-62045244D01*
X16568644Y-62138143D01*
X16524077Y-62170523D01*
X16524077Y-62170524D01*
X17203554Y-62850000D01*
X17197339Y-62850000D01*
X17095606Y-62877259D01*
X17004394Y-62929920D01*
X16929920Y-63004394D01*
X16877259Y-63095606D01*
X16850000Y-63197339D01*
X16850000Y-63203553D01*
X16170524Y-62524077D01*
X16170523Y-62524077D01*
X16138143Y-62568644D01*
X16110765Y-62622378D01*
X16062790Y-62673174D01*
X15994969Y-62689969D01*
X15928834Y-62667431D01*
X15889795Y-62622378D01*
X15862423Y-62568657D01*
X15862287Y-62568390D01*
X15862285Y-62568387D01*
X15862284Y-62568385D01*
X15741971Y-62402786D01*
X15597213Y-62258028D01*
X15431613Y-62137715D01*
X15431612Y-62137714D01*
X15431610Y-62137713D01*
X15352372Y-62097339D01*
X15249223Y-62044781D01*
X15054534Y-61981522D01*
X14879995Y-61953878D01*
X14852352Y-61949500D01*
X14647648Y-61949500D01*
X14623329Y-61953351D01*
X14445465Y-61981522D01*
X14250776Y-62044781D01*
X14068386Y-62137715D01*
X13902786Y-62258028D01*
X13758028Y-62402786D01*
X13637715Y-62568386D01*
X13544781Y-62750776D01*
X13481522Y-62945465D01*
X13449500Y-63147648D01*
X11500500Y-63147648D01*
X11500500Y-57897648D01*
X33499500Y-57897648D01*
X33499500Y-58102351D01*
X33531522Y-58304534D01*
X33594781Y-58499223D01*
X33647486Y-58602661D01*
X33687585Y-58681359D01*
X33687715Y-58681613D01*
X33808028Y-58847213D01*
X33952786Y-58991971D01*
X34085366Y-59088294D01*
X34118390Y-59112287D01*
X34234607Y-59171503D01*
X34300776Y-59205218D01*
X34300778Y-59205218D01*
X34300781Y-59205220D01*
X34341373Y-59218409D01*
X34495465Y-59268477D01*
X34564897Y-59279474D01*
X34697648Y-59300500D01*
X34697649Y-59300500D01*
X34902351Y-59300500D01*
X34902352Y-59300500D01*
X35104534Y-59268477D01*
X35299219Y-59205220D01*
X35481610Y-59112287D01*
X35577611Y-59042539D01*
X35647213Y-58991971D01*
X35647215Y-58991968D01*
X35647219Y-58991966D01*
X35791966Y-58847219D01*
X35791968Y-58847215D01*
X35791971Y-58847213D01*
X35880093Y-58725921D01*
X35912287Y-58681610D01*
X35939795Y-58627621D01*
X35987769Y-58576826D01*
X36055589Y-58560030D01*
X36121725Y-58582567D01*
X36160765Y-58627621D01*
X36188141Y-58681350D01*
X36188147Y-58681359D01*
X36220523Y-58725921D01*
X36220524Y-58725922D01*
X36900000Y-58046446D01*
X36900000Y-58052661D01*
X36927259Y-58154394D01*
X36979920Y-58245606D01*
X37054394Y-58320080D01*
X37145606Y-58372741D01*
X37247339Y-58400000D01*
X37253553Y-58400000D01*
X36574076Y-59079474D01*
X36618650Y-59111859D01*
X36800968Y-59204755D01*
X36995582Y-59267990D01*
X37197683Y-59300000D01*
X37402317Y-59300000D01*
X37604417Y-59267990D01*
X37799031Y-59204755D01*
X37981349Y-59111859D01*
X38025921Y-59079474D01*
X37346447Y-58400000D01*
X37352661Y-58400000D01*
X37454394Y-58372741D01*
X37545606Y-58320080D01*
X37620080Y-58245606D01*
X37672741Y-58154394D01*
X37700000Y-58052661D01*
X37700000Y-58046447D01*
X38379474Y-58725921D01*
X38411859Y-58681349D01*
X38504755Y-58499031D01*
X38567990Y-58304417D01*
X38600000Y-58102317D01*
X38600000Y-58097648D01*
X40549500Y-58097648D01*
X40549500Y-58302352D01*
X40549827Y-58304417D01*
X40581522Y-58504534D01*
X40644781Y-58699223D01*
X40707718Y-58822741D01*
X40734835Y-58875962D01*
X40737715Y-58881613D01*
X40858028Y-59047213D01*
X41002786Y-59191971D01*
X41151478Y-59300000D01*
X41168390Y-59312287D01*
X41270626Y-59364379D01*
X41350776Y-59405218D01*
X41350778Y-59405218D01*
X41350781Y-59405220D01*
X41455137Y-59439127D01*
X41545465Y-59468477D01*
X41646557Y-59484488D01*
X41747648Y-59500500D01*
X41747649Y-59500500D01*
X41952351Y-59500500D01*
X41952352Y-59500500D01*
X42130112Y-59472345D01*
X42199405Y-59481299D01*
X42237191Y-59507137D01*
X45468373Y-62738319D01*
X45501858Y-62799642D01*
X45496874Y-62869334D01*
X45455002Y-62925267D01*
X45389538Y-62949684D01*
X45380692Y-62950000D01*
X45174072Y-62950000D01*
X44925330Y-62989397D01*
X44685815Y-63067219D01*
X44461413Y-63181559D01*
X44359301Y-63255747D01*
X44359300Y-63255748D01*
X45129765Y-64026212D01*
X45087708Y-64037482D01*
X44962292Y-64109890D01*
X44859890Y-64212292D01*
X44787482Y-64337708D01*
X44776212Y-64379765D01*
X44005748Y-63609300D01*
X44005747Y-63609301D01*
X43931559Y-63711413D01*
X43817219Y-63935815D01*
X43739397Y-64175330D01*
X43700000Y-64424071D01*
X43700000Y-64675928D01*
X43739397Y-64924669D01*
X43817219Y-65164184D01*
X43931557Y-65388583D01*
X44005748Y-65490697D01*
X44005748Y-65490698D01*
X44776212Y-64720234D01*
X44787482Y-64762292D01*
X44859890Y-64887708D01*
X44962292Y-64990110D01*
X45087708Y-65062518D01*
X45129765Y-65073787D01*
X44359300Y-65844250D01*
X44461416Y-65918442D01*
X44685815Y-66032780D01*
X44925330Y-66110602D01*
X45174072Y-66150000D01*
X45425928Y-66150000D01*
X45674669Y-66110602D01*
X45914184Y-66032780D01*
X46138575Y-65918446D01*
X46138581Y-65918442D01*
X46240697Y-65844250D01*
X46240698Y-65844250D01*
X45470234Y-65073787D01*
X45512292Y-65062518D01*
X45637708Y-64990110D01*
X45740110Y-64887708D01*
X45812518Y-64762292D01*
X45823787Y-64720234D01*
X46594249Y-65490697D01*
X46615771Y-65489004D01*
X46684148Y-65503368D01*
X46733905Y-65552419D01*
X46749500Y-65612622D01*
X46749500Y-67151928D01*
X46729815Y-67218967D01*
X46698385Y-67252246D01*
X46552787Y-67358028D01*
X46552782Y-67358032D01*
X46408028Y-67502786D01*
X46287715Y-67668386D01*
X46194781Y-67850776D01*
X46131522Y-68045465D01*
X46099500Y-68247648D01*
X46099500Y-68452351D01*
X46131522Y-68654534D01*
X46194781Y-68849223D01*
X46287715Y-69031613D01*
X46408028Y-69197213D01*
X46552786Y-69341971D01*
X46667594Y-69425382D01*
X46718390Y-69462287D01*
X46797022Y-69502352D01*
X46900776Y-69555218D01*
X46900778Y-69555218D01*
X46900781Y-69555220D01*
X47005137Y-69589127D01*
X47095465Y-69618477D01*
X47196557Y-69634488D01*
X47297648Y-69650500D01*
X47297649Y-69650500D01*
X47502351Y-69650500D01*
X47502352Y-69650500D01*
X47680112Y-69622345D01*
X47749405Y-69631299D01*
X47787191Y-69657137D01*
X48328181Y-70198127D01*
X48361666Y-70259450D01*
X48364500Y-70285808D01*
X48364500Y-71791928D01*
X48344815Y-71858967D01*
X48313385Y-71892246D01*
X48167787Y-71998028D01*
X48167782Y-71998032D01*
X48023028Y-72142786D01*
X47902715Y-72308386D01*
X47809781Y-72490776D01*
X47746522Y-72685465D01*
X47714500Y-72887648D01*
X47714500Y-73092351D01*
X47746522Y-73294534D01*
X47809781Y-73489223D01*
X47902715Y-73671613D01*
X48023028Y-73837213D01*
X48167786Y-73981971D01*
X48295536Y-74074785D01*
X48333390Y-74102287D01*
X48424840Y-74148883D01*
X48426080Y-74149515D01*
X48476876Y-74197490D01*
X48493671Y-74265311D01*
X48471134Y-74331446D01*
X48426080Y-74370485D01*
X48333386Y-74417715D01*
X48167786Y-74538028D01*
X48023028Y-74682786D01*
X47902715Y-74848386D01*
X47809781Y-75030776D01*
X47746522Y-75225465D01*
X47714500Y-75427648D01*
X47714500Y-75632351D01*
X47746522Y-75834534D01*
X47809781Y-76029223D01*
X47869901Y-76147213D01*
X47892843Y-76192240D01*
X47902715Y-76211613D01*
X48023028Y-76377213D01*
X48167786Y-76521971D01*
X48310821Y-76625890D01*
X48333390Y-76642287D01*
X48408358Y-76680485D01*
X48426080Y-76689515D01*
X48476876Y-76737490D01*
X48493671Y-76805311D01*
X48471134Y-76871446D01*
X48426080Y-76910485D01*
X48333386Y-76957715D01*
X48167786Y-77078028D01*
X48023028Y-77222786D01*
X47902715Y-77388386D01*
X47809781Y-77570776D01*
X47746522Y-77765465D01*
X47714500Y-77967648D01*
X47714500Y-78172351D01*
X47746522Y-78374534D01*
X47809781Y-78569223D01*
X47863958Y-78675549D01*
X47882463Y-78711868D01*
X47902715Y-78751613D01*
X48023028Y-78917213D01*
X48167786Y-79061971D01*
X48312184Y-79166880D01*
X48333390Y-79182287D01*
X48406499Y-79219538D01*
X48426080Y-79229515D01*
X48476876Y-79277490D01*
X48493671Y-79345311D01*
X48471134Y-79411446D01*
X48426080Y-79450485D01*
X48333386Y-79497715D01*
X48167786Y-79618028D01*
X48023028Y-79762786D01*
X47902715Y-79928386D01*
X47809781Y-80110776D01*
X47746522Y-80305465D01*
X47714500Y-80507648D01*
X47714500Y-80712351D01*
X47746522Y-80914534D01*
X47809781Y-81109223D01*
X47851944Y-81191971D01*
X47893319Y-81273174D01*
X47902715Y-81291613D01*
X48023028Y-81457213D01*
X48167786Y-81601971D01*
X48313764Y-81708028D01*
X48333390Y-81722287D01*
X48449607Y-81781503D01*
X48515776Y-81815218D01*
X48515778Y-81815218D01*
X48515781Y-81815220D01*
X48620137Y-81849127D01*
X48710465Y-81878477D01*
X48811557Y-81894488D01*
X48912648Y-81910500D01*
X48912649Y-81910500D01*
X49117351Y-81910500D01*
X49117352Y-81910500D01*
X49319534Y-81878477D01*
X49514219Y-81815220D01*
X49696610Y-81722287D01*
X49801644Y-81645976D01*
X49862213Y-81601971D01*
X49862215Y-81601968D01*
X49862219Y-81601966D01*
X50006966Y-81457219D01*
X50006968Y-81457215D01*
X50006971Y-81457213D01*
X50084297Y-81350781D01*
X50127287Y-81291610D01*
X50220220Y-81109219D01*
X50283477Y-80914534D01*
X50315500Y-80712352D01*
X50315500Y-80507648D01*
X50301856Y-80421502D01*
X50283477Y-80305465D01*
X50253390Y-80212868D01*
X50220220Y-80110781D01*
X50220218Y-80110778D01*
X50220218Y-80110776D01*
X50158196Y-79989053D01*
X50127287Y-79928390D01*
X50072042Y-79852351D01*
X50006971Y-79762786D01*
X49862213Y-79618028D01*
X49696614Y-79497715D01*
X49690006Y-79494348D01*
X49603917Y-79450483D01*
X49553123Y-79402511D01*
X49536328Y-79334690D01*
X49558865Y-79268555D01*
X49603917Y-79229516D01*
X49696610Y-79182287D01*
X49717816Y-79166880D01*
X49862213Y-79061971D01*
X49862215Y-79061968D01*
X49862219Y-79061966D01*
X50006966Y-78917219D01*
X50006968Y-78917215D01*
X50006971Y-78917213D01*
X50094079Y-78797317D01*
X50127287Y-78751610D01*
X50220220Y-78569219D01*
X50283477Y-78374534D01*
X50315500Y-78172352D01*
X50315500Y-77967648D01*
X50290169Y-77807715D01*
X50283477Y-77765465D01*
X50234758Y-77615524D01*
X50220220Y-77570781D01*
X50220218Y-77570778D01*
X50220218Y-77570776D01*
X50186503Y-77504607D01*
X50127287Y-77388390D01*
X50108673Y-77362770D01*
X50006971Y-77222786D01*
X49862213Y-77078028D01*
X49696614Y-76957715D01*
X49690006Y-76954348D01*
X49603917Y-76910483D01*
X49553123Y-76862511D01*
X49536328Y-76794690D01*
X49558865Y-76728555D01*
X49603917Y-76689516D01*
X49696610Y-76642287D01*
X49769379Y-76589418D01*
X49862213Y-76521971D01*
X49862215Y-76521968D01*
X49862219Y-76521966D01*
X50006966Y-76377219D01*
X50112753Y-76231613D01*
X50168082Y-76188949D01*
X50213071Y-76180500D01*
X52196310Y-76180500D01*
X52263349Y-76200185D01*
X52309104Y-76252989D01*
X52319048Y-76322147D01*
X52318783Y-76323898D01*
X52299500Y-76445646D01*
X52299500Y-76674353D01*
X52335278Y-76900246D01*
X52335278Y-76900249D01*
X52405950Y-77117755D01*
X52503194Y-77308607D01*
X52509783Y-77321538D01*
X52644214Y-77506566D01*
X52805934Y-77668286D01*
X52864148Y-77710581D01*
X52890438Y-77729682D01*
X52933103Y-77785013D01*
X52939082Y-77854626D01*
X52906476Y-77916421D01*
X52890438Y-77930318D01*
X52805932Y-77991715D01*
X52644216Y-78153431D01*
X52644216Y-78153432D01*
X52644214Y-78153434D01*
X52613311Y-78195968D01*
X52509783Y-78338461D01*
X52405950Y-78542244D01*
X52335278Y-78759750D01*
X52335278Y-78759753D01*
X52323841Y-78831966D01*
X52299500Y-78985646D01*
X52299500Y-79214354D01*
X52301901Y-79229515D01*
X52335278Y-79440246D01*
X52335278Y-79440249D01*
X52405950Y-79657755D01*
X52509783Y-79861538D01*
X52644214Y-80046566D01*
X52805934Y-80208286D01*
X52990962Y-80342717D01*
X53177809Y-80437920D01*
X53194744Y-80446549D01*
X53412251Y-80517221D01*
X53412252Y-80517221D01*
X53412255Y-80517222D01*
X53638146Y-80553000D01*
X53638147Y-80553000D01*
X53961853Y-80553000D01*
X53961854Y-80553000D01*
X54187745Y-80517222D01*
X54187748Y-80517221D01*
X54187749Y-80517221D01*
X54405255Y-80446549D01*
X54405255Y-80446548D01*
X54405258Y-80446548D01*
X54609038Y-80342717D01*
X54794066Y-80208286D01*
X54955786Y-80046566D01*
X55090217Y-79861538D01*
X55194048Y-79657758D01*
X55205407Y-79622799D01*
X55264721Y-79440249D01*
X55264721Y-79440248D01*
X55264722Y-79440245D01*
X55300500Y-79214354D01*
X55300500Y-78985646D01*
X55264722Y-78759755D01*
X55264721Y-78759751D01*
X55264721Y-78759750D01*
X55194049Y-78542244D01*
X55163110Y-78481523D01*
X55090217Y-78338462D01*
X54955786Y-78153434D01*
X54794066Y-77991714D01*
X54709559Y-77930316D01*
X54666896Y-77874988D01*
X54660917Y-77805375D01*
X54693523Y-77743580D01*
X54709556Y-77729685D01*
X54794066Y-77668286D01*
X54955786Y-77506566D01*
X55090217Y-77321538D01*
X55194048Y-77117758D01*
X55218455Y-77042642D01*
X55264721Y-76900249D01*
X55264721Y-76900248D01*
X55264722Y-76900245D01*
X55300500Y-76674354D01*
X55300500Y-76445646D01*
X55264722Y-76219755D01*
X55264721Y-76219751D01*
X55264721Y-76219750D01*
X55194049Y-76002244D01*
X55150712Y-75917190D01*
X55090217Y-75798462D01*
X54957169Y-75615337D01*
X54933690Y-75549533D01*
X54949515Y-75481480D01*
X54999621Y-75432785D01*
X55014155Y-75426272D01*
X55042086Y-75415854D01*
X55042093Y-75415850D01*
X55157187Y-75329690D01*
X55157190Y-75329687D01*
X55243350Y-75214593D01*
X55243354Y-75214586D01*
X55249672Y-75197648D01*
X60749500Y-75197648D01*
X60749500Y-75402351D01*
X60781522Y-75604534D01*
X60844781Y-75799223D01*
X60886716Y-75881523D01*
X60929114Y-75964734D01*
X60937715Y-75981613D01*
X61058028Y-76147213D01*
X61202786Y-76291971D01*
X61357749Y-76404556D01*
X61368390Y-76412287D01*
X61433861Y-76445646D01*
X61461080Y-76459515D01*
X61511876Y-76507490D01*
X61528671Y-76575311D01*
X61506134Y-76641446D01*
X61461080Y-76680485D01*
X61368386Y-76727715D01*
X61202786Y-76848028D01*
X61058028Y-76992786D01*
X60937715Y-77158386D01*
X60844781Y-77340776D01*
X60781522Y-77535465D01*
X60749500Y-77737648D01*
X60749500Y-77942351D01*
X60781522Y-78144534D01*
X60844781Y-78339223D01*
X60937715Y-78521613D01*
X61058028Y-78687213D01*
X61202786Y-78831971D01*
X61352312Y-78940606D01*
X61368390Y-78952287D01*
X61469594Y-79003853D01*
X61550776Y-79045218D01*
X61550778Y-79045218D01*
X61550781Y-79045220D01*
X61636313Y-79073011D01*
X61745465Y-79108477D01*
X61846557Y-79124488D01*
X61947648Y-79140500D01*
X61947649Y-79140500D01*
X62152351Y-79140500D01*
X62152352Y-79140500D01*
X62354534Y-79108477D01*
X62549219Y-79045220D01*
X62731610Y-78952287D01*
X62824590Y-78884732D01*
X62897213Y-78831971D01*
X62897215Y-78831968D01*
X62897219Y-78831966D01*
X63041966Y-78687219D01*
X63041968Y-78687215D01*
X63041971Y-78687213D01*
X63094732Y-78614590D01*
X63162287Y-78521610D01*
X63255220Y-78339219D01*
X63261470Y-78319983D01*
X67499500Y-78319983D01*
X67499500Y-79520001D01*
X67499501Y-79520018D01*
X67510000Y-79622796D01*
X67510001Y-79622799D01*
X67535842Y-79700781D01*
X67565186Y-79789334D01*
X67657288Y-79938656D01*
X67781344Y-80062712D01*
X67930666Y-80154814D01*
X68012570Y-80181954D01*
X68070015Y-80221727D01*
X68096838Y-80286243D01*
X68084523Y-80355018D01*
X68046451Y-80399978D01*
X67952787Y-80468028D01*
X67952782Y-80468032D01*
X67808028Y-80612786D01*
X67687715Y-80778386D01*
X67594781Y-80960776D01*
X67531522Y-81155465D01*
X67499500Y-81357648D01*
X67499500Y-81562351D01*
X67531522Y-81764534D01*
X67594781Y-81959223D01*
X67687715Y-82141613D01*
X67808028Y-82307213D01*
X67952786Y-82451971D01*
X68070805Y-82537715D01*
X68118390Y-82572287D01*
X68209840Y-82618883D01*
X68211080Y-82619515D01*
X68261876Y-82667490D01*
X68278671Y-82735311D01*
X68256134Y-82801446D01*
X68211080Y-82840485D01*
X68118386Y-82887715D01*
X67952786Y-83008028D01*
X67808028Y-83152786D01*
X67687715Y-83318386D01*
X67594781Y-83500776D01*
X67531522Y-83695465D01*
X67499500Y-83897648D01*
X67499500Y-84102351D01*
X67531522Y-84304534D01*
X67594781Y-84499223D01*
X67687715Y-84681613D01*
X67808028Y-84847213D01*
X67952786Y-84991971D01*
X68107749Y-85104556D01*
X68118390Y-85112287D01*
X68208173Y-85158034D01*
X68211080Y-85159515D01*
X68261876Y-85207490D01*
X68278671Y-85275311D01*
X68256134Y-85341446D01*
X68211080Y-85380485D01*
X68118386Y-85427715D01*
X67952786Y-85548028D01*
X67808028Y-85692786D01*
X67687715Y-85858386D01*
X67594781Y-86040776D01*
X67531522Y-86235465D01*
X67499500Y-86437648D01*
X67499500Y-86642351D01*
X67531522Y-86844534D01*
X67594781Y-87039223D01*
X67647132Y-87141966D01*
X67667088Y-87181132D01*
X67687715Y-87221613D01*
X67808028Y-87387213D01*
X67952786Y-87531971D01*
X68057472Y-87608028D01*
X68118390Y-87652287D01*
X68217490Y-87702781D01*
X68300776Y-87745218D01*
X68300778Y-87745218D01*
X68300781Y-87745220D01*
X68405137Y-87779127D01*
X68495465Y-87808477D01*
X68593953Y-87824076D01*
X68697648Y-87840500D01*
X68697649Y-87840500D01*
X68902351Y-87840500D01*
X68902352Y-87840500D01*
X69104534Y-87808477D01*
X69299219Y-87745220D01*
X69481610Y-87652287D01*
X69602108Y-87564741D01*
X69647213Y-87531971D01*
X69647215Y-87531968D01*
X69647219Y-87531966D01*
X69791966Y-87387219D01*
X69791968Y-87387215D01*
X69791971Y-87387213D01*
X69868758Y-87281523D01*
X69912287Y-87221610D01*
X70005220Y-87039219D01*
X70068477Y-86844534D01*
X70100500Y-86642352D01*
X70100500Y-86437648D01*
X70071606Y-86255220D01*
X70068477Y-86235465D01*
X70007451Y-86047648D01*
X70005220Y-86040781D01*
X70005218Y-86040778D01*
X70005218Y-86040776D01*
X69932068Y-85897213D01*
X69912287Y-85858390D01*
X69861758Y-85788842D01*
X69791971Y-85692786D01*
X69647213Y-85548028D01*
X69481614Y-85427715D01*
X69475006Y-85424348D01*
X69388917Y-85380483D01*
X69338123Y-85332511D01*
X69321328Y-85264690D01*
X69343865Y-85198555D01*
X69388917Y-85159516D01*
X69481610Y-85112287D01*
X69502770Y-85096913D01*
X69647213Y-84991971D01*
X69647215Y-84991968D01*
X69647219Y-84991966D01*
X69791966Y-84847219D01*
X69791968Y-84847215D01*
X69791971Y-84847213D01*
X69853674Y-84762284D01*
X69912287Y-84681610D01*
X70005220Y-84499219D01*
X70068477Y-84304534D01*
X70100500Y-84102352D01*
X70100500Y-83897648D01*
X70099661Y-83892351D01*
X70068477Y-83695465D01*
X70020448Y-83547648D01*
X70005220Y-83500781D01*
X70005218Y-83500778D01*
X70005218Y-83500776D01*
X69964904Y-83421656D01*
X69912287Y-83318390D01*
X69892228Y-83290781D01*
X69791971Y-83152786D01*
X69647213Y-83008028D01*
X69481614Y-82887715D01*
X69475006Y-82884348D01*
X69388917Y-82840483D01*
X69338123Y-82792511D01*
X69321328Y-82724690D01*
X69343865Y-82658555D01*
X69388917Y-82619516D01*
X69481610Y-82572287D01*
X69529195Y-82537715D01*
X69647213Y-82451971D01*
X69647215Y-82451968D01*
X69647219Y-82451966D01*
X69791966Y-82307219D01*
X69791968Y-82307215D01*
X69791971Y-82307213D01*
X69869297Y-82200781D01*
X69912287Y-82141610D01*
X70005220Y-81959219D01*
X70068477Y-81764534D01*
X70100500Y-81562352D01*
X70100500Y-81357648D01*
X70083453Y-81250018D01*
X70068477Y-81155465D01*
X70033303Y-81047213D01*
X70005220Y-80960781D01*
X70005218Y-80960778D01*
X70005218Y-80960776D01*
X69964880Y-80881610D01*
X69912287Y-80778390D01*
X69864308Y-80712352D01*
X69791971Y-80612786D01*
X69647219Y-80468034D01*
X69597085Y-80431610D01*
X69553547Y-80399978D01*
X69510882Y-80344649D01*
X69504903Y-80275036D01*
X69537508Y-80213240D01*
X69587426Y-80181955D01*
X69669334Y-80154814D01*
X69818656Y-80062712D01*
X69942712Y-79938656D01*
X70034814Y-79789334D01*
X70089999Y-79622797D01*
X70100500Y-79520009D01*
X70100499Y-78817648D01*
X75119500Y-78817648D01*
X75119500Y-79022351D01*
X75151522Y-79224534D01*
X75214781Y-79419223D01*
X75307715Y-79601613D01*
X75428028Y-79767213D01*
X75572786Y-79911971D01*
X75727749Y-80024556D01*
X75738390Y-80032287D01*
X75829840Y-80078883D01*
X75831080Y-80079515D01*
X75881876Y-80127490D01*
X75898671Y-80195311D01*
X75876134Y-80261446D01*
X75831080Y-80300485D01*
X75738386Y-80347715D01*
X75572786Y-80468028D01*
X75428028Y-80612786D01*
X75307715Y-80778386D01*
X75214781Y-80960776D01*
X75151522Y-81155465D01*
X75119500Y-81357648D01*
X75119500Y-81562351D01*
X75151522Y-81764534D01*
X75214781Y-81959223D01*
X75307715Y-82141613D01*
X75428028Y-82307213D01*
X75572786Y-82451971D01*
X75690805Y-82537715D01*
X75738390Y-82572287D01*
X75829840Y-82618883D01*
X75831080Y-82619515D01*
X75881876Y-82667490D01*
X75898671Y-82735311D01*
X75876134Y-82801446D01*
X75831080Y-82840485D01*
X75738386Y-82887715D01*
X75572786Y-83008028D01*
X75428028Y-83152786D01*
X75307715Y-83318386D01*
X75214781Y-83500776D01*
X75151522Y-83695465D01*
X75119500Y-83897648D01*
X75119500Y-84102351D01*
X75151522Y-84304534D01*
X75214781Y-84499223D01*
X75307715Y-84681613D01*
X75428028Y-84847213D01*
X75572786Y-84991971D01*
X75727749Y-85104556D01*
X75738390Y-85112287D01*
X75828173Y-85158034D01*
X75831080Y-85159515D01*
X75881876Y-85207490D01*
X75898671Y-85275311D01*
X75876134Y-85341446D01*
X75831080Y-85380485D01*
X75738386Y-85427715D01*
X75572786Y-85548028D01*
X75428028Y-85692786D01*
X75307715Y-85858386D01*
X75214781Y-86040776D01*
X75151522Y-86235465D01*
X75119500Y-86437648D01*
X75119500Y-86642351D01*
X75151522Y-86844534D01*
X75214781Y-87039223D01*
X75267132Y-87141966D01*
X75287088Y-87181132D01*
X75307715Y-87221613D01*
X75428028Y-87387213D01*
X75572786Y-87531971D01*
X75677472Y-87608028D01*
X75738390Y-87652287D01*
X75837490Y-87702781D01*
X75920776Y-87745218D01*
X75920778Y-87745218D01*
X75920781Y-87745220D01*
X76025137Y-87779127D01*
X76115465Y-87808477D01*
X76213953Y-87824076D01*
X76317648Y-87840500D01*
X76317649Y-87840500D01*
X76522351Y-87840500D01*
X76522352Y-87840500D01*
X76724534Y-87808477D01*
X76919219Y-87745220D01*
X77101610Y-87652287D01*
X77222108Y-87564741D01*
X77267213Y-87531971D01*
X77267215Y-87531968D01*
X77267219Y-87531966D01*
X77411966Y-87387219D01*
X77411968Y-87387215D01*
X77411971Y-87387213D01*
X77488758Y-87281523D01*
X77532287Y-87221610D01*
X77625220Y-87039219D01*
X77688477Y-86844534D01*
X77720500Y-86642352D01*
X77720500Y-86437648D01*
X77691606Y-86255220D01*
X77688477Y-86235465D01*
X77627451Y-86047648D01*
X77625220Y-86040781D01*
X77625218Y-86040778D01*
X77625218Y-86040776D01*
X77552068Y-85897213D01*
X77532287Y-85858390D01*
X77481758Y-85788842D01*
X77411971Y-85692786D01*
X77267213Y-85548028D01*
X77101614Y-85427715D01*
X77095006Y-85424348D01*
X77008917Y-85380483D01*
X76958123Y-85332511D01*
X76941328Y-85264690D01*
X76963865Y-85198555D01*
X77008917Y-85159516D01*
X77101610Y-85112287D01*
X77122770Y-85096913D01*
X77267213Y-84991971D01*
X77267215Y-84991968D01*
X77267219Y-84991966D01*
X77411966Y-84847219D01*
X77411968Y-84847215D01*
X77411971Y-84847213D01*
X77473674Y-84762284D01*
X77532287Y-84681610D01*
X77625220Y-84499219D01*
X77688477Y-84304534D01*
X77720500Y-84102352D01*
X77720500Y-83897648D01*
X77719661Y-83892351D01*
X77688477Y-83695465D01*
X77640448Y-83547648D01*
X77625220Y-83500781D01*
X77625218Y-83500778D01*
X77625218Y-83500776D01*
X77584904Y-83421656D01*
X77532287Y-83318390D01*
X77512228Y-83290781D01*
X77411971Y-83152786D01*
X77267213Y-83008028D01*
X77101614Y-82887715D01*
X77095006Y-82884348D01*
X77008917Y-82840483D01*
X76958123Y-82792511D01*
X76941328Y-82724690D01*
X76963865Y-82658555D01*
X77008917Y-82619516D01*
X77101610Y-82572287D01*
X77149195Y-82537715D01*
X77267213Y-82451971D01*
X77267215Y-82451968D01*
X77267219Y-82451966D01*
X77411966Y-82307219D01*
X77411968Y-82307215D01*
X77411971Y-82307213D01*
X77489297Y-82200781D01*
X77532287Y-82141610D01*
X77625220Y-81959219D01*
X77688477Y-81764534D01*
X77720500Y-81562352D01*
X77720500Y-81357648D01*
X77703453Y-81250018D01*
X77688477Y-81155465D01*
X77653303Y-81047213D01*
X77625220Y-80960781D01*
X77625218Y-80960778D01*
X77625218Y-80960776D01*
X77584880Y-80881610D01*
X77532287Y-80778390D01*
X77484308Y-80712352D01*
X77411971Y-80612786D01*
X77267213Y-80468028D01*
X77101614Y-80347715D01*
X77091803Y-80342716D01*
X77008917Y-80300483D01*
X77002631Y-80294546D01*
X76994429Y-80291811D01*
X76977620Y-80270925D01*
X76958123Y-80252511D01*
X76956043Y-80244114D01*
X76950623Y-80237379D01*
X76947773Y-80210718D01*
X76941328Y-80184690D01*
X76944117Y-80176505D01*
X76943198Y-80167905D01*
X76955216Y-80143932D01*
X76963865Y-80118555D01*
X76971456Y-80111541D01*
X76974513Y-80105446D01*
X76984859Y-80097648D01*
X80299500Y-80097648D01*
X80299500Y-80302352D01*
X80300803Y-80310581D01*
X80331522Y-80504534D01*
X80394781Y-80699223D01*
X80458691Y-80824653D01*
X80477867Y-80862287D01*
X80487715Y-80881613D01*
X80608028Y-81047213D01*
X80752786Y-81191971D01*
X80918388Y-81312286D01*
X80971828Y-81339516D01*
X81022623Y-81387490D01*
X81039418Y-81455312D01*
X81016880Y-81521446D01*
X80971828Y-81560484D01*
X80918388Y-81587713D01*
X80752786Y-81708028D01*
X80608028Y-81852786D01*
X80487715Y-82018386D01*
X80394781Y-82200776D01*
X80331522Y-82395465D01*
X80299500Y-82597648D01*
X80299500Y-82802351D01*
X80331522Y-83004534D01*
X80394781Y-83199223D01*
X80487715Y-83381613D01*
X80608028Y-83547213D01*
X80752786Y-83691971D01*
X80907749Y-83804556D01*
X80918390Y-83812287D01*
X81034607Y-83871503D01*
X81100776Y-83905218D01*
X81100778Y-83905218D01*
X81100781Y-83905220D01*
X81200784Y-83937713D01*
X81295465Y-83968477D01*
X81396557Y-83984488D01*
X81497648Y-84000500D01*
X81497649Y-84000500D01*
X81702351Y-84000500D01*
X81702352Y-84000500D01*
X81904534Y-83968477D01*
X82099219Y-83905220D01*
X82281610Y-83812287D01*
X82442402Y-83695466D01*
X82447213Y-83691971D01*
X82447215Y-83691968D01*
X82447219Y-83691966D01*
X82591966Y-83547219D01*
X82594650Y-83543524D01*
X82625100Y-83501615D01*
X82680429Y-83458949D01*
X82725418Y-83450500D01*
X87073920Y-83450500D01*
X87171462Y-83431096D01*
X87218913Y-83421658D01*
X87355495Y-83365084D01*
X87425378Y-83318390D01*
X87425381Y-83318387D01*
X87425383Y-83318387D01*
X87438771Y-83309440D01*
X87478416Y-83282952D01*
X90336819Y-80424549D01*
X90398142Y-80391064D01*
X90467834Y-80396048D01*
X90523767Y-80437920D01*
X90548184Y-80503384D01*
X90548500Y-80512230D01*
X90548500Y-84972918D01*
X90548500Y-84972920D01*
X90548499Y-84972920D01*
X90577340Y-85117907D01*
X90577343Y-85117917D01*
X90633913Y-85254490D01*
X90633914Y-85254492D01*
X90633915Y-85254494D01*
X90633916Y-85254495D01*
X90666180Y-85302781D01*
X90694334Y-85344918D01*
X90716048Y-85377416D01*
X91497990Y-86159358D01*
X91531475Y-86220681D01*
X91526491Y-86290373D01*
X91508685Y-86322526D01*
X91391389Y-86475387D01*
X91276657Y-86674109D01*
X91276650Y-86674123D01*
X91188842Y-86886112D01*
X91129453Y-87107759D01*
X91129451Y-87107770D01*
X91099500Y-87335258D01*
X91099500Y-87564741D01*
X91118777Y-87711155D01*
X91129452Y-87792238D01*
X91163253Y-87918386D01*
X91188842Y-88013887D01*
X91276650Y-88225876D01*
X91276656Y-88225888D01*
X91374642Y-88395606D01*
X91391392Y-88424617D01*
X91531081Y-88606661D01*
X91531089Y-88606670D01*
X91693330Y-88768911D01*
X91693338Y-88768918D01*
X91875382Y-88908607D01*
X91875385Y-88908608D01*
X91875388Y-88908611D01*
X92074112Y-89023344D01*
X92074117Y-89023346D01*
X92074123Y-89023349D01*
X92136589Y-89049223D01*
X92286113Y-89111158D01*
X92507762Y-89170548D01*
X92735266Y-89200500D01*
X92735273Y-89200500D01*
X94964727Y-89200500D01*
X94964734Y-89200500D01*
X95192238Y-89170548D01*
X95413887Y-89111158D01*
X95625888Y-89023344D01*
X95824612Y-88908611D01*
X96006661Y-88768919D01*
X96006665Y-88768914D01*
X96006670Y-88768911D01*
X96168911Y-88606670D01*
X96168914Y-88606665D01*
X96168919Y-88606661D01*
X96214202Y-88547648D01*
X99849500Y-88547648D01*
X99849500Y-88752351D01*
X99881522Y-88954534D01*
X99944781Y-89149223D01*
X100037715Y-89331613D01*
X100158028Y-89497213D01*
X100302786Y-89641971D01*
X100457749Y-89754556D01*
X100468390Y-89762287D01*
X100552647Y-89805218D01*
X100650776Y-89855218D01*
X100650778Y-89855218D01*
X100650781Y-89855220D01*
X100755137Y-89889127D01*
X100845465Y-89918477D01*
X100946557Y-89934488D01*
X101047648Y-89950500D01*
X101047649Y-89950500D01*
X101252351Y-89950500D01*
X101252352Y-89950500D01*
X101454534Y-89918477D01*
X101649219Y-89855220D01*
X101831610Y-89762287D01*
X101924590Y-89694732D01*
X101997213Y-89641971D01*
X101997215Y-89641968D01*
X101997219Y-89641966D01*
X102141966Y-89497219D01*
X102141968Y-89497215D01*
X102141971Y-89497213D01*
X102194732Y-89424590D01*
X102262287Y-89331610D01*
X102289515Y-89278171D01*
X102337490Y-89227376D01*
X102405311Y-89210581D01*
X102471446Y-89233118D01*
X102510485Y-89278172D01*
X102537715Y-89331613D01*
X102658028Y-89497213D01*
X102802786Y-89641971D01*
X102957749Y-89754556D01*
X102968390Y-89762287D01*
X103052647Y-89805218D01*
X103150776Y-89855218D01*
X103150778Y-89855218D01*
X103150781Y-89855220D01*
X103255137Y-89889127D01*
X103345465Y-89918477D01*
X103446557Y-89934488D01*
X103547648Y-89950500D01*
X103547649Y-89950500D01*
X103752351Y-89950500D01*
X103752352Y-89950500D01*
X103954534Y-89918477D01*
X104149219Y-89855220D01*
X104331610Y-89762287D01*
X104424590Y-89694732D01*
X104497213Y-89641971D01*
X104497215Y-89641968D01*
X104497219Y-89641966D01*
X104641966Y-89497219D01*
X104641968Y-89497215D01*
X104641971Y-89497213D01*
X104694732Y-89424590D01*
X104762287Y-89331610D01*
X104855220Y-89149219D01*
X104918477Y-88954534D01*
X104950500Y-88752352D01*
X104950500Y-88547648D01*
X104939404Y-88477591D01*
X104918477Y-88345465D01*
X104863159Y-88175215D01*
X104855220Y-88150781D01*
X104855218Y-88150778D01*
X104855218Y-88150776D01*
X104812470Y-88066880D01*
X104762287Y-87968390D01*
X104738479Y-87935621D01*
X104641971Y-87802786D01*
X104497213Y-87658028D01*
X104331613Y-87537715D01*
X104331612Y-87537714D01*
X104331610Y-87537713D01*
X104233480Y-87487713D01*
X104149223Y-87444781D01*
X103954534Y-87381522D01*
X103779995Y-87353878D01*
X103752352Y-87349500D01*
X103547648Y-87349500D01*
X103523329Y-87353351D01*
X103345465Y-87381522D01*
X103150776Y-87444781D01*
X102968386Y-87537715D01*
X102802786Y-87658028D01*
X102658028Y-87802786D01*
X102537713Y-87968388D01*
X102510484Y-88021828D01*
X102462510Y-88072623D01*
X102394688Y-88089418D01*
X102328554Y-88066880D01*
X102289516Y-88021828D01*
X102262286Y-87968388D01*
X102141971Y-87802786D01*
X101997213Y-87658028D01*
X101831613Y-87537715D01*
X101831612Y-87537714D01*
X101831610Y-87537713D01*
X101733480Y-87487713D01*
X101649223Y-87444781D01*
X101454534Y-87381522D01*
X101279995Y-87353878D01*
X101252352Y-87349500D01*
X101047648Y-87349500D01*
X101023329Y-87353351D01*
X100845465Y-87381522D01*
X100650776Y-87444781D01*
X100468386Y-87537715D01*
X100302786Y-87658028D01*
X100158028Y-87802786D01*
X100037715Y-87968386D01*
X99944781Y-88150776D01*
X99881522Y-88345465D01*
X99849500Y-88547648D01*
X96214202Y-88547648D01*
X96308611Y-88424612D01*
X96423344Y-88225888D01*
X96511158Y-88013887D01*
X96570548Y-87792238D01*
X96600500Y-87564734D01*
X96600500Y-87335266D01*
X96570548Y-87107762D01*
X96511158Y-86886113D01*
X96423344Y-86674112D01*
X96308611Y-86475388D01*
X96308608Y-86475385D01*
X96308607Y-86475382D01*
X96168918Y-86293338D01*
X96168911Y-86293330D01*
X96006670Y-86131089D01*
X96006661Y-86131081D01*
X95824617Y-85991392D01*
X95625890Y-85876657D01*
X95625876Y-85876650D01*
X95413887Y-85788842D01*
X95192238Y-85729452D01*
X95154215Y-85724446D01*
X94964741Y-85699500D01*
X94964734Y-85699500D01*
X93212230Y-85699500D01*
X93145191Y-85679815D01*
X93124549Y-85663181D01*
X92085819Y-84624451D01*
X92052334Y-84563128D01*
X92049500Y-84536770D01*
X92049500Y-83874499D01*
X92069185Y-83807460D01*
X92121989Y-83761705D01*
X92173500Y-83750499D01*
X96147871Y-83750499D01*
X96147872Y-83750499D01*
X96207483Y-83744091D01*
X96342331Y-83693796D01*
X96457546Y-83607546D01*
X96543796Y-83492331D01*
X96594091Y-83357483D01*
X96600500Y-83297873D01*
X96600499Y-80702128D01*
X96594091Y-80642517D01*
X96583000Y-80612781D01*
X96543797Y-80507671D01*
X96543793Y-80507664D01*
X96457547Y-80392455D01*
X96457544Y-80392452D01*
X96342335Y-80306206D01*
X96342328Y-80306202D01*
X96207482Y-80255908D01*
X96207483Y-80255908D01*
X96147883Y-80249501D01*
X96147881Y-80249500D01*
X96147873Y-80249500D01*
X96147865Y-80249500D01*
X92173500Y-80249500D01*
X92106461Y-80229815D01*
X92060706Y-80177011D01*
X92049500Y-80125500D01*
X92049500Y-79647648D01*
X99399500Y-79647648D01*
X99399500Y-79852351D01*
X99431522Y-80054534D01*
X99494781Y-80249223D01*
X99548943Y-80355520D01*
X99584115Y-80424549D01*
X99587715Y-80431613D01*
X99708028Y-80597213D01*
X99852786Y-80741971D01*
X100007749Y-80854556D01*
X100018390Y-80862287D01*
X100134607Y-80921503D01*
X100200776Y-80955218D01*
X100200778Y-80955218D01*
X100200781Y-80955220D01*
X100305137Y-80989127D01*
X100395465Y-81018477D01*
X100496557Y-81034488D01*
X100597648Y-81050500D01*
X100597649Y-81050500D01*
X100802351Y-81050500D01*
X100802352Y-81050500D01*
X101004534Y-81018477D01*
X101199219Y-80955220D01*
X101381610Y-80862287D01*
X101474590Y-80794732D01*
X101547213Y-80741971D01*
X101547215Y-80741968D01*
X101547219Y-80741966D01*
X101691966Y-80597219D01*
X101691968Y-80597215D01*
X101691971Y-80597213D01*
X101757031Y-80507664D01*
X101812287Y-80431610D01*
X101839515Y-80378171D01*
X101887490Y-80327376D01*
X101955311Y-80310581D01*
X102021446Y-80333118D01*
X102060484Y-80378171D01*
X102084115Y-80424549D01*
X102087715Y-80431613D01*
X102208028Y-80597213D01*
X102352786Y-80741971D01*
X102507749Y-80854556D01*
X102518390Y-80862287D01*
X102634607Y-80921503D01*
X102700776Y-80955218D01*
X102700778Y-80955218D01*
X102700781Y-80955220D01*
X102805137Y-80989127D01*
X102895465Y-81018477D01*
X102996557Y-81034488D01*
X103097648Y-81050500D01*
X103097649Y-81050500D01*
X103302351Y-81050500D01*
X103302352Y-81050500D01*
X103504534Y-81018477D01*
X103699219Y-80955220D01*
X103881610Y-80862287D01*
X103974590Y-80794732D01*
X104047213Y-80741971D01*
X104047215Y-80741968D01*
X104047219Y-80741966D01*
X104191966Y-80597219D01*
X104191968Y-80597215D01*
X104191971Y-80597213D01*
X104257031Y-80507664D01*
X104312287Y-80431610D01*
X104405220Y-80249219D01*
X104468477Y-80054534D01*
X104500500Y-79852352D01*
X104500500Y-79647648D01*
X104480284Y-79520009D01*
X104468477Y-79445465D01*
X104413898Y-79277490D01*
X104405220Y-79250781D01*
X104405218Y-79250778D01*
X104405218Y-79250776D01*
X104371503Y-79184607D01*
X104312287Y-79068390D01*
X104273633Y-79015187D01*
X104191971Y-78902786D01*
X104047213Y-78758028D01*
X103881613Y-78637715D01*
X103881612Y-78637714D01*
X103881610Y-78637713D01*
X103793232Y-78592682D01*
X103699223Y-78544781D01*
X103504534Y-78481522D01*
X103329995Y-78453878D01*
X103302352Y-78449500D01*
X103097648Y-78449500D01*
X103073329Y-78453351D01*
X102895465Y-78481522D01*
X102700776Y-78544781D01*
X102518386Y-78637715D01*
X102352786Y-78758028D01*
X102208028Y-78902786D01*
X102087713Y-79068388D01*
X102060484Y-79121828D01*
X102012510Y-79172623D01*
X101944688Y-79189418D01*
X101878554Y-79166880D01*
X101839516Y-79121828D01*
X101812286Y-79068388D01*
X101691971Y-78902786D01*
X101547213Y-78758028D01*
X101381613Y-78637715D01*
X101381612Y-78637714D01*
X101381610Y-78637713D01*
X101293232Y-78592682D01*
X101199223Y-78544781D01*
X101004534Y-78481522D01*
X100829995Y-78453878D01*
X100802352Y-78449500D01*
X100597648Y-78449500D01*
X100573329Y-78453351D01*
X100395465Y-78481522D01*
X100200776Y-78544781D01*
X100018386Y-78637715D01*
X99852786Y-78758028D01*
X99708028Y-78902786D01*
X99587715Y-79068386D01*
X99494781Y-79250776D01*
X99431522Y-79445465D01*
X99399500Y-79647648D01*
X92049500Y-79647648D01*
X92049500Y-78763230D01*
X92069185Y-78696191D01*
X92085819Y-78675549D01*
X93124549Y-77636819D01*
X93185872Y-77603334D01*
X93212230Y-77600500D01*
X94964727Y-77600500D01*
X94964734Y-77600500D01*
X95192238Y-77570548D01*
X95413887Y-77511158D01*
X95625888Y-77423344D01*
X95824612Y-77308611D01*
X96006661Y-77168919D01*
X96006665Y-77168914D01*
X96006670Y-77168911D01*
X96168911Y-77006670D01*
X96168914Y-77006665D01*
X96168919Y-77006661D01*
X96308611Y-76824612D01*
X96423344Y-76625888D01*
X96511158Y-76413887D01*
X96570548Y-76192238D01*
X96600500Y-75964734D01*
X96600500Y-75735266D01*
X96570548Y-75507762D01*
X96511158Y-75286113D01*
X96454547Y-75149442D01*
X96423349Y-75074123D01*
X96423346Y-75074117D01*
X96423344Y-75074112D01*
X96308611Y-74875388D01*
X96308608Y-74875385D01*
X96308607Y-74875382D01*
X96207764Y-74743962D01*
X96168919Y-74693339D01*
X96168918Y-74693338D01*
X96168911Y-74693330D01*
X96006670Y-74531089D01*
X96006661Y-74531081D01*
X95824617Y-74391392D01*
X95625890Y-74276657D01*
X95625876Y-74276650D01*
X95413887Y-74188842D01*
X95409673Y-74187713D01*
X95192238Y-74129452D01*
X95154215Y-74124446D01*
X94964741Y-74099500D01*
X94964734Y-74099500D01*
X92735266Y-74099500D01*
X92735258Y-74099500D01*
X92518715Y-74128009D01*
X92507762Y-74129452D01*
X92432885Y-74149515D01*
X92286112Y-74188842D01*
X92074123Y-74276650D01*
X92074109Y-74276657D01*
X91875382Y-74391392D01*
X91693338Y-74531081D01*
X91531081Y-74693338D01*
X91391392Y-74875382D01*
X91276657Y-75074109D01*
X91276650Y-75074123D01*
X91188842Y-75286112D01*
X91129453Y-75507759D01*
X91129451Y-75507770D01*
X91099500Y-75735258D01*
X91099500Y-75964741D01*
X91109108Y-76037715D01*
X91129452Y-76192238D01*
X91136824Y-76219750D01*
X91188842Y-76413887D01*
X91276650Y-76625876D01*
X91276657Y-76625890D01*
X91391392Y-76824617D01*
X91508684Y-76977473D01*
X91533879Y-77042642D01*
X91519841Y-77111087D01*
X91497990Y-77140641D01*
X86725451Y-81913181D01*
X86664128Y-81946666D01*
X86637770Y-81949500D01*
X82725418Y-81949500D01*
X82658379Y-81929815D01*
X82625100Y-81898385D01*
X82591971Y-81852787D01*
X82591967Y-81852782D01*
X82447213Y-81708028D01*
X82281613Y-81587715D01*
X82281612Y-81587714D01*
X82281610Y-81587713D01*
X82228171Y-81560484D01*
X82177376Y-81512510D01*
X82160581Y-81444689D01*
X82183118Y-81378554D01*
X82228172Y-81339515D01*
X82281610Y-81312287D01*
X82374590Y-81244732D01*
X82447213Y-81191971D01*
X82447215Y-81191968D01*
X82447219Y-81191966D01*
X82591966Y-81047219D01*
X82591968Y-81047215D01*
X82591971Y-81047213D01*
X82654770Y-80960776D01*
X82712287Y-80881610D01*
X82805220Y-80699219D01*
X82868477Y-80504534D01*
X82900500Y-80302352D01*
X82900500Y-80097648D01*
X82871091Y-79911971D01*
X82868477Y-79895465D01*
X82826805Y-79767213D01*
X82805220Y-79700781D01*
X82805218Y-79700778D01*
X82805218Y-79700776D01*
X82765485Y-79622797D01*
X82712287Y-79518390D01*
X82662952Y-79450485D01*
X82591971Y-79352786D01*
X82447213Y-79208028D01*
X82281613Y-79087715D01*
X82281612Y-79087714D01*
X82281610Y-79087713D01*
X82198209Y-79045218D01*
X82099223Y-78994781D01*
X81904534Y-78931522D01*
X81729995Y-78903878D01*
X81702352Y-78899500D01*
X81497648Y-78899500D01*
X81476933Y-78902781D01*
X81295465Y-78931522D01*
X81100776Y-78994781D01*
X80918386Y-79087715D01*
X80752786Y-79208028D01*
X80608028Y-79352786D01*
X80487715Y-79518386D01*
X80394781Y-79700776D01*
X80331522Y-79895465D01*
X80305034Y-80062710D01*
X80299500Y-80097648D01*
X76984859Y-80097648D01*
X76993750Y-80090947D01*
X77002009Y-80083318D01*
X77005404Y-80081305D01*
X77101610Y-80032287D01*
X77267219Y-79911966D01*
X77411966Y-79767219D01*
X77411968Y-79767215D01*
X77411971Y-79767213D01*
X77491493Y-79657758D01*
X77532287Y-79601610D01*
X77625220Y-79419219D01*
X77688477Y-79224534D01*
X77720500Y-79022352D01*
X77720500Y-78817648D01*
X77688477Y-78615466D01*
X77673450Y-78569219D01*
X77625218Y-78420776D01*
X77583664Y-78339223D01*
X77532287Y-78238390D01*
X77484308Y-78172352D01*
X77411971Y-78072786D01*
X77267213Y-77928028D01*
X77101613Y-77807715D01*
X77101612Y-77807714D01*
X77101610Y-77807713D01*
X77018694Y-77765465D01*
X76919223Y-77714781D01*
X76724534Y-77651522D01*
X76549995Y-77623878D01*
X76522352Y-77619500D01*
X76317648Y-77619500D01*
X76293329Y-77623351D01*
X76115465Y-77651522D01*
X75920776Y-77714781D01*
X75738386Y-77807715D01*
X75572786Y-77928028D01*
X75428028Y-78072786D01*
X75307715Y-78238386D01*
X75214781Y-78420776D01*
X75151522Y-78615465D01*
X75119500Y-78817648D01*
X70100499Y-78817648D01*
X70100499Y-78319992D01*
X70089999Y-78217203D01*
X70034814Y-78050666D01*
X69942712Y-77901344D01*
X69818656Y-77777288D01*
X69669334Y-77685186D01*
X69502797Y-77630001D01*
X69502795Y-77630000D01*
X69400010Y-77619500D01*
X68199998Y-77619500D01*
X68199981Y-77619501D01*
X68097203Y-77630000D01*
X68097200Y-77630001D01*
X67930668Y-77685185D01*
X67930663Y-77685187D01*
X67781342Y-77777289D01*
X67657289Y-77901342D01*
X67565187Y-78050663D01*
X67565186Y-78050666D01*
X67510001Y-78217203D01*
X67510001Y-78217204D01*
X67510000Y-78217204D01*
X67499500Y-78319983D01*
X63261470Y-78319983D01*
X63301765Y-78195968D01*
X63318476Y-78144538D01*
X63318476Y-78144537D01*
X63318477Y-78144534D01*
X63350500Y-77942352D01*
X63350500Y-77737648D01*
X63339514Y-77668284D01*
X63318477Y-77535465D01*
X63284401Y-77430591D01*
X63255220Y-77340781D01*
X63255218Y-77340778D01*
X63255218Y-77340776D01*
X63210163Y-77252352D01*
X63162287Y-77158390D01*
X63146356Y-77136463D01*
X63041971Y-76992786D01*
X62897213Y-76848028D01*
X62731614Y-76727715D01*
X62725006Y-76724348D01*
X62638917Y-76680483D01*
X62588123Y-76632511D01*
X62571328Y-76564690D01*
X62593865Y-76498555D01*
X62638917Y-76459516D01*
X62731610Y-76412287D01*
X62752770Y-76396913D01*
X62897213Y-76291971D01*
X62897215Y-76291968D01*
X62897219Y-76291966D01*
X63041966Y-76147219D01*
X63041968Y-76147215D01*
X63041971Y-76147213D01*
X63110675Y-76052648D01*
X63162287Y-75981610D01*
X63255220Y-75799219D01*
X63318477Y-75604534D01*
X63350500Y-75402352D01*
X63350500Y-75197648D01*
X63336143Y-75107000D01*
X63318477Y-74995465D01*
X63277495Y-74869337D01*
X63255220Y-74800781D01*
X63255218Y-74800778D01*
X63255218Y-74800776D01*
X63195098Y-74682786D01*
X63162287Y-74618390D01*
X63104495Y-74538845D01*
X63041971Y-74452786D01*
X62897213Y-74308028D01*
X62731613Y-74187715D01*
X62731612Y-74187714D01*
X62731610Y-74187713D01*
X62674653Y-74158691D01*
X62549223Y-74094781D01*
X62354534Y-74031522D01*
X62179995Y-74003878D01*
X62152352Y-73999500D01*
X61947648Y-73999500D01*
X61923329Y-74003351D01*
X61745465Y-74031522D01*
X61550776Y-74094781D01*
X61368386Y-74187715D01*
X61202786Y-74308028D01*
X61058028Y-74452786D01*
X60937715Y-74618386D01*
X60844781Y-74800776D01*
X60781522Y-74995465D01*
X60749500Y-75197648D01*
X55249672Y-75197648D01*
X55267651Y-75149443D01*
X55267651Y-75149442D01*
X55293597Y-75079876D01*
X55293598Y-75079872D01*
X55299999Y-75020344D01*
X55300000Y-75020327D01*
X55300000Y-74270000D01*
X54290748Y-74270000D01*
X54312518Y-74232292D01*
X54350000Y-74092409D01*
X54350000Y-73947591D01*
X54312518Y-73807708D01*
X54290748Y-73770000D01*
X55300000Y-73770000D01*
X55300000Y-73574038D01*
X64789500Y-73574038D01*
X64789500Y-73825962D01*
X64808764Y-73947591D01*
X64828910Y-74074785D01*
X64906760Y-74314383D01*
X64945999Y-74391392D01*
X65017906Y-74532518D01*
X65021132Y-74538848D01*
X65169201Y-74742649D01*
X65169205Y-74742654D01*
X65347345Y-74920794D01*
X65347350Y-74920798D01*
X65490392Y-75024723D01*
X65551155Y-75068870D01*
X65694184Y-75141747D01*
X65775616Y-75183239D01*
X65775618Y-75183239D01*
X65775621Y-75183241D01*
X66015215Y-75261090D01*
X66264038Y-75300500D01*
X66264039Y-75300500D01*
X66515961Y-75300500D01*
X66515962Y-75300500D01*
X66764785Y-75261090D01*
X67004379Y-75183241D01*
X67228845Y-75068870D01*
X67432656Y-74920793D01*
X67610793Y-74742656D01*
X67758870Y-74538845D01*
X67873241Y-74314379D01*
X67951090Y-74074785D01*
X67990500Y-73825962D01*
X67990500Y-73574038D01*
X67951090Y-73325215D01*
X67873241Y-73085621D01*
X67873239Y-73085618D01*
X67873239Y-73085616D01*
X67797688Y-72937339D01*
X67758870Y-72861155D01*
X67714431Y-72799990D01*
X67714425Y-72799982D01*
X74949500Y-72799982D01*
X74949500Y-74600017D01*
X74960000Y-74702796D01*
X75015185Y-74869332D01*
X75015187Y-74869337D01*
X75036875Y-74904499D01*
X75107288Y-75018656D01*
X75231344Y-75142712D01*
X75380665Y-75234814D01*
X75547202Y-75289999D01*
X75649990Y-75300500D01*
X75649995Y-75300500D01*
X77450005Y-75300500D01*
X77450010Y-75300500D01*
X77552798Y-75289999D01*
X77719335Y-75234814D01*
X77868656Y-75142712D01*
X77992712Y-75018656D01*
X78084814Y-74869335D01*
X78139999Y-74702798D01*
X78150500Y-74600010D01*
X78150500Y-72799990D01*
X78139999Y-72697202D01*
X78084814Y-72530665D01*
X77992712Y-72381344D01*
X77868656Y-72257288D01*
X77737678Y-72176500D01*
X77719337Y-72165187D01*
X77719332Y-72165185D01*
X77715237Y-72163828D01*
X77552798Y-72110001D01*
X77552796Y-72110000D01*
X77450017Y-72099500D01*
X77450010Y-72099500D01*
X75649990Y-72099500D01*
X75649982Y-72099500D01*
X75547203Y-72110000D01*
X75547202Y-72110001D01*
X75464669Y-72137349D01*
X75380667Y-72165185D01*
X75380662Y-72165187D01*
X75231342Y-72257289D01*
X75107289Y-72381342D01*
X75015187Y-72530662D01*
X75015186Y-72530665D01*
X74960001Y-72697202D01*
X74960001Y-72697203D01*
X74960000Y-72697203D01*
X74949500Y-72799982D01*
X67714425Y-72799982D01*
X67610798Y-72657350D01*
X67610794Y-72657345D01*
X67432654Y-72479205D01*
X67432649Y-72479201D01*
X67228848Y-72331132D01*
X67228847Y-72331131D01*
X67228845Y-72331130D01*
X67158747Y-72295413D01*
X67004383Y-72216760D01*
X66764785Y-72138910D01*
X66692531Y-72127466D01*
X66515962Y-72099500D01*
X66264038Y-72099500D01*
X66197738Y-72110001D01*
X66015214Y-72138910D01*
X65775616Y-72216760D01*
X65551151Y-72331132D01*
X65347350Y-72479201D01*
X65347345Y-72479205D01*
X65169205Y-72657345D01*
X65169201Y-72657350D01*
X65021132Y-72861151D01*
X64906760Y-73085616D01*
X64828910Y-73325214D01*
X64797140Y-73525802D01*
X64789500Y-73574038D01*
X55300000Y-73574038D01*
X55300000Y-73019672D01*
X55299999Y-73019655D01*
X55293598Y-72960127D01*
X55293596Y-72960120D01*
X55243354Y-72825413D01*
X55243350Y-72825406D01*
X55157190Y-72710312D01*
X55157187Y-72710309D01*
X55042093Y-72624149D01*
X55042086Y-72624145D01*
X54907379Y-72573903D01*
X54907372Y-72573901D01*
X54847844Y-72567500D01*
X54050000Y-72567500D01*
X54050000Y-73529252D01*
X54012292Y-73507482D01*
X53872409Y-73470000D01*
X53727591Y-73470000D01*
X53587708Y-73507482D01*
X53550000Y-73529252D01*
X53550000Y-72567500D01*
X52752155Y-72567500D01*
X52692627Y-72573901D01*
X52692620Y-72573903D01*
X52557913Y-72624145D01*
X52557906Y-72624149D01*
X52442812Y-72710309D01*
X52442809Y-72710312D01*
X52356649Y-72825406D01*
X52356645Y-72825413D01*
X52306403Y-72960120D01*
X52306401Y-72960127D01*
X52300000Y-73019655D01*
X52300000Y-73770000D01*
X53309252Y-73770000D01*
X53287482Y-73807708D01*
X53250000Y-73947591D01*
X53250000Y-74092409D01*
X53287482Y-74232292D01*
X53309252Y-74270000D01*
X52300000Y-74270000D01*
X52300000Y-74755500D01*
X52280315Y-74822539D01*
X52227511Y-74868294D01*
X52176000Y-74879500D01*
X50213071Y-74879500D01*
X50146032Y-74859815D01*
X50112754Y-74828386D01*
X50006966Y-74682781D01*
X49862219Y-74538034D01*
X49862213Y-74538028D01*
X49696614Y-74417715D01*
X49644946Y-74391389D01*
X49603917Y-74370483D01*
X49553123Y-74322511D01*
X49536328Y-74254690D01*
X49558865Y-74188555D01*
X49603917Y-74149516D01*
X49696610Y-74102287D01*
X49734464Y-74074785D01*
X49862213Y-73981971D01*
X49862215Y-73981968D01*
X49862219Y-73981966D01*
X50006966Y-73837219D01*
X50006968Y-73837215D01*
X50006971Y-73837213D01*
X50108526Y-73697432D01*
X50127287Y-73671610D01*
X50220220Y-73489219D01*
X50283477Y-73294534D01*
X50315500Y-73092352D01*
X50315500Y-72887648D01*
X50293036Y-72745818D01*
X50283477Y-72685465D01*
X50247227Y-72573901D01*
X50220220Y-72490781D01*
X50220218Y-72490778D01*
X50220218Y-72490776D01*
X50160817Y-72374197D01*
X50127287Y-72308390D01*
X50104409Y-72276901D01*
X50006971Y-72142786D01*
X49862217Y-71998032D01*
X49862212Y-71998028D01*
X49716615Y-71892246D01*
X49673949Y-71836916D01*
X49665500Y-71791928D01*
X49665500Y-69900928D01*
X49643175Y-69788697D01*
X49649402Y-69719105D01*
X49692265Y-69663928D01*
X49758154Y-69640683D01*
X49784180Y-69642031D01*
X49837648Y-69650500D01*
X49837651Y-69650500D01*
X50042351Y-69650500D01*
X50042352Y-69650500D01*
X50244534Y-69618477D01*
X50439219Y-69555220D01*
X50621610Y-69462287D01*
X50714590Y-69394732D01*
X50787213Y-69341971D01*
X50787215Y-69341968D01*
X50787219Y-69341966D01*
X50931966Y-69197219D01*
X50931968Y-69197215D01*
X50931971Y-69197213D01*
X51005894Y-69095465D01*
X51052287Y-69031610D01*
X51145220Y-68849219D01*
X51208477Y-68654534D01*
X51240500Y-68452352D01*
X51240500Y-68247648D01*
X51859500Y-68247648D01*
X51859500Y-68452351D01*
X51891522Y-68654534D01*
X51954781Y-68849223D01*
X52047715Y-69031613D01*
X52168028Y-69197213D01*
X52312786Y-69341971D01*
X52427594Y-69425382D01*
X52478390Y-69462287D01*
X52557022Y-69502352D01*
X52660776Y-69555218D01*
X52660778Y-69555218D01*
X52660781Y-69555220D01*
X52765137Y-69589127D01*
X52855465Y-69618477D01*
X52956557Y-69634488D01*
X53057648Y-69650500D01*
X53057649Y-69650500D01*
X53262351Y-69650500D01*
X53262352Y-69650500D01*
X53464534Y-69618477D01*
X53659219Y-69555220D01*
X53841610Y-69462287D01*
X53934590Y-69394732D01*
X54007213Y-69341971D01*
X54007215Y-69341968D01*
X54007219Y-69341966D01*
X54151966Y-69197219D01*
X54151968Y-69197215D01*
X54151971Y-69197213D01*
X54272284Y-69031614D01*
X54272285Y-69031613D01*
X54272287Y-69031610D01*
X54319516Y-68938917D01*
X54367489Y-68888123D01*
X54435310Y-68871328D01*
X54501445Y-68893865D01*
X54540483Y-68938917D01*
X54541745Y-68941392D01*
X54587715Y-69031614D01*
X54708028Y-69197213D01*
X54852786Y-69341971D01*
X54967594Y-69425382D01*
X55018390Y-69462287D01*
X55097022Y-69502352D01*
X55200776Y-69555218D01*
X55200778Y-69555218D01*
X55200781Y-69555220D01*
X55305137Y-69589127D01*
X55395465Y-69618477D01*
X55496557Y-69634488D01*
X55597648Y-69650500D01*
X55597649Y-69650500D01*
X55802351Y-69650500D01*
X55802352Y-69650500D01*
X56004534Y-69618477D01*
X56199219Y-69555220D01*
X56381610Y-69462287D01*
X56474590Y-69394732D01*
X56547213Y-69341971D01*
X56547215Y-69341968D01*
X56547219Y-69341966D01*
X56691966Y-69197219D01*
X56691968Y-69197215D01*
X56691971Y-69197213D01*
X56765894Y-69095465D01*
X56812287Y-69031610D01*
X56905220Y-68849219D01*
X56968477Y-68654534D01*
X57000500Y-68452352D01*
X57000500Y-68247648D01*
X56981908Y-68130263D01*
X56968477Y-68045465D01*
X56905218Y-67850776D01*
X56859515Y-67761080D01*
X56812287Y-67668390D01*
X56778095Y-67621328D01*
X56691971Y-67502786D01*
X56547213Y-67358028D01*
X56381613Y-67237715D01*
X56381612Y-67237714D01*
X56381610Y-67237713D01*
X56301542Y-67196916D01*
X56199223Y-67144781D01*
X56004534Y-67081522D01*
X55829995Y-67053878D01*
X55802352Y-67049500D01*
X55597648Y-67049500D01*
X55573329Y-67053351D01*
X55395465Y-67081522D01*
X55200776Y-67144781D01*
X55018386Y-67237715D01*
X54852786Y-67358028D01*
X54708028Y-67502786D01*
X54587715Y-67668386D01*
X54540485Y-67761080D01*
X54492510Y-67811876D01*
X54424689Y-67828671D01*
X54358554Y-67806134D01*
X54319515Y-67761080D01*
X54318883Y-67759840D01*
X54272287Y-67668390D01*
X54238095Y-67621328D01*
X54151971Y-67502786D01*
X54007213Y-67358028D01*
X53841613Y-67237715D01*
X53841612Y-67237714D01*
X53841610Y-67237713D01*
X53761542Y-67196916D01*
X53659223Y-67144781D01*
X53464534Y-67081522D01*
X53289995Y-67053878D01*
X53262352Y-67049500D01*
X53057648Y-67049500D01*
X53033329Y-67053351D01*
X52855465Y-67081522D01*
X52660776Y-67144781D01*
X52478386Y-67237715D01*
X52312786Y-67358028D01*
X52168028Y-67502786D01*
X52047715Y-67668386D01*
X51954781Y-67850776D01*
X51891522Y-68045465D01*
X51859500Y-68247648D01*
X51240500Y-68247648D01*
X51221908Y-68130263D01*
X51208477Y-68045465D01*
X51145218Y-67850776D01*
X51099515Y-67761080D01*
X51052287Y-67668390D01*
X51018095Y-67621328D01*
X50931971Y-67502786D01*
X50787213Y-67358028D01*
X50621613Y-67237715D01*
X50621612Y-67237714D01*
X50621610Y-67237713D01*
X50541542Y-67196916D01*
X50439223Y-67144781D01*
X50244534Y-67081522D01*
X50069995Y-67053878D01*
X50042352Y-67049500D01*
X49837648Y-67049500D01*
X49813329Y-67053351D01*
X49635465Y-67081522D01*
X49440776Y-67144781D01*
X49258386Y-67237715D01*
X49092786Y-67358028D01*
X48948028Y-67502786D01*
X48827715Y-67668386D01*
X48780485Y-67761080D01*
X48732510Y-67811876D01*
X48664689Y-67828671D01*
X48598554Y-67806134D01*
X48559515Y-67761080D01*
X48558883Y-67759840D01*
X48512287Y-67668390D01*
X48478095Y-67621328D01*
X48391971Y-67502786D01*
X48247217Y-67358032D01*
X48247212Y-67358028D01*
X48101615Y-67252246D01*
X48058949Y-67196916D01*
X48050500Y-67151928D01*
X48050500Y-66797648D01*
X60699500Y-66797648D01*
X60699500Y-67002351D01*
X60731522Y-67204534D01*
X60794781Y-67399223D01*
X60887715Y-67581613D01*
X61008028Y-67747213D01*
X61152786Y-67891971D01*
X61318388Y-68012286D01*
X61371828Y-68039516D01*
X61422623Y-68087490D01*
X61439418Y-68155312D01*
X61416880Y-68221446D01*
X61371828Y-68260484D01*
X61318388Y-68287713D01*
X61152786Y-68408028D01*
X61008028Y-68552786D01*
X60887715Y-68718386D01*
X60794781Y-68900776D01*
X60731522Y-69095465D01*
X60699500Y-69297648D01*
X60699500Y-69502351D01*
X60731522Y-69704534D01*
X60794781Y-69899223D01*
X60851683Y-70010897D01*
X60877938Y-70062426D01*
X60887715Y-70081613D01*
X61008028Y-70247213D01*
X61152786Y-70391971D01*
X61298241Y-70497648D01*
X61318390Y-70512287D01*
X61397022Y-70552352D01*
X61500776Y-70605218D01*
X61500778Y-70605218D01*
X61500781Y-70605220D01*
X61605137Y-70639127D01*
X61695465Y-70668477D01*
X61796557Y-70684488D01*
X61897648Y-70700500D01*
X61897649Y-70700500D01*
X62102351Y-70700500D01*
X62102352Y-70700500D01*
X62304534Y-70668477D01*
X62499219Y-70605220D01*
X62681610Y-70512287D01*
X62839824Y-70397339D01*
X62847213Y-70391971D01*
X62847215Y-70391968D01*
X62847219Y-70391966D01*
X62991966Y-70247219D01*
X62991968Y-70247215D01*
X62991971Y-70247213D01*
X63044732Y-70174590D01*
X63112287Y-70081610D01*
X63205220Y-69899219D01*
X63268477Y-69704534D01*
X63300500Y-69502352D01*
X63300500Y-69297648D01*
X63276700Y-69147383D01*
X63268477Y-69095465D01*
X63205218Y-68900776D01*
X63167448Y-68826650D01*
X63112287Y-68718390D01*
X63104556Y-68707749D01*
X62991971Y-68552786D01*
X62847213Y-68408028D01*
X62681613Y-68287715D01*
X62681612Y-68287714D01*
X62681610Y-68287713D01*
X62628171Y-68260484D01*
X62577376Y-68212510D01*
X62560581Y-68144689D01*
X62583118Y-68078554D01*
X62628172Y-68039515D01*
X62681610Y-68012287D01*
X62793957Y-67930663D01*
X62847213Y-67891971D01*
X62847215Y-67891968D01*
X62847219Y-67891966D01*
X62991966Y-67747219D01*
X62991968Y-67747215D01*
X62991971Y-67747213D01*
X63083430Y-67621328D01*
X63112287Y-67581610D01*
X63205220Y-67399219D01*
X63268477Y-67204534D01*
X63269568Y-67197648D01*
X67054500Y-67197648D01*
X67054500Y-67402351D01*
X67086522Y-67604534D01*
X67149781Y-67799223D01*
X67242715Y-67981613D01*
X67363028Y-68147213D01*
X67507786Y-68291971D01*
X67604566Y-68362284D01*
X67673390Y-68412287D01*
X67752022Y-68452352D01*
X67855776Y-68505218D01*
X67855778Y-68505218D01*
X67855781Y-68505220D01*
X67960137Y-68539127D01*
X68050465Y-68568477D01*
X68151557Y-68584488D01*
X68252648Y-68600500D01*
X68252649Y-68600500D01*
X68457351Y-68600500D01*
X68457352Y-68600500D01*
X68659534Y-68568477D01*
X68854219Y-68505220D01*
X69036610Y-68412287D01*
X69129590Y-68344732D01*
X69202213Y-68291971D01*
X69202215Y-68291968D01*
X69202219Y-68291966D01*
X69346966Y-68147219D01*
X69346968Y-68147215D01*
X69346971Y-68147213D01*
X69467284Y-67981614D01*
X69467285Y-67981613D01*
X69467287Y-67981610D01*
X69514516Y-67888917D01*
X69562489Y-67838123D01*
X69630310Y-67821328D01*
X69696445Y-67843865D01*
X69735483Y-67888917D01*
X69737040Y-67891971D01*
X69782715Y-67981614D01*
X69903028Y-68147213D01*
X70047786Y-68291971D01*
X70144566Y-68362284D01*
X70213390Y-68412287D01*
X70292022Y-68452352D01*
X70395776Y-68505218D01*
X70395778Y-68505218D01*
X70395781Y-68505220D01*
X70500137Y-68539127D01*
X70590465Y-68568477D01*
X70691557Y-68584488D01*
X70792648Y-68600500D01*
X70792649Y-68600500D01*
X70997351Y-68600500D01*
X70997352Y-68600500D01*
X71199534Y-68568477D01*
X71394219Y-68505220D01*
X71576610Y-68412287D01*
X71669590Y-68344732D01*
X71742213Y-68291971D01*
X71742215Y-68291968D01*
X71742219Y-68291966D01*
X71886966Y-68147219D01*
X71886968Y-68147215D01*
X71886971Y-68147213D01*
X71941652Y-68071949D01*
X72007287Y-67981610D01*
X72100220Y-67799219D01*
X72163477Y-67604534D01*
X72195500Y-67402352D01*
X72195500Y-67197648D01*
X72164568Y-67002352D01*
X72163477Y-66995465D01*
X72100218Y-66800776D01*
X72049124Y-66700500D01*
X72007287Y-66618390D01*
X71978430Y-66578671D01*
X71886971Y-66452786D01*
X71742213Y-66308028D01*
X71576613Y-66187715D01*
X71576612Y-66187714D01*
X71576610Y-66187713D01*
X71519653Y-66158691D01*
X71394223Y-66094781D01*
X71199534Y-66031522D01*
X71024995Y-66003878D01*
X70997352Y-65999500D01*
X70792648Y-65999500D01*
X70768329Y-66003351D01*
X70590465Y-66031522D01*
X70395776Y-66094781D01*
X70213386Y-66187715D01*
X70047786Y-66308028D01*
X69903028Y-66452786D01*
X69782715Y-66618386D01*
X69735485Y-66711080D01*
X69687510Y-66761876D01*
X69619689Y-66778671D01*
X69553554Y-66756134D01*
X69514515Y-66711080D01*
X69509123Y-66700498D01*
X69467287Y-66618390D01*
X69438430Y-66578671D01*
X69346971Y-66452786D01*
X69202213Y-66308028D01*
X69036613Y-66187715D01*
X69036612Y-66187714D01*
X69036610Y-66187713D01*
X68979653Y-66158691D01*
X68854223Y-66094781D01*
X68659534Y-66031522D01*
X68484995Y-66003878D01*
X68457352Y-65999500D01*
X68252648Y-65999500D01*
X68228329Y-66003351D01*
X68050465Y-66031522D01*
X67855776Y-66094781D01*
X67673386Y-66187715D01*
X67507786Y-66308028D01*
X67363028Y-66452786D01*
X67242715Y-66618386D01*
X67149781Y-66800776D01*
X67086522Y-66995465D01*
X67054500Y-67197648D01*
X63269568Y-67197648D01*
X63300500Y-67002352D01*
X63300500Y-66797648D01*
X63268477Y-66595466D01*
X63259679Y-66568390D01*
X63222116Y-66452781D01*
X63205220Y-66400781D01*
X63205218Y-66400778D01*
X63205218Y-66400776D01*
X63157682Y-66307483D01*
X63112287Y-66218390D01*
X63104556Y-66207749D01*
X62991971Y-66052786D01*
X62847213Y-65908028D01*
X62681613Y-65787715D01*
X62681612Y-65787714D01*
X62681610Y-65787713D01*
X62583688Y-65737819D01*
X62499223Y-65694781D01*
X62304534Y-65631522D01*
X62129995Y-65603878D01*
X62102352Y-65599500D01*
X61897648Y-65599500D01*
X61873329Y-65603351D01*
X61695465Y-65631522D01*
X61500776Y-65694781D01*
X61318386Y-65787715D01*
X61152786Y-65908028D01*
X61008028Y-66052786D01*
X60887715Y-66218386D01*
X60794781Y-66400776D01*
X60731522Y-66595465D01*
X60699500Y-66797648D01*
X48050500Y-66797648D01*
X48050500Y-63685928D01*
X48025502Y-63560261D01*
X48025501Y-63560260D01*
X48025501Y-63560256D01*
X47976465Y-63441873D01*
X47971277Y-63434109D01*
X47960832Y-63418476D01*
X47905274Y-63335327D01*
X47905271Y-63335324D01*
X44281627Y-59711681D01*
X44248142Y-59650358D01*
X44253126Y-59580666D01*
X44294998Y-59524733D01*
X44360462Y-59500316D01*
X44369308Y-59500000D01*
X44452317Y-59500000D01*
X44654417Y-59467990D01*
X44849031Y-59404755D01*
X45031349Y-59311859D01*
X45075921Y-59279474D01*
X44396446Y-58600000D01*
X44402661Y-58600000D01*
X44504394Y-58572741D01*
X44595606Y-58520080D01*
X44670080Y-58445606D01*
X44722741Y-58354394D01*
X44750000Y-58252661D01*
X44750000Y-58246447D01*
X45429474Y-58925921D01*
X45461859Y-58881349D01*
X45554755Y-58699031D01*
X45617990Y-58504417D01*
X45650000Y-58302317D01*
X45650000Y-58097682D01*
X45617989Y-57895581D01*
X45617989Y-57895579D01*
X45614602Y-57885155D01*
X45614601Y-57885153D01*
X45603173Y-57849983D01*
X49849500Y-57849983D01*
X49849500Y-61050001D01*
X49849501Y-61050018D01*
X49860000Y-61152796D01*
X49860001Y-61152799D01*
X49915185Y-61319331D01*
X49915186Y-61319334D01*
X50007288Y-61468656D01*
X50131344Y-61592712D01*
X50280666Y-61684814D01*
X50447203Y-61739999D01*
X50549991Y-61750500D01*
X51950008Y-61750499D01*
X52052797Y-61739999D01*
X52219334Y-61684814D01*
X52368656Y-61592712D01*
X52492712Y-61468656D01*
X52584814Y-61319334D01*
X52639999Y-61152797D01*
X52650500Y-61050009D01*
X52650499Y-59020806D01*
X52670184Y-58953768D01*
X52686813Y-58933131D01*
X53138322Y-58481623D01*
X53199642Y-58448140D01*
X53269334Y-58453124D01*
X53325267Y-58494996D01*
X53349684Y-58560460D01*
X53350000Y-58569306D01*
X53350000Y-59200000D01*
X54201518Y-59200000D01*
X54190889Y-59218409D01*
X54150000Y-59371009D01*
X54150000Y-59528991D01*
X54190889Y-59681591D01*
X54201518Y-59700000D01*
X53350000Y-59700000D01*
X53350000Y-60460181D01*
X53384473Y-60677835D01*
X53452567Y-60887410D01*
X53552613Y-61083760D01*
X53682142Y-61262041D01*
X53837958Y-61417857D01*
X54016239Y-61547386D01*
X54212589Y-61647432D01*
X54422163Y-61715526D01*
X54499999Y-61727854D01*
X54500000Y-61727854D01*
X54500000Y-59998482D01*
X54518409Y-60009111D01*
X54671009Y-60050000D01*
X54828991Y-60050000D01*
X54981591Y-60009111D01*
X55000000Y-59998482D01*
X55000000Y-61727854D01*
X55077834Y-61715526D01*
X55077837Y-61715526D01*
X55287410Y-61647432D01*
X55483760Y-61547386D01*
X55662041Y-61417857D01*
X55817857Y-61262041D01*
X55947386Y-61083760D01*
X56047432Y-60887410D01*
X56115526Y-60677835D01*
X56150000Y-60460181D01*
X56150000Y-59700000D01*
X55298482Y-59700000D01*
X55309111Y-59681591D01*
X55350000Y-59528991D01*
X55350000Y-59371009D01*
X55309111Y-59218409D01*
X55298482Y-59200000D01*
X56150000Y-59200000D01*
X56150000Y-58439818D01*
X56115526Y-58222164D01*
X56095919Y-58161818D01*
X56093924Y-58091977D01*
X56130004Y-58032144D01*
X56192705Y-58001316D01*
X56213850Y-57999500D01*
X58728192Y-57999500D01*
X58757632Y-58008144D01*
X58787619Y-58014668D01*
X58792634Y-58018422D01*
X58795231Y-58019185D01*
X58815873Y-58035819D01*
X58842862Y-58062808D01*
X58876347Y-58124131D01*
X58877654Y-58169886D01*
X58850286Y-58342685D01*
X58849500Y-58347648D01*
X58849500Y-58552352D01*
X58852185Y-58569306D01*
X58881522Y-58754534D01*
X58944781Y-58949223D01*
X59002375Y-59062255D01*
X59034235Y-59124785D01*
X59037715Y-59131613D01*
X59158028Y-59297213D01*
X59302786Y-59441971D01*
X59437464Y-59539818D01*
X59468390Y-59562287D01*
X59565671Y-59611854D01*
X59650776Y-59655218D01*
X59650778Y-59655218D01*
X59650781Y-59655220D01*
X59731943Y-59681591D01*
X59845465Y-59718477D01*
X59946557Y-59734488D01*
X60047648Y-59750500D01*
X60047649Y-59750500D01*
X60252351Y-59750500D01*
X60252352Y-59750500D01*
X60430112Y-59722345D01*
X60499405Y-59731299D01*
X60537191Y-59757137D01*
X60670165Y-59890110D01*
X60745724Y-59965669D01*
X60830055Y-60050000D01*
X60836332Y-60056277D01*
X60942866Y-60127461D01*
X60942872Y-60127464D01*
X60942873Y-60127465D01*
X61061256Y-60176501D01*
X61061260Y-60176501D01*
X61061261Y-60176502D01*
X61186928Y-60201500D01*
X61186931Y-60201500D01*
X66413071Y-60201500D01*
X66497615Y-60184682D01*
X66538744Y-60176501D01*
X66657127Y-60127465D01*
X66668816Y-60119655D01*
X66763669Y-60056277D01*
X66962809Y-59857135D01*
X67024130Y-59823652D01*
X67069887Y-59822345D01*
X67247648Y-59850500D01*
X67247649Y-59850500D01*
X67452351Y-59850500D01*
X67452352Y-59850500D01*
X67630112Y-59822345D01*
X67699405Y-59831299D01*
X67737191Y-59857137D01*
X73617873Y-65737819D01*
X73651358Y-65799142D01*
X73646374Y-65868834D01*
X73604502Y-65924767D01*
X73539038Y-65949184D01*
X73530192Y-65949500D01*
X73229999Y-65949500D01*
X73229980Y-65949501D01*
X73127203Y-65960000D01*
X73127200Y-65960001D01*
X72960668Y-66015185D01*
X72960663Y-66015187D01*
X72811342Y-66107289D01*
X72687289Y-66231342D01*
X72595187Y-66380663D01*
X72595185Y-66380668D01*
X72587858Y-66402781D01*
X72540001Y-66547203D01*
X72540001Y-66547204D01*
X72540000Y-66547204D01*
X72529500Y-66649983D01*
X72529500Y-67850001D01*
X72529501Y-67850018D01*
X72540000Y-67952796D01*
X72540001Y-67952799D01*
X72595185Y-68119331D01*
X72595187Y-68119336D01*
X72614101Y-68150000D01*
X72687288Y-68268656D01*
X72811344Y-68392712D01*
X72960666Y-68484814D01*
X73127203Y-68539999D01*
X73229991Y-68550500D01*
X74430008Y-68550499D01*
X74532797Y-68539999D01*
X74699334Y-68484814D01*
X74848656Y-68392712D01*
X74972712Y-68268656D01*
X75064814Y-68119334D01*
X75119999Y-67952797D01*
X75130500Y-67850009D01*
X75130499Y-67549805D01*
X75150183Y-67482768D01*
X75202987Y-67437013D01*
X75272146Y-67427069D01*
X75335701Y-67456094D01*
X75342180Y-67462126D01*
X78785325Y-70905272D01*
X78785326Y-70905273D01*
X78785329Y-70905275D01*
X78785331Y-70905277D01*
X78857583Y-70953553D01*
X78888985Y-70974535D01*
X78888983Y-70974536D01*
X78888992Y-70974539D01*
X78891873Y-70976465D01*
X79010256Y-71025501D01*
X79010260Y-71025501D01*
X79010261Y-71025502D01*
X79135928Y-71050500D01*
X79135931Y-71050500D01*
X79264069Y-71050500D01*
X91141865Y-71050500D01*
X91208904Y-71070185D01*
X91254659Y-71122989D01*
X91256408Y-71127007D01*
X91263164Y-71143315D01*
X91276659Y-71175895D01*
X91276660Y-71175896D01*
X91391392Y-71374617D01*
X91531081Y-71556661D01*
X91531089Y-71556670D01*
X91693330Y-71718911D01*
X91693338Y-71718918D01*
X91875382Y-71858607D01*
X91875385Y-71858608D01*
X91875388Y-71858611D01*
X92074112Y-71973344D01*
X92074117Y-71973346D01*
X92074123Y-71973349D01*
X92165480Y-72011190D01*
X92286113Y-72061158D01*
X92507762Y-72120548D01*
X92735266Y-72150500D01*
X92735273Y-72150500D01*
X94964727Y-72150500D01*
X94964734Y-72150500D01*
X95192238Y-72120548D01*
X95413887Y-72061158D01*
X95625888Y-71973344D01*
X95824612Y-71858611D01*
X96006661Y-71718919D01*
X96006665Y-71718914D01*
X96006670Y-71718911D01*
X96168911Y-71556670D01*
X96168914Y-71556665D01*
X96168919Y-71556661D01*
X96308611Y-71374612D01*
X96423344Y-71175888D01*
X96511158Y-70963887D01*
X96570548Y-70742238D01*
X96600500Y-70514734D01*
X96600500Y-70285266D01*
X96570548Y-70057762D01*
X96511158Y-69836113D01*
X96460238Y-69713181D01*
X96423349Y-69624123D01*
X96423346Y-69624117D01*
X96423344Y-69624112D01*
X96308611Y-69425388D01*
X96308608Y-69425385D01*
X96308607Y-69425382D01*
X96170025Y-69244781D01*
X96168919Y-69243339D01*
X96168918Y-69243338D01*
X96168911Y-69243330D01*
X96006670Y-69081089D01*
X96006661Y-69081081D01*
X95824617Y-68941392D01*
X95625890Y-68826657D01*
X95625876Y-68826650D01*
X95413887Y-68738842D01*
X95192238Y-68679452D01*
X95154215Y-68674446D01*
X94964741Y-68649500D01*
X94964734Y-68649500D01*
X92735266Y-68649500D01*
X92735258Y-68649500D01*
X92518715Y-68678009D01*
X92507762Y-68679452D01*
X92476827Y-68687741D01*
X92286112Y-68738842D01*
X92074123Y-68826650D01*
X92074109Y-68826657D01*
X91875382Y-68941392D01*
X91693338Y-69081081D01*
X91531081Y-69243338D01*
X91391392Y-69425382D01*
X91276660Y-69624103D01*
X91276659Y-69624104D01*
X91276656Y-69624112D01*
X91256424Y-69672955D01*
X91212585Y-69727356D01*
X91146291Y-69749421D01*
X91141865Y-69749500D01*
X79520808Y-69749500D01*
X79453769Y-69729815D01*
X79433127Y-69713181D01*
X76867594Y-67147648D01*
X80149500Y-67147648D01*
X80149500Y-67352351D01*
X80181522Y-67554534D01*
X80244781Y-67749223D01*
X80308691Y-67874653D01*
X80337230Y-67930663D01*
X80337715Y-67931613D01*
X80458028Y-68097213D01*
X80602786Y-68241971D01*
X80689843Y-68305220D01*
X80768390Y-68362287D01*
X80884607Y-68421503D01*
X80950776Y-68455218D01*
X80950778Y-68455218D01*
X80950781Y-68455220D01*
X81041856Y-68484812D01*
X81145465Y-68518477D01*
X81246557Y-68534488D01*
X81347648Y-68550500D01*
X81347649Y-68550500D01*
X81552351Y-68550500D01*
X81552352Y-68550500D01*
X81754534Y-68518477D01*
X81949219Y-68455220D01*
X82131610Y-68362287D01*
X82224590Y-68294732D01*
X82297213Y-68241971D01*
X82297215Y-68241968D01*
X82297219Y-68241966D01*
X82441966Y-68097219D01*
X82441968Y-68097215D01*
X82441971Y-68097213D01*
X82546892Y-67952799D01*
X82562287Y-67931610D01*
X82655220Y-67749219D01*
X82718477Y-67554534D01*
X82750500Y-67352352D01*
X82750500Y-67147648D01*
X82727919Y-67005081D01*
X82726742Y-66997648D01*
X83909500Y-66997648D01*
X83909500Y-67202351D01*
X83941522Y-67404534D01*
X84004781Y-67599223D01*
X84068691Y-67724653D01*
X84097577Y-67781344D01*
X84097715Y-67781613D01*
X84218028Y-67947213D01*
X84362786Y-68091971D01*
X84517749Y-68204556D01*
X84528390Y-68212287D01*
X84622982Y-68260484D01*
X84710776Y-68305218D01*
X84710778Y-68305218D01*
X84710781Y-68305220D01*
X84815137Y-68339127D01*
X84905465Y-68368477D01*
X85006557Y-68384488D01*
X85107648Y-68400500D01*
X85107649Y-68400500D01*
X85312351Y-68400500D01*
X85312352Y-68400500D01*
X85514534Y-68368477D01*
X85709219Y-68305220D01*
X85891610Y-68212287D01*
X86004506Y-68130264D01*
X86057213Y-68091971D01*
X86057215Y-68091968D01*
X86057219Y-68091966D01*
X86201966Y-67947219D01*
X86201968Y-67947215D01*
X86201971Y-67947213D01*
X86306913Y-67802770D01*
X86322287Y-67781610D01*
X86369516Y-67688917D01*
X86417489Y-67638123D01*
X86485310Y-67621328D01*
X86551445Y-67643865D01*
X86590483Y-67688917D01*
X86634348Y-67775006D01*
X86637715Y-67781614D01*
X86758028Y-67947213D01*
X86902786Y-68091971D01*
X87057749Y-68204556D01*
X87068390Y-68212287D01*
X87162982Y-68260484D01*
X87250776Y-68305218D01*
X87250778Y-68305218D01*
X87250781Y-68305220D01*
X87355137Y-68339127D01*
X87445465Y-68368477D01*
X87546557Y-68384488D01*
X87647648Y-68400500D01*
X87647649Y-68400500D01*
X87852351Y-68400500D01*
X87852352Y-68400500D01*
X88054534Y-68368477D01*
X88249219Y-68305220D01*
X88431610Y-68212287D01*
X88544506Y-68130264D01*
X88597213Y-68091971D01*
X88597215Y-68091968D01*
X88597219Y-68091966D01*
X88741966Y-67947219D01*
X88741968Y-67947215D01*
X88741971Y-67947213D01*
X88812586Y-67850018D01*
X88862287Y-67781610D01*
X88955220Y-67599219D01*
X89018477Y-67404534D01*
X89050500Y-67202352D01*
X89050500Y-66997648D01*
X89018477Y-66795466D01*
X89003956Y-66750776D01*
X88969195Y-66643793D01*
X88955220Y-66600781D01*
X88955218Y-66600778D01*
X88955218Y-66600776D01*
X88909515Y-66511080D01*
X88862287Y-66418390D01*
X88850950Y-66402786D01*
X88741971Y-66252786D01*
X88597213Y-66108028D01*
X88431613Y-65987715D01*
X88431612Y-65987714D01*
X88431610Y-65987713D01*
X88355993Y-65949184D01*
X88249223Y-65894781D01*
X88054534Y-65831522D01*
X87879995Y-65803878D01*
X87852352Y-65799500D01*
X87647648Y-65799500D01*
X87623329Y-65803351D01*
X87445465Y-65831522D01*
X87250776Y-65894781D01*
X87068386Y-65987715D01*
X86902786Y-66108028D01*
X86758028Y-66252786D01*
X86637715Y-66418386D01*
X86590485Y-66511080D01*
X86542510Y-66561876D01*
X86474689Y-66578671D01*
X86408554Y-66556134D01*
X86369515Y-66511080D01*
X86368883Y-66509840D01*
X86322287Y-66418390D01*
X86310950Y-66402786D01*
X86201971Y-66252786D01*
X86057213Y-66108028D01*
X85891613Y-65987715D01*
X85891612Y-65987714D01*
X85891610Y-65987713D01*
X85815993Y-65949184D01*
X85709223Y-65894781D01*
X85514534Y-65831522D01*
X85339995Y-65803878D01*
X85312352Y-65799500D01*
X85107648Y-65799500D01*
X85083329Y-65803351D01*
X84905465Y-65831522D01*
X84710776Y-65894781D01*
X84528386Y-65987715D01*
X84362786Y-66108028D01*
X84218028Y-66252786D01*
X84097715Y-66418386D01*
X84004781Y-66600776D01*
X83941522Y-66795465D01*
X83909500Y-66997648D01*
X82726742Y-66997648D01*
X82718477Y-66945465D01*
X82669739Y-66795466D01*
X82655220Y-66750781D01*
X82655218Y-66750778D01*
X82655218Y-66750776D01*
X82603865Y-66649991D01*
X82562287Y-66568390D01*
X82546894Y-66547203D01*
X82441971Y-66402786D01*
X82297213Y-66258028D01*
X82131613Y-66137715D01*
X82131612Y-66137714D01*
X82131610Y-66137713D01*
X82071898Y-66107288D01*
X81949223Y-66044781D01*
X81754534Y-65981522D01*
X81579995Y-65953878D01*
X81552352Y-65949500D01*
X81347648Y-65949500D01*
X81323329Y-65953351D01*
X81145465Y-65981522D01*
X80950776Y-66044781D01*
X80768386Y-66137715D01*
X80602786Y-66258028D01*
X80458028Y-66402786D01*
X80337715Y-66568386D01*
X80244781Y-66750776D01*
X80181522Y-66945465D01*
X80149500Y-67147648D01*
X76867594Y-67147648D01*
X73372081Y-63652135D01*
X91099500Y-63652135D01*
X91099500Y-66247870D01*
X91099501Y-66247876D01*
X91105908Y-66307483D01*
X91156202Y-66442328D01*
X91156206Y-66442335D01*
X91242452Y-66557544D01*
X91242455Y-66557547D01*
X91357664Y-66643793D01*
X91357671Y-66643797D01*
X91492517Y-66694091D01*
X91492516Y-66694091D01*
X91499444Y-66694835D01*
X91552127Y-66700500D01*
X96147872Y-66700499D01*
X96207483Y-66694091D01*
X96342331Y-66643796D01*
X96457546Y-66557546D01*
X96543796Y-66442331D01*
X96594091Y-66307483D01*
X96600500Y-66247873D01*
X96600499Y-63652128D01*
X96594091Y-63592517D01*
X96582060Y-63560261D01*
X96543797Y-63457671D01*
X96543793Y-63457664D01*
X96457547Y-63342455D01*
X96448029Y-63335330D01*
X96404951Y-63303081D01*
X96376097Y-63281481D01*
X96367833Y-63275295D01*
X96342331Y-63256204D01*
X96342329Y-63256203D01*
X96342328Y-63256202D01*
X96207482Y-63205908D01*
X96207483Y-63205908D01*
X96147883Y-63199501D01*
X96147881Y-63199500D01*
X96147873Y-63199500D01*
X96147864Y-63199500D01*
X91552129Y-63199500D01*
X91552123Y-63199501D01*
X91492516Y-63205908D01*
X91357671Y-63256202D01*
X91357664Y-63256206D01*
X91242455Y-63342452D01*
X91242452Y-63342455D01*
X91156206Y-63457664D01*
X91156202Y-63457671D01*
X91105908Y-63592517D01*
X91099501Y-63652116D01*
X91099501Y-63652123D01*
X91099500Y-63652135D01*
X73372081Y-63652135D01*
X71767628Y-62047682D01*
X98100000Y-62047682D01*
X98100000Y-62252317D01*
X98132009Y-62454417D01*
X98195244Y-62649031D01*
X98288141Y-62831350D01*
X98288147Y-62831359D01*
X98320523Y-62875921D01*
X98320524Y-62875922D01*
X99000000Y-62196446D01*
X99000000Y-62202661D01*
X99027259Y-62304394D01*
X99079920Y-62395606D01*
X99154394Y-62470080D01*
X99245606Y-62522741D01*
X99347339Y-62550000D01*
X99353553Y-62550000D01*
X98674076Y-63229474D01*
X98718650Y-63261859D01*
X98900968Y-63354755D01*
X99095582Y-63417990D01*
X99297683Y-63450000D01*
X99502317Y-63450000D01*
X99704417Y-63417990D01*
X99899031Y-63354755D01*
X100081349Y-63261859D01*
X100125921Y-63229474D01*
X99446447Y-62550000D01*
X99452661Y-62550000D01*
X99554394Y-62522741D01*
X99645606Y-62470080D01*
X99720080Y-62395606D01*
X99772741Y-62304394D01*
X99800000Y-62202661D01*
X99800000Y-62196447D01*
X100479474Y-62875921D01*
X100511859Y-62831349D01*
X100539233Y-62777624D01*
X100587207Y-62726827D01*
X100655028Y-62710031D01*
X100721163Y-62732567D01*
X100760203Y-62777621D01*
X100787713Y-62831611D01*
X100908028Y-62997213D01*
X101052784Y-63141969D01*
X101121863Y-63192157D01*
X101198385Y-63247753D01*
X101241051Y-63303081D01*
X101249500Y-63348070D01*
X101249500Y-69911821D01*
X101229815Y-69978860D01*
X101177011Y-70024615D01*
X101107853Y-70034559D01*
X101052247Y-70009401D01*
X101051161Y-70010897D01*
X100881613Y-69887715D01*
X100881612Y-69887714D01*
X100881610Y-69887713D01*
X100824653Y-69858691D01*
X100699223Y-69794781D01*
X100504534Y-69731522D01*
X100323155Y-69702795D01*
X100302352Y-69699500D01*
X100097648Y-69699500D01*
X100076845Y-69702795D01*
X99895465Y-69731522D01*
X99700776Y-69794781D01*
X99518386Y-69887715D01*
X99352786Y-70008028D01*
X99208028Y-70152786D01*
X99087715Y-70318386D01*
X98994781Y-70500776D01*
X98931522Y-70695465D01*
X98899500Y-70897648D01*
X98899500Y-71102351D01*
X98931522Y-71304534D01*
X98994781Y-71499223D01*
X99087715Y-71681613D01*
X99208028Y-71847213D01*
X99352786Y-71991971D01*
X99500790Y-72099500D01*
X99518390Y-72112287D01*
X99634607Y-72171503D01*
X99700776Y-72205218D01*
X99700778Y-72205218D01*
X99700781Y-72205220D01*
X99805137Y-72239127D01*
X99895465Y-72268477D01*
X99948652Y-72276901D01*
X100097648Y-72300500D01*
X100097649Y-72300500D01*
X100302351Y-72300500D01*
X100302352Y-72300500D01*
X100504534Y-72268477D01*
X100699219Y-72205220D01*
X100881610Y-72112287D01*
X100992678Y-72031592D01*
X101047213Y-71991971D01*
X101047215Y-71991968D01*
X101047219Y-71991966D01*
X101191966Y-71847219D01*
X101191968Y-71847215D01*
X101191971Y-71847213D01*
X101276186Y-71731299D01*
X101312287Y-71681610D01*
X101339515Y-71628171D01*
X101387490Y-71577376D01*
X101455311Y-71560581D01*
X101521446Y-71583118D01*
X101560485Y-71628172D01*
X101587715Y-71681613D01*
X101708028Y-71847213D01*
X101852786Y-71991971D01*
X102000790Y-72099500D01*
X102018390Y-72112287D01*
X102134607Y-72171503D01*
X102200776Y-72205218D01*
X102200778Y-72205218D01*
X102200781Y-72205220D01*
X102305137Y-72239127D01*
X102395465Y-72268477D01*
X102448652Y-72276901D01*
X102597648Y-72300500D01*
X102597649Y-72300500D01*
X102802351Y-72300500D01*
X102802352Y-72300500D01*
X103004534Y-72268477D01*
X103199219Y-72205220D01*
X103381610Y-72112287D01*
X103492678Y-72031592D01*
X103547213Y-71991971D01*
X103547215Y-71991968D01*
X103547219Y-71991966D01*
X103691966Y-71847219D01*
X103691968Y-71847215D01*
X103691971Y-71847213D01*
X103776186Y-71731299D01*
X103812287Y-71681610D01*
X103905220Y-71499219D01*
X103968477Y-71304534D01*
X104000500Y-71102352D01*
X104000500Y-70897648D01*
X103977814Y-70754417D01*
X103968477Y-70695465D01*
X103939154Y-70605220D01*
X103905220Y-70500781D01*
X103903624Y-70497648D01*
X105204500Y-70497648D01*
X105204500Y-70702351D01*
X105236522Y-70904534D01*
X105299781Y-71099223D01*
X105352462Y-71202613D01*
X105392585Y-71281359D01*
X105392715Y-71281613D01*
X105513028Y-71447213D01*
X105657786Y-71591971D01*
X105812749Y-71704556D01*
X105823390Y-71712287D01*
X105911413Y-71757137D01*
X106005776Y-71805218D01*
X106005778Y-71805218D01*
X106005781Y-71805220D01*
X106103331Y-71836916D01*
X106200465Y-71868477D01*
X106301557Y-71884488D01*
X106402648Y-71900500D01*
X106402649Y-71900500D01*
X106607351Y-71900500D01*
X106607352Y-71900500D01*
X106809534Y-71868477D01*
X107004219Y-71805220D01*
X107186610Y-71712287D01*
X107279590Y-71644732D01*
X107352213Y-71591971D01*
X107352215Y-71591968D01*
X107352219Y-71591966D01*
X107496966Y-71447219D01*
X107496968Y-71447215D01*
X107496971Y-71447213D01*
X107617286Y-71281611D01*
X107617415Y-71281359D01*
X107664795Y-71188369D01*
X107712769Y-71137573D01*
X107780590Y-71120778D01*
X107846725Y-71143315D01*
X107885765Y-71188369D01*
X107933141Y-71281350D01*
X107933147Y-71281359D01*
X107965523Y-71325921D01*
X107965524Y-71325922D01*
X108645000Y-70646446D01*
X108645000Y-70652661D01*
X108672259Y-70754394D01*
X108724920Y-70845606D01*
X108799394Y-70920080D01*
X108890606Y-70972741D01*
X108992339Y-71000000D01*
X108998553Y-71000000D01*
X108319076Y-71679474D01*
X108363650Y-71711859D01*
X108545968Y-71804755D01*
X108740582Y-71867990D01*
X108942683Y-71900000D01*
X109147317Y-71900000D01*
X109349417Y-71867990D01*
X109544031Y-71804755D01*
X109726349Y-71711859D01*
X109770921Y-71679474D01*
X109091447Y-71000000D01*
X109097661Y-71000000D01*
X109199394Y-70972741D01*
X109290606Y-70920080D01*
X109365080Y-70845606D01*
X109417741Y-70754394D01*
X109445000Y-70652661D01*
X109445000Y-70646447D01*
X110124474Y-71325921D01*
X110156859Y-71281349D01*
X110249755Y-71099031D01*
X110312990Y-70904417D01*
X110345000Y-70702317D01*
X110345000Y-70497682D01*
X110323537Y-70362174D01*
X110321236Y-70347648D01*
X111399500Y-70347648D01*
X111399500Y-70552351D01*
X111431522Y-70754534D01*
X111494781Y-70949223D01*
X111537248Y-71032567D01*
X111587585Y-71131359D01*
X111587715Y-71131613D01*
X111708028Y-71297213D01*
X111852779Y-71441964D01*
X111856038Y-71444748D01*
X111894227Y-71503258D01*
X111899500Y-71539033D01*
X111899500Y-77828846D01*
X111930261Y-77983489D01*
X111930264Y-77983501D01*
X111990602Y-78129172D01*
X111990609Y-78129185D01*
X112078210Y-78260288D01*
X112078213Y-78260292D01*
X115463898Y-81645976D01*
X115497383Y-81707299D01*
X115499835Y-81743377D01*
X115499500Y-81747637D01*
X115499500Y-81952351D01*
X115531522Y-82154534D01*
X115594781Y-82349223D01*
X115637248Y-82432567D01*
X115687585Y-82531359D01*
X115687715Y-82531613D01*
X115808028Y-82697213D01*
X115952786Y-82841971D01*
X116073226Y-82929474D01*
X116118390Y-82962287D01*
X116234607Y-83021503D01*
X116300776Y-83055218D01*
X116300778Y-83055218D01*
X116300781Y-83055220D01*
X116405137Y-83089127D01*
X116495465Y-83118477D01*
X116596557Y-83134488D01*
X116697648Y-83150500D01*
X116697649Y-83150500D01*
X116902351Y-83150500D01*
X116902352Y-83150500D01*
X117104534Y-83118477D01*
X117299219Y-83055220D01*
X117481610Y-82962287D01*
X117574590Y-82894732D01*
X117647213Y-82841971D01*
X117647215Y-82841968D01*
X117647219Y-82841966D01*
X117791966Y-82697219D01*
X117791968Y-82697215D01*
X117791971Y-82697213D01*
X117882736Y-82572284D01*
X117912287Y-82531610D01*
X117939795Y-82477621D01*
X117987769Y-82426826D01*
X118055589Y-82410030D01*
X118121725Y-82432567D01*
X118160765Y-82477621D01*
X118188141Y-82531350D01*
X118188147Y-82531359D01*
X118220523Y-82575921D01*
X118220524Y-82575922D01*
X118900000Y-81896446D01*
X118900000Y-81902661D01*
X118927259Y-82004394D01*
X118979920Y-82095606D01*
X119054394Y-82170080D01*
X119145606Y-82222741D01*
X119247339Y-82250000D01*
X119253553Y-82250000D01*
X118574076Y-82929474D01*
X118618650Y-82961859D01*
X118800968Y-83054755D01*
X118995582Y-83117990D01*
X119197683Y-83150000D01*
X119402317Y-83150000D01*
X119604417Y-83117990D01*
X119799031Y-83054755D01*
X119981349Y-82961859D01*
X120025921Y-82929474D01*
X119346447Y-82250000D01*
X119352661Y-82250000D01*
X119454394Y-82222741D01*
X119545606Y-82170080D01*
X119620080Y-82095606D01*
X119672741Y-82004394D01*
X119700000Y-81902661D01*
X119700000Y-81896447D01*
X120379474Y-82575921D01*
X120411859Y-82531349D01*
X120504755Y-82349031D01*
X120567990Y-82154417D01*
X120600000Y-81952317D01*
X120600000Y-81747682D01*
X120567990Y-81545582D01*
X120504755Y-81350968D01*
X120411859Y-81168650D01*
X120379474Y-81124077D01*
X120379474Y-81124076D01*
X119700000Y-81803551D01*
X119700000Y-81797339D01*
X119672741Y-81695606D01*
X119620080Y-81604394D01*
X119545606Y-81529920D01*
X119454394Y-81477259D01*
X119352661Y-81450000D01*
X119346446Y-81450000D01*
X120025922Y-80770524D01*
X120025921Y-80770523D01*
X119981359Y-80738147D01*
X119981350Y-80738141D01*
X119799031Y-80645244D01*
X119604417Y-80582009D01*
X119402317Y-80550000D01*
X119197683Y-80550000D01*
X118995582Y-80582009D01*
X118800968Y-80645244D01*
X118618644Y-80738143D01*
X118574077Y-80770523D01*
X118574077Y-80770524D01*
X119253554Y-81450000D01*
X119247339Y-81450000D01*
X119145606Y-81477259D01*
X119054394Y-81529920D01*
X118979920Y-81604394D01*
X118927259Y-81695606D01*
X118900000Y-81797339D01*
X118900000Y-81803553D01*
X118220524Y-81124077D01*
X118220523Y-81124077D01*
X118188143Y-81168644D01*
X118160765Y-81222378D01*
X118112790Y-81273174D01*
X118044969Y-81289969D01*
X117978834Y-81267431D01*
X117939795Y-81222378D01*
X117924302Y-81191971D01*
X117912287Y-81168390D01*
X117912285Y-81168387D01*
X117912284Y-81168385D01*
X117791971Y-81002786D01*
X117647213Y-80858028D01*
X117481613Y-80737715D01*
X117481612Y-80737714D01*
X117481610Y-80737713D01*
X117411761Y-80702123D01*
X117299223Y-80644781D01*
X117104534Y-80581522D01*
X116924450Y-80553000D01*
X116902352Y-80549500D01*
X116697648Y-80549500D01*
X116697638Y-80549500D01*
X116693377Y-80549835D01*
X116625001Y-80535466D01*
X116595976Y-80513898D01*
X113536819Y-77454741D01*
X113503334Y-77393418D01*
X113500500Y-77367060D01*
X113500500Y-72150000D01*
X120972145Y-72150000D01*
X122701518Y-72150000D01*
X122690889Y-72168409D01*
X122650000Y-72321009D01*
X122650000Y-72478991D01*
X122690889Y-72631591D01*
X122701518Y-72650000D01*
X120972145Y-72650000D01*
X120984473Y-72727835D01*
X120984473Y-72727838D01*
X121052567Y-72937410D01*
X121152613Y-73133760D01*
X121282142Y-73312041D01*
X121437958Y-73467857D01*
X121616239Y-73597386D01*
X121812589Y-73697432D01*
X122022164Y-73765526D01*
X122239819Y-73800000D01*
X123000000Y-73800000D01*
X123000000Y-72948482D01*
X123018409Y-72959111D01*
X123171009Y-73000000D01*
X123328991Y-73000000D01*
X123481591Y-72959111D01*
X123500000Y-72948482D01*
X123500000Y-73800000D01*
X124260181Y-73800000D01*
X124477835Y-73765526D01*
X124687410Y-73697432D01*
X124883760Y-73597386D01*
X125062041Y-73467857D01*
X125217857Y-73312041D01*
X125347386Y-73133760D01*
X125447432Y-72937410D01*
X125515526Y-72727838D01*
X125515526Y-72727835D01*
X125527855Y-72650000D01*
X123798482Y-72650000D01*
X123809111Y-72631591D01*
X123850000Y-72478991D01*
X123850000Y-72321009D01*
X123809111Y-72168409D01*
X123798482Y-72150000D01*
X125527855Y-72150000D01*
X125515526Y-72072164D01*
X125515526Y-72072161D01*
X125447432Y-71862589D01*
X125347386Y-71666239D01*
X125217857Y-71487958D01*
X125062041Y-71332142D01*
X124883760Y-71202613D01*
X124687410Y-71102567D01*
X124477835Y-71034473D01*
X124260181Y-71000000D01*
X123500000Y-71000000D01*
X123500000Y-71851517D01*
X123481591Y-71840889D01*
X123328991Y-71800000D01*
X123171009Y-71800000D01*
X123018409Y-71840889D01*
X123000000Y-71851517D01*
X123000000Y-71000000D01*
X122239819Y-71000000D01*
X122022164Y-71034473D01*
X121812589Y-71102567D01*
X121616239Y-71202613D01*
X121437958Y-71332142D01*
X121282142Y-71487958D01*
X121152613Y-71666239D01*
X121052567Y-71862589D01*
X120984473Y-72072161D01*
X120984473Y-72072164D01*
X120972145Y-72150000D01*
X113500500Y-72150000D01*
X113500500Y-71539033D01*
X113509294Y-71509082D01*
X113516198Y-71478646D01*
X113519368Y-71474775D01*
X113520185Y-71471994D01*
X113537598Y-71450580D01*
X113543943Y-71444346D01*
X113547219Y-71441966D01*
X113691966Y-71297219D01*
X113691968Y-71297215D01*
X113691971Y-71297213D01*
X113803783Y-71143315D01*
X113812287Y-71131610D01*
X113839795Y-71077621D01*
X113887769Y-71026826D01*
X113955589Y-71010030D01*
X114021725Y-71032567D01*
X114060765Y-71077621D01*
X114088141Y-71131350D01*
X114088147Y-71131359D01*
X114120523Y-71175921D01*
X114120524Y-71175922D01*
X114800000Y-70496446D01*
X114800000Y-70502661D01*
X114827259Y-70604394D01*
X114879920Y-70695606D01*
X114954394Y-70770080D01*
X115045606Y-70822741D01*
X115147339Y-70850000D01*
X115153553Y-70850000D01*
X114474076Y-71529474D01*
X114518650Y-71561859D01*
X114700968Y-71654755D01*
X114895582Y-71717990D01*
X115097683Y-71750000D01*
X115302317Y-71750000D01*
X115504417Y-71717990D01*
X115699031Y-71654755D01*
X115881349Y-71561859D01*
X115925921Y-71529474D01*
X115246447Y-70850000D01*
X115252661Y-70850000D01*
X115354394Y-70822741D01*
X115445606Y-70770080D01*
X115520080Y-70695606D01*
X115572741Y-70604394D01*
X115600000Y-70502661D01*
X115600000Y-70496447D01*
X116279474Y-71175921D01*
X116311859Y-71131349D01*
X116404755Y-70949031D01*
X116467990Y-70754417D01*
X116500000Y-70552317D01*
X116500000Y-70347682D01*
X116467990Y-70145582D01*
X116404754Y-69950965D01*
X116369000Y-69880794D01*
X116356104Y-69812125D01*
X116382381Y-69747385D01*
X116439487Y-69707128D01*
X116479485Y-69700500D01*
X120869699Y-69700500D01*
X120936738Y-69720185D01*
X120982493Y-69772989D01*
X120987403Y-69785492D01*
X120990481Y-69794780D01*
X121015185Y-69869331D01*
X121015187Y-69869336D01*
X121034673Y-69900928D01*
X121107288Y-70018656D01*
X121231344Y-70142712D01*
X121380666Y-70234814D01*
X121547203Y-70289999D01*
X121649991Y-70300500D01*
X124850008Y-70300499D01*
X124952797Y-70289999D01*
X125119334Y-70234814D01*
X125268656Y-70142712D01*
X125392712Y-70018656D01*
X125484814Y-69869334D01*
X125539999Y-69702797D01*
X125550500Y-69600009D01*
X125550499Y-68199992D01*
X125539999Y-68097203D01*
X125484814Y-67930666D01*
X125392712Y-67781344D01*
X125268656Y-67657288D01*
X125119334Y-67565186D01*
X124952797Y-67510001D01*
X124952795Y-67510000D01*
X124850010Y-67499500D01*
X121649998Y-67499500D01*
X121649981Y-67499501D01*
X121547203Y-67510000D01*
X121547200Y-67510001D01*
X121380668Y-67565185D01*
X121380663Y-67565187D01*
X121231342Y-67657289D01*
X121107289Y-67781342D01*
X121015187Y-67930663D01*
X121015186Y-67930666D01*
X120988140Y-68012287D01*
X120987405Y-68014504D01*
X120947632Y-68071949D01*
X120883116Y-68098772D01*
X120869699Y-68099500D01*
X114171155Y-68099500D01*
X114016510Y-68130261D01*
X114016498Y-68130264D01*
X113870827Y-68190602D01*
X113870814Y-68190609D01*
X113739711Y-68278210D01*
X113739707Y-68278213D01*
X112904022Y-69113898D01*
X112842699Y-69147383D01*
X112806619Y-69149835D01*
X112802359Y-69149500D01*
X112802352Y-69149500D01*
X112597648Y-69149500D01*
X112573329Y-69153351D01*
X112395465Y-69181522D01*
X112200776Y-69244781D01*
X112018386Y-69337715D01*
X111852786Y-69458028D01*
X111708028Y-69602786D01*
X111587715Y-69768386D01*
X111494781Y-69950776D01*
X111431522Y-70145465D01*
X111399500Y-70347648D01*
X110321236Y-70347648D01*
X110312989Y-70295582D01*
X110249755Y-70100968D01*
X110156859Y-69918650D01*
X110124474Y-69874077D01*
X110124474Y-69874076D01*
X109445000Y-70553551D01*
X109445000Y-70547339D01*
X109417741Y-70445606D01*
X109365080Y-70354394D01*
X109290606Y-70279920D01*
X109199394Y-70227259D01*
X109097661Y-70200000D01*
X109091446Y-70200000D01*
X109770922Y-69520524D01*
X109770921Y-69520523D01*
X109726359Y-69488147D01*
X109726350Y-69488141D01*
X109544031Y-69395244D01*
X109349417Y-69332009D01*
X109147317Y-69300000D01*
X108942683Y-69300000D01*
X108740582Y-69332009D01*
X108545968Y-69395244D01*
X108363644Y-69488143D01*
X108319077Y-69520523D01*
X108319077Y-69520524D01*
X108998554Y-70200000D01*
X108992339Y-70200000D01*
X108890606Y-70227259D01*
X108799394Y-70279920D01*
X108724920Y-70354394D01*
X108672259Y-70445606D01*
X108645000Y-70547339D01*
X108645000Y-70553553D01*
X107965524Y-69874077D01*
X107965523Y-69874077D01*
X107933143Y-69918644D01*
X107885765Y-70011630D01*
X107837790Y-70062426D01*
X107769969Y-70079221D01*
X107703834Y-70056683D01*
X107664795Y-70011630D01*
X107648098Y-69978860D01*
X107617287Y-69918390D01*
X107617285Y-69918387D01*
X107617284Y-69918385D01*
X107496971Y-69752786D01*
X107352213Y-69608028D01*
X107186613Y-69487715D01*
X107186612Y-69487714D01*
X107186610Y-69487713D01*
X107128350Y-69458028D01*
X107004223Y-69394781D01*
X106809534Y-69331522D01*
X106634995Y-69303878D01*
X106607352Y-69299500D01*
X106402648Y-69299500D01*
X106378329Y-69303351D01*
X106200465Y-69331522D01*
X106005776Y-69394781D01*
X105823386Y-69487715D01*
X105657786Y-69608028D01*
X105513028Y-69752786D01*
X105392715Y-69918386D01*
X105299781Y-70100776D01*
X105236522Y-70295465D01*
X105204500Y-70497648D01*
X103903624Y-70497648D01*
X103812287Y-70318390D01*
X103788221Y-70285266D01*
X103691971Y-70152786D01*
X103547213Y-70008028D01*
X103381613Y-69887715D01*
X103381612Y-69887714D01*
X103381610Y-69887713D01*
X103324653Y-69858691D01*
X103199223Y-69794781D01*
X103004534Y-69731522D01*
X102823155Y-69702795D01*
X102802352Y-69699500D01*
X102674500Y-69699500D01*
X102607461Y-69679815D01*
X102561706Y-69627011D01*
X102550500Y-69575500D01*
X102550500Y-63894930D01*
X102570185Y-63827891D01*
X102622989Y-63782136D01*
X102692147Y-63772192D01*
X102710511Y-63776274D01*
X102711244Y-63776496D01*
X102711256Y-63776501D01*
X102739584Y-63782136D01*
X102836928Y-63801500D01*
X102836931Y-63801500D01*
X108163071Y-63801500D01*
X108247615Y-63784682D01*
X108288744Y-63776501D01*
X108407127Y-63727465D01*
X108448980Y-63699500D01*
X108513669Y-63656277D01*
X108812809Y-63357135D01*
X108874131Y-63323652D01*
X108919887Y-63322345D01*
X109097648Y-63350500D01*
X109097649Y-63350500D01*
X109302351Y-63350500D01*
X109302352Y-63350500D01*
X109504534Y-63318477D01*
X109699219Y-63255220D01*
X109881610Y-63162287D01*
X110012461Y-63067219D01*
X110047213Y-63041971D01*
X110047215Y-63041968D01*
X110047219Y-63041966D01*
X110191966Y-62897219D01*
X110191968Y-62897215D01*
X110191971Y-62897213D01*
X110273632Y-62784814D01*
X110312287Y-62731610D01*
X110405220Y-62549219D01*
X110468477Y-62354534D01*
X110500500Y-62152352D01*
X110500500Y-61947648D01*
X110484316Y-61845465D01*
X110468477Y-61745465D01*
X110418844Y-61592712D01*
X110405220Y-61550781D01*
X110405218Y-61550778D01*
X110405218Y-61550776D01*
X110363369Y-61468644D01*
X110312287Y-61368390D01*
X110280092Y-61324077D01*
X110191971Y-61202786D01*
X110047213Y-61058028D01*
X109881613Y-60937715D01*
X109881612Y-60937714D01*
X109881610Y-60937713D01*
X109824653Y-60908691D01*
X109699223Y-60844781D01*
X109504534Y-60781522D01*
X109329995Y-60753878D01*
X109302352Y-60749500D01*
X109097648Y-60749500D01*
X109073329Y-60753351D01*
X108895465Y-60781522D01*
X108700776Y-60844781D01*
X108518386Y-60937715D01*
X108352786Y-61058028D01*
X108208028Y-61202786D01*
X108087714Y-61368386D01*
X108060203Y-61422379D01*
X108012227Y-61473174D01*
X107944406Y-61489968D01*
X107878272Y-61467429D01*
X107839234Y-61422376D01*
X107811861Y-61368652D01*
X107779474Y-61324077D01*
X107779474Y-61324076D01*
X107100000Y-62003551D01*
X107100000Y-61997339D01*
X107072741Y-61895606D01*
X107020080Y-61804394D01*
X106945606Y-61729920D01*
X106854394Y-61677259D01*
X106752661Y-61650000D01*
X106746446Y-61650000D01*
X107425922Y-60970524D01*
X107425921Y-60970523D01*
X107381359Y-60938147D01*
X107381350Y-60938141D01*
X107199031Y-60845244D01*
X107004417Y-60782009D01*
X106802317Y-60750000D01*
X106597683Y-60750000D01*
X106395582Y-60782009D01*
X106200968Y-60845244D01*
X106018644Y-60938143D01*
X105974077Y-60970523D01*
X105974077Y-60970524D01*
X106653554Y-61650000D01*
X106647339Y-61650000D01*
X106545606Y-61677259D01*
X106454394Y-61729920D01*
X106379920Y-61804394D01*
X106327259Y-61895606D01*
X106300000Y-61997339D01*
X106300000Y-62003553D01*
X105620524Y-61324077D01*
X105620523Y-61324077D01*
X105588143Y-61368644D01*
X105495244Y-61550968D01*
X105432009Y-61745582D01*
X105400000Y-61947682D01*
X105400000Y-62152317D01*
X105432435Y-62357102D01*
X105423480Y-62426395D01*
X105378484Y-62479847D01*
X105311733Y-62500487D01*
X105309962Y-62500500D01*
X103306382Y-62500500D01*
X103239343Y-62480815D01*
X103193588Y-62428011D01*
X103183644Y-62358853D01*
X103183909Y-62357102D01*
X103200429Y-62252799D01*
X103200500Y-62252352D01*
X103200500Y-62047648D01*
X103184661Y-61947648D01*
X103168477Y-61845465D01*
X103130934Y-61729920D01*
X103105220Y-61650781D01*
X103105218Y-61650778D01*
X103105218Y-61650776D01*
X103059057Y-61560181D01*
X103012287Y-61468390D01*
X102980092Y-61424077D01*
X102891971Y-61302786D01*
X102747217Y-61158032D01*
X102747212Y-61158028D01*
X102692280Y-61118117D01*
X102692257Y-61118102D01*
X102581609Y-61037712D01*
X102399223Y-60944781D01*
X102204534Y-60881522D01*
X102029995Y-60853878D01*
X102002352Y-60849500D01*
X101797648Y-60849500D01*
X101773329Y-60853351D01*
X101595465Y-60881522D01*
X101400776Y-60944781D01*
X101218386Y-61037715D01*
X101052786Y-61158028D01*
X100908028Y-61302786D01*
X100787714Y-61468386D01*
X100760203Y-61522379D01*
X100712227Y-61573174D01*
X100644406Y-61589968D01*
X100578272Y-61567429D01*
X100539234Y-61522376D01*
X100511861Y-61468652D01*
X100479474Y-61424077D01*
X100479474Y-61424076D01*
X99800000Y-62103551D01*
X99800000Y-62097339D01*
X99772741Y-61995606D01*
X99720080Y-61904394D01*
X99645606Y-61829920D01*
X99554394Y-61777259D01*
X99452661Y-61750000D01*
X99446446Y-61750000D01*
X100125922Y-61070524D01*
X100125921Y-61070523D01*
X100081359Y-61038147D01*
X100081350Y-61038141D01*
X99899031Y-60945244D01*
X99704417Y-60882009D01*
X99502317Y-60850000D01*
X99297683Y-60850000D01*
X99095582Y-60882009D01*
X98900968Y-60945244D01*
X98718644Y-61038143D01*
X98674077Y-61070523D01*
X98674077Y-61070524D01*
X99353554Y-61750000D01*
X99347339Y-61750000D01*
X99245606Y-61777259D01*
X99154394Y-61829920D01*
X99079920Y-61904394D01*
X99027259Y-61995606D01*
X99000000Y-62097339D01*
X99000000Y-62103553D01*
X98320524Y-61424077D01*
X98320523Y-61424077D01*
X98288143Y-61468644D01*
X98195244Y-61650968D01*
X98132009Y-61845582D01*
X98100000Y-62047682D01*
X71767628Y-62047682D01*
X70232127Y-60512181D01*
X70198642Y-60450858D01*
X70203626Y-60381166D01*
X70245498Y-60325233D01*
X70310962Y-60300816D01*
X70319808Y-60300500D01*
X73643001Y-60300500D01*
X73710040Y-60320185D01*
X73755795Y-60372989D01*
X73767001Y-60424500D01*
X73767001Y-60497876D01*
X73773408Y-60557483D01*
X73823702Y-60692328D01*
X73823706Y-60692335D01*
X73909952Y-60807544D01*
X73909955Y-60807547D01*
X74025164Y-60893793D01*
X74025171Y-60893797D01*
X74160017Y-60944091D01*
X74160016Y-60944091D01*
X74166425Y-60944780D01*
X74219627Y-60950500D01*
X76220372Y-60950499D01*
X76279983Y-60944091D01*
X76414831Y-60893796D01*
X76530046Y-60807546D01*
X76616296Y-60692331D01*
X76626690Y-60664460D01*
X76668560Y-60608527D01*
X76734023Y-60584108D01*
X76802297Y-60598958D01*
X76815746Y-60607465D01*
X76998462Y-60740217D01*
X77115793Y-60800000D01*
X77202244Y-60844049D01*
X77419751Y-60914721D01*
X77419752Y-60914721D01*
X77419755Y-60914722D01*
X77645646Y-60950500D01*
X77645647Y-60950500D01*
X77874353Y-60950500D01*
X77874354Y-60950500D01*
X78100245Y-60914722D01*
X78100248Y-60914721D01*
X78100249Y-60914721D01*
X78317755Y-60844049D01*
X78317755Y-60844048D01*
X78317758Y-60844048D01*
X78521538Y-60740217D01*
X78706566Y-60605786D01*
X78868286Y-60444066D01*
X78929992Y-60359134D01*
X78985319Y-60316470D01*
X79054932Y-60310491D01*
X79116727Y-60343096D01*
X79130626Y-60359135D01*
X79192097Y-60443741D01*
X79192097Y-60443742D01*
X79353757Y-60605402D01*
X79538723Y-60739788D01*
X79742429Y-60843582D01*
X79959871Y-60914234D01*
X80050000Y-60928509D01*
X80050000Y-59940747D01*
X80087708Y-59962518D01*
X80227591Y-60000000D01*
X80372409Y-60000000D01*
X80512292Y-59962518D01*
X80550000Y-59940747D01*
X80550000Y-60928508D01*
X80640128Y-60914234D01*
X80857570Y-60843582D01*
X81061276Y-60739788D01*
X81246242Y-60605402D01*
X81407902Y-60443742D01*
X81542288Y-60258776D01*
X81646082Y-60055070D01*
X81716734Y-59837628D01*
X81738532Y-59700000D01*
X80790748Y-59700000D01*
X80812518Y-59662292D01*
X80850000Y-59522409D01*
X80850000Y-59377591D01*
X80812518Y-59237708D01*
X80790748Y-59200000D01*
X81738532Y-59200000D01*
X81716734Y-59062371D01*
X81646082Y-58844929D01*
X81542288Y-58641223D01*
X81407902Y-58456257D01*
X81246242Y-58294597D01*
X81080006Y-58173819D01*
X81037341Y-58118489D01*
X81031362Y-58048875D01*
X81063968Y-57987081D01*
X81124807Y-57952723D01*
X81152892Y-57949501D01*
X82915500Y-57949501D01*
X82982539Y-57969186D01*
X83028294Y-58021990D01*
X83039500Y-58073501D01*
X83039500Y-59650017D01*
X83050000Y-59752796D01*
X83105185Y-59919332D01*
X83105187Y-59919337D01*
X83133765Y-59965669D01*
X83197288Y-60068656D01*
X83321344Y-60192712D01*
X83470665Y-60284814D01*
X83637202Y-60339999D01*
X83739990Y-60350500D01*
X83739995Y-60350500D01*
X85540005Y-60350500D01*
X85540010Y-60350500D01*
X85642798Y-60339999D01*
X85809335Y-60284814D01*
X85958656Y-60192712D01*
X86082712Y-60068656D01*
X86174814Y-59919335D01*
X86229999Y-59752798D01*
X86240500Y-59650010D01*
X86240500Y-58624038D01*
X93199500Y-58624038D01*
X93199500Y-58875962D01*
X93236931Y-59112292D01*
X93238910Y-59124785D01*
X93316760Y-59364383D01*
X93431132Y-59588848D01*
X93579201Y-59792649D01*
X93579205Y-59792654D01*
X93757345Y-59970794D01*
X93757350Y-59970798D01*
X93893727Y-60069881D01*
X93961155Y-60118870D01*
X94084254Y-60181592D01*
X94185616Y-60233239D01*
X94185618Y-60233239D01*
X94185621Y-60233241D01*
X94425215Y-60311090D01*
X94674038Y-60350500D01*
X94674039Y-60350500D01*
X94925961Y-60350500D01*
X94925962Y-60350500D01*
X95174785Y-60311090D01*
X95414379Y-60233241D01*
X95638845Y-60118870D01*
X95842656Y-59970793D01*
X96020793Y-59792656D01*
X96168870Y-59588845D01*
X96283241Y-59364379D01*
X96361090Y-59124785D01*
X96388776Y-58949983D01*
X113599500Y-58949983D01*
X113599500Y-62150001D01*
X113599501Y-62150018D01*
X113610000Y-62252796D01*
X113610001Y-62252799D01*
X113665185Y-62419331D01*
X113665186Y-62419334D01*
X113757288Y-62568656D01*
X113881344Y-62692712D01*
X114030666Y-62784814D01*
X114197203Y-62839999D01*
X114299991Y-62850500D01*
X115700008Y-62850499D01*
X115802797Y-62839999D01*
X115969334Y-62784814D01*
X116118656Y-62692712D01*
X116242712Y-62568656D01*
X116334814Y-62419334D01*
X116389999Y-62252797D01*
X116400500Y-62150009D01*
X116400499Y-59539818D01*
X117100000Y-59539818D01*
X117100000Y-60300000D01*
X117951518Y-60300000D01*
X117940889Y-60318409D01*
X117900000Y-60471009D01*
X117900000Y-60628991D01*
X117940889Y-60781591D01*
X117951518Y-60800000D01*
X117100000Y-60800000D01*
X117100000Y-61560181D01*
X117134473Y-61777835D01*
X117202567Y-61987410D01*
X117302613Y-62183760D01*
X117432142Y-62362041D01*
X117587958Y-62517857D01*
X117766239Y-62647386D01*
X117962589Y-62747432D01*
X118172163Y-62815526D01*
X118249999Y-62827854D01*
X118250000Y-62827854D01*
X118250000Y-61098482D01*
X118268409Y-61109111D01*
X118421009Y-61150000D01*
X118578991Y-61150000D01*
X118731591Y-61109111D01*
X118750000Y-61098482D01*
X118750000Y-62827854D01*
X118827834Y-62815526D01*
X118827837Y-62815526D01*
X119037410Y-62747432D01*
X119233760Y-62647386D01*
X119412041Y-62517857D01*
X119567857Y-62362041D01*
X119697386Y-62183760D01*
X119797432Y-61987410D01*
X119865526Y-61777835D01*
X119900000Y-61560181D01*
X119900000Y-60800000D01*
X119048482Y-60800000D01*
X119059111Y-60781591D01*
X119100000Y-60628991D01*
X119100000Y-60471009D01*
X119059111Y-60318409D01*
X119048482Y-60300000D01*
X119900000Y-60300000D01*
X119900000Y-59539818D01*
X119865526Y-59322164D01*
X119797432Y-59112589D01*
X119697386Y-58916239D01*
X119567857Y-58737958D01*
X119412041Y-58582142D01*
X119233760Y-58452613D01*
X119037410Y-58352567D01*
X118827836Y-58284473D01*
X118750000Y-58272144D01*
X118750000Y-60001517D01*
X118731591Y-59990889D01*
X118578991Y-59950000D01*
X118421009Y-59950000D01*
X118268409Y-59990889D01*
X118250000Y-60001517D01*
X118250000Y-58272144D01*
X118172164Y-58284473D01*
X118172161Y-58284473D01*
X117962589Y-58352567D01*
X117766239Y-58452613D01*
X117587958Y-58582142D01*
X117432142Y-58737958D01*
X117302613Y-58916239D01*
X117202567Y-59112589D01*
X117134473Y-59322164D01*
X117100000Y-59539818D01*
X116400499Y-59539818D01*
X116400499Y-58949992D01*
X116400420Y-58949223D01*
X116389999Y-58847203D01*
X116389998Y-58847200D01*
X116389245Y-58844929D01*
X116334814Y-58680666D01*
X116242712Y-58531344D01*
X116118656Y-58407288D01*
X116013645Y-58342517D01*
X115969336Y-58315187D01*
X115969331Y-58315185D01*
X115936766Y-58304394D01*
X115802797Y-58260001D01*
X115802795Y-58260000D01*
X115700010Y-58249500D01*
X114299998Y-58249500D01*
X114299981Y-58249501D01*
X114197203Y-58260000D01*
X114197200Y-58260001D01*
X114030668Y-58315185D01*
X114030663Y-58315187D01*
X113881342Y-58407289D01*
X113757289Y-58531342D01*
X113665187Y-58680663D01*
X113665185Y-58680668D01*
X113639858Y-58757102D01*
X113610001Y-58847203D01*
X113610001Y-58847204D01*
X113610000Y-58847204D01*
X113599500Y-58949983D01*
X96388776Y-58949983D01*
X96400500Y-58875962D01*
X96400500Y-58624038D01*
X96361090Y-58375215D01*
X96283241Y-58135621D01*
X96283239Y-58135618D01*
X96283239Y-58135616D01*
X96223525Y-58018422D01*
X96168870Y-57911155D01*
X96149952Y-57885117D01*
X96020798Y-57707350D01*
X96020794Y-57707345D01*
X95842654Y-57529205D01*
X95842649Y-57529201D01*
X95638848Y-57381132D01*
X95638847Y-57381131D01*
X95638845Y-57381130D01*
X95553634Y-57337713D01*
X95414383Y-57266760D01*
X95174785Y-57188910D01*
X95131214Y-57182009D01*
X94925962Y-57149500D01*
X94674038Y-57149500D01*
X94607738Y-57160001D01*
X94425214Y-57188910D01*
X94185616Y-57266760D01*
X93961151Y-57381132D01*
X93757350Y-57529201D01*
X93757345Y-57529205D01*
X93579205Y-57707345D01*
X93579201Y-57707350D01*
X93431132Y-57911151D01*
X93316760Y-58135616D01*
X93238910Y-58375214D01*
X93219269Y-58499223D01*
X93199500Y-58624038D01*
X86240500Y-58624038D01*
X86240500Y-57849990D01*
X86229999Y-57747202D01*
X86174814Y-57580665D01*
X86082712Y-57431344D01*
X85958656Y-57307288D01*
X85857316Y-57244781D01*
X85809337Y-57215187D01*
X85809332Y-57215185D01*
X85807863Y-57214698D01*
X85642798Y-57160001D01*
X85642796Y-57160000D01*
X85540017Y-57149500D01*
X85540010Y-57149500D01*
X83940097Y-57149500D01*
X83910656Y-57140855D01*
X83880670Y-57134332D01*
X83875654Y-57130577D01*
X83873058Y-57129815D01*
X83852416Y-57113181D01*
X83726591Y-56987356D01*
X83726589Y-56987353D01*
X83607718Y-56868482D01*
X83607717Y-56868481D01*
X83520905Y-56818361D01*
X83520905Y-56818360D01*
X83520901Y-56818359D01*
X83470786Y-56789424D01*
X83318058Y-56748500D01*
X83159944Y-56748500D01*
X83152348Y-56748500D01*
X83152332Y-56748501D01*
X69580618Y-56748501D01*
X69580602Y-56748500D01*
X69573006Y-56748500D01*
X69414892Y-56748500D01*
X69325194Y-56772535D01*
X69262159Y-56789425D01*
X69262158Y-56789426D01*
X69212045Y-56818360D01*
X69212044Y-56818361D01*
X69168638Y-56843421D01*
X69125234Y-56868480D01*
X69125231Y-56868482D01*
X69013427Y-56980287D01*
X68404130Y-57589583D01*
X68342807Y-57623068D01*
X68273115Y-57618084D01*
X68228768Y-57589583D01*
X68197213Y-57558028D01*
X68031613Y-57437715D01*
X68031612Y-57437714D01*
X68031610Y-57437713D01*
X67974653Y-57408691D01*
X67849223Y-57344781D01*
X67654534Y-57281522D01*
X67479995Y-57253878D01*
X67452352Y-57249500D01*
X67247648Y-57249500D01*
X67223329Y-57253351D01*
X67045465Y-57281522D01*
X66850776Y-57344781D01*
X66668386Y-57437715D01*
X66502786Y-57558028D01*
X66358028Y-57702786D01*
X66237715Y-57868386D01*
X66144781Y-58050776D01*
X66081522Y-58245465D01*
X66049500Y-58447648D01*
X66049500Y-58652351D01*
X66066091Y-58757102D01*
X66057136Y-58826395D01*
X66012140Y-58879847D01*
X65945389Y-58900487D01*
X65943618Y-58900500D01*
X64040038Y-58900500D01*
X63972999Y-58880815D01*
X63927244Y-58828011D01*
X63917300Y-58758853D01*
X63917565Y-58757102D01*
X63950000Y-58552317D01*
X63950000Y-58347682D01*
X63917990Y-58145582D01*
X63854755Y-57950968D01*
X63761859Y-57768650D01*
X63729474Y-57724077D01*
X63729474Y-57724076D01*
X63050000Y-58403551D01*
X63050000Y-58397339D01*
X63022741Y-58295606D01*
X62970080Y-58204394D01*
X62895606Y-58129920D01*
X62804394Y-58077259D01*
X62702661Y-58050000D01*
X62696446Y-58050000D01*
X63375922Y-57370524D01*
X63375921Y-57370523D01*
X63331359Y-57338147D01*
X63331350Y-57338141D01*
X63149031Y-57245244D01*
X62954417Y-57182009D01*
X62752317Y-57150000D01*
X62547683Y-57150000D01*
X62345582Y-57182009D01*
X62150968Y-57245244D01*
X61968644Y-57338143D01*
X61924077Y-57370523D01*
X61924077Y-57370524D01*
X62603554Y-58050000D01*
X62597339Y-58050000D01*
X62495606Y-58077259D01*
X62404394Y-58129920D01*
X62329920Y-58204394D01*
X62277259Y-58295606D01*
X62250000Y-58397339D01*
X62250000Y-58403553D01*
X61570524Y-57724077D01*
X61570523Y-57724077D01*
X61538143Y-57768644D01*
X61510765Y-57822378D01*
X61462790Y-57873174D01*
X61394969Y-57889969D01*
X61328834Y-57867431D01*
X61289795Y-57822378D01*
X61262284Y-57768385D01*
X61141971Y-57602786D01*
X60997213Y-57458028D01*
X60831613Y-57337715D01*
X60831612Y-57337714D01*
X60831610Y-57337713D01*
X60769717Y-57306177D01*
X60649223Y-57244781D01*
X60454534Y-57181522D01*
X60279995Y-57153878D01*
X60252352Y-57149500D01*
X60047648Y-57149500D01*
X60020343Y-57153824D01*
X59869888Y-57177654D01*
X59800594Y-57168699D01*
X59762809Y-57142862D01*
X59463673Y-56843726D01*
X59425713Y-56818362D01*
X59357127Y-56772535D01*
X59238744Y-56723499D01*
X59238738Y-56723497D01*
X59113071Y-56698500D01*
X59113069Y-56698500D01*
X53286931Y-56698500D01*
X53286929Y-56698500D01*
X53161261Y-56723497D01*
X53161255Y-56723499D01*
X53042874Y-56772534D01*
X52936326Y-56843726D01*
X52936325Y-56843727D01*
X52502377Y-57277676D01*
X52441054Y-57311161D01*
X52371362Y-57306177D01*
X52349600Y-57295534D01*
X52219340Y-57215189D01*
X52219335Y-57215187D01*
X52219334Y-57215186D01*
X52052797Y-57160001D01*
X52052795Y-57160000D01*
X51950010Y-57149500D01*
X50549998Y-57149500D01*
X50549981Y-57149501D01*
X50447203Y-57160000D01*
X50447200Y-57160001D01*
X50280668Y-57215185D01*
X50280663Y-57215187D01*
X50131342Y-57307289D01*
X50007289Y-57431342D01*
X49915187Y-57580663D01*
X49915185Y-57580668D01*
X49895535Y-57639969D01*
X49860001Y-57747203D01*
X49860001Y-57747204D01*
X49860000Y-57747204D01*
X49849500Y-57849983D01*
X45603173Y-57849983D01*
X45554754Y-57700968D01*
X45461859Y-57518650D01*
X45429474Y-57474077D01*
X45429474Y-57474076D01*
X44750000Y-58153551D01*
X44750000Y-58147339D01*
X44722741Y-58045606D01*
X44670080Y-57954394D01*
X44595606Y-57879920D01*
X44504394Y-57827259D01*
X44402661Y-57800000D01*
X44396446Y-57800000D01*
X45075922Y-57120524D01*
X45075921Y-57120523D01*
X45031359Y-57088147D01*
X45031350Y-57088141D01*
X44849031Y-56995244D01*
X44654417Y-56932009D01*
X44452317Y-56900000D01*
X44247683Y-56900000D01*
X44045582Y-56932009D01*
X43850968Y-56995244D01*
X43668644Y-57088143D01*
X43624077Y-57120523D01*
X43624077Y-57120524D01*
X44303554Y-57800000D01*
X44297339Y-57800000D01*
X44195606Y-57827259D01*
X44104394Y-57879920D01*
X44029920Y-57954394D01*
X43977259Y-58045606D01*
X43950000Y-58147339D01*
X43950000Y-58153553D01*
X43270524Y-57474077D01*
X43270523Y-57474077D01*
X43238143Y-57518644D01*
X43210765Y-57572378D01*
X43162790Y-57623174D01*
X43094969Y-57639969D01*
X43028834Y-57617431D01*
X42989795Y-57572378D01*
X42962287Y-57518390D01*
X42962285Y-57518387D01*
X42962284Y-57518385D01*
X42841971Y-57352786D01*
X42697213Y-57208028D01*
X42531613Y-57087715D01*
X42531612Y-57087714D01*
X42531610Y-57087713D01*
X42474653Y-57058691D01*
X42349223Y-56994781D01*
X42154534Y-56931522D01*
X41979995Y-56903878D01*
X41952352Y-56899500D01*
X41747648Y-56899500D01*
X41723329Y-56903351D01*
X41545465Y-56931522D01*
X41350776Y-56994781D01*
X41168386Y-57087715D01*
X41002786Y-57208028D01*
X40858028Y-57352786D01*
X40737715Y-57518386D01*
X40644781Y-57700776D01*
X40581522Y-57895465D01*
X40550398Y-58091977D01*
X40549500Y-58097648D01*
X38600000Y-58097648D01*
X38600000Y-57897682D01*
X38567990Y-57695582D01*
X38504755Y-57500968D01*
X38411859Y-57318650D01*
X38379474Y-57274077D01*
X38379474Y-57274076D01*
X37700000Y-57953551D01*
X37700000Y-57947339D01*
X37672741Y-57845606D01*
X37620080Y-57754394D01*
X37545606Y-57679920D01*
X37454394Y-57627259D01*
X37352661Y-57600000D01*
X37346446Y-57600000D01*
X38025922Y-56920524D01*
X38025921Y-56920523D01*
X37981359Y-56888147D01*
X37981350Y-56888141D01*
X37799031Y-56795244D01*
X37604417Y-56732009D01*
X37402317Y-56700000D01*
X37197683Y-56700000D01*
X36995582Y-56732009D01*
X36800968Y-56795244D01*
X36618644Y-56888143D01*
X36574077Y-56920523D01*
X36574077Y-56920524D01*
X37253554Y-57600000D01*
X37247339Y-57600000D01*
X37145606Y-57627259D01*
X37054394Y-57679920D01*
X36979920Y-57754394D01*
X36927259Y-57845606D01*
X36900000Y-57947339D01*
X36900000Y-57953553D01*
X36220524Y-57274077D01*
X36220523Y-57274077D01*
X36188143Y-57318644D01*
X36160765Y-57372378D01*
X36112790Y-57423174D01*
X36044969Y-57439969D01*
X35978834Y-57417431D01*
X35939795Y-57372378D01*
X35912287Y-57318390D01*
X35912285Y-57318387D01*
X35912284Y-57318385D01*
X35791971Y-57152786D01*
X35647213Y-57008028D01*
X35481613Y-56887715D01*
X35481612Y-56887714D01*
X35481610Y-56887713D01*
X35395275Y-56843723D01*
X35299223Y-56794781D01*
X35104534Y-56731522D01*
X34929995Y-56703878D01*
X34902352Y-56699500D01*
X34697648Y-56699500D01*
X34673329Y-56703351D01*
X34495465Y-56731522D01*
X34300776Y-56794781D01*
X34118386Y-56887715D01*
X33952786Y-57008028D01*
X33808028Y-57152786D01*
X33687715Y-57318386D01*
X33594781Y-57500776D01*
X33531522Y-57695465D01*
X33499500Y-57897648D01*
X11500500Y-57897648D01*
X11500500Y-52624500D01*
X11520185Y-52557461D01*
X11572989Y-52511706D01*
X11624500Y-52500500D01*
X129375500Y-52500500D01*
X129442539Y-52520185D01*
G37*
%TD.AperFunction*%
%TD*%
M02*
