M48
; DRILL file {KiCad 9.0.3} date 2025-10-25T15:12:00+0530
; FORMAT={-:-/ absolute / metric / decimal}
; #@! TF.CreationDate,2025-10-25T15:12:00+05:30
; #@! TF.GenerationSoftware,Kicad,Pcbnew,9.0.3
; #@! TF.FileFunction,Plated,1,2,PTH
FMAT,2
METRIC
; #@! TA.AperFunction,Plated,PTH,ViaDrill
T1C0.300
; #@! TA.AperFunction,Plated,PTH,ComponentDrill
T2C0.800
; #@! TA.AperFunction,Plated,PTH,ComponentDrill
T3C1.100
; #@! TA.AperFunction,Plated,PTH,ComponentDrill
T4C1.200
; #@! TA.AperFunction,Plated,PTH,ComponentDrill
T5C1.400
; #@! TA.AperFunction,Plated,PTH,ComponentDrill
T6C1.500
%
G90
G05
T1
X122.2Y-94.35
T2
X14.75Y-63.25
X14.81Y-88.6
X17.25Y-63.25
X17.35Y-88.6
X20.61Y-88.55
X23.15Y-88.55
X30.55Y-76.155
X30.55Y-78.695
X34.8Y-58.0
X35.45Y-77.15
X35.605Y-83.79
X35.705Y-70.45
X35.95Y-95.35
X37.3Y-58.0
X37.95Y-77.15
X38.145Y-83.79
X38.245Y-70.45
X38.45Y-95.35
X41.395Y-72.99
X41.395Y-75.53
X41.395Y-78.07
X41.395Y-80.61
X41.85Y-58.2
X43.0Y-95.4
X44.35Y-58.2
X45.5Y-95.4
X47.205Y-85.05
X47.4Y-68.35
X49.015Y-72.99
X49.015Y-75.53
X49.015Y-78.07
X49.015Y-80.61
X49.745Y-85.05
X49.94Y-68.35
X53.16Y-68.35
X53.16Y-85.05
X55.7Y-68.35
X55.7Y-85.05
X57.65Y-92.2
X57.65Y-94.7
X60.15Y-58.45
X62.0Y-66.9
X62.0Y-69.4
X62.05Y-75.3
X62.05Y-77.84
X62.3Y-83.65
X62.3Y-86.15
X62.65Y-58.45
X67.35Y-58.55
X68.355Y-67.3
X68.8Y-78.92
X68.8Y-81.46
X68.8Y-84.0
X68.8Y-86.54
X69.85Y-58.55
X70.895Y-67.3
X73.69Y-91.4
X73.83Y-67.25
X76.42Y-78.92
X76.42Y-81.46
X76.42Y-84.0
X76.42Y-86.54
X81.31Y-91.4
X81.45Y-67.25
X81.6Y-80.2
X81.6Y-82.7
X85.21Y-67.1
X85.405Y-91.35
X87.75Y-67.1
X87.945Y-91.35
X99.4Y-62.15
X100.2Y-71.0
X100.7Y-79.75
X101.15Y-88.65
X101.9Y-62.15
X102.7Y-71.0
X103.2Y-79.75
X103.65Y-88.65
X106.505Y-70.6
X106.7Y-62.05
X109.045Y-70.6
X109.2Y-62.05
X112.7Y-70.45
X115.2Y-70.45
X116.8Y-81.85
X119.3Y-81.85
T3
X35.14Y-64.55
X35.54Y-88.55
X45.3Y-64.55
X45.7Y-88.55
X53.8Y-74.02
X53.8Y-76.56
X53.8Y-79.1
X66.39Y-73.7
X75.22Y-59.45
X76.55Y-73.7
X77.76Y-59.45
X80.3Y-59.45
X84.64Y-58.75
X94.8Y-58.75
T4
X51.25Y-59.45
X54.75Y-59.45
X115.0Y-60.55
X118.5Y-60.55
X123.25Y-68.9
X123.25Y-72.4
T5
X15.45Y-72.95
X15.45Y-80.45
T6
X93.85Y-64.95
X93.85Y-70.4
X93.85Y-75.85
X93.85Y-82.0
X93.85Y-87.45
X93.85Y-92.9
M30
