%TF.GenerationSoftware,KiCad,Pcbnew,9.0.3*%
%TF.CreationDate,2025-10-25T15:11:56+05:30*%
%TF.ProjectId,Vicharak,56696368-6172-4616-9b2e-6b696361645f,rev?*%
%TF.SameCoordinates,Original*%
%TF.FileFunction,Soldermask,Bot*%
%TF.FilePolarity,Negative*%
%FSLAX46Y46*%
G04 Gerber Fmt 4.6, Leading zero omitted, Abs format (unit mm)*
G04 Created by KiCad (PCBNEW 9.0.3) date 2025-10-25 15:11:56*
%MOMM*%
%LPD*%
G01*
G04 APERTURE LIST*
G04 Aperture macros list*
%AMRoundRect*
0 Rectangle with rounded corners*
0 $1 Rounding radius*
0 $2 $3 $4 $5 $6 $7 $8 $9 X,Y pos of 4 corners*
0 Add a 4 corners polygon primitive as box body*
4,1,4,$2,$3,$4,$5,$6,$7,$8,$9,$2,$3,0*
0 Add four circle primitives for the rounded corners*
1,1,$1+$1,$2,$3*
1,1,$1+$1,$4,$5*
1,1,$1+$1,$6,$7*
1,1,$1+$1,$8,$9*
0 Add four rect primitives between the rounded corners*
20,1,$1+$1,$2,$3,$4,$5,0*
20,1,$1+$1,$4,$5,$6,$7,0*
20,1,$1+$1,$6,$7,$8,$9,0*
20,1,$1+$1,$8,$9,$2,$3,0*%
G04 Aperture macros list end*
%ADD10R,2.000000X1.905000*%
%ADD11O,2.000000X1.905000*%
%ADD12C,1.600000*%
%ADD13R,1.905000X2.000000*%
%ADD14O,1.905000X2.000000*%
%ADD15RoundRect,0.250000X1.550000X-0.750000X1.550000X0.750000X-1.550000X0.750000X-1.550000X-0.750000X0*%
%ADD16O,3.600000X2.000000*%
%ADD17RoundRect,0.250000X-0.550000X-0.550000X0.550000X-0.550000X0.550000X0.550000X-0.550000X0.550000X0*%
%ADD18RoundRect,0.249999X0.850001X0.850001X-0.850001X0.850001X-0.850001X-0.850001X0.850001X-0.850001X0*%
%ADD19C,2.200000*%
%ADD20RoundRect,0.249999X-0.850001X-0.850001X0.850001X-0.850001X0.850001X0.850001X-0.850001X0.850001X0*%
%ADD21R,4.500000X2.500000*%
%ADD22O,4.500000X2.500000*%
%ADD23RoundRect,0.250000X-0.650000X-1.550000X0.650000X-1.550000X0.650000X1.550000X-0.650000X1.550000X0*%
%ADD24O,1.800000X3.600000*%
%ADD25RoundRect,0.250000X-1.550000X0.650000X-1.550000X-0.650000X1.550000X-0.650000X1.550000X0.650000X0*%
%ADD26O,3.600000X1.800000*%
G04 APERTURE END LIST*
D10*
%TO.C,Q1*%
X53800000Y-74020000D03*
D11*
X53800000Y-76560000D03*
X53800000Y-79100000D03*
%TD*%
D12*
%TO.C,R6*%
X49745000Y-85050000D03*
X47205000Y-85050000D03*
%TD*%
%TO.C,R7*%
X62050000Y-77840000D03*
X62050000Y-75300000D03*
%TD*%
%TO.C,R_T1*%
X35605000Y-83790000D03*
X38145000Y-83790000D03*
%TD*%
%TO.C,R4*%
X14810000Y-88600000D03*
X17350000Y-88600000D03*
%TD*%
%TO.C,R1*%
X49940000Y-68350000D03*
X47400000Y-68350000D03*
%TD*%
%TO.C,C15*%
X67350000Y-58550000D03*
X69850000Y-58550000D03*
%TD*%
%TO.C,C_T1*%
X35450000Y-77150000D03*
X37950000Y-77150000D03*
%TD*%
%TO.C,C7*%
X35950000Y-95350000D03*
X38450000Y-95350000D03*
%TD*%
D13*
%TO.C,Q2*%
X75220000Y-59450000D03*
D14*
X77760000Y-59450000D03*
X80300000Y-59450000D03*
%TD*%
D12*
%TO.C,R10*%
X106505000Y-70600000D03*
X109045000Y-70600000D03*
%TD*%
%TO.C,C10*%
X100700000Y-79750000D03*
X103200000Y-79750000D03*
%TD*%
D15*
%TO.C,J1*%
X15450000Y-80450000D03*
D16*
X15450000Y-72950000D03*
%TD*%
D17*
%TO.C,D5*%
X73830000Y-67250000D03*
D12*
X81450000Y-67250000D03*
%TD*%
D18*
%TO.C,D4*%
X76550000Y-73700000D03*
D19*
X66390000Y-73700000D03*
%TD*%
D12*
%TO.C,C2*%
X34800000Y-58000000D03*
X37300000Y-58000000D03*
%TD*%
%TO.C,C8*%
X43000000Y-95400000D03*
X45500000Y-95400000D03*
%TD*%
D17*
%TO.C,D6*%
X73690000Y-91400000D03*
D12*
X81310000Y-91400000D03*
%TD*%
D20*
%TO.C,D1*%
X35140000Y-64550000D03*
D19*
X45300000Y-64550000D03*
%TD*%
D12*
%TO.C,C12*%
X100200000Y-71000000D03*
X102700000Y-71000000D03*
%TD*%
%TO.C,C13*%
X81600000Y-80200000D03*
X81600000Y-82700000D03*
%TD*%
%TO.C,R8*%
X53160000Y-68350000D03*
X55700000Y-68350000D03*
%TD*%
%TO.C,C19*%
X116800000Y-81850000D03*
X119300000Y-81850000D03*
%TD*%
D20*
%TO.C,D3*%
X35540000Y-88550000D03*
D19*
X45700000Y-88550000D03*
%TD*%
D12*
%TO.C,C14*%
X60150000Y-58450000D03*
X62650000Y-58450000D03*
%TD*%
D17*
%TO.C,U2*%
X41395000Y-72990000D03*
D12*
X41395000Y-75530000D03*
X41395000Y-78070000D03*
X41395000Y-80610000D03*
X49015000Y-80610000D03*
X49015000Y-78070000D03*
X49015000Y-75530000D03*
X49015000Y-72990000D03*
%TD*%
%TO.C,C4*%
X14750000Y-63250000D03*
X17250000Y-63250000D03*
%TD*%
%TO.C,R11*%
X85210000Y-67100000D03*
X87750000Y-67100000D03*
%TD*%
%TO.C,C16*%
X99400000Y-62150000D03*
X101900000Y-62150000D03*
%TD*%
D21*
%TO.C,Q4*%
X93850000Y-82000000D03*
D22*
X93850000Y-87450000D03*
X93850000Y-92900000D03*
%TD*%
D12*
%TO.C,R12*%
X85405000Y-91350000D03*
X87945000Y-91350000D03*
%TD*%
%TO.C,R3*%
X20610000Y-88550000D03*
X23150000Y-88550000D03*
%TD*%
%TO.C,C6*%
X62000000Y-69400000D03*
X62000000Y-66900000D03*
%TD*%
%TO.C,C5*%
X62300000Y-86150000D03*
X62300000Y-83650000D03*
%TD*%
%TO.C,C18*%
X112700000Y-70450000D03*
X115200000Y-70450000D03*
%TD*%
D20*
%TO.C,D2*%
X84640000Y-58750000D03*
D19*
X94800000Y-58750000D03*
%TD*%
D12*
%TO.C,C1*%
X41850000Y-58200000D03*
X44350000Y-58200000D03*
%TD*%
D21*
%TO.C,Q3*%
X93850000Y-64950000D03*
D22*
X93850000Y-70400000D03*
X93850000Y-75850000D03*
%TD*%
D23*
%TO.C,J2*%
X51250000Y-59450000D03*
D24*
X54750000Y-59450000D03*
%TD*%
D12*
%TO.C,R5*%
X53160000Y-85050000D03*
X55700000Y-85050000D03*
%TD*%
%TO.C,R9*%
X68355000Y-67300000D03*
X70895000Y-67300000D03*
%TD*%
%TO.C,C17*%
X106700000Y-62050000D03*
X109200000Y-62050000D03*
%TD*%
%TO.C,C11*%
X101150000Y-88650000D03*
X103650000Y-88650000D03*
%TD*%
%TO.C,C9*%
X57650000Y-94700000D03*
X57650000Y-92200000D03*
%TD*%
D23*
%TO.C,J3*%
X115000000Y-60550000D03*
D24*
X118500000Y-60550000D03*
%TD*%
D12*
%TO.C,R_T2*%
X35705000Y-70450000D03*
X38245000Y-70450000D03*
%TD*%
%TO.C,R_T3*%
X30550000Y-78695000D03*
X30550000Y-76155000D03*
%TD*%
D25*
%TO.C,J4*%
X123250000Y-68900000D03*
D26*
X123250000Y-72400000D03*
%TD*%
D17*
%TO.C,U3*%
X68800000Y-78920000D03*
D12*
X68800000Y-81460000D03*
X68800000Y-84000000D03*
X68800000Y-86540000D03*
X76420000Y-86540000D03*
X76420000Y-84000000D03*
X76420000Y-81460000D03*
X76420000Y-78920000D03*
%TD*%
M02*
