%TF.GenerationSoftware,KiCad,Pcbnew,9.0.3*%
%TF.CreationDate,2025-10-25T15:11:56+05:30*%
%TF.ProjectId,Vicharak,56696368-6172-4616-9b2e-6b696361645f,rev?*%
%TF.SameCoordinates,Original*%
%TF.FileFunction,Legend,Top*%
%TF.FilePolarity,Positive*%
%FSLAX46Y46*%
G04 Gerber Fmt 4.6, Leading zero omitted, Abs format (unit mm)*
G04 Created by KiCad (PCBNEW 9.0.3) date 2025-10-25 15:11:56*
%MOMM*%
%LPD*%
G01*
G04 APERTURE LIST*
%ADD10C,0.150000*%
%ADD11C,0.120000*%
G04 APERTURE END LIST*
D10*
X58450057Y-76655238D02*
X58402438Y-76750476D01*
X58402438Y-76750476D02*
X58307200Y-76845714D01*
X58307200Y-76845714D02*
X58164342Y-76988571D01*
X58164342Y-76988571D02*
X58116723Y-77083809D01*
X58116723Y-77083809D02*
X58116723Y-77179047D01*
X58354819Y-77131428D02*
X58307200Y-77226666D01*
X58307200Y-77226666D02*
X58211961Y-77321904D01*
X58211961Y-77321904D02*
X58021485Y-77369523D01*
X58021485Y-77369523D02*
X57688152Y-77369523D01*
X57688152Y-77369523D02*
X57497676Y-77321904D01*
X57497676Y-77321904D02*
X57402438Y-77226666D01*
X57402438Y-77226666D02*
X57354819Y-77131428D01*
X57354819Y-77131428D02*
X57354819Y-76940952D01*
X57354819Y-76940952D02*
X57402438Y-76845714D01*
X57402438Y-76845714D02*
X57497676Y-76750476D01*
X57497676Y-76750476D02*
X57688152Y-76702857D01*
X57688152Y-76702857D02*
X58021485Y-76702857D01*
X58021485Y-76702857D02*
X58211961Y-76750476D01*
X58211961Y-76750476D02*
X58307200Y-76845714D01*
X58307200Y-76845714D02*
X58354819Y-76940952D01*
X58354819Y-76940952D02*
X58354819Y-77131428D01*
X58354819Y-75750476D02*
X58354819Y-76321904D01*
X58354819Y-76036190D02*
X57354819Y-76036190D01*
X57354819Y-76036190D02*
X57497676Y-76131428D01*
X57497676Y-76131428D02*
X57592914Y-76226666D01*
X57592914Y-76226666D02*
X57640533Y-76321904D01*
X48308333Y-87874819D02*
X47975000Y-87398628D01*
X47736905Y-87874819D02*
X47736905Y-86874819D01*
X47736905Y-86874819D02*
X48117857Y-86874819D01*
X48117857Y-86874819D02*
X48213095Y-86922438D01*
X48213095Y-86922438D02*
X48260714Y-86970057D01*
X48260714Y-86970057D02*
X48308333Y-87065295D01*
X48308333Y-87065295D02*
X48308333Y-87208152D01*
X48308333Y-87208152D02*
X48260714Y-87303390D01*
X48260714Y-87303390D02*
X48213095Y-87351009D01*
X48213095Y-87351009D02*
X48117857Y-87398628D01*
X48117857Y-87398628D02*
X47736905Y-87398628D01*
X49165476Y-86874819D02*
X48975000Y-86874819D01*
X48975000Y-86874819D02*
X48879762Y-86922438D01*
X48879762Y-86922438D02*
X48832143Y-86970057D01*
X48832143Y-86970057D02*
X48736905Y-87112914D01*
X48736905Y-87112914D02*
X48689286Y-87303390D01*
X48689286Y-87303390D02*
X48689286Y-87684342D01*
X48689286Y-87684342D02*
X48736905Y-87779580D01*
X48736905Y-87779580D02*
X48784524Y-87827200D01*
X48784524Y-87827200D02*
X48879762Y-87874819D01*
X48879762Y-87874819D02*
X49070238Y-87874819D01*
X49070238Y-87874819D02*
X49165476Y-87827200D01*
X49165476Y-87827200D02*
X49213095Y-87779580D01*
X49213095Y-87779580D02*
X49260714Y-87684342D01*
X49260714Y-87684342D02*
X49260714Y-87446247D01*
X49260714Y-87446247D02*
X49213095Y-87351009D01*
X49213095Y-87351009D02*
X49165476Y-87303390D01*
X49165476Y-87303390D02*
X49070238Y-87255771D01*
X49070238Y-87255771D02*
X48879762Y-87255771D01*
X48879762Y-87255771D02*
X48784524Y-87303390D01*
X48784524Y-87303390D02*
X48736905Y-87351009D01*
X48736905Y-87351009D02*
X48689286Y-87446247D01*
X60134819Y-76736666D02*
X59658628Y-77069999D01*
X60134819Y-77308094D02*
X59134819Y-77308094D01*
X59134819Y-77308094D02*
X59134819Y-76927142D01*
X59134819Y-76927142D02*
X59182438Y-76831904D01*
X59182438Y-76831904D02*
X59230057Y-76784285D01*
X59230057Y-76784285D02*
X59325295Y-76736666D01*
X59325295Y-76736666D02*
X59468152Y-76736666D01*
X59468152Y-76736666D02*
X59563390Y-76784285D01*
X59563390Y-76784285D02*
X59611009Y-76831904D01*
X59611009Y-76831904D02*
X59658628Y-76927142D01*
X59658628Y-76927142D02*
X59658628Y-77308094D01*
X59134819Y-76403332D02*
X59134819Y-75736666D01*
X59134819Y-75736666D02*
X60134819Y-76165237D01*
X109733333Y-78104819D02*
X109257143Y-78104819D01*
X109257143Y-78104819D02*
X109257143Y-77104819D01*
X110590476Y-78104819D02*
X110019048Y-78104819D01*
X110304762Y-78104819D02*
X110304762Y-77104819D01*
X110304762Y-77104819D02*
X110209524Y-77247676D01*
X110209524Y-77247676D02*
X110114286Y-77342914D01*
X110114286Y-77342914D02*
X110019048Y-77390533D01*
X35946428Y-81874819D02*
X35613095Y-81398628D01*
X35375000Y-81874819D02*
X35375000Y-80874819D01*
X35375000Y-80874819D02*
X35755952Y-80874819D01*
X35755952Y-80874819D02*
X35851190Y-80922438D01*
X35851190Y-80922438D02*
X35898809Y-80970057D01*
X35898809Y-80970057D02*
X35946428Y-81065295D01*
X35946428Y-81065295D02*
X35946428Y-81208152D01*
X35946428Y-81208152D02*
X35898809Y-81303390D01*
X35898809Y-81303390D02*
X35851190Y-81351009D01*
X35851190Y-81351009D02*
X35755952Y-81398628D01*
X35755952Y-81398628D02*
X35375000Y-81398628D01*
X36136905Y-81970057D02*
X36898809Y-81970057D01*
X36994048Y-80874819D02*
X37565476Y-80874819D01*
X37279762Y-81874819D02*
X37279762Y-80874819D01*
X38422619Y-81874819D02*
X37851191Y-81874819D01*
X38136905Y-81874819D02*
X38136905Y-80874819D01*
X38136905Y-80874819D02*
X38041667Y-81017676D01*
X38041667Y-81017676D02*
X37946429Y-81112914D01*
X37946429Y-81112914D02*
X37851191Y-81160533D01*
X15913333Y-86684819D02*
X15580000Y-86208628D01*
X15341905Y-86684819D02*
X15341905Y-85684819D01*
X15341905Y-85684819D02*
X15722857Y-85684819D01*
X15722857Y-85684819D02*
X15818095Y-85732438D01*
X15818095Y-85732438D02*
X15865714Y-85780057D01*
X15865714Y-85780057D02*
X15913333Y-85875295D01*
X15913333Y-85875295D02*
X15913333Y-86018152D01*
X15913333Y-86018152D02*
X15865714Y-86113390D01*
X15865714Y-86113390D02*
X15818095Y-86161009D01*
X15818095Y-86161009D02*
X15722857Y-86208628D01*
X15722857Y-86208628D02*
X15341905Y-86208628D01*
X16770476Y-86018152D02*
X16770476Y-86684819D01*
X16532381Y-85637200D02*
X16294286Y-86351485D01*
X16294286Y-86351485D02*
X16913333Y-86351485D01*
X48503333Y-71174819D02*
X48170000Y-70698628D01*
X47931905Y-71174819D02*
X47931905Y-70174819D01*
X47931905Y-70174819D02*
X48312857Y-70174819D01*
X48312857Y-70174819D02*
X48408095Y-70222438D01*
X48408095Y-70222438D02*
X48455714Y-70270057D01*
X48455714Y-70270057D02*
X48503333Y-70365295D01*
X48503333Y-70365295D02*
X48503333Y-70508152D01*
X48503333Y-70508152D02*
X48455714Y-70603390D01*
X48455714Y-70603390D02*
X48408095Y-70651009D01*
X48408095Y-70651009D02*
X48312857Y-70698628D01*
X48312857Y-70698628D02*
X47931905Y-70698628D01*
X49455714Y-71174819D02*
X48884286Y-71174819D01*
X49170000Y-71174819D02*
X49170000Y-70174819D01*
X49170000Y-70174819D02*
X49074762Y-70317676D01*
X49074762Y-70317676D02*
X48979524Y-70412914D01*
X48979524Y-70412914D02*
X48884286Y-70460533D01*
X67957142Y-54509580D02*
X67909523Y-54557200D01*
X67909523Y-54557200D02*
X67766666Y-54604819D01*
X67766666Y-54604819D02*
X67671428Y-54604819D01*
X67671428Y-54604819D02*
X67528571Y-54557200D01*
X67528571Y-54557200D02*
X67433333Y-54461961D01*
X67433333Y-54461961D02*
X67385714Y-54366723D01*
X67385714Y-54366723D02*
X67338095Y-54176247D01*
X67338095Y-54176247D02*
X67338095Y-54033390D01*
X67338095Y-54033390D02*
X67385714Y-53842914D01*
X67385714Y-53842914D02*
X67433333Y-53747676D01*
X67433333Y-53747676D02*
X67528571Y-53652438D01*
X67528571Y-53652438D02*
X67671428Y-53604819D01*
X67671428Y-53604819D02*
X67766666Y-53604819D01*
X67766666Y-53604819D02*
X67909523Y-53652438D01*
X67909523Y-53652438D02*
X67957142Y-53700057D01*
X68909523Y-54604819D02*
X68338095Y-54604819D01*
X68623809Y-54604819D02*
X68623809Y-53604819D01*
X68623809Y-53604819D02*
X68528571Y-53747676D01*
X68528571Y-53747676D02*
X68433333Y-53842914D01*
X68433333Y-53842914D02*
X68338095Y-53890533D01*
X69814285Y-53604819D02*
X69338095Y-53604819D01*
X69338095Y-53604819D02*
X69290476Y-54081009D01*
X69290476Y-54081009D02*
X69338095Y-54033390D01*
X69338095Y-54033390D02*
X69433333Y-53985771D01*
X69433333Y-53985771D02*
X69671428Y-53985771D01*
X69671428Y-53985771D02*
X69766666Y-54033390D01*
X69766666Y-54033390D02*
X69814285Y-54081009D01*
X69814285Y-54081009D02*
X69861904Y-54176247D01*
X69861904Y-54176247D02*
X69861904Y-54414342D01*
X69861904Y-54414342D02*
X69814285Y-54509580D01*
X69814285Y-54509580D02*
X69766666Y-54557200D01*
X69766666Y-54557200D02*
X69671428Y-54604819D01*
X69671428Y-54604819D02*
X69433333Y-54604819D01*
X69433333Y-54604819D02*
X69338095Y-54557200D01*
X69338095Y-54557200D02*
X69290476Y-54509580D01*
X35771428Y-73109580D02*
X35723809Y-73157200D01*
X35723809Y-73157200D02*
X35580952Y-73204819D01*
X35580952Y-73204819D02*
X35485714Y-73204819D01*
X35485714Y-73204819D02*
X35342857Y-73157200D01*
X35342857Y-73157200D02*
X35247619Y-73061961D01*
X35247619Y-73061961D02*
X35200000Y-72966723D01*
X35200000Y-72966723D02*
X35152381Y-72776247D01*
X35152381Y-72776247D02*
X35152381Y-72633390D01*
X35152381Y-72633390D02*
X35200000Y-72442914D01*
X35200000Y-72442914D02*
X35247619Y-72347676D01*
X35247619Y-72347676D02*
X35342857Y-72252438D01*
X35342857Y-72252438D02*
X35485714Y-72204819D01*
X35485714Y-72204819D02*
X35580952Y-72204819D01*
X35580952Y-72204819D02*
X35723809Y-72252438D01*
X35723809Y-72252438D02*
X35771428Y-72300057D01*
X35961905Y-73300057D02*
X36723809Y-73300057D01*
X36819048Y-72204819D02*
X37390476Y-72204819D01*
X37104762Y-73204819D02*
X37104762Y-72204819D01*
X38247619Y-73204819D02*
X37676191Y-73204819D01*
X37961905Y-73204819D02*
X37961905Y-72204819D01*
X37961905Y-72204819D02*
X37866667Y-72347676D01*
X37866667Y-72347676D02*
X37771429Y-72442914D01*
X37771429Y-72442914D02*
X37676191Y-72490533D01*
X37033333Y-91309580D02*
X36985714Y-91357200D01*
X36985714Y-91357200D02*
X36842857Y-91404819D01*
X36842857Y-91404819D02*
X36747619Y-91404819D01*
X36747619Y-91404819D02*
X36604762Y-91357200D01*
X36604762Y-91357200D02*
X36509524Y-91261961D01*
X36509524Y-91261961D02*
X36461905Y-91166723D01*
X36461905Y-91166723D02*
X36414286Y-90976247D01*
X36414286Y-90976247D02*
X36414286Y-90833390D01*
X36414286Y-90833390D02*
X36461905Y-90642914D01*
X36461905Y-90642914D02*
X36509524Y-90547676D01*
X36509524Y-90547676D02*
X36604762Y-90452438D01*
X36604762Y-90452438D02*
X36747619Y-90404819D01*
X36747619Y-90404819D02*
X36842857Y-90404819D01*
X36842857Y-90404819D02*
X36985714Y-90452438D01*
X36985714Y-90452438D02*
X37033333Y-90500057D01*
X37366667Y-90404819D02*
X38033333Y-90404819D01*
X38033333Y-90404819D02*
X37604762Y-91404819D01*
X77664761Y-55900057D02*
X77569523Y-55852438D01*
X77569523Y-55852438D02*
X77474285Y-55757200D01*
X77474285Y-55757200D02*
X77331428Y-55614342D01*
X77331428Y-55614342D02*
X77236190Y-55566723D01*
X77236190Y-55566723D02*
X77140952Y-55566723D01*
X77188571Y-55804819D02*
X77093333Y-55757200D01*
X77093333Y-55757200D02*
X76998095Y-55661961D01*
X76998095Y-55661961D02*
X76950476Y-55471485D01*
X76950476Y-55471485D02*
X76950476Y-55138152D01*
X76950476Y-55138152D02*
X76998095Y-54947676D01*
X76998095Y-54947676D02*
X77093333Y-54852438D01*
X77093333Y-54852438D02*
X77188571Y-54804819D01*
X77188571Y-54804819D02*
X77379047Y-54804819D01*
X77379047Y-54804819D02*
X77474285Y-54852438D01*
X77474285Y-54852438D02*
X77569523Y-54947676D01*
X77569523Y-54947676D02*
X77617142Y-55138152D01*
X77617142Y-55138152D02*
X77617142Y-55471485D01*
X77617142Y-55471485D02*
X77569523Y-55661961D01*
X77569523Y-55661961D02*
X77474285Y-55757200D01*
X77474285Y-55757200D02*
X77379047Y-55804819D01*
X77379047Y-55804819D02*
X77188571Y-55804819D01*
X77998095Y-54900057D02*
X78045714Y-54852438D01*
X78045714Y-54852438D02*
X78140952Y-54804819D01*
X78140952Y-54804819D02*
X78379047Y-54804819D01*
X78379047Y-54804819D02*
X78474285Y-54852438D01*
X78474285Y-54852438D02*
X78521904Y-54900057D01*
X78521904Y-54900057D02*
X78569523Y-54995295D01*
X78569523Y-54995295D02*
X78569523Y-55090533D01*
X78569523Y-55090533D02*
X78521904Y-55233390D01*
X78521904Y-55233390D02*
X77950476Y-55804819D01*
X77950476Y-55804819D02*
X78569523Y-55804819D01*
X107132142Y-68684819D02*
X106798809Y-68208628D01*
X106560714Y-68684819D02*
X106560714Y-67684819D01*
X106560714Y-67684819D02*
X106941666Y-67684819D01*
X106941666Y-67684819D02*
X107036904Y-67732438D01*
X107036904Y-67732438D02*
X107084523Y-67780057D01*
X107084523Y-67780057D02*
X107132142Y-67875295D01*
X107132142Y-67875295D02*
X107132142Y-68018152D01*
X107132142Y-68018152D02*
X107084523Y-68113390D01*
X107084523Y-68113390D02*
X107036904Y-68161009D01*
X107036904Y-68161009D02*
X106941666Y-68208628D01*
X106941666Y-68208628D02*
X106560714Y-68208628D01*
X108084523Y-68684819D02*
X107513095Y-68684819D01*
X107798809Y-68684819D02*
X107798809Y-67684819D01*
X107798809Y-67684819D02*
X107703571Y-67827676D01*
X107703571Y-67827676D02*
X107608333Y-67922914D01*
X107608333Y-67922914D02*
X107513095Y-67970533D01*
X108703571Y-67684819D02*
X108798809Y-67684819D01*
X108798809Y-67684819D02*
X108894047Y-67732438D01*
X108894047Y-67732438D02*
X108941666Y-67780057D01*
X108941666Y-67780057D02*
X108989285Y-67875295D01*
X108989285Y-67875295D02*
X109036904Y-68065771D01*
X109036904Y-68065771D02*
X109036904Y-68303866D01*
X109036904Y-68303866D02*
X108989285Y-68494342D01*
X108989285Y-68494342D02*
X108941666Y-68589580D01*
X108941666Y-68589580D02*
X108894047Y-68637200D01*
X108894047Y-68637200D02*
X108798809Y-68684819D01*
X108798809Y-68684819D02*
X108703571Y-68684819D01*
X108703571Y-68684819D02*
X108608333Y-68637200D01*
X108608333Y-68637200D02*
X108560714Y-68589580D01*
X108560714Y-68589580D02*
X108513095Y-68494342D01*
X108513095Y-68494342D02*
X108465476Y-68303866D01*
X108465476Y-68303866D02*
X108465476Y-68065771D01*
X108465476Y-68065771D02*
X108513095Y-67875295D01*
X108513095Y-67875295D02*
X108560714Y-67780057D01*
X108560714Y-67780057D02*
X108608333Y-67732438D01*
X108608333Y-67732438D02*
X108703571Y-67684819D01*
X101307142Y-75709580D02*
X101259523Y-75757200D01*
X101259523Y-75757200D02*
X101116666Y-75804819D01*
X101116666Y-75804819D02*
X101021428Y-75804819D01*
X101021428Y-75804819D02*
X100878571Y-75757200D01*
X100878571Y-75757200D02*
X100783333Y-75661961D01*
X100783333Y-75661961D02*
X100735714Y-75566723D01*
X100735714Y-75566723D02*
X100688095Y-75376247D01*
X100688095Y-75376247D02*
X100688095Y-75233390D01*
X100688095Y-75233390D02*
X100735714Y-75042914D01*
X100735714Y-75042914D02*
X100783333Y-74947676D01*
X100783333Y-74947676D02*
X100878571Y-74852438D01*
X100878571Y-74852438D02*
X101021428Y-74804819D01*
X101021428Y-74804819D02*
X101116666Y-74804819D01*
X101116666Y-74804819D02*
X101259523Y-74852438D01*
X101259523Y-74852438D02*
X101307142Y-74900057D01*
X102259523Y-75804819D02*
X101688095Y-75804819D01*
X101973809Y-75804819D02*
X101973809Y-74804819D01*
X101973809Y-74804819D02*
X101878571Y-74947676D01*
X101878571Y-74947676D02*
X101783333Y-75042914D01*
X101783333Y-75042914D02*
X101688095Y-75090533D01*
X102878571Y-74804819D02*
X102973809Y-74804819D01*
X102973809Y-74804819D02*
X103069047Y-74852438D01*
X103069047Y-74852438D02*
X103116666Y-74900057D01*
X103116666Y-74900057D02*
X103164285Y-74995295D01*
X103164285Y-74995295D02*
X103211904Y-75185771D01*
X103211904Y-75185771D02*
X103211904Y-75423866D01*
X103211904Y-75423866D02*
X103164285Y-75614342D01*
X103164285Y-75614342D02*
X103116666Y-75709580D01*
X103116666Y-75709580D02*
X103069047Y-75757200D01*
X103069047Y-75757200D02*
X102973809Y-75804819D01*
X102973809Y-75804819D02*
X102878571Y-75804819D01*
X102878571Y-75804819D02*
X102783333Y-75757200D01*
X102783333Y-75757200D02*
X102735714Y-75709580D01*
X102735714Y-75709580D02*
X102688095Y-75614342D01*
X102688095Y-75614342D02*
X102640476Y-75423866D01*
X102640476Y-75423866D02*
X102640476Y-75185771D01*
X102640476Y-75185771D02*
X102688095Y-74995295D01*
X102688095Y-74995295D02*
X102735714Y-74900057D01*
X102735714Y-74900057D02*
X102783333Y-74852438D01*
X102783333Y-74852438D02*
X102878571Y-74804819D01*
X11704819Y-77033333D02*
X12419104Y-77033333D01*
X12419104Y-77033333D02*
X12561961Y-77080952D01*
X12561961Y-77080952D02*
X12657200Y-77176190D01*
X12657200Y-77176190D02*
X12704819Y-77319047D01*
X12704819Y-77319047D02*
X12704819Y-77414285D01*
X12704819Y-76033333D02*
X12704819Y-76604761D01*
X12704819Y-76319047D02*
X11704819Y-76319047D01*
X11704819Y-76319047D02*
X11847676Y-76414285D01*
X11847676Y-76414285D02*
X11942914Y-76509523D01*
X11942914Y-76509523D02*
X11990533Y-76604761D01*
X76901905Y-65584819D02*
X76901905Y-64584819D01*
X76901905Y-64584819D02*
X77140000Y-64584819D01*
X77140000Y-64584819D02*
X77282857Y-64632438D01*
X77282857Y-64632438D02*
X77378095Y-64727676D01*
X77378095Y-64727676D02*
X77425714Y-64822914D01*
X77425714Y-64822914D02*
X77473333Y-65013390D01*
X77473333Y-65013390D02*
X77473333Y-65156247D01*
X77473333Y-65156247D02*
X77425714Y-65346723D01*
X77425714Y-65346723D02*
X77378095Y-65441961D01*
X77378095Y-65441961D02*
X77282857Y-65537200D01*
X77282857Y-65537200D02*
X77140000Y-65584819D01*
X77140000Y-65584819D02*
X76901905Y-65584819D01*
X78378095Y-64584819D02*
X77901905Y-64584819D01*
X77901905Y-64584819D02*
X77854286Y-65061009D01*
X77854286Y-65061009D02*
X77901905Y-65013390D01*
X77901905Y-65013390D02*
X77997143Y-64965771D01*
X77997143Y-64965771D02*
X78235238Y-64965771D01*
X78235238Y-64965771D02*
X78330476Y-65013390D01*
X78330476Y-65013390D02*
X78378095Y-65061009D01*
X78378095Y-65061009D02*
X78425714Y-65156247D01*
X78425714Y-65156247D02*
X78425714Y-65394342D01*
X78425714Y-65394342D02*
X78378095Y-65489580D01*
X78378095Y-65489580D02*
X78330476Y-65537200D01*
X78330476Y-65537200D02*
X78235238Y-65584819D01*
X78235238Y-65584819D02*
X77997143Y-65584819D01*
X77997143Y-65584819D02*
X77901905Y-65537200D01*
X77901905Y-65537200D02*
X77854286Y-65489580D01*
X73568095Y-65904819D02*
X73568095Y-64904819D01*
X74139523Y-65904819D02*
X73710952Y-65333390D01*
X74139523Y-64904819D02*
X73568095Y-65476247D01*
X71011905Y-71704819D02*
X71011905Y-70704819D01*
X71011905Y-70704819D02*
X71250000Y-70704819D01*
X71250000Y-70704819D02*
X71392857Y-70752438D01*
X71392857Y-70752438D02*
X71488095Y-70847676D01*
X71488095Y-70847676D02*
X71535714Y-70942914D01*
X71535714Y-70942914D02*
X71583333Y-71133390D01*
X71583333Y-71133390D02*
X71583333Y-71276247D01*
X71583333Y-71276247D02*
X71535714Y-71466723D01*
X71535714Y-71466723D02*
X71488095Y-71561961D01*
X71488095Y-71561961D02*
X71392857Y-71657200D01*
X71392857Y-71657200D02*
X71250000Y-71704819D01*
X71250000Y-71704819D02*
X71011905Y-71704819D01*
X72440476Y-71038152D02*
X72440476Y-71704819D01*
X72202381Y-70657200D02*
X71964286Y-71371485D01*
X71964286Y-71371485D02*
X72583333Y-71371485D01*
X76288095Y-76254819D02*
X76288095Y-75254819D01*
X76859523Y-76254819D02*
X76430952Y-75683390D01*
X76859523Y-75254819D02*
X76288095Y-75826247D01*
X35733333Y-54059580D02*
X35685714Y-54107200D01*
X35685714Y-54107200D02*
X35542857Y-54154819D01*
X35542857Y-54154819D02*
X35447619Y-54154819D01*
X35447619Y-54154819D02*
X35304762Y-54107200D01*
X35304762Y-54107200D02*
X35209524Y-54011961D01*
X35209524Y-54011961D02*
X35161905Y-53916723D01*
X35161905Y-53916723D02*
X35114286Y-53726247D01*
X35114286Y-53726247D02*
X35114286Y-53583390D01*
X35114286Y-53583390D02*
X35161905Y-53392914D01*
X35161905Y-53392914D02*
X35209524Y-53297676D01*
X35209524Y-53297676D02*
X35304762Y-53202438D01*
X35304762Y-53202438D02*
X35447619Y-53154819D01*
X35447619Y-53154819D02*
X35542857Y-53154819D01*
X35542857Y-53154819D02*
X35685714Y-53202438D01*
X35685714Y-53202438D02*
X35733333Y-53250057D01*
X36114286Y-53250057D02*
X36161905Y-53202438D01*
X36161905Y-53202438D02*
X36257143Y-53154819D01*
X36257143Y-53154819D02*
X36495238Y-53154819D01*
X36495238Y-53154819D02*
X36590476Y-53202438D01*
X36590476Y-53202438D02*
X36638095Y-53250057D01*
X36638095Y-53250057D02*
X36685714Y-53345295D01*
X36685714Y-53345295D02*
X36685714Y-53440533D01*
X36685714Y-53440533D02*
X36638095Y-53583390D01*
X36638095Y-53583390D02*
X36066667Y-54154819D01*
X36066667Y-54154819D02*
X36685714Y-54154819D01*
X44083333Y-91359580D02*
X44035714Y-91407200D01*
X44035714Y-91407200D02*
X43892857Y-91454819D01*
X43892857Y-91454819D02*
X43797619Y-91454819D01*
X43797619Y-91454819D02*
X43654762Y-91407200D01*
X43654762Y-91407200D02*
X43559524Y-91311961D01*
X43559524Y-91311961D02*
X43511905Y-91216723D01*
X43511905Y-91216723D02*
X43464286Y-91026247D01*
X43464286Y-91026247D02*
X43464286Y-90883390D01*
X43464286Y-90883390D02*
X43511905Y-90692914D01*
X43511905Y-90692914D02*
X43559524Y-90597676D01*
X43559524Y-90597676D02*
X43654762Y-90502438D01*
X43654762Y-90502438D02*
X43797619Y-90454819D01*
X43797619Y-90454819D02*
X43892857Y-90454819D01*
X43892857Y-90454819D02*
X44035714Y-90502438D01*
X44035714Y-90502438D02*
X44083333Y-90550057D01*
X44654762Y-90883390D02*
X44559524Y-90835771D01*
X44559524Y-90835771D02*
X44511905Y-90788152D01*
X44511905Y-90788152D02*
X44464286Y-90692914D01*
X44464286Y-90692914D02*
X44464286Y-90645295D01*
X44464286Y-90645295D02*
X44511905Y-90550057D01*
X44511905Y-90550057D02*
X44559524Y-90502438D01*
X44559524Y-90502438D02*
X44654762Y-90454819D01*
X44654762Y-90454819D02*
X44845238Y-90454819D01*
X44845238Y-90454819D02*
X44940476Y-90502438D01*
X44940476Y-90502438D02*
X44988095Y-90550057D01*
X44988095Y-90550057D02*
X45035714Y-90645295D01*
X45035714Y-90645295D02*
X45035714Y-90692914D01*
X45035714Y-90692914D02*
X44988095Y-90788152D01*
X44988095Y-90788152D02*
X44940476Y-90835771D01*
X44940476Y-90835771D02*
X44845238Y-90883390D01*
X44845238Y-90883390D02*
X44654762Y-90883390D01*
X44654762Y-90883390D02*
X44559524Y-90931009D01*
X44559524Y-90931009D02*
X44511905Y-90978628D01*
X44511905Y-90978628D02*
X44464286Y-91073866D01*
X44464286Y-91073866D02*
X44464286Y-91264342D01*
X44464286Y-91264342D02*
X44511905Y-91359580D01*
X44511905Y-91359580D02*
X44559524Y-91407200D01*
X44559524Y-91407200D02*
X44654762Y-91454819D01*
X44654762Y-91454819D02*
X44845238Y-91454819D01*
X44845238Y-91454819D02*
X44940476Y-91407200D01*
X44940476Y-91407200D02*
X44988095Y-91359580D01*
X44988095Y-91359580D02*
X45035714Y-91264342D01*
X45035714Y-91264342D02*
X45035714Y-91073866D01*
X45035714Y-91073866D02*
X44988095Y-90978628D01*
X44988095Y-90978628D02*
X44940476Y-90931009D01*
X44940476Y-90931009D02*
X44845238Y-90883390D01*
X76761905Y-89734819D02*
X76761905Y-88734819D01*
X76761905Y-88734819D02*
X77000000Y-88734819D01*
X77000000Y-88734819D02*
X77142857Y-88782438D01*
X77142857Y-88782438D02*
X77238095Y-88877676D01*
X77238095Y-88877676D02*
X77285714Y-88972914D01*
X77285714Y-88972914D02*
X77333333Y-89163390D01*
X77333333Y-89163390D02*
X77333333Y-89306247D01*
X77333333Y-89306247D02*
X77285714Y-89496723D01*
X77285714Y-89496723D02*
X77238095Y-89591961D01*
X77238095Y-89591961D02*
X77142857Y-89687200D01*
X77142857Y-89687200D02*
X77000000Y-89734819D01*
X77000000Y-89734819D02*
X76761905Y-89734819D01*
X78190476Y-88734819D02*
X78000000Y-88734819D01*
X78000000Y-88734819D02*
X77904762Y-88782438D01*
X77904762Y-88782438D02*
X77857143Y-88830057D01*
X77857143Y-88830057D02*
X77761905Y-88972914D01*
X77761905Y-88972914D02*
X77714286Y-89163390D01*
X77714286Y-89163390D02*
X77714286Y-89544342D01*
X77714286Y-89544342D02*
X77761905Y-89639580D01*
X77761905Y-89639580D02*
X77809524Y-89687200D01*
X77809524Y-89687200D02*
X77904762Y-89734819D01*
X77904762Y-89734819D02*
X78095238Y-89734819D01*
X78095238Y-89734819D02*
X78190476Y-89687200D01*
X78190476Y-89687200D02*
X78238095Y-89639580D01*
X78238095Y-89639580D02*
X78285714Y-89544342D01*
X78285714Y-89544342D02*
X78285714Y-89306247D01*
X78285714Y-89306247D02*
X78238095Y-89211009D01*
X78238095Y-89211009D02*
X78190476Y-89163390D01*
X78190476Y-89163390D02*
X78095238Y-89115771D01*
X78095238Y-89115771D02*
X77904762Y-89115771D01*
X77904762Y-89115771D02*
X77809524Y-89163390D01*
X77809524Y-89163390D02*
X77761905Y-89211009D01*
X77761905Y-89211009D02*
X77714286Y-89306247D01*
X73428095Y-90054819D02*
X73428095Y-89054819D01*
X73999523Y-90054819D02*
X73570952Y-89483390D01*
X73999523Y-89054819D02*
X73428095Y-89626247D01*
X39481905Y-62534819D02*
X39481905Y-61534819D01*
X39481905Y-61534819D02*
X39720000Y-61534819D01*
X39720000Y-61534819D02*
X39862857Y-61582438D01*
X39862857Y-61582438D02*
X39958095Y-61677676D01*
X39958095Y-61677676D02*
X40005714Y-61772914D01*
X40005714Y-61772914D02*
X40053333Y-61963390D01*
X40053333Y-61963390D02*
X40053333Y-62106247D01*
X40053333Y-62106247D02*
X40005714Y-62296723D01*
X40005714Y-62296723D02*
X39958095Y-62391961D01*
X39958095Y-62391961D02*
X39862857Y-62487200D01*
X39862857Y-62487200D02*
X39720000Y-62534819D01*
X39720000Y-62534819D02*
X39481905Y-62534819D01*
X41005714Y-62534819D02*
X40434286Y-62534819D01*
X40720000Y-62534819D02*
X40720000Y-61534819D01*
X40720000Y-61534819D02*
X40624762Y-61677676D01*
X40624762Y-61677676D02*
X40529524Y-61772914D01*
X40529524Y-61772914D02*
X40434286Y-61820533D01*
X34878095Y-62904819D02*
X34878095Y-61904819D01*
X35449523Y-62904819D02*
X35020952Y-62333390D01*
X35449523Y-61904819D02*
X34878095Y-62476247D01*
X100807142Y-66959580D02*
X100759523Y-67007200D01*
X100759523Y-67007200D02*
X100616666Y-67054819D01*
X100616666Y-67054819D02*
X100521428Y-67054819D01*
X100521428Y-67054819D02*
X100378571Y-67007200D01*
X100378571Y-67007200D02*
X100283333Y-66911961D01*
X100283333Y-66911961D02*
X100235714Y-66816723D01*
X100235714Y-66816723D02*
X100188095Y-66626247D01*
X100188095Y-66626247D02*
X100188095Y-66483390D01*
X100188095Y-66483390D02*
X100235714Y-66292914D01*
X100235714Y-66292914D02*
X100283333Y-66197676D01*
X100283333Y-66197676D02*
X100378571Y-66102438D01*
X100378571Y-66102438D02*
X100521428Y-66054819D01*
X100521428Y-66054819D02*
X100616666Y-66054819D01*
X100616666Y-66054819D02*
X100759523Y-66102438D01*
X100759523Y-66102438D02*
X100807142Y-66150057D01*
X101759523Y-67054819D02*
X101188095Y-67054819D01*
X101473809Y-67054819D02*
X101473809Y-66054819D01*
X101473809Y-66054819D02*
X101378571Y-66197676D01*
X101378571Y-66197676D02*
X101283333Y-66292914D01*
X101283333Y-66292914D02*
X101188095Y-66340533D01*
X102140476Y-66150057D02*
X102188095Y-66102438D01*
X102188095Y-66102438D02*
X102283333Y-66054819D01*
X102283333Y-66054819D02*
X102521428Y-66054819D01*
X102521428Y-66054819D02*
X102616666Y-66102438D01*
X102616666Y-66102438D02*
X102664285Y-66150057D01*
X102664285Y-66150057D02*
X102711904Y-66245295D01*
X102711904Y-66245295D02*
X102711904Y-66340533D01*
X102711904Y-66340533D02*
X102664285Y-66483390D01*
X102664285Y-66483390D02*
X102092857Y-67054819D01*
X102092857Y-67054819D02*
X102711904Y-67054819D01*
X86359580Y-82092857D02*
X86407200Y-82140476D01*
X86407200Y-82140476D02*
X86454819Y-82283333D01*
X86454819Y-82283333D02*
X86454819Y-82378571D01*
X86454819Y-82378571D02*
X86407200Y-82521428D01*
X86407200Y-82521428D02*
X86311961Y-82616666D01*
X86311961Y-82616666D02*
X86216723Y-82664285D01*
X86216723Y-82664285D02*
X86026247Y-82711904D01*
X86026247Y-82711904D02*
X85883390Y-82711904D01*
X85883390Y-82711904D02*
X85692914Y-82664285D01*
X85692914Y-82664285D02*
X85597676Y-82616666D01*
X85597676Y-82616666D02*
X85502438Y-82521428D01*
X85502438Y-82521428D02*
X85454819Y-82378571D01*
X85454819Y-82378571D02*
X85454819Y-82283333D01*
X85454819Y-82283333D02*
X85502438Y-82140476D01*
X85502438Y-82140476D02*
X85550057Y-82092857D01*
X86454819Y-81140476D02*
X86454819Y-81711904D01*
X86454819Y-81426190D02*
X85454819Y-81426190D01*
X85454819Y-81426190D02*
X85597676Y-81521428D01*
X85597676Y-81521428D02*
X85692914Y-81616666D01*
X85692914Y-81616666D02*
X85740533Y-81711904D01*
X85454819Y-80807142D02*
X85454819Y-80188095D01*
X85454819Y-80188095D02*
X85835771Y-80521428D01*
X85835771Y-80521428D02*
X85835771Y-80378571D01*
X85835771Y-80378571D02*
X85883390Y-80283333D01*
X85883390Y-80283333D02*
X85931009Y-80235714D01*
X85931009Y-80235714D02*
X86026247Y-80188095D01*
X86026247Y-80188095D02*
X86264342Y-80188095D01*
X86264342Y-80188095D02*
X86359580Y-80235714D01*
X86359580Y-80235714D02*
X86407200Y-80283333D01*
X86407200Y-80283333D02*
X86454819Y-80378571D01*
X86454819Y-80378571D02*
X86454819Y-80664285D01*
X86454819Y-80664285D02*
X86407200Y-80759523D01*
X86407200Y-80759523D02*
X86359580Y-80807142D01*
X54263333Y-66434819D02*
X53930000Y-65958628D01*
X53691905Y-66434819D02*
X53691905Y-65434819D01*
X53691905Y-65434819D02*
X54072857Y-65434819D01*
X54072857Y-65434819D02*
X54168095Y-65482438D01*
X54168095Y-65482438D02*
X54215714Y-65530057D01*
X54215714Y-65530057D02*
X54263333Y-65625295D01*
X54263333Y-65625295D02*
X54263333Y-65768152D01*
X54263333Y-65768152D02*
X54215714Y-65863390D01*
X54215714Y-65863390D02*
X54168095Y-65911009D01*
X54168095Y-65911009D02*
X54072857Y-65958628D01*
X54072857Y-65958628D02*
X53691905Y-65958628D01*
X54834762Y-65863390D02*
X54739524Y-65815771D01*
X54739524Y-65815771D02*
X54691905Y-65768152D01*
X54691905Y-65768152D02*
X54644286Y-65672914D01*
X54644286Y-65672914D02*
X54644286Y-65625295D01*
X54644286Y-65625295D02*
X54691905Y-65530057D01*
X54691905Y-65530057D02*
X54739524Y-65482438D01*
X54739524Y-65482438D02*
X54834762Y-65434819D01*
X54834762Y-65434819D02*
X55025238Y-65434819D01*
X55025238Y-65434819D02*
X55120476Y-65482438D01*
X55120476Y-65482438D02*
X55168095Y-65530057D01*
X55168095Y-65530057D02*
X55215714Y-65625295D01*
X55215714Y-65625295D02*
X55215714Y-65672914D01*
X55215714Y-65672914D02*
X55168095Y-65768152D01*
X55168095Y-65768152D02*
X55120476Y-65815771D01*
X55120476Y-65815771D02*
X55025238Y-65863390D01*
X55025238Y-65863390D02*
X54834762Y-65863390D01*
X54834762Y-65863390D02*
X54739524Y-65911009D01*
X54739524Y-65911009D02*
X54691905Y-65958628D01*
X54691905Y-65958628D02*
X54644286Y-66053866D01*
X54644286Y-66053866D02*
X54644286Y-66244342D01*
X54644286Y-66244342D02*
X54691905Y-66339580D01*
X54691905Y-66339580D02*
X54739524Y-66387200D01*
X54739524Y-66387200D02*
X54834762Y-66434819D01*
X54834762Y-66434819D02*
X55025238Y-66434819D01*
X55025238Y-66434819D02*
X55120476Y-66387200D01*
X55120476Y-66387200D02*
X55168095Y-66339580D01*
X55168095Y-66339580D02*
X55215714Y-66244342D01*
X55215714Y-66244342D02*
X55215714Y-66053866D01*
X55215714Y-66053866D02*
X55168095Y-65958628D01*
X55168095Y-65958628D02*
X55120476Y-65911009D01*
X55120476Y-65911009D02*
X55025238Y-65863390D01*
X117407142Y-77809580D02*
X117359523Y-77857200D01*
X117359523Y-77857200D02*
X117216666Y-77904819D01*
X117216666Y-77904819D02*
X117121428Y-77904819D01*
X117121428Y-77904819D02*
X116978571Y-77857200D01*
X116978571Y-77857200D02*
X116883333Y-77761961D01*
X116883333Y-77761961D02*
X116835714Y-77666723D01*
X116835714Y-77666723D02*
X116788095Y-77476247D01*
X116788095Y-77476247D02*
X116788095Y-77333390D01*
X116788095Y-77333390D02*
X116835714Y-77142914D01*
X116835714Y-77142914D02*
X116883333Y-77047676D01*
X116883333Y-77047676D02*
X116978571Y-76952438D01*
X116978571Y-76952438D02*
X117121428Y-76904819D01*
X117121428Y-76904819D02*
X117216666Y-76904819D01*
X117216666Y-76904819D02*
X117359523Y-76952438D01*
X117359523Y-76952438D02*
X117407142Y-77000057D01*
X118359523Y-77904819D02*
X117788095Y-77904819D01*
X118073809Y-77904819D02*
X118073809Y-76904819D01*
X118073809Y-76904819D02*
X117978571Y-77047676D01*
X117978571Y-77047676D02*
X117883333Y-77142914D01*
X117883333Y-77142914D02*
X117788095Y-77190533D01*
X118835714Y-77904819D02*
X119026190Y-77904819D01*
X119026190Y-77904819D02*
X119121428Y-77857200D01*
X119121428Y-77857200D02*
X119169047Y-77809580D01*
X119169047Y-77809580D02*
X119264285Y-77666723D01*
X119264285Y-77666723D02*
X119311904Y-77476247D01*
X119311904Y-77476247D02*
X119311904Y-77095295D01*
X119311904Y-77095295D02*
X119264285Y-77000057D01*
X119264285Y-77000057D02*
X119216666Y-76952438D01*
X119216666Y-76952438D02*
X119121428Y-76904819D01*
X119121428Y-76904819D02*
X118930952Y-76904819D01*
X118930952Y-76904819D02*
X118835714Y-76952438D01*
X118835714Y-76952438D02*
X118788095Y-77000057D01*
X118788095Y-77000057D02*
X118740476Y-77095295D01*
X118740476Y-77095295D02*
X118740476Y-77333390D01*
X118740476Y-77333390D02*
X118788095Y-77428628D01*
X118788095Y-77428628D02*
X118835714Y-77476247D01*
X118835714Y-77476247D02*
X118930952Y-77523866D01*
X118930952Y-77523866D02*
X119121428Y-77523866D01*
X119121428Y-77523866D02*
X119216666Y-77476247D01*
X119216666Y-77476247D02*
X119264285Y-77428628D01*
X119264285Y-77428628D02*
X119311904Y-77333390D01*
X39881905Y-86534819D02*
X39881905Y-85534819D01*
X39881905Y-85534819D02*
X40120000Y-85534819D01*
X40120000Y-85534819D02*
X40262857Y-85582438D01*
X40262857Y-85582438D02*
X40358095Y-85677676D01*
X40358095Y-85677676D02*
X40405714Y-85772914D01*
X40405714Y-85772914D02*
X40453333Y-85963390D01*
X40453333Y-85963390D02*
X40453333Y-86106247D01*
X40453333Y-86106247D02*
X40405714Y-86296723D01*
X40405714Y-86296723D02*
X40358095Y-86391961D01*
X40358095Y-86391961D02*
X40262857Y-86487200D01*
X40262857Y-86487200D02*
X40120000Y-86534819D01*
X40120000Y-86534819D02*
X39881905Y-86534819D01*
X40786667Y-85534819D02*
X41405714Y-85534819D01*
X41405714Y-85534819D02*
X41072381Y-85915771D01*
X41072381Y-85915771D02*
X41215238Y-85915771D01*
X41215238Y-85915771D02*
X41310476Y-85963390D01*
X41310476Y-85963390D02*
X41358095Y-86011009D01*
X41358095Y-86011009D02*
X41405714Y-86106247D01*
X41405714Y-86106247D02*
X41405714Y-86344342D01*
X41405714Y-86344342D02*
X41358095Y-86439580D01*
X41358095Y-86439580D02*
X41310476Y-86487200D01*
X41310476Y-86487200D02*
X41215238Y-86534819D01*
X41215238Y-86534819D02*
X40929524Y-86534819D01*
X40929524Y-86534819D02*
X40834286Y-86487200D01*
X40834286Y-86487200D02*
X40786667Y-86439580D01*
X35278095Y-86904819D02*
X35278095Y-85904819D01*
X35849523Y-86904819D02*
X35420952Y-86333390D01*
X35849523Y-85904819D02*
X35278095Y-86476247D01*
X60757142Y-54409580D02*
X60709523Y-54457200D01*
X60709523Y-54457200D02*
X60566666Y-54504819D01*
X60566666Y-54504819D02*
X60471428Y-54504819D01*
X60471428Y-54504819D02*
X60328571Y-54457200D01*
X60328571Y-54457200D02*
X60233333Y-54361961D01*
X60233333Y-54361961D02*
X60185714Y-54266723D01*
X60185714Y-54266723D02*
X60138095Y-54076247D01*
X60138095Y-54076247D02*
X60138095Y-53933390D01*
X60138095Y-53933390D02*
X60185714Y-53742914D01*
X60185714Y-53742914D02*
X60233333Y-53647676D01*
X60233333Y-53647676D02*
X60328571Y-53552438D01*
X60328571Y-53552438D02*
X60471428Y-53504819D01*
X60471428Y-53504819D02*
X60566666Y-53504819D01*
X60566666Y-53504819D02*
X60709523Y-53552438D01*
X60709523Y-53552438D02*
X60757142Y-53600057D01*
X61709523Y-54504819D02*
X61138095Y-54504819D01*
X61423809Y-54504819D02*
X61423809Y-53504819D01*
X61423809Y-53504819D02*
X61328571Y-53647676D01*
X61328571Y-53647676D02*
X61233333Y-53742914D01*
X61233333Y-53742914D02*
X61138095Y-53790533D01*
X62566666Y-53838152D02*
X62566666Y-54504819D01*
X62328571Y-53457200D02*
X62090476Y-54171485D01*
X62090476Y-54171485D02*
X62709523Y-54171485D01*
X44443095Y-70114819D02*
X44443095Y-70924342D01*
X44443095Y-70924342D02*
X44490714Y-71019580D01*
X44490714Y-71019580D02*
X44538333Y-71067200D01*
X44538333Y-71067200D02*
X44633571Y-71114819D01*
X44633571Y-71114819D02*
X44824047Y-71114819D01*
X44824047Y-71114819D02*
X44919285Y-71067200D01*
X44919285Y-71067200D02*
X44966904Y-71019580D01*
X44966904Y-71019580D02*
X45014523Y-70924342D01*
X45014523Y-70924342D02*
X45014523Y-70114819D01*
X45443095Y-70210057D02*
X45490714Y-70162438D01*
X45490714Y-70162438D02*
X45585952Y-70114819D01*
X45585952Y-70114819D02*
X45824047Y-70114819D01*
X45824047Y-70114819D02*
X45919285Y-70162438D01*
X45919285Y-70162438D02*
X45966904Y-70210057D01*
X45966904Y-70210057D02*
X46014523Y-70305295D01*
X46014523Y-70305295D02*
X46014523Y-70400533D01*
X46014523Y-70400533D02*
X45966904Y-70543390D01*
X45966904Y-70543390D02*
X45395476Y-71114819D01*
X45395476Y-71114819D02*
X46014523Y-71114819D01*
X15833333Y-59209580D02*
X15785714Y-59257200D01*
X15785714Y-59257200D02*
X15642857Y-59304819D01*
X15642857Y-59304819D02*
X15547619Y-59304819D01*
X15547619Y-59304819D02*
X15404762Y-59257200D01*
X15404762Y-59257200D02*
X15309524Y-59161961D01*
X15309524Y-59161961D02*
X15261905Y-59066723D01*
X15261905Y-59066723D02*
X15214286Y-58876247D01*
X15214286Y-58876247D02*
X15214286Y-58733390D01*
X15214286Y-58733390D02*
X15261905Y-58542914D01*
X15261905Y-58542914D02*
X15309524Y-58447676D01*
X15309524Y-58447676D02*
X15404762Y-58352438D01*
X15404762Y-58352438D02*
X15547619Y-58304819D01*
X15547619Y-58304819D02*
X15642857Y-58304819D01*
X15642857Y-58304819D02*
X15785714Y-58352438D01*
X15785714Y-58352438D02*
X15833333Y-58400057D01*
X16690476Y-58638152D02*
X16690476Y-59304819D01*
X16452381Y-58257200D02*
X16214286Y-58971485D01*
X16214286Y-58971485D02*
X16833333Y-58971485D01*
X85837142Y-65184819D02*
X85503809Y-64708628D01*
X85265714Y-65184819D02*
X85265714Y-64184819D01*
X85265714Y-64184819D02*
X85646666Y-64184819D01*
X85646666Y-64184819D02*
X85741904Y-64232438D01*
X85741904Y-64232438D02*
X85789523Y-64280057D01*
X85789523Y-64280057D02*
X85837142Y-64375295D01*
X85837142Y-64375295D02*
X85837142Y-64518152D01*
X85837142Y-64518152D02*
X85789523Y-64613390D01*
X85789523Y-64613390D02*
X85741904Y-64661009D01*
X85741904Y-64661009D02*
X85646666Y-64708628D01*
X85646666Y-64708628D02*
X85265714Y-64708628D01*
X86789523Y-65184819D02*
X86218095Y-65184819D01*
X86503809Y-65184819D02*
X86503809Y-64184819D01*
X86503809Y-64184819D02*
X86408571Y-64327676D01*
X86408571Y-64327676D02*
X86313333Y-64422914D01*
X86313333Y-64422914D02*
X86218095Y-64470533D01*
X87741904Y-65184819D02*
X87170476Y-65184819D01*
X87456190Y-65184819D02*
X87456190Y-64184819D01*
X87456190Y-64184819D02*
X87360952Y-64327676D01*
X87360952Y-64327676D02*
X87265714Y-64422914D01*
X87265714Y-64422914D02*
X87170476Y-64470533D01*
X100007142Y-58109580D02*
X99959523Y-58157200D01*
X99959523Y-58157200D02*
X99816666Y-58204819D01*
X99816666Y-58204819D02*
X99721428Y-58204819D01*
X99721428Y-58204819D02*
X99578571Y-58157200D01*
X99578571Y-58157200D02*
X99483333Y-58061961D01*
X99483333Y-58061961D02*
X99435714Y-57966723D01*
X99435714Y-57966723D02*
X99388095Y-57776247D01*
X99388095Y-57776247D02*
X99388095Y-57633390D01*
X99388095Y-57633390D02*
X99435714Y-57442914D01*
X99435714Y-57442914D02*
X99483333Y-57347676D01*
X99483333Y-57347676D02*
X99578571Y-57252438D01*
X99578571Y-57252438D02*
X99721428Y-57204819D01*
X99721428Y-57204819D02*
X99816666Y-57204819D01*
X99816666Y-57204819D02*
X99959523Y-57252438D01*
X99959523Y-57252438D02*
X100007142Y-57300057D01*
X100959523Y-58204819D02*
X100388095Y-58204819D01*
X100673809Y-58204819D02*
X100673809Y-57204819D01*
X100673809Y-57204819D02*
X100578571Y-57347676D01*
X100578571Y-57347676D02*
X100483333Y-57442914D01*
X100483333Y-57442914D02*
X100388095Y-57490533D01*
X101816666Y-57204819D02*
X101626190Y-57204819D01*
X101626190Y-57204819D02*
X101530952Y-57252438D01*
X101530952Y-57252438D02*
X101483333Y-57300057D01*
X101483333Y-57300057D02*
X101388095Y-57442914D01*
X101388095Y-57442914D02*
X101340476Y-57633390D01*
X101340476Y-57633390D02*
X101340476Y-58014342D01*
X101340476Y-58014342D02*
X101388095Y-58109580D01*
X101388095Y-58109580D02*
X101435714Y-58157200D01*
X101435714Y-58157200D02*
X101530952Y-58204819D01*
X101530952Y-58204819D02*
X101721428Y-58204819D01*
X101721428Y-58204819D02*
X101816666Y-58157200D01*
X101816666Y-58157200D02*
X101864285Y-58109580D01*
X101864285Y-58109580D02*
X101911904Y-58014342D01*
X101911904Y-58014342D02*
X101911904Y-57776247D01*
X101911904Y-57776247D02*
X101864285Y-57681009D01*
X101864285Y-57681009D02*
X101816666Y-57633390D01*
X101816666Y-57633390D02*
X101721428Y-57585771D01*
X101721428Y-57585771D02*
X101530952Y-57585771D01*
X101530952Y-57585771D02*
X101435714Y-57633390D01*
X101435714Y-57633390D02*
X101388095Y-57681009D01*
X101388095Y-57681009D02*
X101340476Y-57776247D01*
X97680057Y-87545238D02*
X97632438Y-87640476D01*
X97632438Y-87640476D02*
X97537200Y-87735714D01*
X97537200Y-87735714D02*
X97394342Y-87878571D01*
X97394342Y-87878571D02*
X97346723Y-87973809D01*
X97346723Y-87973809D02*
X97346723Y-88069047D01*
X97584819Y-88021428D02*
X97537200Y-88116666D01*
X97537200Y-88116666D02*
X97441961Y-88211904D01*
X97441961Y-88211904D02*
X97251485Y-88259523D01*
X97251485Y-88259523D02*
X96918152Y-88259523D01*
X96918152Y-88259523D02*
X96727676Y-88211904D01*
X96727676Y-88211904D02*
X96632438Y-88116666D01*
X96632438Y-88116666D02*
X96584819Y-88021428D01*
X96584819Y-88021428D02*
X96584819Y-87830952D01*
X96584819Y-87830952D02*
X96632438Y-87735714D01*
X96632438Y-87735714D02*
X96727676Y-87640476D01*
X96727676Y-87640476D02*
X96918152Y-87592857D01*
X96918152Y-87592857D02*
X97251485Y-87592857D01*
X97251485Y-87592857D02*
X97441961Y-87640476D01*
X97441961Y-87640476D02*
X97537200Y-87735714D01*
X97537200Y-87735714D02*
X97584819Y-87830952D01*
X97584819Y-87830952D02*
X97584819Y-88021428D01*
X96918152Y-86735714D02*
X97584819Y-86735714D01*
X96537200Y-86973809D02*
X97251485Y-87211904D01*
X97251485Y-87211904D02*
X97251485Y-86592857D01*
X86032142Y-89434819D02*
X85698809Y-88958628D01*
X85460714Y-89434819D02*
X85460714Y-88434819D01*
X85460714Y-88434819D02*
X85841666Y-88434819D01*
X85841666Y-88434819D02*
X85936904Y-88482438D01*
X85936904Y-88482438D02*
X85984523Y-88530057D01*
X85984523Y-88530057D02*
X86032142Y-88625295D01*
X86032142Y-88625295D02*
X86032142Y-88768152D01*
X86032142Y-88768152D02*
X85984523Y-88863390D01*
X85984523Y-88863390D02*
X85936904Y-88911009D01*
X85936904Y-88911009D02*
X85841666Y-88958628D01*
X85841666Y-88958628D02*
X85460714Y-88958628D01*
X86984523Y-89434819D02*
X86413095Y-89434819D01*
X86698809Y-89434819D02*
X86698809Y-88434819D01*
X86698809Y-88434819D02*
X86603571Y-88577676D01*
X86603571Y-88577676D02*
X86508333Y-88672914D01*
X86508333Y-88672914D02*
X86413095Y-88720533D01*
X87365476Y-88530057D02*
X87413095Y-88482438D01*
X87413095Y-88482438D02*
X87508333Y-88434819D01*
X87508333Y-88434819D02*
X87746428Y-88434819D01*
X87746428Y-88434819D02*
X87841666Y-88482438D01*
X87841666Y-88482438D02*
X87889285Y-88530057D01*
X87889285Y-88530057D02*
X87936904Y-88625295D01*
X87936904Y-88625295D02*
X87936904Y-88720533D01*
X87936904Y-88720533D02*
X87889285Y-88863390D01*
X87889285Y-88863390D02*
X87317857Y-89434819D01*
X87317857Y-89434819D02*
X87936904Y-89434819D01*
X21713333Y-86634819D02*
X21380000Y-86158628D01*
X21141905Y-86634819D02*
X21141905Y-85634819D01*
X21141905Y-85634819D02*
X21522857Y-85634819D01*
X21522857Y-85634819D02*
X21618095Y-85682438D01*
X21618095Y-85682438D02*
X21665714Y-85730057D01*
X21665714Y-85730057D02*
X21713333Y-85825295D01*
X21713333Y-85825295D02*
X21713333Y-85968152D01*
X21713333Y-85968152D02*
X21665714Y-86063390D01*
X21665714Y-86063390D02*
X21618095Y-86111009D01*
X21618095Y-86111009D02*
X21522857Y-86158628D01*
X21522857Y-86158628D02*
X21141905Y-86158628D01*
X22046667Y-85634819D02*
X22665714Y-85634819D01*
X22665714Y-85634819D02*
X22332381Y-86015771D01*
X22332381Y-86015771D02*
X22475238Y-86015771D01*
X22475238Y-86015771D02*
X22570476Y-86063390D01*
X22570476Y-86063390D02*
X22618095Y-86111009D01*
X22618095Y-86111009D02*
X22665714Y-86206247D01*
X22665714Y-86206247D02*
X22665714Y-86444342D01*
X22665714Y-86444342D02*
X22618095Y-86539580D01*
X22618095Y-86539580D02*
X22570476Y-86587200D01*
X22570476Y-86587200D02*
X22475238Y-86634819D01*
X22475238Y-86634819D02*
X22189524Y-86634819D01*
X22189524Y-86634819D02*
X22094286Y-86587200D01*
X22094286Y-86587200D02*
X22046667Y-86539580D01*
X57959580Y-68316666D02*
X58007200Y-68364285D01*
X58007200Y-68364285D02*
X58054819Y-68507142D01*
X58054819Y-68507142D02*
X58054819Y-68602380D01*
X58054819Y-68602380D02*
X58007200Y-68745237D01*
X58007200Y-68745237D02*
X57911961Y-68840475D01*
X57911961Y-68840475D02*
X57816723Y-68888094D01*
X57816723Y-68888094D02*
X57626247Y-68935713D01*
X57626247Y-68935713D02*
X57483390Y-68935713D01*
X57483390Y-68935713D02*
X57292914Y-68888094D01*
X57292914Y-68888094D02*
X57197676Y-68840475D01*
X57197676Y-68840475D02*
X57102438Y-68745237D01*
X57102438Y-68745237D02*
X57054819Y-68602380D01*
X57054819Y-68602380D02*
X57054819Y-68507142D01*
X57054819Y-68507142D02*
X57102438Y-68364285D01*
X57102438Y-68364285D02*
X57150057Y-68316666D01*
X57054819Y-67459523D02*
X57054819Y-67649999D01*
X57054819Y-67649999D02*
X57102438Y-67745237D01*
X57102438Y-67745237D02*
X57150057Y-67792856D01*
X57150057Y-67792856D02*
X57292914Y-67888094D01*
X57292914Y-67888094D02*
X57483390Y-67935713D01*
X57483390Y-67935713D02*
X57864342Y-67935713D01*
X57864342Y-67935713D02*
X57959580Y-67888094D01*
X57959580Y-67888094D02*
X58007200Y-67840475D01*
X58007200Y-67840475D02*
X58054819Y-67745237D01*
X58054819Y-67745237D02*
X58054819Y-67554761D01*
X58054819Y-67554761D02*
X58007200Y-67459523D01*
X58007200Y-67459523D02*
X57959580Y-67411904D01*
X57959580Y-67411904D02*
X57864342Y-67364285D01*
X57864342Y-67364285D02*
X57626247Y-67364285D01*
X57626247Y-67364285D02*
X57531009Y-67411904D01*
X57531009Y-67411904D02*
X57483390Y-67459523D01*
X57483390Y-67459523D02*
X57435771Y-67554761D01*
X57435771Y-67554761D02*
X57435771Y-67745237D01*
X57435771Y-67745237D02*
X57483390Y-67840475D01*
X57483390Y-67840475D02*
X57531009Y-67888094D01*
X57531009Y-67888094D02*
X57626247Y-67935713D01*
X58259580Y-85066666D02*
X58307200Y-85114285D01*
X58307200Y-85114285D02*
X58354819Y-85257142D01*
X58354819Y-85257142D02*
X58354819Y-85352380D01*
X58354819Y-85352380D02*
X58307200Y-85495237D01*
X58307200Y-85495237D02*
X58211961Y-85590475D01*
X58211961Y-85590475D02*
X58116723Y-85638094D01*
X58116723Y-85638094D02*
X57926247Y-85685713D01*
X57926247Y-85685713D02*
X57783390Y-85685713D01*
X57783390Y-85685713D02*
X57592914Y-85638094D01*
X57592914Y-85638094D02*
X57497676Y-85590475D01*
X57497676Y-85590475D02*
X57402438Y-85495237D01*
X57402438Y-85495237D02*
X57354819Y-85352380D01*
X57354819Y-85352380D02*
X57354819Y-85257142D01*
X57354819Y-85257142D02*
X57402438Y-85114285D01*
X57402438Y-85114285D02*
X57450057Y-85066666D01*
X57354819Y-84161904D02*
X57354819Y-84638094D01*
X57354819Y-84638094D02*
X57831009Y-84685713D01*
X57831009Y-84685713D02*
X57783390Y-84638094D01*
X57783390Y-84638094D02*
X57735771Y-84542856D01*
X57735771Y-84542856D02*
X57735771Y-84304761D01*
X57735771Y-84304761D02*
X57783390Y-84209523D01*
X57783390Y-84209523D02*
X57831009Y-84161904D01*
X57831009Y-84161904D02*
X57926247Y-84114285D01*
X57926247Y-84114285D02*
X58164342Y-84114285D01*
X58164342Y-84114285D02*
X58259580Y-84161904D01*
X58259580Y-84161904D02*
X58307200Y-84209523D01*
X58307200Y-84209523D02*
X58354819Y-84304761D01*
X58354819Y-84304761D02*
X58354819Y-84542856D01*
X58354819Y-84542856D02*
X58307200Y-84638094D01*
X58307200Y-84638094D02*
X58259580Y-84685713D01*
X113307142Y-66409580D02*
X113259523Y-66457200D01*
X113259523Y-66457200D02*
X113116666Y-66504819D01*
X113116666Y-66504819D02*
X113021428Y-66504819D01*
X113021428Y-66504819D02*
X112878571Y-66457200D01*
X112878571Y-66457200D02*
X112783333Y-66361961D01*
X112783333Y-66361961D02*
X112735714Y-66266723D01*
X112735714Y-66266723D02*
X112688095Y-66076247D01*
X112688095Y-66076247D02*
X112688095Y-65933390D01*
X112688095Y-65933390D02*
X112735714Y-65742914D01*
X112735714Y-65742914D02*
X112783333Y-65647676D01*
X112783333Y-65647676D02*
X112878571Y-65552438D01*
X112878571Y-65552438D02*
X113021428Y-65504819D01*
X113021428Y-65504819D02*
X113116666Y-65504819D01*
X113116666Y-65504819D02*
X113259523Y-65552438D01*
X113259523Y-65552438D02*
X113307142Y-65600057D01*
X114259523Y-66504819D02*
X113688095Y-66504819D01*
X113973809Y-66504819D02*
X113973809Y-65504819D01*
X113973809Y-65504819D02*
X113878571Y-65647676D01*
X113878571Y-65647676D02*
X113783333Y-65742914D01*
X113783333Y-65742914D02*
X113688095Y-65790533D01*
X114830952Y-65933390D02*
X114735714Y-65885771D01*
X114735714Y-65885771D02*
X114688095Y-65838152D01*
X114688095Y-65838152D02*
X114640476Y-65742914D01*
X114640476Y-65742914D02*
X114640476Y-65695295D01*
X114640476Y-65695295D02*
X114688095Y-65600057D01*
X114688095Y-65600057D02*
X114735714Y-65552438D01*
X114735714Y-65552438D02*
X114830952Y-65504819D01*
X114830952Y-65504819D02*
X115021428Y-65504819D01*
X115021428Y-65504819D02*
X115116666Y-65552438D01*
X115116666Y-65552438D02*
X115164285Y-65600057D01*
X115164285Y-65600057D02*
X115211904Y-65695295D01*
X115211904Y-65695295D02*
X115211904Y-65742914D01*
X115211904Y-65742914D02*
X115164285Y-65838152D01*
X115164285Y-65838152D02*
X115116666Y-65885771D01*
X115116666Y-65885771D02*
X115021428Y-65933390D01*
X115021428Y-65933390D02*
X114830952Y-65933390D01*
X114830952Y-65933390D02*
X114735714Y-65981009D01*
X114735714Y-65981009D02*
X114688095Y-66028628D01*
X114688095Y-66028628D02*
X114640476Y-66123866D01*
X114640476Y-66123866D02*
X114640476Y-66314342D01*
X114640476Y-66314342D02*
X114688095Y-66409580D01*
X114688095Y-66409580D02*
X114735714Y-66457200D01*
X114735714Y-66457200D02*
X114830952Y-66504819D01*
X114830952Y-66504819D02*
X115021428Y-66504819D01*
X115021428Y-66504819D02*
X115116666Y-66457200D01*
X115116666Y-66457200D02*
X115164285Y-66409580D01*
X115164285Y-66409580D02*
X115211904Y-66314342D01*
X115211904Y-66314342D02*
X115211904Y-66123866D01*
X115211904Y-66123866D02*
X115164285Y-66028628D01*
X115164285Y-66028628D02*
X115116666Y-65981009D01*
X115116666Y-65981009D02*
X115021428Y-65933390D01*
X88981905Y-56734819D02*
X88981905Y-55734819D01*
X88981905Y-55734819D02*
X89220000Y-55734819D01*
X89220000Y-55734819D02*
X89362857Y-55782438D01*
X89362857Y-55782438D02*
X89458095Y-55877676D01*
X89458095Y-55877676D02*
X89505714Y-55972914D01*
X89505714Y-55972914D02*
X89553333Y-56163390D01*
X89553333Y-56163390D02*
X89553333Y-56306247D01*
X89553333Y-56306247D02*
X89505714Y-56496723D01*
X89505714Y-56496723D02*
X89458095Y-56591961D01*
X89458095Y-56591961D02*
X89362857Y-56687200D01*
X89362857Y-56687200D02*
X89220000Y-56734819D01*
X89220000Y-56734819D02*
X88981905Y-56734819D01*
X89934286Y-55830057D02*
X89981905Y-55782438D01*
X89981905Y-55782438D02*
X90077143Y-55734819D01*
X90077143Y-55734819D02*
X90315238Y-55734819D01*
X90315238Y-55734819D02*
X90410476Y-55782438D01*
X90410476Y-55782438D02*
X90458095Y-55830057D01*
X90458095Y-55830057D02*
X90505714Y-55925295D01*
X90505714Y-55925295D02*
X90505714Y-56020533D01*
X90505714Y-56020533D02*
X90458095Y-56163390D01*
X90458095Y-56163390D02*
X89886667Y-56734819D01*
X89886667Y-56734819D02*
X90505714Y-56734819D01*
X84378095Y-57104819D02*
X84378095Y-56104819D01*
X84949523Y-57104819D02*
X84520952Y-56533390D01*
X84949523Y-56104819D02*
X84378095Y-56676247D01*
X42933333Y-54159580D02*
X42885714Y-54207200D01*
X42885714Y-54207200D02*
X42742857Y-54254819D01*
X42742857Y-54254819D02*
X42647619Y-54254819D01*
X42647619Y-54254819D02*
X42504762Y-54207200D01*
X42504762Y-54207200D02*
X42409524Y-54111961D01*
X42409524Y-54111961D02*
X42361905Y-54016723D01*
X42361905Y-54016723D02*
X42314286Y-53826247D01*
X42314286Y-53826247D02*
X42314286Y-53683390D01*
X42314286Y-53683390D02*
X42361905Y-53492914D01*
X42361905Y-53492914D02*
X42409524Y-53397676D01*
X42409524Y-53397676D02*
X42504762Y-53302438D01*
X42504762Y-53302438D02*
X42647619Y-53254819D01*
X42647619Y-53254819D02*
X42742857Y-53254819D01*
X42742857Y-53254819D02*
X42885714Y-53302438D01*
X42885714Y-53302438D02*
X42933333Y-53350057D01*
X43885714Y-54254819D02*
X43314286Y-54254819D01*
X43600000Y-54254819D02*
X43600000Y-53254819D01*
X43600000Y-53254819D02*
X43504762Y-53397676D01*
X43504762Y-53397676D02*
X43409524Y-53492914D01*
X43409524Y-53492914D02*
X43314286Y-53540533D01*
X97680057Y-70495238D02*
X97632438Y-70590476D01*
X97632438Y-70590476D02*
X97537200Y-70685714D01*
X97537200Y-70685714D02*
X97394342Y-70828571D01*
X97394342Y-70828571D02*
X97346723Y-70923809D01*
X97346723Y-70923809D02*
X97346723Y-71019047D01*
X97584819Y-70971428D02*
X97537200Y-71066666D01*
X97537200Y-71066666D02*
X97441961Y-71161904D01*
X97441961Y-71161904D02*
X97251485Y-71209523D01*
X97251485Y-71209523D02*
X96918152Y-71209523D01*
X96918152Y-71209523D02*
X96727676Y-71161904D01*
X96727676Y-71161904D02*
X96632438Y-71066666D01*
X96632438Y-71066666D02*
X96584819Y-70971428D01*
X96584819Y-70971428D02*
X96584819Y-70780952D01*
X96584819Y-70780952D02*
X96632438Y-70685714D01*
X96632438Y-70685714D02*
X96727676Y-70590476D01*
X96727676Y-70590476D02*
X96918152Y-70542857D01*
X96918152Y-70542857D02*
X97251485Y-70542857D01*
X97251485Y-70542857D02*
X97441961Y-70590476D01*
X97441961Y-70590476D02*
X97537200Y-70685714D01*
X97537200Y-70685714D02*
X97584819Y-70780952D01*
X97584819Y-70780952D02*
X97584819Y-70971428D01*
X96584819Y-70209523D02*
X96584819Y-69590476D01*
X96584819Y-69590476D02*
X96965771Y-69923809D01*
X96965771Y-69923809D02*
X96965771Y-69780952D01*
X96965771Y-69780952D02*
X97013390Y-69685714D01*
X97013390Y-69685714D02*
X97061009Y-69638095D01*
X97061009Y-69638095D02*
X97156247Y-69590476D01*
X97156247Y-69590476D02*
X97394342Y-69590476D01*
X97394342Y-69590476D02*
X97489580Y-69638095D01*
X97489580Y-69638095D02*
X97537200Y-69685714D01*
X97537200Y-69685714D02*
X97584819Y-69780952D01*
X97584819Y-69780952D02*
X97584819Y-70066666D01*
X97584819Y-70066666D02*
X97537200Y-70161904D01*
X97537200Y-70161904D02*
X97489580Y-70209523D01*
X52666666Y-53454819D02*
X52666666Y-54169104D01*
X52666666Y-54169104D02*
X52619047Y-54311961D01*
X52619047Y-54311961D02*
X52523809Y-54407200D01*
X52523809Y-54407200D02*
X52380952Y-54454819D01*
X52380952Y-54454819D02*
X52285714Y-54454819D01*
X53095238Y-53550057D02*
X53142857Y-53502438D01*
X53142857Y-53502438D02*
X53238095Y-53454819D01*
X53238095Y-53454819D02*
X53476190Y-53454819D01*
X53476190Y-53454819D02*
X53571428Y-53502438D01*
X53571428Y-53502438D02*
X53619047Y-53550057D01*
X53619047Y-53550057D02*
X53666666Y-53645295D01*
X53666666Y-53645295D02*
X53666666Y-53740533D01*
X53666666Y-53740533D02*
X53619047Y-53883390D01*
X53619047Y-53883390D02*
X53047619Y-54454819D01*
X53047619Y-54454819D02*
X53666666Y-54454819D01*
X54263333Y-83134819D02*
X53930000Y-82658628D01*
X53691905Y-83134819D02*
X53691905Y-82134819D01*
X53691905Y-82134819D02*
X54072857Y-82134819D01*
X54072857Y-82134819D02*
X54168095Y-82182438D01*
X54168095Y-82182438D02*
X54215714Y-82230057D01*
X54215714Y-82230057D02*
X54263333Y-82325295D01*
X54263333Y-82325295D02*
X54263333Y-82468152D01*
X54263333Y-82468152D02*
X54215714Y-82563390D01*
X54215714Y-82563390D02*
X54168095Y-82611009D01*
X54168095Y-82611009D02*
X54072857Y-82658628D01*
X54072857Y-82658628D02*
X53691905Y-82658628D01*
X55168095Y-82134819D02*
X54691905Y-82134819D01*
X54691905Y-82134819D02*
X54644286Y-82611009D01*
X54644286Y-82611009D02*
X54691905Y-82563390D01*
X54691905Y-82563390D02*
X54787143Y-82515771D01*
X54787143Y-82515771D02*
X55025238Y-82515771D01*
X55025238Y-82515771D02*
X55120476Y-82563390D01*
X55120476Y-82563390D02*
X55168095Y-82611009D01*
X55168095Y-82611009D02*
X55215714Y-82706247D01*
X55215714Y-82706247D02*
X55215714Y-82944342D01*
X55215714Y-82944342D02*
X55168095Y-83039580D01*
X55168095Y-83039580D02*
X55120476Y-83087200D01*
X55120476Y-83087200D02*
X55025238Y-83134819D01*
X55025238Y-83134819D02*
X54787143Y-83134819D01*
X54787143Y-83134819D02*
X54691905Y-83087200D01*
X54691905Y-83087200D02*
X54644286Y-83039580D01*
X69458333Y-65384819D02*
X69125000Y-64908628D01*
X68886905Y-65384819D02*
X68886905Y-64384819D01*
X68886905Y-64384819D02*
X69267857Y-64384819D01*
X69267857Y-64384819D02*
X69363095Y-64432438D01*
X69363095Y-64432438D02*
X69410714Y-64480057D01*
X69410714Y-64480057D02*
X69458333Y-64575295D01*
X69458333Y-64575295D02*
X69458333Y-64718152D01*
X69458333Y-64718152D02*
X69410714Y-64813390D01*
X69410714Y-64813390D02*
X69363095Y-64861009D01*
X69363095Y-64861009D02*
X69267857Y-64908628D01*
X69267857Y-64908628D02*
X68886905Y-64908628D01*
X69934524Y-65384819D02*
X70125000Y-65384819D01*
X70125000Y-65384819D02*
X70220238Y-65337200D01*
X70220238Y-65337200D02*
X70267857Y-65289580D01*
X70267857Y-65289580D02*
X70363095Y-65146723D01*
X70363095Y-65146723D02*
X70410714Y-64956247D01*
X70410714Y-64956247D02*
X70410714Y-64575295D01*
X70410714Y-64575295D02*
X70363095Y-64480057D01*
X70363095Y-64480057D02*
X70315476Y-64432438D01*
X70315476Y-64432438D02*
X70220238Y-64384819D01*
X70220238Y-64384819D02*
X70029762Y-64384819D01*
X70029762Y-64384819D02*
X69934524Y-64432438D01*
X69934524Y-64432438D02*
X69886905Y-64480057D01*
X69886905Y-64480057D02*
X69839286Y-64575295D01*
X69839286Y-64575295D02*
X69839286Y-64813390D01*
X69839286Y-64813390D02*
X69886905Y-64908628D01*
X69886905Y-64908628D02*
X69934524Y-64956247D01*
X69934524Y-64956247D02*
X70029762Y-65003866D01*
X70029762Y-65003866D02*
X70220238Y-65003866D01*
X70220238Y-65003866D02*
X70315476Y-64956247D01*
X70315476Y-64956247D02*
X70363095Y-64908628D01*
X70363095Y-64908628D02*
X70410714Y-64813390D01*
X107307142Y-58009580D02*
X107259523Y-58057200D01*
X107259523Y-58057200D02*
X107116666Y-58104819D01*
X107116666Y-58104819D02*
X107021428Y-58104819D01*
X107021428Y-58104819D02*
X106878571Y-58057200D01*
X106878571Y-58057200D02*
X106783333Y-57961961D01*
X106783333Y-57961961D02*
X106735714Y-57866723D01*
X106735714Y-57866723D02*
X106688095Y-57676247D01*
X106688095Y-57676247D02*
X106688095Y-57533390D01*
X106688095Y-57533390D02*
X106735714Y-57342914D01*
X106735714Y-57342914D02*
X106783333Y-57247676D01*
X106783333Y-57247676D02*
X106878571Y-57152438D01*
X106878571Y-57152438D02*
X107021428Y-57104819D01*
X107021428Y-57104819D02*
X107116666Y-57104819D01*
X107116666Y-57104819D02*
X107259523Y-57152438D01*
X107259523Y-57152438D02*
X107307142Y-57200057D01*
X108259523Y-58104819D02*
X107688095Y-58104819D01*
X107973809Y-58104819D02*
X107973809Y-57104819D01*
X107973809Y-57104819D02*
X107878571Y-57247676D01*
X107878571Y-57247676D02*
X107783333Y-57342914D01*
X107783333Y-57342914D02*
X107688095Y-57390533D01*
X108592857Y-57104819D02*
X109259523Y-57104819D01*
X109259523Y-57104819D02*
X108830952Y-58104819D01*
X101757142Y-84609580D02*
X101709523Y-84657200D01*
X101709523Y-84657200D02*
X101566666Y-84704819D01*
X101566666Y-84704819D02*
X101471428Y-84704819D01*
X101471428Y-84704819D02*
X101328571Y-84657200D01*
X101328571Y-84657200D02*
X101233333Y-84561961D01*
X101233333Y-84561961D02*
X101185714Y-84466723D01*
X101185714Y-84466723D02*
X101138095Y-84276247D01*
X101138095Y-84276247D02*
X101138095Y-84133390D01*
X101138095Y-84133390D02*
X101185714Y-83942914D01*
X101185714Y-83942914D02*
X101233333Y-83847676D01*
X101233333Y-83847676D02*
X101328571Y-83752438D01*
X101328571Y-83752438D02*
X101471428Y-83704819D01*
X101471428Y-83704819D02*
X101566666Y-83704819D01*
X101566666Y-83704819D02*
X101709523Y-83752438D01*
X101709523Y-83752438D02*
X101757142Y-83800057D01*
X102709523Y-84704819D02*
X102138095Y-84704819D01*
X102423809Y-84704819D02*
X102423809Y-83704819D01*
X102423809Y-83704819D02*
X102328571Y-83847676D01*
X102328571Y-83847676D02*
X102233333Y-83942914D01*
X102233333Y-83942914D02*
X102138095Y-83990533D01*
X103661904Y-84704819D02*
X103090476Y-84704819D01*
X103376190Y-84704819D02*
X103376190Y-83704819D01*
X103376190Y-83704819D02*
X103280952Y-83847676D01*
X103280952Y-83847676D02*
X103185714Y-83942914D01*
X103185714Y-83942914D02*
X103090476Y-83990533D01*
X53609580Y-93616666D02*
X53657200Y-93664285D01*
X53657200Y-93664285D02*
X53704819Y-93807142D01*
X53704819Y-93807142D02*
X53704819Y-93902380D01*
X53704819Y-93902380D02*
X53657200Y-94045237D01*
X53657200Y-94045237D02*
X53561961Y-94140475D01*
X53561961Y-94140475D02*
X53466723Y-94188094D01*
X53466723Y-94188094D02*
X53276247Y-94235713D01*
X53276247Y-94235713D02*
X53133390Y-94235713D01*
X53133390Y-94235713D02*
X52942914Y-94188094D01*
X52942914Y-94188094D02*
X52847676Y-94140475D01*
X52847676Y-94140475D02*
X52752438Y-94045237D01*
X52752438Y-94045237D02*
X52704819Y-93902380D01*
X52704819Y-93902380D02*
X52704819Y-93807142D01*
X52704819Y-93807142D02*
X52752438Y-93664285D01*
X52752438Y-93664285D02*
X52800057Y-93616666D01*
X53704819Y-93140475D02*
X53704819Y-92949999D01*
X53704819Y-92949999D02*
X53657200Y-92854761D01*
X53657200Y-92854761D02*
X53609580Y-92807142D01*
X53609580Y-92807142D02*
X53466723Y-92711904D01*
X53466723Y-92711904D02*
X53276247Y-92664285D01*
X53276247Y-92664285D02*
X52895295Y-92664285D01*
X52895295Y-92664285D02*
X52800057Y-92711904D01*
X52800057Y-92711904D02*
X52752438Y-92759523D01*
X52752438Y-92759523D02*
X52704819Y-92854761D01*
X52704819Y-92854761D02*
X52704819Y-93045237D01*
X52704819Y-93045237D02*
X52752438Y-93140475D01*
X52752438Y-93140475D02*
X52800057Y-93188094D01*
X52800057Y-93188094D02*
X52895295Y-93235713D01*
X52895295Y-93235713D02*
X53133390Y-93235713D01*
X53133390Y-93235713D02*
X53228628Y-93188094D01*
X53228628Y-93188094D02*
X53276247Y-93140475D01*
X53276247Y-93140475D02*
X53323866Y-93045237D01*
X53323866Y-93045237D02*
X53323866Y-92854761D01*
X53323866Y-92854761D02*
X53276247Y-92759523D01*
X53276247Y-92759523D02*
X53228628Y-92711904D01*
X53228628Y-92711904D02*
X53133390Y-92664285D01*
X116416666Y-54554819D02*
X116416666Y-55269104D01*
X116416666Y-55269104D02*
X116369047Y-55411961D01*
X116369047Y-55411961D02*
X116273809Y-55507200D01*
X116273809Y-55507200D02*
X116130952Y-55554819D01*
X116130952Y-55554819D02*
X116035714Y-55554819D01*
X116797619Y-54554819D02*
X117416666Y-54554819D01*
X117416666Y-54554819D02*
X117083333Y-54935771D01*
X117083333Y-54935771D02*
X117226190Y-54935771D01*
X117226190Y-54935771D02*
X117321428Y-54983390D01*
X117321428Y-54983390D02*
X117369047Y-55031009D01*
X117369047Y-55031009D02*
X117416666Y-55126247D01*
X117416666Y-55126247D02*
X117416666Y-55364342D01*
X117416666Y-55364342D02*
X117369047Y-55459580D01*
X117369047Y-55459580D02*
X117321428Y-55507200D01*
X117321428Y-55507200D02*
X117226190Y-55554819D01*
X117226190Y-55554819D02*
X116940476Y-55554819D01*
X116940476Y-55554819D02*
X116845238Y-55507200D01*
X116845238Y-55507200D02*
X116797619Y-55459580D01*
X36046428Y-68534819D02*
X35713095Y-68058628D01*
X35475000Y-68534819D02*
X35475000Y-67534819D01*
X35475000Y-67534819D02*
X35855952Y-67534819D01*
X35855952Y-67534819D02*
X35951190Y-67582438D01*
X35951190Y-67582438D02*
X35998809Y-67630057D01*
X35998809Y-67630057D02*
X36046428Y-67725295D01*
X36046428Y-67725295D02*
X36046428Y-67868152D01*
X36046428Y-67868152D02*
X35998809Y-67963390D01*
X35998809Y-67963390D02*
X35951190Y-68011009D01*
X35951190Y-68011009D02*
X35855952Y-68058628D01*
X35855952Y-68058628D02*
X35475000Y-68058628D01*
X36236905Y-68630057D02*
X36998809Y-68630057D01*
X37094048Y-67534819D02*
X37665476Y-67534819D01*
X37379762Y-68534819D02*
X37379762Y-67534819D01*
X37951191Y-67630057D02*
X37998810Y-67582438D01*
X37998810Y-67582438D02*
X38094048Y-67534819D01*
X38094048Y-67534819D02*
X38332143Y-67534819D01*
X38332143Y-67534819D02*
X38427381Y-67582438D01*
X38427381Y-67582438D02*
X38475000Y-67630057D01*
X38475000Y-67630057D02*
X38522619Y-67725295D01*
X38522619Y-67725295D02*
X38522619Y-67820533D01*
X38522619Y-67820533D02*
X38475000Y-67963390D01*
X38475000Y-67963390D02*
X37903572Y-68534819D01*
X37903572Y-68534819D02*
X38522619Y-68534819D01*
X28634819Y-78353571D02*
X28158628Y-78686904D01*
X28634819Y-78924999D02*
X27634819Y-78924999D01*
X27634819Y-78924999D02*
X27634819Y-78544047D01*
X27634819Y-78544047D02*
X27682438Y-78448809D01*
X27682438Y-78448809D02*
X27730057Y-78401190D01*
X27730057Y-78401190D02*
X27825295Y-78353571D01*
X27825295Y-78353571D02*
X27968152Y-78353571D01*
X27968152Y-78353571D02*
X28063390Y-78401190D01*
X28063390Y-78401190D02*
X28111009Y-78448809D01*
X28111009Y-78448809D02*
X28158628Y-78544047D01*
X28158628Y-78544047D02*
X28158628Y-78924999D01*
X28730057Y-78163095D02*
X28730057Y-77401190D01*
X27634819Y-77305951D02*
X27634819Y-76734523D01*
X28634819Y-77020237D02*
X27634819Y-77020237D01*
X27634819Y-76496427D02*
X27634819Y-75877380D01*
X27634819Y-75877380D02*
X28015771Y-76210713D01*
X28015771Y-76210713D02*
X28015771Y-76067856D01*
X28015771Y-76067856D02*
X28063390Y-75972618D01*
X28063390Y-75972618D02*
X28111009Y-75924999D01*
X28111009Y-75924999D02*
X28206247Y-75877380D01*
X28206247Y-75877380D02*
X28444342Y-75877380D01*
X28444342Y-75877380D02*
X28539580Y-75924999D01*
X28539580Y-75924999D02*
X28587200Y-75972618D01*
X28587200Y-75972618D02*
X28634819Y-76067856D01*
X28634819Y-76067856D02*
X28634819Y-76353570D01*
X28634819Y-76353570D02*
X28587200Y-76448808D01*
X28587200Y-76448808D02*
X28539580Y-76496427D01*
X128154819Y-70983333D02*
X128869104Y-70983333D01*
X128869104Y-70983333D02*
X129011961Y-71030952D01*
X129011961Y-71030952D02*
X129107200Y-71126190D01*
X129107200Y-71126190D02*
X129154819Y-71269047D01*
X129154819Y-71269047D02*
X129154819Y-71364285D01*
X128488152Y-70078571D02*
X129154819Y-70078571D01*
X128107200Y-70316666D02*
X128821485Y-70554761D01*
X128821485Y-70554761D02*
X128821485Y-69935714D01*
X71628095Y-75614819D02*
X71628095Y-76424342D01*
X71628095Y-76424342D02*
X71675714Y-76519580D01*
X71675714Y-76519580D02*
X71723333Y-76567200D01*
X71723333Y-76567200D02*
X71818571Y-76614819D01*
X71818571Y-76614819D02*
X72009047Y-76614819D01*
X72009047Y-76614819D02*
X72104285Y-76567200D01*
X72104285Y-76567200D02*
X72151904Y-76519580D01*
X72151904Y-76519580D02*
X72199523Y-76424342D01*
X72199523Y-76424342D02*
X72199523Y-75614819D01*
X72580476Y-75614819D02*
X73199523Y-75614819D01*
X73199523Y-75614819D02*
X72866190Y-75995771D01*
X72866190Y-75995771D02*
X73009047Y-75995771D01*
X73009047Y-75995771D02*
X73104285Y-76043390D01*
X73104285Y-76043390D02*
X73151904Y-76091009D01*
X73151904Y-76091009D02*
X73199523Y-76186247D01*
X73199523Y-76186247D02*
X73199523Y-76424342D01*
X73199523Y-76424342D02*
X73151904Y-76519580D01*
X73151904Y-76519580D02*
X73104285Y-76567200D01*
X73104285Y-76567200D02*
X73009047Y-76614819D01*
X73009047Y-76614819D02*
X72723333Y-76614819D01*
X72723333Y-76614819D02*
X72628095Y-76567200D01*
X72628095Y-76567200D02*
X72580476Y-76519580D01*
D11*
%TO.C,Q1*%
X52440000Y-71450000D02*
X57060000Y-71450000D01*
X52440000Y-81670000D02*
X52440000Y-71450000D01*
X55680000Y-71450000D02*
X55680000Y-81670000D01*
X57060000Y-71450000D02*
X57060000Y-81670000D01*
X57060000Y-74710000D02*
X55680000Y-74710000D01*
X57060000Y-78410000D02*
X55680000Y-78410000D01*
X57060000Y-81670000D02*
X52440000Y-81670000D01*
%TO.C,R6*%
X48375000Y-85050000D02*
X48305000Y-85050000D01*
X51115000Y-85050000D02*
G75*
G02*
X48375000Y-85050000I-1370000J0D01*
G01*
X48375000Y-85050000D02*
G75*
G02*
X51115000Y-85050000I1370000J0D01*
G01*
%TO.C,R7*%
X62050000Y-76470000D02*
X62050000Y-76400000D01*
X63420000Y-77840000D02*
G75*
G02*
X60680000Y-77840000I-1370000J0D01*
G01*
X60680000Y-77840000D02*
G75*
G02*
X63420000Y-77840000I1370000J0D01*
G01*
%TO.C,L1*%
X106200000Y-78400000D02*
X113600000Y-78400000D01*
X106200000Y-80700000D02*
X106200000Y-78400000D01*
X106200000Y-85800000D02*
X106200000Y-83500000D01*
X113600000Y-78400000D02*
X113600000Y-80700000D01*
X113600000Y-83500000D02*
X113600000Y-85800000D01*
X113600000Y-85800000D02*
X106200000Y-85800000D01*
%TO.C,R_T1*%
X36975000Y-83790000D02*
X37045000Y-83790000D01*
X36975000Y-83790000D02*
G75*
G02*
X34235000Y-83790000I-1370000J0D01*
G01*
X34235000Y-83790000D02*
G75*
G02*
X36975000Y-83790000I1370000J0D01*
G01*
%TO.C,R4*%
X16180000Y-88600000D02*
X16250000Y-88600000D01*
X16180000Y-88600000D02*
G75*
G02*
X13440000Y-88600000I-1370000J0D01*
G01*
X13440000Y-88600000D02*
G75*
G02*
X16180000Y-88600000I1370000J0D01*
G01*
%TO.C,R1*%
X48570000Y-68350000D02*
X48500000Y-68350000D01*
X51310000Y-68350000D02*
G75*
G02*
X48570000Y-68350000I-1370000J0D01*
G01*
X48570000Y-68350000D02*
G75*
G02*
X51310000Y-68350000I1370000J0D01*
G01*
%TO.C,C15*%
X71870000Y-58550000D02*
G75*
G02*
X65330000Y-58550000I-3270000J0D01*
G01*
X65330000Y-58550000D02*
G75*
G02*
X71870000Y-58550000I3270000J0D01*
G01*
%TO.C,C_T1*%
X39970000Y-77150000D02*
G75*
G02*
X33430000Y-77150000I-3270000J0D01*
G01*
X33430000Y-77150000D02*
G75*
G02*
X39970000Y-77150000I3270000J0D01*
G01*
%TO.C,C7*%
X40470000Y-95350000D02*
G75*
G02*
X33930000Y-95350000I-3270000J0D01*
G01*
X33930000Y-95350000D02*
G75*
G02*
X40470000Y-95350000I3270000J0D01*
G01*
%TO.C,Q2*%
X72650000Y-56190000D02*
X82870000Y-56190000D01*
X72650000Y-57570000D02*
X82870000Y-57570000D01*
X72650000Y-60810000D02*
X72650000Y-56190000D01*
X75910000Y-56190000D02*
X75910000Y-57570000D01*
X79610000Y-56190000D02*
X79610000Y-57570000D01*
X82870000Y-56190000D02*
X82870000Y-60810000D01*
X82870000Y-60810000D02*
X72650000Y-60810000D01*
%TO.C,R10*%
X107875000Y-70600000D02*
X107945000Y-70600000D01*
X107875000Y-70600000D02*
G75*
G02*
X105135000Y-70600000I-1370000J0D01*
G01*
X105135000Y-70600000D02*
G75*
G02*
X107875000Y-70600000I1370000J0D01*
G01*
%TO.C,C10*%
X105220000Y-79750000D02*
G75*
G02*
X98680000Y-79750000I-3270000J0D01*
G01*
X98680000Y-79750000D02*
G75*
G02*
X105220000Y-79750000I3270000J0D01*
G01*
%TO.C,J1*%
X12540000Y-80150000D02*
X13140000Y-80450000D01*
X12540000Y-80750000D02*
X12540000Y-80150000D01*
X13140000Y-80450000D02*
X12540000Y-80750000D01*
X13340000Y-69090000D02*
X13340000Y-84310000D01*
X13340000Y-84310000D02*
X25560000Y-84310000D01*
X22260000Y-69090000D02*
X24060000Y-69090000D01*
X22260000Y-84310000D02*
X22260000Y-69090000D01*
X24060000Y-69090000D02*
X24060000Y-84310000D01*
X24060000Y-72200000D02*
X24060000Y-73700000D01*
X24060000Y-73700000D02*
X25560000Y-73950000D01*
X24060000Y-79700000D02*
X24060000Y-81200000D01*
X24060000Y-81200000D02*
X25560000Y-81450000D01*
X24060000Y-84310000D02*
X22260000Y-84310000D01*
X25560000Y-69090000D02*
X13340000Y-69090000D01*
X25560000Y-71950000D02*
X24060000Y-72200000D01*
X25560000Y-73950000D02*
X25560000Y-71950000D01*
X25560000Y-79450000D02*
X24060000Y-79700000D01*
X25560000Y-81450000D02*
X25560000Y-79450000D01*
X25560000Y-84310000D02*
X25560000Y-69090000D01*
%TO.C,D5*%
X74870000Y-67250000D02*
X75520000Y-67250000D01*
X76120000Y-66130000D02*
X76120000Y-68370000D01*
X76240000Y-66130000D02*
X76240000Y-68370000D01*
X76360000Y-66130000D02*
X76360000Y-68370000D01*
X80410000Y-67250000D02*
X79760000Y-67250000D01*
X75520000Y-66130000D02*
X79760000Y-66130000D01*
X79760000Y-68370000D01*
X75520000Y-68370000D01*
X75520000Y-66130000D01*
%TO.C,D4*%
X67730000Y-73700000D02*
X68750000Y-73700000D01*
X73170000Y-75170000D02*
X73170000Y-72230000D01*
X73290000Y-75170000D02*
X73290000Y-72230000D01*
X73410000Y-75170000D02*
X73410000Y-72230000D01*
X75210000Y-73700000D02*
X74190000Y-73700000D01*
X74190000Y-75170000D02*
X68750000Y-75170000D01*
X68750000Y-72230000D01*
X74190000Y-72230000D01*
X74190000Y-75170000D01*
%TO.C,C2*%
X39320000Y-58000000D02*
G75*
G02*
X32780000Y-58000000I-3270000J0D01*
G01*
X32780000Y-58000000D02*
G75*
G02*
X39320000Y-58000000I3270000J0D01*
G01*
%TO.C,C8*%
X47520000Y-95400000D02*
G75*
G02*
X40980000Y-95400000I-3270000J0D01*
G01*
X40980000Y-95400000D02*
G75*
G02*
X47520000Y-95400000I3270000J0D01*
G01*
%TO.C,D6*%
X74730000Y-91400000D02*
X75380000Y-91400000D01*
X75980000Y-90280000D02*
X75980000Y-92520000D01*
X76100000Y-90280000D02*
X76100000Y-92520000D01*
X76220000Y-90280000D02*
X76220000Y-92520000D01*
X80270000Y-91400000D02*
X79620000Y-91400000D01*
X75380000Y-90280000D02*
X79620000Y-90280000D01*
X79620000Y-92520000D01*
X75380000Y-92520000D01*
X75380000Y-90280000D01*
%TO.C,D1*%
X36480000Y-64550000D02*
X37500000Y-64550000D01*
X38280000Y-63080000D02*
X38280000Y-66020000D01*
X38400000Y-63080000D02*
X38400000Y-66020000D01*
X38520000Y-63080000D02*
X38520000Y-66020000D01*
X43960000Y-64550000D02*
X42940000Y-64550000D01*
X37500000Y-63080000D02*
X42940000Y-63080000D01*
X42940000Y-66020000D01*
X37500000Y-66020000D01*
X37500000Y-63080000D01*
%TO.C,C12*%
X104720000Y-71000000D02*
G75*
G02*
X98180000Y-71000000I-3270000J0D01*
G01*
X98180000Y-71000000D02*
G75*
G02*
X104720000Y-71000000I3270000J0D01*
G01*
%TO.C,C13*%
X84870000Y-81450000D02*
G75*
G02*
X78330000Y-81450000I-3270000J0D01*
G01*
X78330000Y-81450000D02*
G75*
G02*
X84870000Y-81450000I3270000J0D01*
G01*
%TO.C,R8*%
X54530000Y-68350000D02*
X54600000Y-68350000D01*
X54530000Y-68350000D02*
G75*
G02*
X51790000Y-68350000I-1370000J0D01*
G01*
X51790000Y-68350000D02*
G75*
G02*
X54530000Y-68350000I1370000J0D01*
G01*
%TO.C,C19*%
X121320000Y-81850000D02*
G75*
G02*
X114780000Y-81850000I-3270000J0D01*
G01*
X114780000Y-81850000D02*
G75*
G02*
X121320000Y-81850000I3270000J0D01*
G01*
%TO.C,D3*%
X36880000Y-88550000D02*
X37900000Y-88550000D01*
X38680000Y-87080000D02*
X38680000Y-90020000D01*
X38800000Y-87080000D02*
X38800000Y-90020000D01*
X38920000Y-87080000D02*
X38920000Y-90020000D01*
X44360000Y-88550000D02*
X43340000Y-88550000D01*
X37900000Y-87080000D02*
X43340000Y-87080000D01*
X43340000Y-90020000D01*
X37900000Y-90020000D01*
X37900000Y-87080000D01*
%TO.C,C14*%
X64670000Y-58450000D02*
G75*
G02*
X58130000Y-58450000I-3270000J0D01*
G01*
X58130000Y-58450000D02*
G75*
G02*
X64670000Y-58450000I3270000J0D01*
G01*
%TO.C,U2*%
X42555000Y-71660000D02*
X42555000Y-81940000D01*
X42555000Y-81940000D02*
X47855000Y-81940000D01*
X44205000Y-71660000D02*
X42555000Y-71660000D01*
X47855000Y-71660000D02*
X46205000Y-71660000D01*
X47855000Y-81940000D02*
X47855000Y-71660000D01*
X46205000Y-71660000D02*
G75*
G02*
X44205000Y-71660000I-1000000J0D01*
G01*
%TO.C,C4*%
X19270000Y-63250000D02*
G75*
G02*
X12730000Y-63250000I-3270000J0D01*
G01*
X12730000Y-63250000D02*
G75*
G02*
X19270000Y-63250000I3270000J0D01*
G01*
%TO.C,R11*%
X86580000Y-67100000D02*
X86650000Y-67100000D01*
X86580000Y-67100000D02*
G75*
G02*
X83840000Y-67100000I-1370000J0D01*
G01*
X83840000Y-67100000D02*
G75*
G02*
X86580000Y-67100000I1370000J0D01*
G01*
%TO.C,C16*%
X103920000Y-62150000D02*
G75*
G02*
X97380000Y-62150000I-3270000J0D01*
G01*
X97380000Y-62150000D02*
G75*
G02*
X103920000Y-62150000I3270000J0D01*
G01*
%TO.C,Q4*%
X91040000Y-79390000D02*
X96290000Y-79390000D01*
X91040000Y-95510000D02*
X91040000Y-79390000D01*
X96290000Y-79390000D02*
X96290000Y-80490000D01*
X96290000Y-83510000D02*
X96290000Y-85940000D01*
X96290000Y-85645000D02*
X96070000Y-85645000D01*
X96290000Y-88960000D02*
X96290000Y-91390000D01*
X96290000Y-89255000D02*
X96070000Y-89255000D01*
X96290000Y-94410000D02*
X96290000Y-95510000D01*
X96290000Y-95510000D02*
X91040000Y-95510000D01*
%TO.C,R12*%
X86775000Y-91350000D02*
X86845000Y-91350000D01*
X86775000Y-91350000D02*
G75*
G02*
X84035000Y-91350000I-1370000J0D01*
G01*
X84035000Y-91350000D02*
G75*
G02*
X86775000Y-91350000I1370000J0D01*
G01*
%TO.C,R3*%
X21980000Y-88550000D02*
X22050000Y-88550000D01*
X21980000Y-88550000D02*
G75*
G02*
X19240000Y-88550000I-1370000J0D01*
G01*
X19240000Y-88550000D02*
G75*
G02*
X21980000Y-88550000I1370000J0D01*
G01*
%TO.C,C6*%
X65270000Y-68150000D02*
G75*
G02*
X58730000Y-68150000I-3270000J0D01*
G01*
X58730000Y-68150000D02*
G75*
G02*
X65270000Y-68150000I3270000J0D01*
G01*
%TO.C,C5*%
X65570000Y-84900000D02*
G75*
G02*
X59030000Y-84900000I-3270000J0D01*
G01*
X59030000Y-84900000D02*
G75*
G02*
X65570000Y-84900000I3270000J0D01*
G01*
%TO.C,C18*%
X117220000Y-70450000D02*
G75*
G02*
X110680000Y-70450000I-3270000J0D01*
G01*
X110680000Y-70450000D02*
G75*
G02*
X117220000Y-70450000I3270000J0D01*
G01*
%TO.C,D2*%
X85980000Y-58750000D02*
X87000000Y-58750000D01*
X87780000Y-57280000D02*
X87780000Y-60220000D01*
X87900000Y-57280000D02*
X87900000Y-60220000D01*
X88020000Y-57280000D02*
X88020000Y-60220000D01*
X93460000Y-58750000D02*
X92440000Y-58750000D01*
X87000000Y-57280000D02*
X92440000Y-57280000D01*
X92440000Y-60220000D01*
X87000000Y-60220000D01*
X87000000Y-57280000D01*
%TO.C,C1*%
X46370000Y-58200000D02*
G75*
G02*
X39830000Y-58200000I-3270000J0D01*
G01*
X39830000Y-58200000D02*
G75*
G02*
X46370000Y-58200000I3270000J0D01*
G01*
%TO.C,Q3*%
X91040000Y-62340000D02*
X96290000Y-62340000D01*
X91040000Y-78460000D02*
X91040000Y-62340000D01*
X96290000Y-62340000D02*
X96290000Y-63440000D01*
X96290000Y-66460000D02*
X96290000Y-68890000D01*
X96290000Y-68595000D02*
X96070000Y-68595000D01*
X96290000Y-71910000D02*
X96290000Y-74340000D01*
X96290000Y-72205000D02*
X96070000Y-72205000D01*
X96290000Y-77360000D02*
X96290000Y-78460000D01*
X96290000Y-78460000D02*
X91040000Y-78460000D01*
%TO.C,J2*%
X48300000Y-54700000D02*
X50300000Y-54700000D01*
X48300000Y-55950000D02*
X48300000Y-54700000D01*
X48690000Y-55090000D02*
X48690000Y-62560000D01*
X48690000Y-62560000D02*
X57310000Y-62560000D01*
X49750000Y-56050000D02*
X52750000Y-56050000D01*
X49750000Y-57400000D02*
X50500000Y-57400000D01*
X49750000Y-61700000D02*
X49750000Y-57400000D01*
X50000000Y-57050000D02*
X49750000Y-56050000D01*
X50500000Y-57050000D02*
X50000000Y-57050000D01*
X50500000Y-57400000D02*
X50500000Y-57050000D01*
X50500000Y-61700000D02*
X49750000Y-61700000D01*
X52000000Y-57050000D02*
X52000000Y-57400000D01*
X52000000Y-57400000D02*
X52750000Y-57400000D01*
X52500000Y-57050000D02*
X52000000Y-57050000D01*
X52750000Y-56050000D02*
X52500000Y-57050000D01*
X52750000Y-57400000D02*
X52750000Y-61700000D01*
X52750000Y-61700000D02*
X52000000Y-61700000D01*
X53250000Y-56050000D02*
X56250000Y-56050000D01*
X53250000Y-57400000D02*
X54000000Y-57400000D01*
X53250000Y-61700000D02*
X53250000Y-57400000D01*
X53500000Y-57050000D02*
X53250000Y-56050000D01*
X54000000Y-57050000D02*
X53500000Y-57050000D01*
X54000000Y-57400000D02*
X54000000Y-57050000D01*
X54000000Y-61700000D02*
X53250000Y-61700000D01*
X55500000Y-57050000D02*
X55500000Y-57400000D01*
X55500000Y-57400000D02*
X56250000Y-57400000D01*
X56000000Y-57050000D02*
X55500000Y-57050000D01*
X56250000Y-56050000D02*
X56000000Y-57050000D01*
X56250000Y-57400000D02*
X56250000Y-61700000D01*
X56250000Y-61700000D02*
X55500000Y-61700000D01*
X57310000Y-55090000D02*
X48690000Y-55090000D01*
X57310000Y-62560000D02*
X57310000Y-55090000D01*
X50500000Y-61700000D02*
G75*
G02*
X51999647Y-61699844I750000J-1700000D01*
G01*
X54000000Y-61700000D02*
G75*
G02*
X55499647Y-61699844I750000J-1700000D01*
G01*
%TO.C,R5*%
X54530000Y-85050000D02*
X54600000Y-85050000D01*
X54530000Y-85050000D02*
G75*
G02*
X51790000Y-85050000I-1370000J0D01*
G01*
X51790000Y-85050000D02*
G75*
G02*
X54530000Y-85050000I1370000J0D01*
G01*
%TO.C,R9*%
X69725000Y-67300000D02*
X69795000Y-67300000D01*
X69725000Y-67300000D02*
G75*
G02*
X66985000Y-67300000I-1370000J0D01*
G01*
X66985000Y-67300000D02*
G75*
G02*
X69725000Y-67300000I1370000J0D01*
G01*
%TO.C,C17*%
X111220000Y-62050000D02*
G75*
G02*
X104680000Y-62050000I-3270000J0D01*
G01*
X104680000Y-62050000D02*
G75*
G02*
X111220000Y-62050000I3270000J0D01*
G01*
%TO.C,C11*%
X105670000Y-88650000D02*
G75*
G02*
X99130000Y-88650000I-3270000J0D01*
G01*
X99130000Y-88650000D02*
G75*
G02*
X105670000Y-88650000I3270000J0D01*
G01*
%TO.C,C9*%
X60920000Y-93450000D02*
G75*
G02*
X54380000Y-93450000I-3270000J0D01*
G01*
X54380000Y-93450000D02*
G75*
G02*
X60920000Y-93450000I3270000J0D01*
G01*
%TO.C,J3*%
X112050000Y-55800000D02*
X114050000Y-55800000D01*
X112050000Y-57050000D02*
X112050000Y-55800000D01*
X112440000Y-56190000D02*
X112440000Y-63660000D01*
X112440000Y-63660000D02*
X121060000Y-63660000D01*
X113500000Y-57150000D02*
X116500000Y-57150000D01*
X113500000Y-58500000D02*
X114250000Y-58500000D01*
X113500000Y-62800000D02*
X113500000Y-58500000D01*
X113750000Y-58150000D02*
X113500000Y-57150000D01*
X114250000Y-58150000D02*
X113750000Y-58150000D01*
X114250000Y-58500000D02*
X114250000Y-58150000D01*
X114250000Y-62800000D02*
X113500000Y-62800000D01*
X115750000Y-58150000D02*
X115750000Y-58500000D01*
X115750000Y-58500000D02*
X116500000Y-58500000D01*
X116250000Y-58150000D02*
X115750000Y-58150000D01*
X116500000Y-57150000D02*
X116250000Y-58150000D01*
X116500000Y-58500000D02*
X116500000Y-62800000D01*
X116500000Y-62800000D02*
X115750000Y-62800000D01*
X117000000Y-57150000D02*
X120000000Y-57150000D01*
X117000000Y-58500000D02*
X117750000Y-58500000D01*
X117000000Y-62800000D02*
X117000000Y-58500000D01*
X117250000Y-58150000D02*
X117000000Y-57150000D01*
X117750000Y-58150000D02*
X117250000Y-58150000D01*
X117750000Y-58500000D02*
X117750000Y-58150000D01*
X117750000Y-62800000D02*
X117000000Y-62800000D01*
X119250000Y-58150000D02*
X119250000Y-58500000D01*
X119250000Y-58500000D02*
X120000000Y-58500000D01*
X119750000Y-58150000D02*
X119250000Y-58150000D01*
X120000000Y-57150000D02*
X119750000Y-58150000D01*
X120000000Y-58500000D02*
X120000000Y-62800000D01*
X120000000Y-62800000D02*
X119250000Y-62800000D01*
X121060000Y-56190000D02*
X112440000Y-56190000D01*
X121060000Y-63660000D02*
X121060000Y-56190000D01*
X114250000Y-62800000D02*
G75*
G02*
X115749647Y-62799844I750000J-1700000D01*
G01*
X117750000Y-62800000D02*
G75*
G02*
X119249647Y-62799844I750000J-1700000D01*
G01*
%TO.C,R_T2*%
X37075000Y-70450000D02*
X37145000Y-70450000D01*
X37075000Y-70450000D02*
G75*
G02*
X34335000Y-70450000I-1370000J0D01*
G01*
X34335000Y-70450000D02*
G75*
G02*
X37075000Y-70450000I1370000J0D01*
G01*
%TO.C,R_T3*%
X30550000Y-77325000D02*
X30550000Y-77255000D01*
X31920000Y-78695000D02*
G75*
G02*
X29180000Y-78695000I-1370000J0D01*
G01*
X29180000Y-78695000D02*
G75*
G02*
X31920000Y-78695000I1370000J0D01*
G01*
%TO.C,J4*%
X120140000Y-66340000D02*
X120140000Y-74960000D01*
X120140000Y-74960000D02*
X127610000Y-74960000D01*
X121000000Y-67400000D02*
X125300000Y-67400000D01*
X121000000Y-68150000D02*
X121000000Y-67400000D01*
X121000000Y-70400000D02*
X121000000Y-69650000D01*
X121000000Y-70900000D02*
X125300000Y-70900000D01*
X121000000Y-71650000D02*
X121000000Y-70900000D01*
X121000000Y-73900000D02*
X121000000Y-73150000D01*
X125300000Y-67400000D02*
X125300000Y-68150000D01*
X125300000Y-68150000D02*
X125650000Y-68150000D01*
X125300000Y-69650000D02*
X125300000Y-70400000D01*
X125300000Y-70400000D02*
X121000000Y-70400000D01*
X125300000Y-70900000D02*
X125300000Y-71650000D01*
X125300000Y-71650000D02*
X125650000Y-71650000D01*
X125300000Y-73150000D02*
X125300000Y-73900000D01*
X125300000Y-73900000D02*
X121000000Y-73900000D01*
X125650000Y-67650000D02*
X126650000Y-67400000D01*
X125650000Y-68150000D02*
X125650000Y-67650000D01*
X125650000Y-69650000D02*
X125300000Y-69650000D01*
X125650000Y-70150000D02*
X125650000Y-69650000D01*
X125650000Y-71150000D02*
X126650000Y-70900000D01*
X125650000Y-71650000D02*
X125650000Y-71150000D01*
X125650000Y-73150000D02*
X125300000Y-73150000D01*
X125650000Y-73650000D02*
X125650000Y-73150000D01*
X126650000Y-67400000D02*
X126650000Y-70400000D01*
X126650000Y-70400000D02*
X125650000Y-70150000D01*
X126650000Y-70900000D02*
X126650000Y-73900000D01*
X126650000Y-73900000D02*
X125650000Y-73650000D01*
X126750000Y-65950000D02*
X128000000Y-65950000D01*
X127610000Y-66340000D02*
X120140000Y-66340000D01*
X127610000Y-74960000D02*
X127610000Y-66340000D01*
X128000000Y-65950000D02*
X128000000Y-67950000D01*
X121000000Y-68150000D02*
G75*
G02*
X121000156Y-69649647I-1700000J-750000D01*
G01*
X121000000Y-71650000D02*
G75*
G02*
X121000156Y-73149647I-1700000J-750000D01*
G01*
%TO.C,U3*%
X69960000Y-77590000D02*
X69960000Y-87870000D01*
X69960000Y-87870000D02*
X75260000Y-87870000D01*
X71610000Y-77590000D02*
X69960000Y-77590000D01*
X75260000Y-77590000D02*
X73610000Y-77590000D01*
X75260000Y-87870000D02*
X75260000Y-77590000D01*
X73610000Y-77590000D02*
G75*
G02*
X71610000Y-77590000I-1000000J0D01*
G01*
%TD*%
M02*
