%TF.GenerationSoftware,KiCad,Pcbnew,9.0.3*%
%TF.CreationDate,2025-10-25T15:11:56+05:30*%
%TF.ProjectId,Vicharak,56696368-6172-4616-9b2e-6b696361645f,rev?*%
%TF.SameCoordinates,Original*%
%TF.FileFunction,Copper,L1,Top*%
%TF.FilePolarity,Positive*%
%FSLAX46Y46*%
G04 Gerber Fmt 4.6, Leading zero omitted, Abs format (unit mm)*
G04 Created by KiCad (PCBNEW 9.0.3) date 2025-10-25 15:11:56*
%MOMM*%
%LPD*%
G01*
G04 APERTURE LIST*
G04 Aperture macros list*
%AMRoundRect*
0 Rectangle with rounded corners*
0 $1 Rounding radius*
0 $2 $3 $4 $5 $6 $7 $8 $9 X,Y pos of 4 corners*
0 Add a 4 corners polygon primitive as box body*
4,1,4,$2,$3,$4,$5,$6,$7,$8,$9,$2,$3,0*
0 Add four circle primitives for the rounded corners*
1,1,$1+$1,$2,$3*
1,1,$1+$1,$4,$5*
1,1,$1+$1,$6,$7*
1,1,$1+$1,$8,$9*
0 Add four rect primitives between the rounded corners*
20,1,$1+$1,$2,$3,$4,$5,0*
20,1,$1+$1,$4,$5,$6,$7,0*
20,1,$1+$1,$6,$7,$8,$9,0*
20,1,$1+$1,$8,$9,$2,$3,0*%
G04 Aperture macros list end*
%TA.AperFunction,ComponentPad*%
%ADD10R,2.000000X1.905000*%
%TD*%
%TA.AperFunction,ComponentPad*%
%ADD11O,2.000000X1.905000*%
%TD*%
%TA.AperFunction,ComponentPad*%
%ADD12C,1.600000*%
%TD*%
%TA.AperFunction,SMDPad,CuDef*%
%ADD13R,1.500000X2.200000*%
%TD*%
%TA.AperFunction,ComponentPad*%
%ADD14R,1.905000X2.000000*%
%TD*%
%TA.AperFunction,ComponentPad*%
%ADD15O,1.905000X2.000000*%
%TD*%
%TA.AperFunction,ComponentPad*%
%ADD16RoundRect,0.250000X1.550000X-0.750000X1.550000X0.750000X-1.550000X0.750000X-1.550000X-0.750000X0*%
%TD*%
%TA.AperFunction,ComponentPad*%
%ADD17O,3.600000X2.000000*%
%TD*%
%TA.AperFunction,ComponentPad*%
%ADD18RoundRect,0.250000X-0.550000X-0.550000X0.550000X-0.550000X0.550000X0.550000X-0.550000X0.550000X0*%
%TD*%
%TA.AperFunction,ComponentPad*%
%ADD19RoundRect,0.249999X0.850001X0.850001X-0.850001X0.850001X-0.850001X-0.850001X0.850001X-0.850001X0*%
%TD*%
%TA.AperFunction,ComponentPad*%
%ADD20C,2.200000*%
%TD*%
%TA.AperFunction,ComponentPad*%
%ADD21RoundRect,0.249999X-0.850001X-0.850001X0.850001X-0.850001X0.850001X0.850001X-0.850001X0.850001X0*%
%TD*%
%TA.AperFunction,ComponentPad*%
%ADD22R,4.500000X2.500000*%
%TD*%
%TA.AperFunction,ComponentPad*%
%ADD23O,4.500000X2.500000*%
%TD*%
%TA.AperFunction,ComponentPad*%
%ADD24RoundRect,0.250000X-0.650000X-1.550000X0.650000X-1.550000X0.650000X1.550000X-0.650000X1.550000X0*%
%TD*%
%TA.AperFunction,ComponentPad*%
%ADD25O,1.800000X3.600000*%
%TD*%
%TA.AperFunction,ComponentPad*%
%ADD26RoundRect,0.250000X-1.550000X0.650000X-1.550000X-0.650000X1.550000X-0.650000X1.550000X0.650000X0*%
%TD*%
%TA.AperFunction,ComponentPad*%
%ADD27O,3.600000X1.800000*%
%TD*%
%TA.AperFunction,ViaPad*%
%ADD28C,0.600000*%
%TD*%
%TA.AperFunction,Conductor*%
%ADD29C,0.300000*%
%TD*%
%TA.AperFunction,Conductor*%
%ADD30C,0.500000*%
%TD*%
%TA.AperFunction,Conductor*%
%ADD31C,0.400000*%
%TD*%
%TA.AperFunction,Conductor*%
%ADD32C,0.200000*%
%TD*%
%TA.AperFunction,Conductor*%
%ADD33C,0.600000*%
%TD*%
G04 APERTURE END LIST*
D10*
%TO.P,Q1,1,B*%
%TO.N,Earth*%
X53800000Y-74020000D03*
D11*
%TO.P,Q1,2,C*%
%TO.N,Net-(Q1-C)*%
X53800000Y-76560000D03*
%TO.P,Q1,3,E*%
%TO.N,Net-(Q1-E)*%
X53800000Y-79100000D03*
%TD*%
D12*
%TO.P,R6,1*%
%TO.N,Net-(D3-A)*%
X49745000Y-85050000D03*
%TO.P,R6,2*%
%TO.N,Net-(C9-Pad1)*%
X47205000Y-85050000D03*
%TD*%
%TO.P,R7,1*%
%TO.N,Net-(C5-Pad1)*%
X62050000Y-77840000D03*
%TO.P,R7,2*%
%TO.N,Net-(C6-Pad1)*%
X62050000Y-75300000D03*
%TD*%
D13*
%TO.P,L1,1,1*%
%TO.N,Net-(Q3-S)*%
X106700000Y-82100000D03*
%TO.P,L1,2,2*%
%TO.N,OUT*%
X113100000Y-82100000D03*
%TD*%
D12*
%TO.P,R_T1,1*%
%TO.N,Net-(U2--)*%
X35605000Y-83790000D03*
%TO.P,R_T1,2*%
%TO.N,Net-(C_T1-Pad1)*%
X38145000Y-83790000D03*
%TD*%
%TO.P,R4,1*%
%TO.N,Net-(J1-Pin_1)*%
X14810000Y-88600000D03*
%TO.P,R4,2*%
%TO.N,Net-(U2-+)*%
X17350000Y-88600000D03*
%TD*%
%TO.P,R1,1*%
%TO.N,Net-(Q1-C)*%
X49940000Y-68350000D03*
%TO.P,R1,2*%
%TO.N,Net-(D1-K)*%
X47400000Y-68350000D03*
%TD*%
%TO.P,C15,1*%
%TO.N,Net-(J2-Pin_1)*%
X67350000Y-58550000D03*
%TO.P,C15,2*%
%TO.N,Earth*%
X69850000Y-58550000D03*
%TD*%
%TO.P,C_T1,1*%
%TO.N,Net-(C_T1-Pad1)*%
X35450000Y-77150000D03*
%TO.P,C_T1,2*%
%TO.N,OUT*%
X37950000Y-77150000D03*
%TD*%
%TO.P,C7,1*%
%TO.N,Net-(D3-A)*%
X35950000Y-95350000D03*
%TO.P,C7,2*%
%TO.N,Earth*%
X38450000Y-95350000D03*
%TD*%
D14*
%TO.P,Q2,1,B*%
%TO.N,Net-(D2-K)*%
X75220000Y-59450000D03*
D15*
%TO.P,Q2,2,C*%
%TO.N,+15V*%
X77760000Y-59450000D03*
%TO.P,Q2,3,E*%
%TO.N,Earth*%
X80300000Y-59450000D03*
%TD*%
D12*
%TO.P,R10,1*%
%TO.N,Net-(C12-Pad1)*%
X106505000Y-70600000D03*
%TO.P,R10,2*%
%TO.N,Earth*%
X109045000Y-70600000D03*
%TD*%
%TO.P,C10,1*%
%TO.N,Net-(D2-A)*%
X100700000Y-79750000D03*
%TO.P,C10,2*%
%TO.N,+15V*%
X103200000Y-79750000D03*
%TD*%
D16*
%TO.P,J1,1,Pin_1*%
%TO.N,Net-(J1-Pin_1)*%
X15450000Y-80450000D03*
D17*
%TO.P,J1,2,Pin_2*%
%TO.N,Earth*%
X15450000Y-72950000D03*
%TD*%
D18*
%TO.P,D5,1,K*%
%TO.N,Net-(D5-K)*%
X73830000Y-67250000D03*
D12*
%TO.P,D5,2,A*%
%TO.N,Net-(D5-A)*%
X81450000Y-67250000D03*
%TD*%
D19*
%TO.P,D4,1,K*%
%TO.N,Net-(D4-K)*%
X76550000Y-73700000D03*
D20*
%TO.P,D4,2,A*%
%TO.N,+15V*%
X66390000Y-73700000D03*
%TD*%
D12*
%TO.P,C2,1*%
%TO.N,Net-(D1-K)*%
X34800000Y-58000000D03*
%TO.P,C2,2*%
%TO.N,Earth*%
X37300000Y-58000000D03*
%TD*%
%TO.P,C8,1*%
%TO.N,Net-(D3-A)*%
X43000000Y-95400000D03*
%TO.P,C8,2*%
%TO.N,Earth*%
X45500000Y-95400000D03*
%TD*%
D18*
%TO.P,D6,1,K*%
%TO.N,Net-(D6-K)*%
X73690000Y-91400000D03*
D12*
%TO.P,D6,2,A*%
%TO.N,Net-(D6-A)*%
X81310000Y-91400000D03*
%TD*%
D21*
%TO.P,D1,1,K*%
%TO.N,Net-(D1-K)*%
X35140000Y-64550000D03*
D20*
%TO.P,D1,2,A*%
%TO.N,Earth*%
X45300000Y-64550000D03*
%TD*%
D12*
%TO.P,C12,1*%
%TO.N,Net-(C12-Pad1)*%
X100200000Y-71000000D03*
%TO.P,C12,2*%
%TO.N,Net-(D2-A)*%
X102700000Y-71000000D03*
%TD*%
%TO.P,C13,1*%
%TO.N,Net-(D4-K)*%
X81600000Y-80200000D03*
%TO.P,C13,2*%
%TO.N,Net-(Q3-S)*%
X81600000Y-82700000D03*
%TD*%
%TO.P,R8,1*%
%TO.N,Net-(J2-Pin_1)*%
X53160000Y-68350000D03*
%TO.P,R8,2*%
%TO.N,Net-(D1-K)*%
X55700000Y-68350000D03*
%TD*%
%TO.P,C19,1*%
%TO.N,OUT*%
X116800000Y-81850000D03*
%TO.P,C19,2*%
%TO.N,Earth*%
X119300000Y-81850000D03*
%TD*%
D21*
%TO.P,D3,1,K*%
%TO.N,Earth*%
X35540000Y-88550000D03*
D20*
%TO.P,D3,2,A*%
%TO.N,Net-(D3-A)*%
X45700000Y-88550000D03*
%TD*%
D12*
%TO.P,C14,1*%
%TO.N,Net-(J2-Pin_1)*%
X60150000Y-58450000D03*
%TO.P,C14,2*%
%TO.N,Earth*%
X62650000Y-58450000D03*
%TD*%
D18*
%TO.P,U2,1,GND*%
%TO.N,Earth*%
X41395000Y-72990000D03*
D12*
%TO.P,U2,2,+*%
%TO.N,Net-(U2-+)*%
X41395000Y-75530000D03*
%TO.P,U2,3,-*%
%TO.N,Net-(U2--)*%
X41395000Y-78070000D03*
%TO.P,U2,4,V-*%
%TO.N,Net-(D3-A)*%
X41395000Y-80610000D03*
%TO.P,U2,5,BAL*%
%TO.N,unconnected-(U2-BAL-Pad5)*%
X49015000Y-80610000D03*
%TO.P,U2,6,STRB*%
%TO.N,unconnected-(U2-STRB-Pad6)*%
X49015000Y-78070000D03*
%TO.P,U2,7*%
%TO.N,Net-(Q1-C)*%
X49015000Y-75530000D03*
%TO.P,U2,8,V+*%
%TO.N,Net-(D1-K)*%
X49015000Y-72990000D03*
%TD*%
%TO.P,C4,1*%
%TO.N,Net-(U2-+)*%
X14750000Y-63250000D03*
%TO.P,C4,2*%
%TO.N,Earth*%
X17250000Y-63250000D03*
%TD*%
%TO.P,R11,1*%
%TO.N,Net-(D5-A)*%
X85210000Y-67100000D03*
%TO.P,R11,2*%
%TO.N,Net-(D5-K)*%
X87750000Y-67100000D03*
%TD*%
%TO.P,C16,1*%
%TO.N,Earth*%
X99400000Y-62150000D03*
%TO.P,C16,2*%
%TO.N,Net-(D2-A)*%
X101900000Y-62150000D03*
%TD*%
D22*
%TO.P,Q4,1,G*%
%TO.N,Net-(D6-A)*%
X93850000Y-82000000D03*
D23*
%TO.P,Q4,2,D*%
%TO.N,Net-(Q3-S)*%
X93850000Y-87450000D03*
%TO.P,Q4,3,S*%
%TO.N,Net-(D2-A)*%
X93850000Y-92900000D03*
%TD*%
D12*
%TO.P,R12,1*%
%TO.N,Net-(D6-A)*%
X85405000Y-91350000D03*
%TO.P,R12,2*%
%TO.N,Net-(D6-K)*%
X87945000Y-91350000D03*
%TD*%
%TO.P,R3,1*%
%TO.N,Net-(J1-Pin_1)*%
X20610000Y-88550000D03*
%TO.P,R3,2*%
%TO.N,Earth*%
X23150000Y-88550000D03*
%TD*%
%TO.P,C6,1*%
%TO.N,Net-(C6-Pad1)*%
X62000000Y-69400000D03*
%TO.P,C6,2*%
%TO.N,Net-(U3-CT)*%
X62000000Y-66900000D03*
%TD*%
%TO.P,C5,1*%
%TO.N,Net-(C5-Pad1)*%
X62300000Y-86150000D03*
%TO.P,C5,2*%
%TO.N,Net-(Q1-E)*%
X62300000Y-83650000D03*
%TD*%
%TO.P,C18,1*%
%TO.N,OUT*%
X112700000Y-70450000D03*
%TO.P,C18,2*%
%TO.N,Earth*%
X115200000Y-70450000D03*
%TD*%
D21*
%TO.P,D2,1,K*%
%TO.N,Net-(D2-K)*%
X84640000Y-58750000D03*
D20*
%TO.P,D2,2,A*%
%TO.N,Net-(D2-A)*%
X94800000Y-58750000D03*
%TD*%
D12*
%TO.P,C1,1*%
%TO.N,Net-(D1-K)*%
X41850000Y-58200000D03*
%TO.P,C1,2*%
%TO.N,Earth*%
X44350000Y-58200000D03*
%TD*%
D22*
%TO.P,Q3,1,G*%
%TO.N,Net-(D5-A)*%
X93850000Y-64950000D03*
D23*
%TO.P,Q3,2,D*%
%TO.N,Net-(J2-Pin_1)*%
X93850000Y-70400000D03*
%TO.P,Q3,3,S*%
%TO.N,Net-(Q3-S)*%
X93850000Y-75850000D03*
%TD*%
D24*
%TO.P,J2,1,Pin_1*%
%TO.N,Net-(J2-Pin_1)*%
X51250000Y-59450000D03*
D25*
%TO.P,J2,2,Pin_2*%
%TO.N,Earth*%
X54750000Y-59450000D03*
%TD*%
D12*
%TO.P,R5,1*%
%TO.N,Net-(C9-Pad1)*%
X53160000Y-85050000D03*
%TO.P,R5,2*%
%TO.N,Net-(Q1-E)*%
X55700000Y-85050000D03*
%TD*%
%TO.P,R9,1*%
%TO.N,Net-(U3-RT)*%
X68355000Y-67300000D03*
%TO.P,R9,2*%
%TO.N,Net-(U3-CT)*%
X70895000Y-67300000D03*
%TD*%
%TO.P,C17,1*%
%TO.N,Earth*%
X106700000Y-62050000D03*
%TO.P,C17,2*%
%TO.N,Net-(D2-A)*%
X109200000Y-62050000D03*
%TD*%
%TO.P,C11,1*%
%TO.N,Net-(D2-A)*%
X101150000Y-88650000D03*
%TO.P,C11,2*%
%TO.N,+15V*%
X103650000Y-88650000D03*
%TD*%
%TO.P,C9,1*%
%TO.N,Net-(C9-Pad1)*%
X57650000Y-94700000D03*
%TO.P,C9,2*%
%TO.N,Net-(U3-CT)*%
X57650000Y-92200000D03*
%TD*%
D24*
%TO.P,J3,1,Pin_1*%
%TO.N,Net-(D2-A)*%
X115000000Y-60550000D03*
D25*
%TO.P,J3,2,Pin_2*%
%TO.N,Earth*%
X118500000Y-60550000D03*
%TD*%
D12*
%TO.P,R_T2,1*%
%TO.N,Net-(U2--)*%
X35705000Y-70450000D03*
%TO.P,R_T2,2*%
%TO.N,OUT*%
X38245000Y-70450000D03*
%TD*%
%TO.P,R_T3,1*%
%TO.N,Earth*%
X30550000Y-78695000D03*
%TO.P,R_T3,2*%
%TO.N,Net-(U2--)*%
X30550000Y-76155000D03*
%TD*%
D26*
%TO.P,J4,1,Pin_1*%
%TO.N,OUT*%
X123250000Y-68900000D03*
D27*
%TO.P,J4,2,Pin_2*%
%TO.N,Earth*%
X123250000Y-72400000D03*
%TD*%
D18*
%TO.P,U3,1,VCC*%
%TO.N,+15V*%
X68800000Y-78920000D03*
D12*
%TO.P,U3,2,RT*%
%TO.N,Net-(U3-RT)*%
X68800000Y-81460000D03*
%TO.P,U3,3,CT*%
%TO.N,Net-(U3-CT)*%
X68800000Y-84000000D03*
%TO.P,U3,4,COM*%
%TO.N,Net-(D2-A)*%
X68800000Y-86540000D03*
%TO.P,U3,5,LO*%
%TO.N,Net-(D6-K)*%
X76420000Y-86540000D03*
%TO.P,U3,6,VS*%
%TO.N,Net-(Q3-S)*%
X76420000Y-84000000D03*
%TO.P,U3,7,HO*%
%TO.N,Net-(D5-K)*%
X76420000Y-81460000D03*
%TO.P,U3,8,VB*%
%TO.N,Net-(D4-K)*%
X76420000Y-78920000D03*
%TD*%
D28*
%TO.N,+15V*%
X122200000Y-94350000D03*
%TD*%
D29*
%TO.N,Net-(D1-K)*%
X50247050Y-67100000D02*
X48650000Y-67100000D01*
X55700000Y-68350000D02*
X54599000Y-69451000D01*
X52598050Y-69451000D02*
X50247050Y-67100000D01*
X35901000Y-59101000D02*
X34800000Y-58000000D01*
X34800000Y-64210000D02*
X35140000Y-64550000D01*
X40949000Y-59101000D02*
X35901000Y-59101000D01*
X48650000Y-67100000D02*
X47400000Y-68350000D01*
X41850000Y-58200000D02*
X40949000Y-59101000D01*
X54599000Y-69451000D02*
X52598050Y-69451000D01*
X34800000Y-58000000D02*
X34800000Y-64210000D01*
D30*
%TO.N,Net-(J1-Pin_1)*%
X14810000Y-81090000D02*
X15450000Y-80450000D01*
X15911000Y-87499000D02*
X14810000Y-88600000D01*
X14810000Y-88600000D02*
X14810000Y-81090000D01*
X20610000Y-88550000D02*
X19559000Y-87499000D01*
X19559000Y-87499000D02*
X15911000Y-87499000D01*
D29*
%TO.N,Net-(U2-+)*%
X16350000Y-91200000D02*
X16350000Y-91150000D01*
X16350000Y-91150000D02*
X17350000Y-90150000D01*
X17350000Y-90150000D02*
X17350000Y-88600000D01*
X13200000Y-91200000D02*
X16350000Y-91200000D01*
X14750000Y-63250000D02*
X12300000Y-65700000D01*
X12300000Y-65700000D02*
X12300000Y-90300000D01*
X12300000Y-90300000D02*
X13200000Y-91200000D01*
%TO.N,Net-(Q1-E)*%
X55700000Y-81000000D02*
X53800000Y-79100000D01*
X55700000Y-85050000D02*
X60900000Y-85050000D01*
X55700000Y-85050000D02*
X55700000Y-81000000D01*
X60900000Y-85050000D02*
X62300000Y-83650000D01*
%TO.N,Net-(C5-Pad1)*%
X62300000Y-86150000D02*
X64050000Y-84400000D01*
X64050000Y-84400000D02*
X64050000Y-79840000D01*
X64050000Y-79840000D02*
X62050000Y-77840000D01*
%TO.N,Net-(U3-CT)*%
X60600000Y-92200000D02*
X68800000Y-84000000D01*
X70895000Y-81905000D02*
X70895000Y-67300000D01*
X62000000Y-66900000D02*
X62799999Y-66100001D01*
X57650000Y-92200000D02*
X60600000Y-92200000D01*
X62799999Y-66100001D02*
X69695001Y-66100001D01*
X69695001Y-66100001D02*
X70895000Y-67300000D01*
X68800000Y-84000000D02*
X70895000Y-81905000D01*
%TO.N,Net-(C6-Pad1)*%
X62050000Y-69450000D02*
X62000000Y-69400000D01*
X62050000Y-75300000D02*
X62050000Y-69450000D01*
%TO.N,Net-(D3-A)*%
X41395000Y-84245000D02*
X45700000Y-88550000D01*
X37051000Y-96451000D02*
X41949000Y-96451000D01*
X45700000Y-88550000D02*
X49200000Y-85050000D01*
X41949000Y-96451000D02*
X43000000Y-95400000D01*
X43000000Y-91250000D02*
X45700000Y-88550000D01*
X41395000Y-80610000D02*
X41395000Y-84245000D01*
X35950000Y-95350000D02*
X37051000Y-96451000D01*
X43000000Y-95400000D02*
X43000000Y-91250000D01*
X49200000Y-85050000D02*
X49745000Y-85050000D01*
%TO.N,Net-(C9-Pad1)*%
X47205000Y-85050000D02*
X48306000Y-83949000D01*
X48306000Y-83949000D02*
X52059000Y-83949000D01*
X53160000Y-90210000D02*
X57650000Y-94700000D01*
X52059000Y-83949000D02*
X53160000Y-85050000D01*
X53160000Y-85050000D02*
X53160000Y-90210000D01*
D31*
%TO.N,+15V*%
X60998000Y-66484958D02*
X66830958Y-60652000D01*
X69215042Y-82462000D02*
X68384958Y-82462000D01*
X66830958Y-60652000D02*
X76558000Y-60652000D01*
X60998000Y-75665042D02*
X60998000Y-66484958D01*
X61634958Y-76302000D02*
X60998000Y-75665042D01*
X103200000Y-79750000D02*
X103650000Y-80200000D01*
X66390000Y-73700000D02*
X69802000Y-77112000D01*
X62224958Y-76302000D02*
X61634958Y-76302000D01*
X76558000Y-60652000D02*
X77760000Y-59450000D01*
X103650000Y-80200000D02*
X103650000Y-88650000D01*
X69802000Y-77112000D02*
X69802000Y-81875042D01*
X68384958Y-82462000D02*
X62224958Y-76302000D01*
X69802000Y-81875042D02*
X69215042Y-82462000D01*
D29*
%TO.N,Net-(D2-A)*%
X71750000Y-93750000D02*
X93000000Y-93750000D01*
X101150000Y-88650000D02*
X101150000Y-80200000D01*
X98500000Y-58750000D02*
X94800000Y-58750000D01*
X101900000Y-62150000D02*
X98500000Y-58750000D01*
X68800000Y-86540000D02*
X68800000Y-90800000D01*
X101150000Y-88650000D02*
X98100000Y-88650000D01*
X102700000Y-77750000D02*
X100700000Y-79750000D01*
X93000000Y-93750000D02*
X93850000Y-92900000D01*
X68800000Y-90800000D02*
X71750000Y-93750000D01*
X102700000Y-71000000D02*
X102700000Y-77750000D01*
X115000000Y-60550000D02*
X113500000Y-62050000D01*
X101150000Y-80200000D02*
X100700000Y-79750000D01*
X113500000Y-62050000D02*
X109200000Y-62050000D01*
X98100000Y-88650000D02*
X93850000Y-92900000D01*
D32*
%TO.N,Net-(C12-Pad1)*%
X100200000Y-71000000D02*
X101301000Y-69899000D01*
X105804000Y-69899000D02*
X106505000Y-70600000D01*
X101301000Y-69899000D02*
X105804000Y-69899000D01*
D30*
%TO.N,Net-(Q3-S)*%
X80300000Y-84000000D02*
X81600000Y-82700000D01*
X106961050Y-69499000D02*
X100143950Y-69499000D01*
X76420000Y-84000000D02*
X80300000Y-84000000D01*
X93850000Y-75792950D02*
X93850000Y-75850000D01*
X100143950Y-69499000D02*
X93850000Y-75792950D01*
X106700000Y-82100000D02*
X107606000Y-81194000D01*
X107606000Y-70143950D02*
X106961050Y-69499000D01*
X107606000Y-81194000D02*
X107606000Y-70143950D01*
D29*
%TO.N,Net-(D4-K)*%
X76420000Y-73830000D02*
X76550000Y-73700000D01*
X76420000Y-78920000D02*
X80320000Y-78920000D01*
X76420000Y-78920000D02*
X76420000Y-73830000D01*
X80320000Y-78920000D02*
X81600000Y-80200000D01*
%TO.N,Net-(J2-Pin_1)*%
X51250000Y-59450000D02*
X51250000Y-66440000D01*
X51250000Y-66440000D02*
X53160000Y-68350000D01*
D33*
%TO.N,OUT*%
X112700000Y-70450000D02*
X105649000Y-63399000D01*
X105649000Y-63399000D02*
X82395783Y-63399000D01*
X38245000Y-70450000D02*
X38245000Y-76855000D01*
X113951000Y-82951000D02*
X113100000Y-82100000D01*
X33699000Y-65904000D02*
X38245000Y-70450000D01*
X76828217Y-56698000D02*
X34544950Y-56698000D01*
X116550000Y-82100000D02*
X116800000Y-81850000D01*
X82395783Y-63399000D02*
X79013500Y-60016717D01*
X33699000Y-57543950D02*
X33699000Y-65904000D01*
X38245000Y-76855000D02*
X37950000Y-77150000D01*
X79013500Y-58883283D02*
X76828217Y-56698000D01*
X123250000Y-68900000D02*
X125351000Y-71001000D01*
X79013500Y-60016717D02*
X79013500Y-58883283D01*
X125351000Y-71001000D02*
X125351000Y-77356050D01*
X125351000Y-77356050D02*
X119756050Y-82951000D01*
X34544950Y-56698000D02*
X33699000Y-57543950D01*
X119756050Y-82951000D02*
X113951000Y-82951000D01*
X113100000Y-82100000D02*
X116550000Y-82100000D01*
D29*
%TO.N,Net-(D5-K)*%
X73830000Y-78870000D02*
X73830000Y-67250000D01*
X74931000Y-68351000D02*
X86499000Y-68351000D01*
X73830000Y-67250000D02*
X74931000Y-68351000D01*
X76420000Y-81460000D02*
X73830000Y-78870000D01*
X86499000Y-68351000D02*
X87750000Y-67100000D01*
D32*
%TO.N,Net-(D5-A)*%
X85210000Y-67100000D02*
X81600000Y-67100000D01*
X81600000Y-67100000D02*
X81450000Y-67250000D01*
X87360000Y-64950000D02*
X85210000Y-67100000D01*
X93850000Y-64950000D02*
X87360000Y-64950000D01*
D29*
%TO.N,Net-(D6-A)*%
X81360000Y-91350000D02*
X81310000Y-91400000D01*
X85405000Y-91350000D02*
X93850000Y-82905000D01*
X85405000Y-91350000D02*
X81360000Y-91350000D01*
X93850000Y-82905000D02*
X93850000Y-82000000D01*
%TO.N,Net-(D6-K)*%
X76420000Y-88670000D02*
X73690000Y-91400000D01*
X87945000Y-91350000D02*
X86794000Y-92501000D01*
X86794000Y-92501000D02*
X74791000Y-92501000D01*
X74791000Y-92501000D02*
X73690000Y-91400000D01*
X76420000Y-86540000D02*
X76420000Y-88670000D01*
%TO.N,Net-(Q1-C)*%
X50684500Y-68350000D02*
X55101000Y-72766500D01*
X55101000Y-75259000D02*
X53800000Y-76560000D01*
X55101000Y-72766500D02*
X55101000Y-75259000D01*
X49940000Y-68350000D02*
X50684500Y-68350000D01*
%TO.N,Net-(U3-RT)*%
X68800000Y-81460000D02*
X63250000Y-75910000D01*
X65150000Y-67300000D02*
X68355000Y-67300000D01*
X63250000Y-75910000D02*
X63250000Y-69200000D01*
X63250000Y-69200000D02*
X65150000Y-67300000D01*
D32*
%TO.N,Net-(C_T1-Pad1)*%
X42496000Y-77613950D02*
X41851050Y-76969000D01*
X38406050Y-78251000D02*
X36551000Y-78251000D01*
X36551000Y-78251000D02*
X35450000Y-77150000D01*
X41851050Y-76969000D02*
X39688050Y-76969000D01*
X39688050Y-76969000D02*
X38406050Y-78251000D01*
X40861100Y-79171000D02*
X41851050Y-79171000D01*
X41851050Y-79171000D02*
X42496000Y-78526050D01*
X38145000Y-81887100D02*
X40861100Y-79171000D01*
X38145000Y-83790000D02*
X38145000Y-81887100D01*
X42496000Y-78526050D02*
X42496000Y-77613950D01*
D29*
%TO.N,Net-(U2--)*%
X33745000Y-79350000D02*
X30550000Y-76155000D01*
X35705000Y-71000000D02*
X35705000Y-70450000D01*
X30550000Y-76155000D02*
X35705000Y-71000000D01*
X41395000Y-78070000D02*
X40115000Y-79350000D01*
X40115000Y-79350000D02*
X33745000Y-79350000D01*
%TD*%
%TA.AperFunction,Conductor*%
%TO.N,+15V*%
G36*
X53606521Y-57518185D02*
G01*
X53652276Y-57570989D01*
X53662220Y-57640147D01*
X53639800Y-57695385D01*
X53552187Y-57815974D01*
X53452104Y-58012393D01*
X53452103Y-58012396D01*
X53383985Y-58222047D01*
X53349500Y-58439778D01*
X53349500Y-60460221D01*
X53383985Y-60677952D01*
X53452103Y-60887603D01*
X53452104Y-60887606D01*
X53484151Y-60950500D01*
X53538943Y-61058034D01*
X53552187Y-61084025D01*
X53681752Y-61262358D01*
X53681756Y-61262363D01*
X53837636Y-61418243D01*
X53837641Y-61418247D01*
X53912484Y-61472623D01*
X54015978Y-61547815D01*
X54144375Y-61613237D01*
X54212393Y-61647895D01*
X54212396Y-61647896D01*
X54317221Y-61681955D01*
X54422049Y-61716015D01*
X54639778Y-61750500D01*
X54639779Y-61750500D01*
X54860221Y-61750500D01*
X54860222Y-61750500D01*
X55077951Y-61716015D01*
X55287606Y-61647895D01*
X55484022Y-61547815D01*
X55662365Y-61418242D01*
X55818242Y-61262365D01*
X55947815Y-61084022D01*
X56047895Y-60887606D01*
X56116015Y-60677951D01*
X56150500Y-60460222D01*
X56150500Y-58439778D01*
X56116015Y-58222049D01*
X56062048Y-58055952D01*
X56047896Y-58012396D01*
X56047895Y-58012393D01*
X56001749Y-57921828D01*
X55947815Y-57815978D01*
X55897848Y-57747204D01*
X55860200Y-57695385D01*
X55836720Y-57629579D01*
X55852546Y-57561525D01*
X55902651Y-57512830D01*
X55960518Y-57498500D01*
X58990435Y-57498500D01*
X59057474Y-57518185D01*
X59103229Y-57570989D01*
X59113173Y-57640147D01*
X59090753Y-57695385D01*
X59037715Y-57768386D01*
X58944781Y-57950776D01*
X58881522Y-58145465D01*
X58849500Y-58347648D01*
X58849500Y-58552351D01*
X58881522Y-58754534D01*
X58944781Y-58949223D01*
X59002372Y-59062250D01*
X59034235Y-59124785D01*
X59037715Y-59131613D01*
X59158028Y-59297213D01*
X59302786Y-59441971D01*
X59413502Y-59522409D01*
X59468390Y-59562287D01*
X59565669Y-59611853D01*
X59650776Y-59655218D01*
X59650778Y-59655218D01*
X59650781Y-59655220D01*
X59719241Y-59677464D01*
X59845465Y-59718477D01*
X59896133Y-59726502D01*
X60047648Y-59750500D01*
X60047649Y-59750500D01*
X60252351Y-59750500D01*
X60252352Y-59750500D01*
X60454534Y-59718477D01*
X60649219Y-59655220D01*
X60831610Y-59562287D01*
X60959067Y-59469685D01*
X60997213Y-59441971D01*
X60997215Y-59441968D01*
X60997219Y-59441966D01*
X61141966Y-59297219D01*
X61141968Y-59297215D01*
X61141971Y-59297213D01*
X61201802Y-59214861D01*
X61262287Y-59131610D01*
X61289515Y-59078171D01*
X61337490Y-59027376D01*
X61405311Y-59010581D01*
X61471446Y-59033118D01*
X61510484Y-59078171D01*
X61534235Y-59124785D01*
X61537715Y-59131613D01*
X61658028Y-59297213D01*
X61802786Y-59441971D01*
X61913502Y-59522409D01*
X61968390Y-59562287D01*
X62065669Y-59611853D01*
X62150776Y-59655218D01*
X62150778Y-59655218D01*
X62150781Y-59655220D01*
X62219241Y-59677464D01*
X62345465Y-59718477D01*
X62396133Y-59726502D01*
X62547648Y-59750500D01*
X62547649Y-59750500D01*
X62752351Y-59750500D01*
X62752352Y-59750500D01*
X62954534Y-59718477D01*
X63149219Y-59655220D01*
X63331610Y-59562287D01*
X63459067Y-59469685D01*
X63497213Y-59441971D01*
X63497215Y-59441968D01*
X63497219Y-59441966D01*
X63641966Y-59297219D01*
X63641968Y-59297215D01*
X63641971Y-59297213D01*
X63701802Y-59214861D01*
X63762287Y-59131610D01*
X63855220Y-58949219D01*
X63918477Y-58754534D01*
X63950500Y-58552352D01*
X63950500Y-58347648D01*
X63934199Y-58244727D01*
X63918477Y-58145465D01*
X63873227Y-58006202D01*
X63855220Y-57950781D01*
X63855218Y-57950778D01*
X63855218Y-57950776D01*
X63821503Y-57884607D01*
X63762287Y-57768390D01*
X63746892Y-57747200D01*
X63709247Y-57695385D01*
X63685767Y-57629578D01*
X63701593Y-57561525D01*
X63751699Y-57512830D01*
X63809565Y-57498500D01*
X66263530Y-57498500D01*
X66330569Y-57518185D01*
X66376324Y-57570989D01*
X66386268Y-57640147D01*
X66360004Y-57698190D01*
X66360897Y-57698839D01*
X66237715Y-57868386D01*
X66144781Y-58050776D01*
X66081522Y-58245465D01*
X66049500Y-58447648D01*
X66049500Y-58652351D01*
X66081522Y-58854534D01*
X66144781Y-59049223D01*
X66237715Y-59231613D01*
X66358028Y-59397213D01*
X66502786Y-59541971D01*
X66598974Y-59611854D01*
X66668390Y-59662287D01*
X66778669Y-59718477D01*
X66850776Y-59755218D01*
X66850778Y-59755218D01*
X66850781Y-59755220D01*
X66950769Y-59787708D01*
X67045465Y-59818477D01*
X67146557Y-59834488D01*
X67247648Y-59850500D01*
X67247649Y-59850500D01*
X67452351Y-59850500D01*
X67452352Y-59850500D01*
X67654534Y-59818477D01*
X67849219Y-59755220D01*
X68031610Y-59662287D01*
X68158021Y-59570445D01*
X68197213Y-59541971D01*
X68197215Y-59541968D01*
X68197219Y-59541966D01*
X68341966Y-59397219D01*
X68341968Y-59397215D01*
X68341971Y-59397213D01*
X68403674Y-59312284D01*
X68462287Y-59231610D01*
X68489515Y-59178171D01*
X68537490Y-59127376D01*
X68605311Y-59110581D01*
X68671446Y-59133118D01*
X68710484Y-59178171D01*
X68717513Y-59191966D01*
X68737715Y-59231613D01*
X68858028Y-59397213D01*
X69002786Y-59541971D01*
X69098974Y-59611854D01*
X69168390Y-59662287D01*
X69278669Y-59718477D01*
X69350776Y-59755218D01*
X69350778Y-59755218D01*
X69350781Y-59755220D01*
X69450769Y-59787708D01*
X69545465Y-59818477D01*
X69646557Y-59834488D01*
X69747648Y-59850500D01*
X69747649Y-59850500D01*
X69952351Y-59850500D01*
X69952352Y-59850500D01*
X70154534Y-59818477D01*
X70349219Y-59755220D01*
X70531610Y-59662287D01*
X70658021Y-59570445D01*
X70697213Y-59541971D01*
X70697215Y-59541968D01*
X70697219Y-59541966D01*
X70841966Y-59397219D01*
X70841968Y-59397215D01*
X70841971Y-59397213D01*
X70903674Y-59312284D01*
X70962287Y-59231610D01*
X71055220Y-59049219D01*
X71118477Y-58854534D01*
X71150500Y-58652352D01*
X71150500Y-58447648D01*
X71118477Y-58245465D01*
X71082786Y-58135621D01*
X71055220Y-58050781D01*
X71055218Y-58050778D01*
X71055218Y-58050776D01*
X71006880Y-57955909D01*
X70962287Y-57868390D01*
X70924205Y-57815974D01*
X70839103Y-57698839D01*
X70840010Y-57698179D01*
X70813612Y-57639291D01*
X70824037Y-57570203D01*
X70870159Y-57517720D01*
X70936470Y-57498500D01*
X76445277Y-57498500D01*
X76512316Y-57518185D01*
X76532958Y-57534819D01*
X76988516Y-57990377D01*
X77022001Y-58051700D01*
X77017017Y-58121392D01*
X76975145Y-58177325D01*
X76973720Y-58178376D01*
X76815939Y-58293010D01*
X76750133Y-58316490D01*
X76682079Y-58300664D01*
X76633384Y-58250558D01*
X76626875Y-58236033D01*
X76616296Y-58207669D01*
X76616295Y-58207667D01*
X76616293Y-58207664D01*
X76530047Y-58092455D01*
X76530044Y-58092452D01*
X76414835Y-58006206D01*
X76414828Y-58006202D01*
X76279982Y-57955908D01*
X76279983Y-57955908D01*
X76220383Y-57949501D01*
X76220381Y-57949500D01*
X76220373Y-57949500D01*
X76220364Y-57949500D01*
X74219629Y-57949500D01*
X74219623Y-57949501D01*
X74160016Y-57955908D01*
X74025171Y-58006202D01*
X74025164Y-58006206D01*
X73909955Y-58092452D01*
X73909952Y-58092455D01*
X73823706Y-58207664D01*
X73823702Y-58207671D01*
X73773408Y-58342517D01*
X73767001Y-58402116D01*
X73767000Y-58402135D01*
X73767000Y-60497870D01*
X73767001Y-60497876D01*
X73773408Y-60557483D01*
X73823702Y-60692328D01*
X73823706Y-60692335D01*
X73909952Y-60807544D01*
X73909955Y-60807547D01*
X74025164Y-60893793D01*
X74025171Y-60893797D01*
X74160017Y-60944091D01*
X74160016Y-60944091D01*
X74166425Y-60944780D01*
X74219627Y-60950500D01*
X76220372Y-60950499D01*
X76279983Y-60944091D01*
X76414831Y-60893796D01*
X76530046Y-60807546D01*
X76616296Y-60692331D01*
X76626872Y-60663974D01*
X76668740Y-60608041D01*
X76734204Y-60583622D01*
X76802477Y-60598472D01*
X76815940Y-60606988D01*
X76998723Y-60739788D01*
X77202429Y-60843582D01*
X77419871Y-60914234D01*
X77510000Y-60928509D01*
X77510000Y-59940747D01*
X77547708Y-59962518D01*
X77687591Y-60000000D01*
X77832409Y-60000000D01*
X77972292Y-59962518D01*
X78010000Y-59940747D01*
X78010000Y-60928508D01*
X78100128Y-60914234D01*
X78317570Y-60843582D01*
X78496132Y-60752599D01*
X78564801Y-60739703D01*
X78629541Y-60765979D01*
X78640108Y-60775403D01*
X81773994Y-63909289D01*
X81885494Y-64020789D01*
X81885495Y-64020790D01*
X82016597Y-64108390D01*
X82016604Y-64108394D01*
X82107227Y-64145931D01*
X82162285Y-64168737D01*
X82316935Y-64199499D01*
X82316938Y-64199500D01*
X82316940Y-64199500D01*
X82316941Y-64199500D01*
X86996129Y-64199500D01*
X87063168Y-64219185D01*
X87108923Y-64271989D01*
X87118867Y-64341147D01*
X87089842Y-64404703D01*
X87058129Y-64430887D01*
X86991287Y-64469477D01*
X86991282Y-64469481D01*
X86879478Y-64581286D01*
X85654842Y-65805921D01*
X85593519Y-65839406D01*
X85528848Y-65836173D01*
X85514534Y-65831522D01*
X85339995Y-65803878D01*
X85312352Y-65799500D01*
X85107648Y-65799500D01*
X85083329Y-65803351D01*
X84905465Y-65831522D01*
X84710776Y-65894781D01*
X84528386Y-65987715D01*
X84362786Y-66108028D01*
X84218028Y-66252786D01*
X84097715Y-66418385D01*
X84090883Y-66431795D01*
X84042909Y-66482591D01*
X83980398Y-66499500D01*
X82575418Y-66499500D01*
X82508379Y-66479815D01*
X82475100Y-66448385D01*
X82441971Y-66402787D01*
X82441967Y-66402782D01*
X82297213Y-66258028D01*
X82131613Y-66137715D01*
X82131612Y-66137714D01*
X82131610Y-66137713D01*
X82071898Y-66107288D01*
X81949223Y-66044781D01*
X81754534Y-65981522D01*
X81579299Y-65953768D01*
X81552352Y-65949500D01*
X81347648Y-65949500D01*
X81323329Y-65953351D01*
X81145465Y-65981522D01*
X80950776Y-66044781D01*
X80768386Y-66137715D01*
X80602786Y-66258028D01*
X80458028Y-66402786D01*
X80337715Y-66568386D01*
X80244781Y-66750776D01*
X80181522Y-66945465D01*
X80149954Y-67144780D01*
X80149500Y-67147648D01*
X80149500Y-67352352D01*
X80174470Y-67510001D01*
X80181930Y-67557102D01*
X80172976Y-67626395D01*
X80127980Y-67679847D01*
X80061228Y-67700487D01*
X80059457Y-67700500D01*
X75254499Y-67700500D01*
X75187460Y-67680815D01*
X75141705Y-67628011D01*
X75130499Y-67576500D01*
X75130499Y-66649998D01*
X75130498Y-66649981D01*
X75119999Y-66547203D01*
X75119998Y-66547200D01*
X75104192Y-66499500D01*
X75064814Y-66380666D01*
X74972712Y-66231344D01*
X74848656Y-66107288D01*
X74699334Y-66015186D01*
X74532797Y-65960001D01*
X74532795Y-65960000D01*
X74430010Y-65949500D01*
X73229998Y-65949500D01*
X73229981Y-65949501D01*
X73127203Y-65960000D01*
X73127200Y-65960001D01*
X72960668Y-66015185D01*
X72960663Y-66015187D01*
X72811342Y-66107289D01*
X72687289Y-66231342D01*
X72595187Y-66380663D01*
X72595185Y-66380668D01*
X72587858Y-66402781D01*
X72540001Y-66547203D01*
X72540001Y-66547204D01*
X72540000Y-66547204D01*
X72529500Y-66649983D01*
X72529500Y-67850001D01*
X72529501Y-67850018D01*
X72540000Y-67952796D01*
X72540001Y-67952799D01*
X72595185Y-68119331D01*
X72595187Y-68119336D01*
X72614101Y-68150000D01*
X72687288Y-68268656D01*
X72811344Y-68392712D01*
X72960666Y-68484814D01*
X73094505Y-68529164D01*
X73151949Y-68568936D01*
X73178772Y-68633451D01*
X73179500Y-68646869D01*
X73179500Y-78934070D01*
X73182570Y-78949501D01*
X73192522Y-78999534D01*
X73193922Y-79006569D01*
X73193922Y-79006571D01*
X73204497Y-79059736D01*
X73204499Y-79059744D01*
X73248348Y-79165606D01*
X73253535Y-79178127D01*
X73324723Y-79284669D01*
X73324726Y-79284673D01*
X73324727Y-79284674D01*
X75112862Y-81072808D01*
X75146347Y-81134131D01*
X75147654Y-81179886D01*
X75119500Y-81357647D01*
X75119500Y-81562351D01*
X75151522Y-81764534D01*
X75214781Y-81959223D01*
X75273518Y-82074499D01*
X75304770Y-82135835D01*
X75307715Y-82141613D01*
X75428028Y-82307213D01*
X75572786Y-82451971D01*
X75690805Y-82537715D01*
X75738390Y-82572287D01*
X75829840Y-82618883D01*
X75831080Y-82619515D01*
X75881876Y-82667490D01*
X75898671Y-82735311D01*
X75876134Y-82801446D01*
X75831080Y-82840485D01*
X75738386Y-82887715D01*
X75572786Y-83008028D01*
X75428028Y-83152786D01*
X75307715Y-83318386D01*
X75214781Y-83500776D01*
X75151522Y-83695465D01*
X75119500Y-83897648D01*
X75119500Y-84102351D01*
X75151522Y-84304534D01*
X75214781Y-84499223D01*
X75257444Y-84582952D01*
X75303634Y-84673605D01*
X75307715Y-84681613D01*
X75428028Y-84847213D01*
X75572786Y-84991971D01*
X75727749Y-85104556D01*
X75738390Y-85112287D01*
X75817020Y-85152351D01*
X75831080Y-85159515D01*
X75881876Y-85207490D01*
X75898671Y-85275311D01*
X75876134Y-85341446D01*
X75831080Y-85380485D01*
X75738386Y-85427715D01*
X75572786Y-85548028D01*
X75428028Y-85692786D01*
X75307715Y-85858386D01*
X75214781Y-86040776D01*
X75151522Y-86235465D01*
X75119500Y-86437648D01*
X75119500Y-86642351D01*
X75151522Y-86844534D01*
X75214781Y-87039223D01*
X75307715Y-87221613D01*
X75428028Y-87387213D01*
X75572784Y-87531969D01*
X75625852Y-87570524D01*
X75718385Y-87637753D01*
X75761051Y-87693081D01*
X75769500Y-87738070D01*
X75769500Y-88349191D01*
X75749815Y-88416230D01*
X75733181Y-88436872D01*
X74106871Y-90063181D01*
X74045548Y-90096666D01*
X74019190Y-90099500D01*
X73089998Y-90099500D01*
X73089980Y-90099501D01*
X72987203Y-90110000D01*
X72987200Y-90110001D01*
X72820668Y-90165185D01*
X72820663Y-90165187D01*
X72671342Y-90257289D01*
X72547289Y-90381342D01*
X72455187Y-90530663D01*
X72455185Y-90530668D01*
X72443917Y-90564674D01*
X72400001Y-90697203D01*
X72400001Y-90697204D01*
X72400000Y-90697204D01*
X72389500Y-90799983D01*
X72389500Y-92000001D01*
X72389501Y-92000018D01*
X72400000Y-92102796D01*
X72400001Y-92102799D01*
X72455185Y-92269331D01*
X72455187Y-92269336D01*
X72475908Y-92302930D01*
X72547288Y-92418656D01*
X72671344Y-92542712D01*
X72820666Y-92634814D01*
X72987203Y-92689999D01*
X73089991Y-92700500D01*
X74019191Y-92700499D01*
X74048637Y-92709145D01*
X74078618Y-92715667D01*
X74083631Y-92719420D01*
X74086230Y-92720183D01*
X74106867Y-92736813D01*
X74257875Y-92887820D01*
X74291359Y-92949142D01*
X74286375Y-93018833D01*
X74244504Y-93074767D01*
X74179039Y-93099184D01*
X74170193Y-93099500D01*
X72070808Y-93099500D01*
X72003769Y-93079815D01*
X71983127Y-93063181D01*
X69486819Y-90566873D01*
X69453334Y-90505550D01*
X69450500Y-90479192D01*
X69450500Y-87738070D01*
X69470185Y-87671031D01*
X69501613Y-87637753D01*
X69647219Y-87531966D01*
X69791966Y-87387219D01*
X69791968Y-87387215D01*
X69791971Y-87387213D01*
X69868758Y-87281523D01*
X69912287Y-87221610D01*
X70005220Y-87039219D01*
X70068477Y-86844534D01*
X70100500Y-86642352D01*
X70100500Y-86437648D01*
X70071606Y-86255220D01*
X70068477Y-86235465D01*
X70007451Y-86047648D01*
X70005220Y-86040781D01*
X70005218Y-86040778D01*
X70005218Y-86040776D01*
X69932068Y-85897213D01*
X69912287Y-85858390D01*
X69899362Y-85840600D01*
X69791971Y-85692786D01*
X69647213Y-85548028D01*
X69481614Y-85427715D01*
X69475006Y-85424348D01*
X69388917Y-85380483D01*
X69338123Y-85332511D01*
X69321328Y-85264690D01*
X69343865Y-85198555D01*
X69388917Y-85159516D01*
X69481610Y-85112287D01*
X69502770Y-85096913D01*
X69647213Y-84991971D01*
X69647215Y-84991968D01*
X69647219Y-84991966D01*
X69791966Y-84847219D01*
X69791968Y-84847215D01*
X69791971Y-84847213D01*
X69856097Y-84758949D01*
X69912287Y-84681610D01*
X70005220Y-84499219D01*
X70068477Y-84304534D01*
X70100500Y-84102352D01*
X70100500Y-83897648D01*
X70086980Y-83812287D01*
X70072345Y-83719886D01*
X70081300Y-83650593D01*
X70107134Y-83612810D01*
X71400276Y-82319670D01*
X71471465Y-82213127D01*
X71520501Y-82094744D01*
X71522738Y-82083498D01*
X71535690Y-82018386D01*
X71545500Y-81969071D01*
X71545500Y-68498070D01*
X71565185Y-68431031D01*
X71596613Y-68397753D01*
X71742219Y-68291966D01*
X71886966Y-68147219D01*
X71886968Y-68147215D01*
X71886971Y-68147213D01*
X71939732Y-68074590D01*
X72007287Y-67981610D01*
X72100220Y-67799219D01*
X72163477Y-67604534D01*
X72195500Y-67402352D01*
X72195500Y-67197648D01*
X72176495Y-67077654D01*
X72163477Y-66995465D01*
X72107436Y-66822990D01*
X72100220Y-66800781D01*
X72100218Y-66800778D01*
X72100218Y-66800776D01*
X72049124Y-66700500D01*
X72007287Y-66618390D01*
X71990092Y-66594723D01*
X71886971Y-66452786D01*
X71742213Y-66308028D01*
X71576613Y-66187715D01*
X71576612Y-66187714D01*
X71576610Y-66187713D01*
X71504196Y-66150816D01*
X71394223Y-66094781D01*
X71199534Y-66031522D01*
X71024995Y-66003878D01*
X70997352Y-65999500D01*
X70792648Y-65999500D01*
X70765343Y-66003824D01*
X70614888Y-66027654D01*
X70545594Y-66018699D01*
X70507809Y-65992862D01*
X70109674Y-65594727D01*
X70109670Y-65594724D01*
X70003128Y-65523536D01*
X69971067Y-65510256D01*
X69884745Y-65474500D01*
X69884739Y-65474498D01*
X69759072Y-65449501D01*
X69759070Y-65449501D01*
X62735930Y-65449501D01*
X62735928Y-65449501D01*
X62610260Y-65474498D01*
X62610254Y-65474500D01*
X62491869Y-65523536D01*
X62385334Y-65594721D01*
X62380620Y-65598590D01*
X62379410Y-65597116D01*
X62325843Y-65626353D01*
X62280112Y-65627654D01*
X62129656Y-65603824D01*
X62102352Y-65599500D01*
X61897648Y-65599500D01*
X61873329Y-65603351D01*
X61695465Y-65631522D01*
X61500776Y-65694781D01*
X61318386Y-65787715D01*
X61152786Y-65908028D01*
X61008028Y-66052786D01*
X60887715Y-66218386D01*
X60794781Y-66400776D01*
X60731522Y-66595465D01*
X60699500Y-66797648D01*
X60699500Y-67002351D01*
X60731522Y-67204534D01*
X60794781Y-67399223D01*
X60847550Y-67502786D01*
X60885109Y-67576500D01*
X60887715Y-67581613D01*
X61008028Y-67747213D01*
X61152786Y-67891971D01*
X61318388Y-68012286D01*
X61371828Y-68039516D01*
X61422623Y-68087490D01*
X61439418Y-68155312D01*
X61416880Y-68221446D01*
X61371828Y-68260484D01*
X61318388Y-68287713D01*
X61152786Y-68408028D01*
X61008028Y-68552786D01*
X60887715Y-68718386D01*
X60794781Y-68900776D01*
X60731522Y-69095465D01*
X60699500Y-69297648D01*
X60699500Y-69502351D01*
X60731522Y-69704534D01*
X60794781Y-69899223D01*
X60855636Y-70018656D01*
X60885110Y-70076502D01*
X60887715Y-70081613D01*
X61008028Y-70247213D01*
X61008034Y-70247219D01*
X61152781Y-70391966D01*
X61318390Y-70512287D01*
X61331793Y-70519116D01*
X61382589Y-70567088D01*
X61399500Y-70629601D01*
X61399500Y-74101928D01*
X61379815Y-74168967D01*
X61348385Y-74202246D01*
X61202787Y-74308028D01*
X61202782Y-74308032D01*
X61058028Y-74452786D01*
X60937715Y-74618386D01*
X60844781Y-74800776D01*
X60781522Y-74995465D01*
X60749500Y-75197648D01*
X60749500Y-75402351D01*
X60781522Y-75604534D01*
X60844781Y-75799223D01*
X60886716Y-75881523D01*
X60929114Y-75964734D01*
X60937715Y-75981613D01*
X61058028Y-76147213D01*
X61202786Y-76291971D01*
X61357749Y-76404556D01*
X61368390Y-76412287D01*
X61433861Y-76445646D01*
X61461080Y-76459515D01*
X61511876Y-76507490D01*
X61528671Y-76575311D01*
X61506134Y-76641446D01*
X61461080Y-76680485D01*
X61368386Y-76727715D01*
X61202786Y-76848028D01*
X61058028Y-76992786D01*
X60937715Y-77158386D01*
X60844781Y-77340776D01*
X60781522Y-77535465D01*
X60749500Y-77737648D01*
X60749500Y-77942351D01*
X60781522Y-78144534D01*
X60844781Y-78339223D01*
X60904889Y-78457190D01*
X60923796Y-78494297D01*
X60937715Y-78521613D01*
X61058028Y-78687213D01*
X61202786Y-78831971D01*
X61354660Y-78942312D01*
X61368390Y-78952287D01*
X61474924Y-79006569D01*
X61550776Y-79045218D01*
X61550778Y-79045218D01*
X61550781Y-79045220D01*
X61605287Y-79062930D01*
X61745465Y-79108477D01*
X61846557Y-79124488D01*
X61947648Y-79140500D01*
X61947649Y-79140500D01*
X62152351Y-79140500D01*
X62152352Y-79140500D01*
X62330112Y-79112345D01*
X62399405Y-79121299D01*
X62437191Y-79147137D01*
X63363181Y-80073126D01*
X63396666Y-80134449D01*
X63399500Y-80160807D01*
X63399500Y-82610953D01*
X63379815Y-82677992D01*
X63327011Y-82723747D01*
X63257853Y-82733691D01*
X63194297Y-82704666D01*
X63187819Y-82698634D01*
X63147213Y-82658028D01*
X62981613Y-82537715D01*
X62981612Y-82537714D01*
X62981610Y-82537713D01*
X62886987Y-82489500D01*
X62799223Y-82444781D01*
X62604534Y-82381522D01*
X62429995Y-82353878D01*
X62402352Y-82349500D01*
X62197648Y-82349500D01*
X62173329Y-82353351D01*
X61995465Y-82381522D01*
X61800776Y-82444781D01*
X61618386Y-82537715D01*
X61452786Y-82658028D01*
X61308028Y-82802786D01*
X61187715Y-82968386D01*
X61094781Y-83150776D01*
X61031522Y-83345465D01*
X61008262Y-83492328D01*
X60999500Y-83547648D01*
X60999500Y-83752352D01*
X61003508Y-83777654D01*
X61027654Y-83930111D01*
X61018699Y-83999405D01*
X60992862Y-84037190D01*
X60666871Y-84363182D01*
X60605550Y-84396666D01*
X60579192Y-84399500D01*
X56898071Y-84399500D01*
X56831032Y-84379815D01*
X56797754Y-84348386D01*
X56691966Y-84202781D01*
X56547219Y-84058034D01*
X56547217Y-84058032D01*
X56547212Y-84058028D01*
X56401615Y-83952246D01*
X56358949Y-83896916D01*
X56350500Y-83851928D01*
X56350500Y-80935928D01*
X56325502Y-80810261D01*
X56325501Y-80810260D01*
X56325501Y-80810256D01*
X56276465Y-80691873D01*
X56256496Y-80661987D01*
X56256496Y-80661986D01*
X56205275Y-80585328D01*
X56205272Y-80585325D01*
X55268294Y-79648348D01*
X55234809Y-79587025D01*
X55238043Y-79522351D01*
X55264722Y-79440245D01*
X55300500Y-79214354D01*
X55300500Y-78985646D01*
X55264722Y-78759755D01*
X55264721Y-78759751D01*
X55264721Y-78759750D01*
X55194049Y-78542244D01*
X55163110Y-78481523D01*
X55090217Y-78338462D01*
X54955786Y-78153434D01*
X54794066Y-77991714D01*
X54709559Y-77930316D01*
X54666896Y-77874988D01*
X54660917Y-77805375D01*
X54693523Y-77743580D01*
X54709556Y-77729685D01*
X54794066Y-77668286D01*
X54955786Y-77506566D01*
X55090217Y-77321538D01*
X55194048Y-77117758D01*
X55230143Y-77006670D01*
X55264721Y-76900249D01*
X55264721Y-76900248D01*
X55264722Y-76900245D01*
X55300500Y-76674354D01*
X55300500Y-76445646D01*
X55264722Y-76219755D01*
X55238043Y-76137648D01*
X55236049Y-76067809D01*
X55268294Y-76011651D01*
X55429480Y-75850466D01*
X55606277Y-75673669D01*
X55677465Y-75567127D01*
X55726501Y-75448744D01*
X55728746Y-75437456D01*
X55751500Y-75323069D01*
X55751500Y-72702431D01*
X55751500Y-72702428D01*
X55726502Y-72576761D01*
X55726501Y-72576760D01*
X55726501Y-72576756D01*
X55677465Y-72458373D01*
X55677464Y-72458372D01*
X55677461Y-72458366D01*
X55606277Y-72351832D01*
X55562831Y-72308386D01*
X55515669Y-72261224D01*
X53567626Y-70313181D01*
X53534141Y-70251858D01*
X53539125Y-70182166D01*
X53580997Y-70126233D01*
X53646461Y-70101816D01*
X53655307Y-70101500D01*
X54663071Y-70101500D01*
X54763060Y-70081610D01*
X54788744Y-70076501D01*
X54907127Y-70027465D01*
X54936208Y-70008034D01*
X55013669Y-69956277D01*
X55312809Y-69657135D01*
X55374131Y-69623652D01*
X55419887Y-69622345D01*
X55597648Y-69650500D01*
X55597649Y-69650500D01*
X55802351Y-69650500D01*
X55802352Y-69650500D01*
X56004534Y-69618477D01*
X56199219Y-69555220D01*
X56381610Y-69462287D01*
X56529439Y-69354884D01*
X56547213Y-69341971D01*
X56547215Y-69341968D01*
X56547219Y-69341966D01*
X56691966Y-69197219D01*
X56691968Y-69197215D01*
X56691971Y-69197213D01*
X56765894Y-69095465D01*
X56812287Y-69031610D01*
X56905220Y-68849219D01*
X56968477Y-68654534D01*
X57000500Y-68452352D01*
X57000500Y-68247648D01*
X56992952Y-68199991D01*
X56968477Y-68045465D01*
X56905218Y-67850776D01*
X56852449Y-67747213D01*
X56812287Y-67668390D01*
X56781776Y-67626395D01*
X56691971Y-67502786D01*
X56547213Y-67358028D01*
X56381613Y-67237715D01*
X56381612Y-67237714D01*
X56381610Y-67237713D01*
X56302978Y-67197648D01*
X56199223Y-67144781D01*
X56004534Y-67081522D01*
X55829995Y-67053878D01*
X55802352Y-67049500D01*
X55597648Y-67049500D01*
X55573329Y-67053351D01*
X55395465Y-67081522D01*
X55200776Y-67144781D01*
X55018386Y-67237715D01*
X54852786Y-67358028D01*
X54708028Y-67502786D01*
X54587715Y-67668386D01*
X54540485Y-67761080D01*
X54492510Y-67811876D01*
X54424689Y-67828671D01*
X54358554Y-67806134D01*
X54319515Y-67761080D01*
X54312449Y-67747213D01*
X54272287Y-67668390D01*
X54241776Y-67626395D01*
X54151971Y-67502786D01*
X54007213Y-67358028D01*
X53841613Y-67237715D01*
X53841612Y-67237714D01*
X53841610Y-67237713D01*
X53762978Y-67197648D01*
X53659223Y-67144781D01*
X53464534Y-67081522D01*
X53289995Y-67053878D01*
X53262352Y-67049500D01*
X53057648Y-67049500D01*
X52879886Y-67077654D01*
X52810593Y-67068699D01*
X52772808Y-67042862D01*
X51936819Y-66206873D01*
X51903334Y-66145550D01*
X51900500Y-66119192D01*
X51900500Y-61867534D01*
X51920185Y-61800495D01*
X51972989Y-61754740D01*
X52011897Y-61744176D01*
X52052797Y-61739999D01*
X52219334Y-61684814D01*
X52368656Y-61592712D01*
X52492712Y-61468656D01*
X52584814Y-61319334D01*
X52639999Y-61152797D01*
X52650500Y-61050009D01*
X52650499Y-57849992D01*
X52647024Y-57815978D01*
X52639999Y-57747203D01*
X52639998Y-57747200D01*
X52611601Y-57661504D01*
X52609199Y-57591676D01*
X52644931Y-57531634D01*
X52707451Y-57500441D01*
X52729307Y-57498500D01*
X53539482Y-57498500D01*
X53606521Y-57518185D01*
G37*
%TD.AperFunction*%
%TA.AperFunction,Conductor*%
G36*
X62851477Y-76432566D02*
G01*
X62862044Y-76441990D01*
X67492862Y-81072808D01*
X67526347Y-81134131D01*
X67527654Y-81179886D01*
X67499500Y-81357647D01*
X67499500Y-81562351D01*
X67531522Y-81764534D01*
X67594781Y-81959223D01*
X67653518Y-82074499D01*
X67684770Y-82135835D01*
X67687715Y-82141613D01*
X67808028Y-82307213D01*
X67952786Y-82451971D01*
X68070805Y-82537715D01*
X68118390Y-82572287D01*
X68209840Y-82618883D01*
X68211080Y-82619515D01*
X68261876Y-82667490D01*
X68278671Y-82735311D01*
X68256134Y-82801446D01*
X68211080Y-82840485D01*
X68118386Y-82887715D01*
X67952786Y-83008028D01*
X67808028Y-83152786D01*
X67687715Y-83318386D01*
X67594781Y-83500776D01*
X67531522Y-83695465D01*
X67499500Y-83897648D01*
X67499500Y-84102351D01*
X67527654Y-84280111D01*
X67518699Y-84349405D01*
X67492862Y-84387190D01*
X60366873Y-91513181D01*
X60305550Y-91546666D01*
X60279192Y-91549500D01*
X58848071Y-91549500D01*
X58781032Y-91529815D01*
X58747754Y-91498386D01*
X58641966Y-91352781D01*
X58497219Y-91208034D01*
X58497213Y-91208028D01*
X58331613Y-91087715D01*
X58331612Y-91087714D01*
X58331610Y-91087713D01*
X58248694Y-91045465D01*
X58149223Y-90994781D01*
X57954534Y-90931522D01*
X57779995Y-90903878D01*
X57752352Y-90899500D01*
X57547648Y-90899500D01*
X57523329Y-90903351D01*
X57345465Y-90931522D01*
X57150776Y-90994781D01*
X56968386Y-91087715D01*
X56802786Y-91208028D01*
X56658028Y-91352786D01*
X56537715Y-91518386D01*
X56444781Y-91700776D01*
X56381522Y-91895465D01*
X56349500Y-92097648D01*
X56349500Y-92180192D01*
X56329815Y-92247231D01*
X56277011Y-92292986D01*
X56207853Y-92302930D01*
X56144297Y-92273905D01*
X56137819Y-92267873D01*
X53846819Y-89976873D01*
X53813334Y-89915550D01*
X53810500Y-89889192D01*
X53810500Y-86248070D01*
X53830185Y-86181031D01*
X53861613Y-86147753D01*
X54007219Y-86041966D01*
X54151966Y-85897219D01*
X54151968Y-85897215D01*
X54151971Y-85897213D01*
X54272284Y-85731614D01*
X54272285Y-85731613D01*
X54272287Y-85731610D01*
X54319516Y-85638917D01*
X54367489Y-85588123D01*
X54435310Y-85571328D01*
X54501445Y-85593865D01*
X54540485Y-85638919D01*
X54587715Y-85731614D01*
X54708028Y-85897213D01*
X54852786Y-86041971D01*
X54975438Y-86131081D01*
X55018390Y-86162287D01*
X55134607Y-86221503D01*
X55200776Y-86255218D01*
X55200778Y-86255218D01*
X55200781Y-86255220D01*
X55286882Y-86283196D01*
X55395465Y-86318477D01*
X55491383Y-86333669D01*
X55597648Y-86350500D01*
X55597649Y-86350500D01*
X55802351Y-86350500D01*
X55802352Y-86350500D01*
X56004534Y-86318477D01*
X56199219Y-86255220D01*
X56381610Y-86162287D01*
X56474590Y-86094732D01*
X56547213Y-86041971D01*
X56547215Y-86041968D01*
X56547219Y-86041966D01*
X56691966Y-85897219D01*
X56797753Y-85751613D01*
X56853082Y-85708949D01*
X56898071Y-85700500D01*
X60909298Y-85700500D01*
X60976337Y-85720185D01*
X61022092Y-85772989D01*
X61032036Y-85842147D01*
X61031771Y-85843898D01*
X60999500Y-86047648D01*
X60999500Y-86252351D01*
X61031522Y-86454534D01*
X61094781Y-86649223D01*
X61187715Y-86831613D01*
X61308028Y-86997213D01*
X61452786Y-87141971D01*
X61575800Y-87231344D01*
X61618390Y-87262287D01*
X61734607Y-87321503D01*
X61800776Y-87355218D01*
X61800778Y-87355218D01*
X61800781Y-87355220D01*
X61879093Y-87380665D01*
X61995465Y-87418477D01*
X62096557Y-87434488D01*
X62197648Y-87450500D01*
X62197649Y-87450500D01*
X62402351Y-87450500D01*
X62402352Y-87450500D01*
X62604534Y-87418477D01*
X62799219Y-87355220D01*
X62981610Y-87262287D01*
X63074590Y-87194732D01*
X63147213Y-87141971D01*
X63147215Y-87141968D01*
X63147219Y-87141966D01*
X63291966Y-86997219D01*
X63291968Y-86997215D01*
X63291971Y-86997213D01*
X63350940Y-86916048D01*
X63412287Y-86831610D01*
X63502872Y-86653827D01*
X63505218Y-86649223D01*
X63505218Y-86649222D01*
X63505220Y-86649219D01*
X63568477Y-86454534D01*
X63600500Y-86252352D01*
X63600500Y-86047648D01*
X63572345Y-85869887D01*
X63581300Y-85800594D01*
X63607137Y-85762808D01*
X64075781Y-85294165D01*
X64555277Y-84814669D01*
X64626465Y-84708127D01*
X64675501Y-84589743D01*
X64683682Y-84548613D01*
X64700500Y-84464071D01*
X64700500Y-79775928D01*
X64675502Y-79650261D01*
X64675501Y-79650260D01*
X64675501Y-79650256D01*
X64632814Y-79547200D01*
X64626466Y-79531875D01*
X64626461Y-79531866D01*
X64555277Y-79425332D01*
X64510608Y-79380663D01*
X64464669Y-79334724D01*
X63925945Y-78796000D01*
X63357137Y-78227191D01*
X63323652Y-78165868D01*
X63322345Y-78120112D01*
X63332163Y-78058124D01*
X63350500Y-77942352D01*
X63350500Y-77737648D01*
X63339514Y-77668284D01*
X63318477Y-77535465D01*
X63282584Y-77425000D01*
X63255220Y-77340781D01*
X63255218Y-77340778D01*
X63255218Y-77340776D01*
X63210163Y-77252352D01*
X63162287Y-77158390D01*
X63140999Y-77129089D01*
X63041971Y-76992786D01*
X62897213Y-76848028D01*
X62731614Y-76727715D01*
X62656642Y-76689515D01*
X62638917Y-76680483D01*
X62588123Y-76632511D01*
X62571328Y-76564690D01*
X62593865Y-76498555D01*
X62638919Y-76459516D01*
X62718068Y-76419187D01*
X62786737Y-76406290D01*
X62851477Y-76432566D01*
G37*
%TD.AperFunction*%
%TA.AperFunction,Conductor*%
G36*
X70199954Y-79790465D02*
G01*
X70238810Y-79848533D01*
X70244500Y-79885665D01*
X70244500Y-80915064D01*
X70224815Y-80982103D01*
X70172011Y-81027858D01*
X70102853Y-81037802D01*
X70039297Y-81008777D01*
X70007715Y-80964977D01*
X70007432Y-80965122D01*
X70006498Y-80963290D01*
X70005936Y-80962510D01*
X70005219Y-80960779D01*
X70002387Y-80955220D01*
X69912287Y-80778390D01*
X69897234Y-80757671D01*
X69791971Y-80612786D01*
X69647217Y-80468032D01*
X69647212Y-80468028D01*
X69553051Y-80399616D01*
X69510385Y-80344286D01*
X69504406Y-80274673D01*
X69537012Y-80212878D01*
X69586933Y-80181592D01*
X69669117Y-80154359D01*
X69669124Y-80154356D01*
X69818345Y-80062315D01*
X69942315Y-79938345D01*
X70014961Y-79820568D01*
X70066909Y-79773844D01*
X70135872Y-79762621D01*
X70199954Y-79790465D01*
G37*
%TD.AperFunction*%
%TA.AperFunction,Conductor*%
G36*
X69642227Y-67825389D02*
G01*
X69654808Y-67824850D01*
X69674673Y-67836445D01*
X69696445Y-67843865D01*
X69705719Y-67854568D01*
X69715150Y-67860073D01*
X69735483Y-67888916D01*
X69737040Y-67891971D01*
X69782715Y-67981614D01*
X69903028Y-68147213D01*
X70047784Y-68291969D01*
X70116863Y-68342157D01*
X70193385Y-68397753D01*
X70236051Y-68453081D01*
X70244500Y-68498070D01*
X70244500Y-77954334D01*
X70224815Y-78021373D01*
X70172011Y-78067128D01*
X70102853Y-78077072D01*
X70039297Y-78048047D01*
X70014961Y-78019431D01*
X69942315Y-77901654D01*
X69818345Y-77777684D01*
X69669124Y-77685643D01*
X69669119Y-77685641D01*
X69502697Y-77630494D01*
X69502690Y-77630493D01*
X69399986Y-77620000D01*
X69050000Y-77620000D01*
X69050000Y-78604314D01*
X69045606Y-78599920D01*
X68954394Y-78547259D01*
X68852661Y-78520000D01*
X68747339Y-78520000D01*
X68645606Y-78547259D01*
X68554394Y-78599920D01*
X68550000Y-78604314D01*
X68550000Y-77620000D01*
X68200028Y-77620000D01*
X68200012Y-77620001D01*
X68097302Y-77630494D01*
X67930880Y-77685641D01*
X67930875Y-77685643D01*
X67781654Y-77777684D01*
X67657684Y-77901654D01*
X67565643Y-78050875D01*
X67565641Y-78050880D01*
X67510494Y-78217302D01*
X67510493Y-78217309D01*
X67500000Y-78320013D01*
X67500000Y-78670000D01*
X68484314Y-78670000D01*
X68479920Y-78674394D01*
X68427259Y-78765606D01*
X68400000Y-78867339D01*
X68400000Y-78972661D01*
X68427259Y-79074394D01*
X68479920Y-79165606D01*
X68484314Y-79170000D01*
X67481308Y-79170000D01*
X67414269Y-79150315D01*
X67393627Y-79133681D01*
X63936819Y-75676873D01*
X63903334Y-75615550D01*
X63900500Y-75589192D01*
X63900500Y-73574071D01*
X64790000Y-73574071D01*
X64790000Y-73825928D01*
X64829397Y-74074669D01*
X64907219Y-74314184D01*
X65021557Y-74538583D01*
X65095748Y-74640697D01*
X65095748Y-74640698D01*
X65866212Y-73870233D01*
X65877482Y-73912292D01*
X65949890Y-74037708D01*
X66052292Y-74140110D01*
X66177708Y-74212518D01*
X66219765Y-74223787D01*
X65449300Y-74994250D01*
X65551416Y-75068442D01*
X65775815Y-75182780D01*
X66015330Y-75260602D01*
X66264072Y-75300000D01*
X66515928Y-75300000D01*
X66764669Y-75260602D01*
X67004184Y-75182780D01*
X67228575Y-75068446D01*
X67228581Y-75068442D01*
X67330697Y-74994250D01*
X67330698Y-74994250D01*
X66560234Y-74223787D01*
X66602292Y-74212518D01*
X66727708Y-74140110D01*
X66830110Y-74037708D01*
X66902518Y-73912292D01*
X66913787Y-73870235D01*
X67684250Y-74640698D01*
X67684250Y-74640697D01*
X67758442Y-74538581D01*
X67758446Y-74538575D01*
X67872780Y-74314184D01*
X67950602Y-74074669D01*
X67990000Y-73825928D01*
X67990000Y-73574071D01*
X67950602Y-73325330D01*
X67872780Y-73085815D01*
X67758442Y-72861416D01*
X67684250Y-72759301D01*
X67684250Y-72759300D01*
X66913787Y-73529764D01*
X66902518Y-73487708D01*
X66830110Y-73362292D01*
X66727708Y-73259890D01*
X66602292Y-73187482D01*
X66560232Y-73176212D01*
X67330698Y-72405748D01*
X67228583Y-72331557D01*
X67004184Y-72217219D01*
X66764669Y-72139397D01*
X66515928Y-72100000D01*
X66264072Y-72100000D01*
X66015330Y-72139397D01*
X65775815Y-72217219D01*
X65551413Y-72331559D01*
X65449301Y-72405747D01*
X65449300Y-72405748D01*
X66219765Y-73176212D01*
X66177708Y-73187482D01*
X66052292Y-73259890D01*
X65949890Y-73362292D01*
X65877482Y-73487708D01*
X65866212Y-73529765D01*
X65095748Y-72759300D01*
X65095747Y-72759301D01*
X65021559Y-72861413D01*
X64907219Y-73085815D01*
X64829397Y-73325330D01*
X64790000Y-73574071D01*
X63900500Y-73574071D01*
X63900500Y-69520808D01*
X63920185Y-69453769D01*
X63936819Y-69433127D01*
X65383127Y-67986819D01*
X65444450Y-67953334D01*
X65470808Y-67950500D01*
X67156929Y-67950500D01*
X67223968Y-67970185D01*
X67257245Y-68001613D01*
X67326696Y-68097203D01*
X67363034Y-68147219D01*
X67507786Y-68291971D01*
X67613090Y-68368477D01*
X67673390Y-68412287D01*
X67752022Y-68452352D01*
X67855776Y-68505218D01*
X67855778Y-68505218D01*
X67855781Y-68505220D01*
X67929470Y-68529163D01*
X68050465Y-68568477D01*
X68151557Y-68584488D01*
X68252648Y-68600500D01*
X68252649Y-68600500D01*
X68457351Y-68600500D01*
X68457352Y-68600500D01*
X68659534Y-68568477D01*
X68854219Y-68505220D01*
X69036610Y-68412287D01*
X69129590Y-68344732D01*
X69202213Y-68291971D01*
X69202215Y-68291968D01*
X69202219Y-68291966D01*
X69346966Y-68147219D01*
X69346968Y-68147215D01*
X69346971Y-68147213D01*
X69467284Y-67981614D01*
X69467285Y-67981613D01*
X69467287Y-67981610D01*
X69514516Y-67888917D01*
X69523161Y-67879764D01*
X69527896Y-67868099D01*
X69546693Y-67854847D01*
X69562489Y-67838123D01*
X69574711Y-67835096D01*
X69585002Y-67827842D01*
X69607982Y-67826856D01*
X69630310Y-67821328D01*
X69642227Y-67825389D01*
G37*
%TD.AperFunction*%
%TA.AperFunction,Conductor*%
G36*
X129442539Y-52520185D02*
G01*
X129488294Y-52572989D01*
X129499500Y-52624500D01*
X129499500Y-99375500D01*
X129479815Y-99442539D01*
X129427011Y-99488294D01*
X129375500Y-99499500D01*
X11624500Y-99499500D01*
X11557461Y-99479815D01*
X11511706Y-99427011D01*
X11500500Y-99375500D01*
X11500500Y-90683104D01*
X11520185Y-90616065D01*
X11572989Y-90570310D01*
X11642147Y-90560366D01*
X11705703Y-90589391D01*
X11727599Y-90614209D01*
X11794723Y-90714669D01*
X11794726Y-90714672D01*
X11794727Y-90714673D01*
X11794727Y-90714674D01*
X12694724Y-91614669D01*
X12767796Y-91687741D01*
X12785332Y-91705277D01*
X12891866Y-91776461D01*
X12891875Y-91776466D01*
X12918692Y-91787574D01*
X13010256Y-91825501D01*
X13010260Y-91825501D01*
X13010261Y-91825502D01*
X13135928Y-91850500D01*
X13135931Y-91850500D01*
X16414071Y-91850500D01*
X16513029Y-91830815D01*
X16539744Y-91825501D01*
X16658127Y-91776465D01*
X16764669Y-91705276D01*
X16764668Y-91705276D01*
X16764672Y-91705274D01*
X16764672Y-91705273D01*
X16855273Y-91614672D01*
X16855276Y-91614669D01*
X16926465Y-91508127D01*
X16927379Y-91505919D01*
X16928707Y-91503931D01*
X16929338Y-91502752D01*
X16929454Y-91502814D01*
X16954260Y-91465684D01*
X17855277Y-90564669D01*
X17926466Y-90458126D01*
X17975501Y-90339743D01*
X17991903Y-90257288D01*
X18000500Y-90214071D01*
X18000500Y-89798070D01*
X18020185Y-89731031D01*
X18051613Y-89697753D01*
X18183585Y-89601871D01*
X18197215Y-89591969D01*
X18197215Y-89591968D01*
X18197219Y-89591966D01*
X18341966Y-89447219D01*
X18341968Y-89447215D01*
X18341971Y-89447213D01*
X18411426Y-89351615D01*
X18462287Y-89281610D01*
X18555220Y-89099219D01*
X18618477Y-88904534D01*
X18650500Y-88702352D01*
X18650500Y-88497648D01*
X18633909Y-88392898D01*
X18642864Y-88323605D01*
X18687860Y-88270153D01*
X18754611Y-88249513D01*
X18756382Y-88249500D01*
X19195699Y-88249500D01*
X19262738Y-88269185D01*
X19308493Y-88321989D01*
X19318437Y-88391147D01*
X19318180Y-88392841D01*
X19313149Y-88424612D01*
X19309500Y-88447649D01*
X19309500Y-88652351D01*
X19341522Y-88854534D01*
X19404781Y-89049223D01*
X19463457Y-89164379D01*
X19495275Y-89226826D01*
X19497715Y-89231613D01*
X19618028Y-89397213D01*
X19762786Y-89541971D01*
X19900427Y-89641971D01*
X19928390Y-89662287D01*
X20040347Y-89719332D01*
X20110776Y-89755218D01*
X20110778Y-89755218D01*
X20110781Y-89755220D01*
X20215137Y-89789127D01*
X20305465Y-89818477D01*
X20406557Y-89834488D01*
X20507648Y-89850500D01*
X20507649Y-89850500D01*
X20712351Y-89850500D01*
X20712352Y-89850500D01*
X20914534Y-89818477D01*
X21109219Y-89755220D01*
X21291610Y-89662287D01*
X21387459Y-89592649D01*
X21457213Y-89541971D01*
X21457215Y-89541968D01*
X21457219Y-89541966D01*
X21601966Y-89397219D01*
X21601968Y-89397215D01*
X21601971Y-89397213D01*
X21722284Y-89231614D01*
X21722285Y-89231613D01*
X21722287Y-89231610D01*
X21769516Y-89138917D01*
X21817489Y-89088123D01*
X21885310Y-89071328D01*
X21951445Y-89093865D01*
X21990483Y-89138917D01*
X22034348Y-89225006D01*
X22037715Y-89231614D01*
X22158028Y-89397213D01*
X22302786Y-89541971D01*
X22440427Y-89641971D01*
X22468390Y-89662287D01*
X22580347Y-89719332D01*
X22650776Y-89755218D01*
X22650778Y-89755218D01*
X22650781Y-89755220D01*
X22755137Y-89789127D01*
X22845465Y-89818477D01*
X22946557Y-89834488D01*
X23047648Y-89850500D01*
X23047649Y-89850500D01*
X23252351Y-89850500D01*
X23252352Y-89850500D01*
X23454534Y-89818477D01*
X23649219Y-89755220D01*
X23831610Y-89662287D01*
X23927459Y-89592649D01*
X23997213Y-89541971D01*
X23997215Y-89541968D01*
X23997219Y-89541966D01*
X24141966Y-89397219D01*
X24141968Y-89397215D01*
X24141971Y-89397213D01*
X24225960Y-89281610D01*
X24262287Y-89231610D01*
X24355220Y-89049219D01*
X24418477Y-88854534D01*
X24450500Y-88652352D01*
X24450500Y-88447648D01*
X24446851Y-88424612D01*
X24418477Y-88245465D01*
X24362613Y-88073534D01*
X24355220Y-88050781D01*
X24355218Y-88050778D01*
X24355218Y-88050776D01*
X24313369Y-87968644D01*
X24262287Y-87868390D01*
X24248648Y-87849617D01*
X24154272Y-87719718D01*
X24154271Y-87719717D01*
X24141969Y-87702784D01*
X24089167Y-87649982D01*
X33939500Y-87649982D01*
X33939500Y-89450017D01*
X33950000Y-89552796D01*
X34005185Y-89719332D01*
X34005187Y-89719337D01*
X34011440Y-89729474D01*
X34097288Y-89868656D01*
X34221344Y-89992712D01*
X34370665Y-90084814D01*
X34537202Y-90139999D01*
X34639990Y-90150500D01*
X34639995Y-90150500D01*
X36440005Y-90150500D01*
X36440010Y-90150500D01*
X36542798Y-90139999D01*
X36709335Y-90084814D01*
X36858656Y-89992712D01*
X36982712Y-89868656D01*
X37074814Y-89719335D01*
X37129999Y-89552798D01*
X37140500Y-89450010D01*
X37140500Y-87649990D01*
X37129999Y-87547202D01*
X37074814Y-87380665D01*
X36982712Y-87231344D01*
X36858656Y-87107288D01*
X36748299Y-87039219D01*
X36709337Y-87015187D01*
X36709332Y-87015185D01*
X36707863Y-87014698D01*
X36542798Y-86960001D01*
X36542796Y-86960000D01*
X36440017Y-86949500D01*
X36440010Y-86949500D01*
X34639990Y-86949500D01*
X34639982Y-86949500D01*
X34537203Y-86960000D01*
X34537202Y-86960001D01*
X34454669Y-86987349D01*
X34370667Y-87015185D01*
X34370662Y-87015187D01*
X34221342Y-87107289D01*
X34097289Y-87231342D01*
X34005187Y-87380662D01*
X34005185Y-87380667D01*
X34003016Y-87387213D01*
X33950001Y-87547202D01*
X33950001Y-87547203D01*
X33950000Y-87547203D01*
X33939500Y-87649982D01*
X24089167Y-87649982D01*
X23997213Y-87558028D01*
X23831613Y-87437715D01*
X23831612Y-87437714D01*
X23831610Y-87437713D01*
X23774653Y-87408691D01*
X23649223Y-87344781D01*
X23454534Y-87281522D01*
X23279995Y-87253878D01*
X23252352Y-87249500D01*
X23047648Y-87249500D01*
X23023329Y-87253351D01*
X22845465Y-87281522D01*
X22650776Y-87344781D01*
X22468386Y-87437715D01*
X22302786Y-87558028D01*
X22158028Y-87702786D01*
X22037715Y-87868386D01*
X21990485Y-87961080D01*
X21942510Y-88011876D01*
X21874689Y-88028671D01*
X21808554Y-88006134D01*
X21769515Y-87961080D01*
X21768883Y-87959840D01*
X21722287Y-87868390D01*
X21714556Y-87857749D01*
X21601971Y-87702786D01*
X21457213Y-87558028D01*
X21291613Y-87437715D01*
X21291612Y-87437714D01*
X21291610Y-87437713D01*
X21234653Y-87408691D01*
X21109223Y-87344781D01*
X20914534Y-87281522D01*
X20739995Y-87253878D01*
X20712352Y-87249500D01*
X20507648Y-87249500D01*
X20451971Y-87258318D01*
X20382678Y-87249363D01*
X20344895Y-87223528D01*
X20037416Y-86916048D01*
X19937764Y-86849464D01*
X19937764Y-86849463D01*
X19914495Y-86833916D01*
X19914490Y-86833913D01*
X19777917Y-86777343D01*
X19777907Y-86777340D01*
X19632920Y-86748500D01*
X19632918Y-86748500D01*
X15837082Y-86748500D01*
X15837079Y-86748500D01*
X15708691Y-86774038D01*
X15639100Y-86767811D01*
X15583922Y-86724948D01*
X15560678Y-86659058D01*
X15560500Y-86652421D01*
X15560500Y-82074499D01*
X15580185Y-82007460D01*
X15632989Y-81961705D01*
X15684500Y-81950499D01*
X17050002Y-81950499D01*
X17050008Y-81950499D01*
X17152797Y-81939999D01*
X17319334Y-81884814D01*
X17468656Y-81792712D01*
X17592712Y-81668656D01*
X17684814Y-81519334D01*
X17739999Y-81352797D01*
X17750500Y-81250009D01*
X17750499Y-79649992D01*
X17750490Y-79649908D01*
X17739999Y-79547203D01*
X17739998Y-79547200D01*
X17723600Y-79497715D01*
X17684814Y-79380666D01*
X17592712Y-79231344D01*
X17468656Y-79107288D01*
X17319334Y-79015186D01*
X17152797Y-78960001D01*
X17152795Y-78960000D01*
X17050010Y-78949500D01*
X13849998Y-78949500D01*
X13849981Y-78949501D01*
X13747203Y-78960000D01*
X13747200Y-78960001D01*
X13580668Y-79015185D01*
X13580663Y-79015187D01*
X13431342Y-79107289D01*
X13307289Y-79231342D01*
X13215187Y-79380663D01*
X13215186Y-79380666D01*
X13193714Y-79445466D01*
X13192206Y-79450016D01*
X13152433Y-79507461D01*
X13087917Y-79534284D01*
X13019142Y-79521969D01*
X12967942Y-79474426D01*
X12950500Y-79411012D01*
X12950500Y-76052648D01*
X29249500Y-76052648D01*
X29249500Y-76257351D01*
X29281522Y-76459534D01*
X29344781Y-76654223D01*
X29408691Y-76779653D01*
X29431602Y-76824617D01*
X29437715Y-76836613D01*
X29558028Y-77002213D01*
X29702786Y-77146971D01*
X29857749Y-77259556D01*
X29868390Y-77267287D01*
X29949485Y-77308607D01*
X29961080Y-77314515D01*
X30011876Y-77362490D01*
X30028671Y-77430311D01*
X30006134Y-77496446D01*
X29961080Y-77535485D01*
X29868386Y-77582715D01*
X29702786Y-77703028D01*
X29558028Y-77847786D01*
X29437715Y-78013386D01*
X29344781Y-78195776D01*
X29281522Y-78390465D01*
X29257008Y-78545244D01*
X29249500Y-78592648D01*
X29249500Y-78797352D01*
X29252715Y-78817648D01*
X29281522Y-78999534D01*
X29344781Y-79194223D01*
X29408691Y-79319653D01*
X29425571Y-79352781D01*
X29437715Y-79376613D01*
X29558028Y-79542213D01*
X29702786Y-79686971D01*
X29845236Y-79790465D01*
X29868390Y-79807287D01*
X29984607Y-79866503D01*
X30050776Y-79900218D01*
X30050778Y-79900218D01*
X30050781Y-79900220D01*
X30155137Y-79934127D01*
X30245465Y-79963477D01*
X30346557Y-79979488D01*
X30447648Y-79995500D01*
X30447649Y-79995500D01*
X30652351Y-79995500D01*
X30652352Y-79995500D01*
X30854534Y-79963477D01*
X31049219Y-79900220D01*
X31231610Y-79807287D01*
X31363821Y-79711231D01*
X31397213Y-79686971D01*
X31397215Y-79686968D01*
X31397219Y-79686966D01*
X31541966Y-79542219D01*
X31541968Y-79542215D01*
X31541971Y-79542213D01*
X31612176Y-79445582D01*
X31662287Y-79376610D01*
X31755220Y-79194219D01*
X31818477Y-78999534D01*
X31850500Y-78797352D01*
X31850500Y-78674808D01*
X31870185Y-78607769D01*
X31922989Y-78562014D01*
X31992147Y-78552070D01*
X32055703Y-78581095D01*
X32062181Y-78587127D01*
X33330324Y-79855271D01*
X33330331Y-79855277D01*
X33436871Y-79926464D01*
X33436870Y-79926464D01*
X33441520Y-79928390D01*
X33555256Y-79975501D01*
X33555260Y-79975501D01*
X33555261Y-79975502D01*
X33680928Y-80000500D01*
X33680931Y-80000500D01*
X38883003Y-80000500D01*
X38950042Y-80020185D01*
X38995797Y-80072989D01*
X39005741Y-80142147D01*
X38976716Y-80205703D01*
X38970686Y-80212178D01*
X38372609Y-80810255D01*
X37776286Y-81406578D01*
X37664481Y-81518382D01*
X37664479Y-81518385D01*
X37646518Y-81549495D01*
X37624672Y-81587334D01*
X37585423Y-81655315D01*
X37544499Y-81808043D01*
X37544499Y-81808045D01*
X37544499Y-81976146D01*
X37544500Y-81976159D01*
X37544500Y-82560397D01*
X37524815Y-82627436D01*
X37476800Y-82670879D01*
X37463389Y-82677712D01*
X37297786Y-82798028D01*
X37153028Y-82942786D01*
X37032715Y-83108386D01*
X36985485Y-83201080D01*
X36937510Y-83251876D01*
X36869689Y-83268671D01*
X36803554Y-83246134D01*
X36764515Y-83201080D01*
X36739908Y-83152787D01*
X36717287Y-83108390D01*
X36644375Y-83008034D01*
X36596971Y-82942786D01*
X36452213Y-82798028D01*
X36286613Y-82677715D01*
X36286612Y-82677714D01*
X36286610Y-82677713D01*
X36229653Y-82648691D01*
X36104223Y-82584781D01*
X35909534Y-82521522D01*
X35734995Y-82493878D01*
X35707352Y-82489500D01*
X35502648Y-82489500D01*
X35478329Y-82493351D01*
X35300465Y-82521522D01*
X35105776Y-82584781D01*
X34923386Y-82677715D01*
X34757786Y-82798028D01*
X34613028Y-82942786D01*
X34492715Y-83108386D01*
X34399781Y-83290776D01*
X34336522Y-83485465D01*
X34304500Y-83687648D01*
X34304500Y-83892351D01*
X34336522Y-84094534D01*
X34399781Y-84289223D01*
X34492715Y-84471613D01*
X34613028Y-84637213D01*
X34757786Y-84781971D01*
X34912749Y-84894556D01*
X34923390Y-84902287D01*
X35012414Y-84947647D01*
X35105776Y-84995218D01*
X35105778Y-84995218D01*
X35105781Y-84995220D01*
X35210137Y-85029127D01*
X35300465Y-85058477D01*
X35401557Y-85074488D01*
X35502648Y-85090500D01*
X35502649Y-85090500D01*
X35707351Y-85090500D01*
X35707352Y-85090500D01*
X35909534Y-85058477D01*
X36104219Y-84995220D01*
X36286610Y-84902287D01*
X36407200Y-84814674D01*
X36452213Y-84781971D01*
X36452215Y-84781968D01*
X36452219Y-84781966D01*
X36596966Y-84637219D01*
X36596968Y-84637215D01*
X36596971Y-84637213D01*
X36717284Y-84471614D01*
X36717285Y-84471613D01*
X36717287Y-84471610D01*
X36764516Y-84378917D01*
X36812489Y-84328123D01*
X36880310Y-84311328D01*
X36946445Y-84333865D01*
X36985483Y-84378917D01*
X36989699Y-84387190D01*
X37032715Y-84471614D01*
X37153028Y-84637213D01*
X37297786Y-84781971D01*
X37452749Y-84894556D01*
X37463390Y-84902287D01*
X37552414Y-84947647D01*
X37645776Y-84995218D01*
X37645778Y-84995218D01*
X37645781Y-84995220D01*
X37750137Y-85029127D01*
X37840465Y-85058477D01*
X37941557Y-85074488D01*
X38042648Y-85090500D01*
X38042649Y-85090500D01*
X38247351Y-85090500D01*
X38247352Y-85090500D01*
X38449534Y-85058477D01*
X38644219Y-84995220D01*
X38826610Y-84902287D01*
X38947200Y-84814674D01*
X38992213Y-84781971D01*
X38992215Y-84781968D01*
X38992219Y-84781966D01*
X39136966Y-84637219D01*
X39136968Y-84637215D01*
X39136971Y-84637213D01*
X39237225Y-84499223D01*
X39257287Y-84471610D01*
X39350220Y-84289219D01*
X39413477Y-84094534D01*
X39445500Y-83892352D01*
X39445500Y-83687648D01*
X39413477Y-83485466D01*
X39350220Y-83290781D01*
X39350218Y-83290778D01*
X39350218Y-83290776D01*
X39279908Y-83152787D01*
X39257287Y-83108390D01*
X39184375Y-83008034D01*
X39136971Y-82942786D01*
X38992213Y-82798028D01*
X38826610Y-82677712D01*
X38813200Y-82670879D01*
X38762406Y-82622903D01*
X38745500Y-82560397D01*
X38745500Y-82187196D01*
X38765185Y-82120157D01*
X38781814Y-82099520D01*
X39944272Y-80937061D01*
X40005593Y-80903578D01*
X40075285Y-80908562D01*
X40131218Y-80950434D01*
X40149882Y-80986426D01*
X40155198Y-81002786D01*
X40189780Y-81109219D01*
X40281596Y-81289418D01*
X40282715Y-81291613D01*
X40403028Y-81457213D01*
X40547784Y-81601969D01*
X40594011Y-81635554D01*
X40693385Y-81707753D01*
X40736051Y-81763081D01*
X40744500Y-81808070D01*
X40744500Y-84309069D01*
X40744500Y-84309071D01*
X40744499Y-84309071D01*
X40769497Y-84434738D01*
X40769499Y-84434744D01*
X40796205Y-84499219D01*
X40818535Y-84553127D01*
X40874719Y-84637213D01*
X40889726Y-84659673D01*
X40889727Y-84659674D01*
X44150499Y-87920445D01*
X44183984Y-87981768D01*
X44180749Y-88046444D01*
X44138910Y-88175210D01*
X44138910Y-88175213D01*
X44099500Y-88424038D01*
X44099500Y-88675961D01*
X44138910Y-88924786D01*
X44138910Y-88924789D01*
X44180749Y-89053554D01*
X44182744Y-89123395D01*
X44150499Y-89179553D01*
X42494726Y-90835326D01*
X42494723Y-90835331D01*
X42435843Y-90923453D01*
X42430451Y-90931523D01*
X42423533Y-90941876D01*
X42374499Y-91060255D01*
X42374497Y-91060261D01*
X42349500Y-91185928D01*
X42349500Y-94201928D01*
X42329815Y-94268967D01*
X42298385Y-94302246D01*
X42152787Y-94408028D01*
X42152782Y-94408032D01*
X42008028Y-94552786D01*
X41887715Y-94718386D01*
X41794781Y-94900776D01*
X41731522Y-95095465D01*
X41699500Y-95297648D01*
X41699500Y-95502351D01*
X41724010Y-95657102D01*
X41715055Y-95726396D01*
X41670059Y-95779848D01*
X41603308Y-95800487D01*
X41601537Y-95800500D01*
X39840543Y-95800500D01*
X39773504Y-95780815D01*
X39727749Y-95728011D01*
X39717805Y-95658853D01*
X39718070Y-95657102D01*
X39735475Y-95547213D01*
X39750500Y-95452352D01*
X39750500Y-95247648D01*
X39742830Y-95199223D01*
X39718477Y-95045465D01*
X39655218Y-94850776D01*
X39587761Y-94718386D01*
X39562287Y-94668390D01*
X39527527Y-94620546D01*
X39441971Y-94502786D01*
X39297213Y-94358028D01*
X39131613Y-94237715D01*
X39131612Y-94237714D01*
X39131610Y-94237713D01*
X39059117Y-94200776D01*
X38949223Y-94144781D01*
X38754534Y-94081522D01*
X38579995Y-94053878D01*
X38552352Y-94049500D01*
X38347648Y-94049500D01*
X38323329Y-94053351D01*
X38145465Y-94081522D01*
X37950776Y-94144781D01*
X37768386Y-94237715D01*
X37602786Y-94358028D01*
X37458028Y-94502786D01*
X37337713Y-94668388D01*
X37310484Y-94721828D01*
X37262510Y-94772623D01*
X37194688Y-94789418D01*
X37128554Y-94766880D01*
X37089516Y-94721828D01*
X37062286Y-94668388D01*
X36941971Y-94502786D01*
X36797213Y-94358028D01*
X36631613Y-94237715D01*
X36631612Y-94237714D01*
X36631610Y-94237713D01*
X36559117Y-94200776D01*
X36449223Y-94144781D01*
X36254534Y-94081522D01*
X36079995Y-94053878D01*
X36052352Y-94049500D01*
X35847648Y-94049500D01*
X35823329Y-94053351D01*
X35645465Y-94081522D01*
X35450776Y-94144781D01*
X35268386Y-94237715D01*
X35102786Y-94358028D01*
X34958028Y-94502786D01*
X34837715Y-94668386D01*
X34744781Y-94850776D01*
X34681522Y-95045465D01*
X34649500Y-95247648D01*
X34649500Y-95452351D01*
X34681522Y-95654534D01*
X34744781Y-95849223D01*
X34801522Y-95960581D01*
X34835961Y-96028172D01*
X34837715Y-96031613D01*
X34958028Y-96197213D01*
X35102786Y-96341971D01*
X35257749Y-96454556D01*
X35268390Y-96462287D01*
X35384607Y-96521503D01*
X35450776Y-96555218D01*
X35450778Y-96555218D01*
X35450781Y-96555220D01*
X35555137Y-96589127D01*
X35645465Y-96618477D01*
X35746557Y-96634488D01*
X35847648Y-96650500D01*
X35847649Y-96650500D01*
X36052351Y-96650500D01*
X36052352Y-96650500D01*
X36230112Y-96622345D01*
X36299405Y-96631299D01*
X36337191Y-96657137D01*
X36545724Y-96865669D01*
X36636329Y-96956274D01*
X36636332Y-96956277D01*
X36742866Y-97027461D01*
X36742872Y-97027464D01*
X36742873Y-97027465D01*
X36861256Y-97076501D01*
X36861260Y-97076501D01*
X36861261Y-97076502D01*
X36986928Y-97101500D01*
X36986931Y-97101500D01*
X42013071Y-97101500D01*
X42097615Y-97084682D01*
X42138744Y-97076501D01*
X42257127Y-97027465D01*
X42363669Y-96956277D01*
X42612809Y-96707135D01*
X42674130Y-96673652D01*
X42719887Y-96672345D01*
X42897648Y-96700500D01*
X42897649Y-96700500D01*
X43102351Y-96700500D01*
X43102352Y-96700500D01*
X43304534Y-96668477D01*
X43499219Y-96605220D01*
X43681610Y-96512287D01*
X43774590Y-96444732D01*
X43847213Y-96391971D01*
X43847215Y-96391968D01*
X43847219Y-96391966D01*
X43991966Y-96247219D01*
X43991968Y-96247215D01*
X43991971Y-96247213D01*
X44044732Y-96174590D01*
X44112287Y-96081610D01*
X44139515Y-96028171D01*
X44187490Y-95977376D01*
X44255311Y-95960581D01*
X44321446Y-95983118D01*
X44360485Y-96028172D01*
X44387715Y-96081613D01*
X44508028Y-96247213D01*
X44652786Y-96391971D01*
X44749566Y-96462284D01*
X44818390Y-96512287D01*
X44902647Y-96555218D01*
X45000776Y-96605218D01*
X45000778Y-96605218D01*
X45000781Y-96605220D01*
X45081044Y-96631299D01*
X45195465Y-96668477D01*
X45296557Y-96684488D01*
X45397648Y-96700500D01*
X45397649Y-96700500D01*
X45602351Y-96700500D01*
X45602352Y-96700500D01*
X45804534Y-96668477D01*
X45999219Y-96605220D01*
X46181610Y-96512287D01*
X46274590Y-96444732D01*
X46347213Y-96391971D01*
X46347215Y-96391968D01*
X46347219Y-96391966D01*
X46491966Y-96247219D01*
X46491968Y-96247215D01*
X46491971Y-96247213D01*
X46544732Y-96174590D01*
X46612287Y-96081610D01*
X46705220Y-95899219D01*
X46768477Y-95704534D01*
X46800500Y-95502352D01*
X46800500Y-95297648D01*
X46768477Y-95095466D01*
X46705220Y-94900781D01*
X46705218Y-94900778D01*
X46705218Y-94900776D01*
X46655067Y-94802351D01*
X46612287Y-94718390D01*
X46604556Y-94707749D01*
X46491971Y-94552786D01*
X46347213Y-94408028D01*
X46181612Y-94287714D01*
X45999223Y-94194781D01*
X45804534Y-94131522D01*
X45629995Y-94103878D01*
X45602352Y-94099500D01*
X45397648Y-94099500D01*
X45373329Y-94103351D01*
X45195465Y-94131522D01*
X45000776Y-94194781D01*
X44818388Y-94287714D01*
X44652786Y-94408028D01*
X44508028Y-94552786D01*
X44387713Y-94718388D01*
X44360484Y-94771828D01*
X44312510Y-94822623D01*
X44244688Y-94839418D01*
X44178554Y-94816880D01*
X44139516Y-94771828D01*
X44112286Y-94718388D01*
X43991971Y-94552786D01*
X43847217Y-94408032D01*
X43847212Y-94408028D01*
X43701615Y-94302246D01*
X43658949Y-94246916D01*
X43650500Y-94201928D01*
X43650500Y-91570807D01*
X43670185Y-91503768D01*
X43686814Y-91483131D01*
X45070447Y-90099497D01*
X45131768Y-90066014D01*
X45196443Y-90069248D01*
X45325215Y-90111090D01*
X45574038Y-90150500D01*
X45574039Y-90150500D01*
X45825961Y-90150500D01*
X45825962Y-90150500D01*
X46074785Y-90111090D01*
X46314379Y-90033241D01*
X46538845Y-89918870D01*
X46742656Y-89770793D01*
X46920793Y-89592656D01*
X47068870Y-89388845D01*
X47183241Y-89164379D01*
X47261090Y-88924785D01*
X47300500Y-88675962D01*
X47300500Y-88424038D01*
X47261090Y-88175215D01*
X47219248Y-88046443D01*
X47217254Y-87976603D01*
X47249497Y-87920447D01*
X48962767Y-86207177D01*
X49024088Y-86173694D01*
X49093780Y-86178678D01*
X49106734Y-86184372D01*
X49171096Y-86217166D01*
X49245776Y-86255218D01*
X49245778Y-86255218D01*
X49245781Y-86255220D01*
X49331882Y-86283196D01*
X49440465Y-86318477D01*
X49536383Y-86333669D01*
X49642648Y-86350500D01*
X49642649Y-86350500D01*
X49847351Y-86350500D01*
X49847352Y-86350500D01*
X50049534Y-86318477D01*
X50244219Y-86255220D01*
X50426610Y-86162287D01*
X50519590Y-86094732D01*
X50592213Y-86041971D01*
X50592215Y-86041968D01*
X50592219Y-86041966D01*
X50736966Y-85897219D01*
X50736968Y-85897215D01*
X50736971Y-85897213D01*
X50800825Y-85809324D01*
X50857287Y-85731610D01*
X50950220Y-85549219D01*
X51013477Y-85354534D01*
X51045500Y-85152352D01*
X51045500Y-84947648D01*
X51013477Y-84745466D01*
X51013476Y-84745464D01*
X51013070Y-84742898D01*
X51022024Y-84673605D01*
X51067020Y-84620153D01*
X51133772Y-84599513D01*
X51135543Y-84599500D01*
X51738192Y-84599500D01*
X51767632Y-84608144D01*
X51797619Y-84614668D01*
X51802634Y-84618422D01*
X51805231Y-84619185D01*
X51825873Y-84635819D01*
X51852862Y-84662808D01*
X51886347Y-84724131D01*
X51887654Y-84769886D01*
X51859500Y-84947647D01*
X51859500Y-85152351D01*
X51891522Y-85354534D01*
X51954781Y-85549223D01*
X52018691Y-85674653D01*
X52046613Y-85729452D01*
X52047715Y-85731613D01*
X52168028Y-85897213D01*
X52312784Y-86041969D01*
X52381863Y-86092157D01*
X52458385Y-86147753D01*
X52501051Y-86203081D01*
X52509500Y-86248070D01*
X52509500Y-90274070D01*
X52522564Y-90339742D01*
X52522564Y-90339744D01*
X52534497Y-90399736D01*
X52534499Y-90399744D01*
X52577180Y-90502786D01*
X52583535Y-90518127D01*
X52648974Y-90616065D01*
X52654726Y-90624673D01*
X52654727Y-90624674D01*
X56342862Y-94312808D01*
X56376347Y-94374131D01*
X56377654Y-94419886D01*
X56349500Y-94597647D01*
X56349500Y-94802351D01*
X56381522Y-95004534D01*
X56444781Y-95199223D01*
X56537715Y-95381613D01*
X56658028Y-95547213D01*
X56802786Y-95691971D01*
X56952166Y-95800500D01*
X56968390Y-95812287D01*
X57084607Y-95871503D01*
X57150776Y-95905218D01*
X57150778Y-95905218D01*
X57150781Y-95905220D01*
X57255137Y-95939127D01*
X57345465Y-95968477D01*
X57401651Y-95977376D01*
X57547648Y-96000500D01*
X57547649Y-96000500D01*
X57752351Y-96000500D01*
X57752352Y-96000500D01*
X57954534Y-95968477D01*
X58149219Y-95905220D01*
X58331610Y-95812287D01*
X58449830Y-95726396D01*
X58497213Y-95691971D01*
X58497215Y-95691968D01*
X58497219Y-95691966D01*
X58641966Y-95547219D01*
X58641968Y-95547215D01*
X58641971Y-95547213D01*
X58710892Y-95452350D01*
X58762287Y-95381610D01*
X58855220Y-95199219D01*
X58918477Y-95004534D01*
X58950500Y-94802352D01*
X58950500Y-94597648D01*
X58918477Y-94395466D01*
X58911990Y-94375502D01*
X58870210Y-94246916D01*
X58855220Y-94200781D01*
X58855218Y-94200778D01*
X58855218Y-94200776D01*
X58819931Y-94131522D01*
X58762287Y-94018390D01*
X58754556Y-94007749D01*
X58641971Y-93852786D01*
X58497213Y-93708028D01*
X58331613Y-93587715D01*
X58331612Y-93587714D01*
X58331610Y-93587713D01*
X58278171Y-93560484D01*
X58227376Y-93512510D01*
X58210581Y-93444689D01*
X58233118Y-93378554D01*
X58278172Y-93339515D01*
X58331610Y-93312287D01*
X58428037Y-93242229D01*
X58497213Y-93191971D01*
X58497215Y-93191968D01*
X58497219Y-93191966D01*
X58641966Y-93047219D01*
X58747753Y-92901613D01*
X58803082Y-92858949D01*
X58848071Y-92850500D01*
X60664071Y-92850500D01*
X60748615Y-92833682D01*
X60789744Y-92825501D01*
X60908127Y-92776465D01*
X60910836Y-92774654D01*
X60911772Y-92774030D01*
X60993502Y-92719420D01*
X61014669Y-92705277D01*
X67287819Y-86432124D01*
X67349142Y-86398640D01*
X67418834Y-86403624D01*
X67474767Y-86445496D01*
X67499184Y-86510960D01*
X67499500Y-86519806D01*
X67499500Y-86642351D01*
X67531522Y-86844534D01*
X67594781Y-87039223D01*
X67687715Y-87221613D01*
X67808028Y-87387213D01*
X67952784Y-87531969D01*
X68005852Y-87570524D01*
X68098385Y-87637753D01*
X68141051Y-87693081D01*
X68149500Y-87738070D01*
X68149500Y-90864069D01*
X68149500Y-90864071D01*
X68149499Y-90864071D01*
X68173620Y-90985328D01*
X68174498Y-90989743D01*
X68223533Y-91108125D01*
X68294726Y-91214673D01*
X71335328Y-94255275D01*
X71335331Y-94255277D01*
X71383876Y-94287713D01*
X71441873Y-94326465D01*
X71560256Y-94375501D01*
X71560260Y-94375501D01*
X71560261Y-94375502D01*
X71685928Y-94400500D01*
X71685931Y-94400500D01*
X91914717Y-94400500D01*
X91976716Y-94417112D01*
X92074112Y-94473344D01*
X92074117Y-94473346D01*
X92074123Y-94473349D01*
X92145179Y-94502781D01*
X92286113Y-94561158D01*
X92507762Y-94620548D01*
X92735266Y-94650500D01*
X92735273Y-94650500D01*
X94964727Y-94650500D01*
X94964734Y-94650500D01*
X95192238Y-94620548D01*
X95413887Y-94561158D01*
X95625888Y-94473344D01*
X95824612Y-94358611D01*
X96006661Y-94218919D01*
X96006665Y-94218914D01*
X96006670Y-94218911D01*
X96168911Y-94056670D01*
X96168914Y-94056665D01*
X96168919Y-94056661D01*
X96308611Y-93874612D01*
X96423344Y-93675888D01*
X96511158Y-93463887D01*
X96570548Y-93242238D01*
X96600500Y-93014734D01*
X96600500Y-92785266D01*
X96570548Y-92557762D01*
X96511158Y-92336113D01*
X96423344Y-92124112D01*
X96308611Y-91925388D01*
X96308608Y-91925385D01*
X96308607Y-91925382D01*
X96194338Y-91776465D01*
X96168919Y-91743339D01*
X96168918Y-91743338D01*
X96168911Y-91743330D01*
X96135444Y-91709863D01*
X96101959Y-91648540D01*
X96106943Y-91578848D01*
X96135442Y-91534503D01*
X98333127Y-89336819D01*
X98394450Y-89303334D01*
X98420808Y-89300500D01*
X99951929Y-89300500D01*
X100018968Y-89320185D01*
X100052245Y-89351613D01*
X100121703Y-89447213D01*
X100158034Y-89497219D01*
X100302786Y-89641971D01*
X100423226Y-89729474D01*
X100468390Y-89762287D01*
X100552647Y-89805218D01*
X100650776Y-89855218D01*
X100650778Y-89855218D01*
X100650781Y-89855220D01*
X100728751Y-89880554D01*
X100845465Y-89918477D01*
X100946557Y-89934488D01*
X101047648Y-89950500D01*
X101047649Y-89950500D01*
X101252351Y-89950500D01*
X101252352Y-89950500D01*
X101454534Y-89918477D01*
X101649219Y-89855220D01*
X101831610Y-89762287D01*
X101924590Y-89694732D01*
X101997213Y-89641971D01*
X101997215Y-89641968D01*
X101997219Y-89641966D01*
X102141966Y-89497219D01*
X102141968Y-89497215D01*
X102141971Y-89497213D01*
X102230093Y-89375921D01*
X102262287Y-89331610D01*
X102289795Y-89277621D01*
X102337769Y-89226826D01*
X102405589Y-89210030D01*
X102471725Y-89232567D01*
X102510765Y-89277621D01*
X102538141Y-89331350D01*
X102538147Y-89331359D01*
X102570523Y-89375921D01*
X102570524Y-89375922D01*
X103250000Y-88696446D01*
X103250000Y-88702661D01*
X103277259Y-88804394D01*
X103329920Y-88895606D01*
X103404394Y-88970080D01*
X103495606Y-89022741D01*
X103597339Y-89050000D01*
X103603553Y-89050000D01*
X102924076Y-89729474D01*
X102968650Y-89761859D01*
X103150968Y-89854755D01*
X103345582Y-89917990D01*
X103547683Y-89950000D01*
X103752317Y-89950000D01*
X103954417Y-89917990D01*
X104149031Y-89854755D01*
X104331349Y-89761859D01*
X104375921Y-89729474D01*
X103696447Y-89050000D01*
X103702661Y-89050000D01*
X103804394Y-89022741D01*
X103895606Y-88970080D01*
X103970080Y-88895606D01*
X104022741Y-88804394D01*
X104050000Y-88702661D01*
X104050000Y-88696447D01*
X104729474Y-89375921D01*
X104761859Y-89331349D01*
X104854755Y-89149031D01*
X104917990Y-88954417D01*
X104950000Y-88752317D01*
X104950000Y-88547682D01*
X104917990Y-88345582D01*
X104854755Y-88150968D01*
X104761859Y-87968650D01*
X104729474Y-87924077D01*
X104729474Y-87924076D01*
X104050000Y-88603551D01*
X104050000Y-88597339D01*
X104022741Y-88495606D01*
X103970080Y-88404394D01*
X103895606Y-88329920D01*
X103804394Y-88277259D01*
X103702661Y-88250000D01*
X103696446Y-88250000D01*
X104375922Y-87570524D01*
X104375921Y-87570523D01*
X104331359Y-87538147D01*
X104331350Y-87538141D01*
X104149031Y-87445244D01*
X103954417Y-87382009D01*
X103752317Y-87350000D01*
X103547683Y-87350000D01*
X103345582Y-87382009D01*
X103150968Y-87445244D01*
X102968644Y-87538143D01*
X102924077Y-87570523D01*
X102924077Y-87570524D01*
X103603554Y-88250000D01*
X103597339Y-88250000D01*
X103495606Y-88277259D01*
X103404394Y-88329920D01*
X103329920Y-88404394D01*
X103277259Y-88495606D01*
X103250000Y-88597339D01*
X103250000Y-88603553D01*
X102570524Y-87924077D01*
X102570523Y-87924077D01*
X102538143Y-87968644D01*
X102510765Y-88022378D01*
X102462790Y-88073174D01*
X102394969Y-88089969D01*
X102328834Y-88067431D01*
X102289795Y-88022378D01*
X102284444Y-88011876D01*
X102262287Y-87968390D01*
X102262285Y-87968387D01*
X102262284Y-87968385D01*
X102141971Y-87802786D01*
X101997217Y-87658032D01*
X101997212Y-87658028D01*
X101851615Y-87552246D01*
X101808949Y-87496916D01*
X101800500Y-87451928D01*
X101800500Y-80484513D01*
X101803621Y-80471511D01*
X101802630Y-80461627D01*
X101814015Y-80428219D01*
X101839795Y-80377622D01*
X101887769Y-80326826D01*
X101955590Y-80310030D01*
X102021725Y-80332567D01*
X102060765Y-80377621D01*
X102088141Y-80431350D01*
X102088147Y-80431359D01*
X102120523Y-80475921D01*
X102120524Y-80475922D01*
X102800000Y-79796446D01*
X102800000Y-79802661D01*
X102827259Y-79904394D01*
X102879920Y-79995606D01*
X102954394Y-80070080D01*
X103045606Y-80122741D01*
X103147339Y-80150000D01*
X103153553Y-80150000D01*
X102474076Y-80829474D01*
X102518650Y-80861859D01*
X102700968Y-80954755D01*
X102895582Y-81017990D01*
X103097683Y-81050000D01*
X103302317Y-81050000D01*
X103504417Y-81017990D01*
X103699031Y-80954755D01*
X103881349Y-80861859D01*
X103925921Y-80829474D01*
X103246447Y-80150000D01*
X103252661Y-80150000D01*
X103354394Y-80122741D01*
X103445606Y-80070080D01*
X103520080Y-79995606D01*
X103572741Y-79904394D01*
X103600000Y-79802661D01*
X103600000Y-79796447D01*
X104279474Y-80475921D01*
X104311859Y-80431349D01*
X104404755Y-80249031D01*
X104467990Y-80054417D01*
X104500000Y-79852317D01*
X104500000Y-79647682D01*
X104467990Y-79445582D01*
X104404755Y-79250968D01*
X104311859Y-79068650D01*
X104279474Y-79024077D01*
X104279474Y-79024076D01*
X103600000Y-79703551D01*
X103600000Y-79697339D01*
X103572741Y-79595606D01*
X103520080Y-79504394D01*
X103445606Y-79429920D01*
X103354394Y-79377259D01*
X103252661Y-79350000D01*
X103246446Y-79350000D01*
X103925922Y-78670524D01*
X103925921Y-78670523D01*
X103881359Y-78638147D01*
X103881350Y-78638141D01*
X103699031Y-78545244D01*
X103504417Y-78482009D01*
X103302317Y-78450000D01*
X103219308Y-78450000D01*
X103152269Y-78430315D01*
X103106514Y-78377511D01*
X103096570Y-78308353D01*
X103125595Y-78244797D01*
X103131627Y-78238319D01*
X103205273Y-78164672D01*
X103205276Y-78164669D01*
X103276465Y-78058127D01*
X103325501Y-77939744D01*
X103334006Y-77896987D01*
X103347331Y-77830000D01*
X103350500Y-77814070D01*
X103350500Y-72198070D01*
X103370185Y-72131031D01*
X103401613Y-72097753D01*
X103547219Y-71991966D01*
X103691966Y-71847219D01*
X103691968Y-71847215D01*
X103691971Y-71847213D01*
X103744732Y-71774590D01*
X103812287Y-71681610D01*
X103905220Y-71499219D01*
X103968477Y-71304534D01*
X104000500Y-71102352D01*
X104000500Y-70897648D01*
X103968477Y-70695466D01*
X103968475Y-70695462D01*
X103968475Y-70695457D01*
X103957545Y-70661817D01*
X103955550Y-70591976D01*
X103991631Y-70532144D01*
X104054332Y-70501316D01*
X104075476Y-70499500D01*
X105080500Y-70499500D01*
X105147539Y-70519185D01*
X105193294Y-70571989D01*
X105204500Y-70623500D01*
X105204500Y-70702351D01*
X105236522Y-70904534D01*
X105299781Y-71099223D01*
X105392715Y-71281613D01*
X105513028Y-71447213D01*
X105657786Y-71591971D01*
X105806478Y-71700000D01*
X105823390Y-71712287D01*
X105919811Y-71761416D01*
X106005776Y-71805218D01*
X106005778Y-71805218D01*
X106005781Y-71805220D01*
X106110137Y-71839127D01*
X106200465Y-71868477D01*
X106258791Y-71877715D01*
X106402648Y-71900500D01*
X106402649Y-71900500D01*
X106607351Y-71900500D01*
X106607352Y-71900500D01*
X106712102Y-71883909D01*
X106781395Y-71892864D01*
X106834847Y-71937860D01*
X106855487Y-72004611D01*
X106855500Y-72006382D01*
X106855500Y-80375500D01*
X106835815Y-80442539D01*
X106783011Y-80488294D01*
X106731500Y-80499500D01*
X105902129Y-80499500D01*
X105902123Y-80499501D01*
X105842516Y-80505908D01*
X105707671Y-80556202D01*
X105707664Y-80556206D01*
X105592455Y-80642452D01*
X105592452Y-80642455D01*
X105506206Y-80757664D01*
X105506202Y-80757671D01*
X105455908Y-80892517D01*
X105449682Y-80950434D01*
X105449501Y-80952123D01*
X105449500Y-80952135D01*
X105449500Y-83247870D01*
X105449501Y-83247876D01*
X105455908Y-83307483D01*
X105506202Y-83442328D01*
X105506206Y-83442335D01*
X105592452Y-83557544D01*
X105592455Y-83557547D01*
X105707664Y-83643793D01*
X105707671Y-83643797D01*
X105842517Y-83694091D01*
X105842516Y-83694091D01*
X105849444Y-83694835D01*
X105902127Y-83700500D01*
X107497872Y-83700499D01*
X107557483Y-83694091D01*
X107692331Y-83643796D01*
X107807546Y-83557546D01*
X107893796Y-83442331D01*
X107944091Y-83307483D01*
X107950500Y-83247873D01*
X107950499Y-81962228D01*
X107970184Y-81895190D01*
X107986813Y-81874552D01*
X108188951Y-81672416D01*
X108271084Y-81549495D01*
X108327658Y-81412913D01*
X108329187Y-81405223D01*
X108329188Y-81405223D01*
X108329188Y-81405220D01*
X108356500Y-81267918D01*
X108356500Y-80952135D01*
X111849500Y-80952135D01*
X111849500Y-83247870D01*
X111849501Y-83247876D01*
X111855908Y-83307483D01*
X111906202Y-83442328D01*
X111906206Y-83442335D01*
X111992452Y-83557544D01*
X111992455Y-83557547D01*
X112107664Y-83643793D01*
X112107671Y-83643797D01*
X112242517Y-83694091D01*
X112242516Y-83694091D01*
X112249444Y-83694835D01*
X112302127Y-83700500D01*
X113643976Y-83700499D01*
X113691426Y-83709936D01*
X113717503Y-83720738D01*
X113867126Y-83750499D01*
X113872153Y-83751499D01*
X113872157Y-83751500D01*
X113872158Y-83751500D01*
X119834894Y-83751500D01*
X119834895Y-83751499D01*
X119989547Y-83720737D01*
X120135229Y-83660394D01*
X120266339Y-83572789D01*
X125972789Y-77866339D01*
X126060394Y-77735229D01*
X126120737Y-77589547D01*
X126124516Y-77570546D01*
X126126563Y-77560258D01*
X126126563Y-77560256D01*
X126151500Y-77434893D01*
X126151500Y-77277208D01*
X126151500Y-70922158D01*
X126146625Y-70897648D01*
X126146625Y-70897646D01*
X126146625Y-70897645D01*
X126131007Y-70819133D01*
X126120738Y-70767503D01*
X126060394Y-70621821D01*
X126060392Y-70621818D01*
X126060390Y-70621814D01*
X125972789Y-70490711D01*
X125972786Y-70490707D01*
X125503251Y-70021173D01*
X125469766Y-69959850D01*
X125474750Y-69890159D01*
X125482334Y-69874650D01*
X125484810Y-69869340D01*
X125484814Y-69869334D01*
X125539999Y-69702797D01*
X125550500Y-69600009D01*
X125550499Y-68199992D01*
X125539999Y-68097203D01*
X125484814Y-67930666D01*
X125392712Y-67781344D01*
X125268656Y-67657288D01*
X125119334Y-67565186D01*
X124952797Y-67510001D01*
X124952795Y-67510000D01*
X124850010Y-67499500D01*
X121649998Y-67499500D01*
X121649981Y-67499501D01*
X121547203Y-67510000D01*
X121547200Y-67510001D01*
X121380668Y-67565185D01*
X121380663Y-67565187D01*
X121231342Y-67657289D01*
X121107289Y-67781342D01*
X121015187Y-67930663D01*
X121015185Y-67930668D01*
X121000237Y-67975780D01*
X120960001Y-68097203D01*
X120960001Y-68097204D01*
X120960000Y-68097204D01*
X120949500Y-68199983D01*
X120949500Y-69600001D01*
X120949501Y-69600018D01*
X120960000Y-69702796D01*
X120960001Y-69702799D01*
X121015185Y-69869331D01*
X121015187Y-69869336D01*
X121045441Y-69918386D01*
X121107288Y-70018656D01*
X121231344Y-70142712D01*
X121380666Y-70234814D01*
X121547203Y-70289999D01*
X121649991Y-70300500D01*
X123467059Y-70300499D01*
X123534098Y-70320184D01*
X123554740Y-70336818D01*
X124005741Y-70787819D01*
X124039226Y-70849142D01*
X124034242Y-70918834D01*
X123992370Y-70974767D01*
X123926906Y-70999184D01*
X123918060Y-70999500D01*
X122239778Y-70999500D01*
X122169816Y-71010581D01*
X122022047Y-71033985D01*
X121812396Y-71102103D01*
X121812393Y-71102104D01*
X121615974Y-71202187D01*
X121437641Y-71331752D01*
X121437636Y-71331756D01*
X121281756Y-71487636D01*
X121281752Y-71487641D01*
X121152187Y-71665974D01*
X121052104Y-71862393D01*
X121052103Y-71862396D01*
X120983985Y-72072047D01*
X120954022Y-72261225D01*
X120949500Y-72289778D01*
X120949500Y-72510222D01*
X120958443Y-72566684D01*
X120983985Y-72727952D01*
X121052103Y-72937603D01*
X121052104Y-72937606D01*
X121093897Y-73019627D01*
X121130952Y-73092351D01*
X121152187Y-73134025D01*
X121281752Y-73312358D01*
X121281756Y-73312363D01*
X121437636Y-73468243D01*
X121437641Y-73468247D01*
X121517127Y-73525996D01*
X121615978Y-73597815D01*
X121744375Y-73663237D01*
X121812393Y-73697895D01*
X121812396Y-73697896D01*
X121917221Y-73731955D01*
X122022049Y-73766015D01*
X122239778Y-73800500D01*
X122239779Y-73800500D01*
X124260221Y-73800500D01*
X124260222Y-73800500D01*
X124407103Y-73777236D01*
X124476395Y-73786190D01*
X124529847Y-73831187D01*
X124550487Y-73897938D01*
X124550500Y-73899709D01*
X124550500Y-76973109D01*
X124530815Y-77040148D01*
X124514181Y-77060790D01*
X120512548Y-81062422D01*
X120451225Y-81095907D01*
X120381533Y-81090923D01*
X120325600Y-81049051D01*
X120324549Y-81047627D01*
X120291967Y-81002782D01*
X120147213Y-80858028D01*
X119981613Y-80737715D01*
X119981612Y-80737714D01*
X119981610Y-80737713D01*
X119924653Y-80708691D01*
X119799223Y-80644781D01*
X119604534Y-80581522D01*
X119424450Y-80553000D01*
X119402352Y-80549500D01*
X119197648Y-80549500D01*
X119175550Y-80553000D01*
X118995465Y-80581522D01*
X118800776Y-80644781D01*
X118618386Y-80737715D01*
X118452786Y-80858028D01*
X118308028Y-81002786D01*
X118187713Y-81168388D01*
X118160484Y-81221828D01*
X118112510Y-81272623D01*
X118044688Y-81289418D01*
X117978554Y-81266880D01*
X117939516Y-81221828D01*
X117912286Y-81168388D01*
X117791971Y-81002786D01*
X117647213Y-80858028D01*
X117481613Y-80737715D01*
X117481612Y-80737714D01*
X117481610Y-80737713D01*
X117424653Y-80708691D01*
X117299223Y-80644781D01*
X117104534Y-80581522D01*
X116924450Y-80553000D01*
X116902352Y-80549500D01*
X116697648Y-80549500D01*
X116675550Y-80553000D01*
X116495465Y-80581522D01*
X116300776Y-80644781D01*
X116118386Y-80737715D01*
X115952786Y-80858028D01*
X115808028Y-81002786D01*
X115687713Y-81168388D01*
X115655407Y-81231794D01*
X115607433Y-81282591D01*
X115544922Y-81299500D01*
X114474499Y-81299500D01*
X114407460Y-81279815D01*
X114361705Y-81227011D01*
X114350499Y-81175500D01*
X114350499Y-80952129D01*
X114350498Y-80952123D01*
X114350497Y-80952116D01*
X114344091Y-80892517D01*
X114332656Y-80861859D01*
X114293797Y-80757671D01*
X114293793Y-80757664D01*
X114207547Y-80642455D01*
X114207544Y-80642452D01*
X114092335Y-80556206D01*
X114092328Y-80556202D01*
X113957482Y-80505908D01*
X113957483Y-80505908D01*
X113897883Y-80499501D01*
X113897881Y-80499500D01*
X113897873Y-80499500D01*
X113897864Y-80499500D01*
X112302129Y-80499500D01*
X112302123Y-80499501D01*
X112242516Y-80505908D01*
X112107671Y-80556202D01*
X112107664Y-80556206D01*
X111992455Y-80642452D01*
X111992452Y-80642455D01*
X111906206Y-80757664D01*
X111906202Y-80757671D01*
X111855908Y-80892517D01*
X111849682Y-80950434D01*
X111849501Y-80952123D01*
X111849500Y-80952135D01*
X108356500Y-80952135D01*
X108356500Y-71911126D01*
X108376185Y-71844087D01*
X108428989Y-71798332D01*
X108498147Y-71788388D01*
X108536798Y-71800643D01*
X108545781Y-71805220D01*
X108675041Y-71847219D01*
X108740465Y-71868477D01*
X108798791Y-71877715D01*
X108942648Y-71900500D01*
X108942649Y-71900500D01*
X109147351Y-71900500D01*
X109147352Y-71900500D01*
X109349534Y-71868477D01*
X109544219Y-71805220D01*
X109726610Y-71712287D01*
X109828107Y-71638546D01*
X109892213Y-71591971D01*
X109892215Y-71591968D01*
X109892219Y-71591966D01*
X110036966Y-71447219D01*
X110036968Y-71447215D01*
X110036971Y-71447213D01*
X110099317Y-71361400D01*
X110157287Y-71281610D01*
X110250220Y-71099219D01*
X110313477Y-70904534D01*
X110345500Y-70702352D01*
X110345500Y-70497648D01*
X110321740Y-70347637D01*
X110313477Y-70295465D01*
X110264739Y-70145466D01*
X110250220Y-70100781D01*
X110250218Y-70100778D01*
X110250218Y-70100776D01*
X110202963Y-70008034D01*
X110157287Y-69918390D01*
X110149556Y-69907749D01*
X110036971Y-69752786D01*
X109892213Y-69608028D01*
X109726613Y-69487715D01*
X109726612Y-69487714D01*
X109726610Y-69487713D01*
X109659991Y-69453769D01*
X109544223Y-69394781D01*
X109349534Y-69331522D01*
X109174995Y-69303878D01*
X109147352Y-69299500D01*
X108942648Y-69299500D01*
X108918329Y-69303351D01*
X108740465Y-69331522D01*
X108545776Y-69394781D01*
X108363390Y-69487712D01*
X108245043Y-69573696D01*
X108179236Y-69597175D01*
X108111182Y-69581349D01*
X108084477Y-69561058D01*
X107439471Y-68916052D01*
X107439464Y-68916046D01*
X107365779Y-68866812D01*
X107365779Y-68866813D01*
X107316541Y-68833913D01*
X107179967Y-68777343D01*
X107179957Y-68777340D01*
X107034970Y-68748500D01*
X107034968Y-68748500D01*
X100070032Y-68748500D01*
X100070030Y-68748500D01*
X99929036Y-68776546D01*
X99929035Y-68776545D01*
X99925047Y-68777339D01*
X99925033Y-68777343D01*
X99788461Y-68833912D01*
X99788448Y-68833919D01*
X99665534Y-68916048D01*
X99665530Y-68916051D01*
X94518401Y-74063181D01*
X94457078Y-74096666D01*
X94430720Y-74099500D01*
X92735258Y-74099500D01*
X92518715Y-74128009D01*
X92507762Y-74129452D01*
X92432885Y-74149515D01*
X92286112Y-74188842D01*
X92074123Y-74276650D01*
X92074109Y-74276657D01*
X91875382Y-74391392D01*
X91693338Y-74531081D01*
X91531081Y-74693338D01*
X91391392Y-74875382D01*
X91276657Y-75074109D01*
X91276650Y-75074123D01*
X91188842Y-75286112D01*
X91129453Y-75507759D01*
X91129451Y-75507770D01*
X91099500Y-75735258D01*
X91099500Y-75964741D01*
X91113070Y-76067809D01*
X91129452Y-76192238D01*
X91176681Y-76368500D01*
X91188842Y-76413887D01*
X91276650Y-76625876D01*
X91276657Y-76625890D01*
X91391392Y-76824617D01*
X91531081Y-77006661D01*
X91531089Y-77006670D01*
X91693330Y-77168911D01*
X91693338Y-77168918D01*
X91875382Y-77308607D01*
X91875385Y-77308608D01*
X91875388Y-77308611D01*
X92074112Y-77423344D01*
X92074117Y-77423346D01*
X92074123Y-77423349D01*
X92136449Y-77449165D01*
X92286113Y-77511158D01*
X92507762Y-77570548D01*
X92735266Y-77600500D01*
X92735273Y-77600500D01*
X94964727Y-77600500D01*
X94964734Y-77600500D01*
X95192238Y-77570548D01*
X95413887Y-77511158D01*
X95625888Y-77423344D01*
X95824612Y-77308611D01*
X96006661Y-77168919D01*
X96006665Y-77168914D01*
X96006670Y-77168911D01*
X96168911Y-77006670D01*
X96168914Y-77006665D01*
X96168919Y-77006661D01*
X96308611Y-76824612D01*
X96423344Y-76625888D01*
X96511158Y-76413887D01*
X96570548Y-76192238D01*
X96600500Y-75964734D01*
X96600500Y-75735266D01*
X96570548Y-75507762D01*
X96511158Y-75286113D01*
X96423344Y-75074112D01*
X96308611Y-74875388D01*
X96308608Y-74875385D01*
X96308607Y-74875382D01*
X96250598Y-74799785D01*
X96168919Y-74693339D01*
X96168915Y-74693335D01*
X96166544Y-74690245D01*
X96141349Y-74625076D01*
X96155387Y-74556631D01*
X96177235Y-74527080D01*
X98957697Y-71746618D01*
X99019018Y-71713135D01*
X99088710Y-71718119D01*
X99144643Y-71759991D01*
X99145694Y-71761416D01*
X99208028Y-71847212D01*
X99208032Y-71847217D01*
X99352786Y-71991971D01*
X99498383Y-72097751D01*
X99518390Y-72112287D01*
X99598453Y-72153081D01*
X99700776Y-72205218D01*
X99700778Y-72205218D01*
X99700781Y-72205220D01*
X99805137Y-72239127D01*
X99895465Y-72268477D01*
X99996557Y-72284488D01*
X100097648Y-72300500D01*
X100097649Y-72300500D01*
X100302351Y-72300500D01*
X100302352Y-72300500D01*
X100504534Y-72268477D01*
X100699219Y-72205220D01*
X100881610Y-72112287D01*
X100974590Y-72044732D01*
X101047213Y-71991971D01*
X101047215Y-71991968D01*
X101047219Y-71991966D01*
X101191966Y-71847219D01*
X101191968Y-71847215D01*
X101191971Y-71847213D01*
X101244732Y-71774590D01*
X101312287Y-71681610D01*
X101339515Y-71628171D01*
X101387490Y-71577376D01*
X101455311Y-71560581D01*
X101521446Y-71583118D01*
X101560485Y-71628172D01*
X101587715Y-71681613D01*
X101708028Y-71847213D01*
X101852784Y-71991969D01*
X101921863Y-72042157D01*
X101998385Y-72097753D01*
X102041051Y-72153081D01*
X102049500Y-72198070D01*
X102049500Y-77429191D01*
X102029815Y-77496230D01*
X102013181Y-77516872D01*
X101087190Y-78442862D01*
X101025867Y-78476347D01*
X100980111Y-78477654D01*
X100834611Y-78454609D01*
X100802352Y-78449500D01*
X100597648Y-78449500D01*
X100573329Y-78453351D01*
X100395465Y-78481522D01*
X100200776Y-78544781D01*
X100018386Y-78637715D01*
X99852786Y-78758028D01*
X99708028Y-78902786D01*
X99587715Y-79068386D01*
X99494781Y-79250776D01*
X99431522Y-79445465D01*
X99399500Y-79647648D01*
X99399500Y-79852351D01*
X99431522Y-80054534D01*
X99494781Y-80249223D01*
X99543219Y-80344286D01*
X99587585Y-80431359D01*
X99587715Y-80431613D01*
X99708028Y-80597213D01*
X99852786Y-80741971D01*
X99973226Y-80829474D01*
X100018390Y-80862287D01*
X100200781Y-80955220D01*
X100395466Y-81018477D01*
X100395468Y-81018477D01*
X100400197Y-81019613D01*
X100399919Y-81020768D01*
X100458029Y-81048313D01*
X100494962Y-81107623D01*
X100499500Y-81140860D01*
X100499500Y-87451928D01*
X100479815Y-87518967D01*
X100448385Y-87552246D01*
X100302787Y-87658028D01*
X100302782Y-87658032D01*
X100158034Y-87802780D01*
X100110367Y-87868390D01*
X100052246Y-87948386D01*
X99996918Y-87991051D01*
X99951929Y-87999500D01*
X98035929Y-87999500D01*
X97910261Y-88024497D01*
X97910255Y-88024499D01*
X97861972Y-88044499D01*
X97861971Y-88044499D01*
X97791881Y-88073530D01*
X97791863Y-88073540D01*
X97685332Y-88144721D01*
X97685325Y-88144727D01*
X94716873Y-91113181D01*
X94655550Y-91146666D01*
X94629192Y-91149500D01*
X92735258Y-91149500D01*
X92518715Y-91178009D01*
X92507762Y-91179452D01*
X92483582Y-91185931D01*
X92286112Y-91238842D01*
X92074123Y-91326650D01*
X92074109Y-91326657D01*
X91875382Y-91441392D01*
X91693338Y-91581081D01*
X91531081Y-91743338D01*
X91391392Y-91925382D01*
X91276657Y-92124109D01*
X91276650Y-92124123D01*
X91188842Y-92336112D01*
X91129453Y-92557759D01*
X91129451Y-92557770D01*
X91099500Y-92785258D01*
X91099500Y-92975500D01*
X91079815Y-93042539D01*
X91027011Y-93088294D01*
X90975500Y-93099500D01*
X87414808Y-93099500D01*
X87347769Y-93079815D01*
X87302014Y-93027011D01*
X87292070Y-92957853D01*
X87321095Y-92894297D01*
X87327127Y-92887819D01*
X87557808Y-92657137D01*
X87619131Y-92623652D01*
X87664887Y-92622345D01*
X87842648Y-92650500D01*
X87842649Y-92650500D01*
X88047351Y-92650500D01*
X88047352Y-92650500D01*
X88249534Y-92618477D01*
X88444219Y-92555220D01*
X88626610Y-92462287D01*
X88719590Y-92394732D01*
X88792213Y-92341971D01*
X88792215Y-92341968D01*
X88792219Y-92341966D01*
X88936966Y-92197219D01*
X88936968Y-92197215D01*
X88936971Y-92197213D01*
X88990083Y-92124109D01*
X89057287Y-92031610D01*
X89150220Y-91849219D01*
X89213477Y-91654534D01*
X89245500Y-91452352D01*
X89245500Y-91247648D01*
X89234699Y-91179452D01*
X89213477Y-91045465D01*
X89176454Y-90931522D01*
X89150220Y-90850781D01*
X89150218Y-90850778D01*
X89150218Y-90850776D01*
X89082761Y-90718386D01*
X89057287Y-90668390D01*
X89019271Y-90616065D01*
X88936971Y-90502786D01*
X88792213Y-90358028D01*
X88626613Y-90237715D01*
X88626612Y-90237714D01*
X88626610Y-90237713D01*
X88569653Y-90208691D01*
X88444223Y-90144781D01*
X88249534Y-90081522D01*
X88074995Y-90053878D01*
X88047352Y-90049500D01*
X87924807Y-90049500D01*
X87857768Y-90029815D01*
X87812013Y-89977011D01*
X87802069Y-89907853D01*
X87831094Y-89844297D01*
X87837126Y-89837819D01*
X89429480Y-88245465D01*
X91030891Y-86644053D01*
X91092212Y-86610570D01*
X91161904Y-86615554D01*
X91217837Y-86657426D01*
X91242254Y-86722890D01*
X91233131Y-86779188D01*
X91188842Y-86886111D01*
X91188842Y-86886112D01*
X91188842Y-86886113D01*
X91143796Y-87054231D01*
X91129453Y-87107759D01*
X91129451Y-87107770D01*
X91099500Y-87335258D01*
X91099500Y-87564741D01*
X91124257Y-87752781D01*
X91129452Y-87792238D01*
X91164778Y-87924077D01*
X91188842Y-88013887D01*
X91276650Y-88225876D01*
X91276657Y-88225890D01*
X91391392Y-88424617D01*
X91531081Y-88606661D01*
X91531089Y-88606670D01*
X91693330Y-88768911D01*
X91693338Y-88768918D01*
X91875382Y-88908607D01*
X91875385Y-88908608D01*
X91875388Y-88908611D01*
X92074112Y-89023344D01*
X92074117Y-89023346D01*
X92074123Y-89023349D01*
X92136589Y-89049223D01*
X92286113Y-89111158D01*
X92507762Y-89170548D01*
X92735266Y-89200500D01*
X92735273Y-89200500D01*
X94964727Y-89200500D01*
X94964734Y-89200500D01*
X95192238Y-89170548D01*
X95413887Y-89111158D01*
X95625888Y-89023344D01*
X95824612Y-88908611D01*
X96006661Y-88768919D01*
X96006665Y-88768914D01*
X96006670Y-88768911D01*
X96168911Y-88606670D01*
X96168914Y-88606665D01*
X96168919Y-88606661D01*
X96308611Y-88424612D01*
X96423344Y-88225888D01*
X96511158Y-88013887D01*
X96570548Y-87792238D01*
X96600500Y-87564734D01*
X96600500Y-87335266D01*
X96570548Y-87107762D01*
X96511158Y-86886113D01*
X96423344Y-86674112D01*
X96308611Y-86475388D01*
X96308608Y-86475385D01*
X96308607Y-86475382D01*
X96168918Y-86293338D01*
X96168911Y-86293330D01*
X96006670Y-86131089D01*
X96006661Y-86131081D01*
X95824617Y-85991392D01*
X95625890Y-85876657D01*
X95625876Y-85876650D01*
X95413887Y-85788842D01*
X95354722Y-85772989D01*
X95192238Y-85729452D01*
X95154215Y-85724446D01*
X94964741Y-85699500D01*
X94964734Y-85699500D01*
X92735266Y-85699500D01*
X92735258Y-85699500D01*
X92518715Y-85728009D01*
X92507762Y-85729452D01*
X92433930Y-85749235D01*
X92286112Y-85788842D01*
X92286111Y-85788842D01*
X92179188Y-85833131D01*
X92109718Y-85840600D01*
X92047239Y-85809324D01*
X92011588Y-85749235D01*
X92014082Y-85679410D01*
X92044053Y-85630891D01*
X93888127Y-83786818D01*
X93949450Y-83753333D01*
X93975808Y-83750499D01*
X96147871Y-83750499D01*
X96147872Y-83750499D01*
X96207483Y-83744091D01*
X96342331Y-83693796D01*
X96457546Y-83607546D01*
X96543796Y-83492331D01*
X96594091Y-83357483D01*
X96600500Y-83297873D01*
X96600499Y-80702128D01*
X96594091Y-80642517D01*
X96583000Y-80612781D01*
X96543797Y-80507671D01*
X96543793Y-80507664D01*
X96457547Y-80392455D01*
X96457544Y-80392452D01*
X96342335Y-80306206D01*
X96342328Y-80306202D01*
X96207482Y-80255908D01*
X96207483Y-80255908D01*
X96147883Y-80249501D01*
X96147881Y-80249500D01*
X96147873Y-80249500D01*
X96147864Y-80249500D01*
X91552129Y-80249500D01*
X91552123Y-80249501D01*
X91492516Y-80255908D01*
X91357671Y-80306202D01*
X91357664Y-80306206D01*
X91242455Y-80392452D01*
X91242452Y-80392455D01*
X91156206Y-80507664D01*
X91156202Y-80507671D01*
X91105908Y-80642517D01*
X91099812Y-80699223D01*
X91099501Y-80702123D01*
X91099500Y-80702135D01*
X91099500Y-83297870D01*
X91099501Y-83297876D01*
X91105908Y-83357483D01*
X91156202Y-83492328D01*
X91156206Y-83492335D01*
X91242452Y-83607544D01*
X91242455Y-83607547D01*
X91357664Y-83693793D01*
X91357671Y-83693797D01*
X91375643Y-83700500D01*
X91492517Y-83744091D01*
X91552127Y-83750500D01*
X91785191Y-83750499D01*
X91852230Y-83770183D01*
X91897985Y-83822987D01*
X91907929Y-83892146D01*
X91878904Y-83955701D01*
X91872872Y-83962180D01*
X85792190Y-90042862D01*
X85730867Y-90076347D01*
X85685111Y-90077654D01*
X85539611Y-90054609D01*
X85507352Y-90049500D01*
X85302648Y-90049500D01*
X85278329Y-90053351D01*
X85100465Y-90081522D01*
X84905776Y-90144781D01*
X84723386Y-90237715D01*
X84557786Y-90358028D01*
X84413034Y-90502780D01*
X84368070Y-90564669D01*
X84307246Y-90648386D01*
X84251918Y-90691051D01*
X84206929Y-90699500D01*
X82471744Y-90699500D01*
X82404705Y-90679815D01*
X82371425Y-90648384D01*
X82301969Y-90552784D01*
X82157213Y-90408028D01*
X81991613Y-90287715D01*
X81991612Y-90287714D01*
X81991610Y-90287713D01*
X81893480Y-90237713D01*
X81809223Y-90194781D01*
X81614534Y-90131522D01*
X81439995Y-90103878D01*
X81412352Y-90099500D01*
X81207648Y-90099500D01*
X81183329Y-90103351D01*
X81005465Y-90131522D01*
X80810776Y-90194781D01*
X80628386Y-90287715D01*
X80462786Y-90408028D01*
X80318028Y-90552786D01*
X80197715Y-90718386D01*
X80104781Y-90900776D01*
X80041522Y-91095465D01*
X80022642Y-91214673D01*
X80009500Y-91297648D01*
X80009500Y-91502352D01*
X80033604Y-91654534D01*
X80041930Y-91707102D01*
X80032976Y-91776395D01*
X79987980Y-91829847D01*
X79921228Y-91850487D01*
X79919457Y-91850500D01*
X75114499Y-91850500D01*
X75047460Y-91830815D01*
X75001705Y-91778011D01*
X74990499Y-91726500D01*
X74990499Y-91070808D01*
X75010184Y-91003769D01*
X75026818Y-90983127D01*
X75960446Y-90049500D01*
X76925277Y-89084669D01*
X76996465Y-88978127D01*
X77045501Y-88859744D01*
X77049479Y-88839744D01*
X77070500Y-88734069D01*
X77070500Y-87738070D01*
X77090185Y-87671031D01*
X77121613Y-87637753D01*
X77267219Y-87531966D01*
X77411966Y-87387219D01*
X77411968Y-87387215D01*
X77411971Y-87387213D01*
X77488758Y-87281523D01*
X77532287Y-87221610D01*
X77625220Y-87039219D01*
X77688477Y-86844534D01*
X77720500Y-86642352D01*
X77720500Y-86437648D01*
X77691606Y-86255220D01*
X77688477Y-86235465D01*
X77627451Y-86047648D01*
X77625220Y-86040781D01*
X77625218Y-86040778D01*
X77625218Y-86040776D01*
X77552068Y-85897213D01*
X77532287Y-85858390D01*
X77519362Y-85840600D01*
X77411971Y-85692786D01*
X77267213Y-85548028D01*
X77101614Y-85427715D01*
X77095006Y-85424348D01*
X77008917Y-85380483D01*
X76958123Y-85332511D01*
X76941328Y-85264690D01*
X76963865Y-85198555D01*
X77008917Y-85159516D01*
X77101610Y-85112287D01*
X77122770Y-85096913D01*
X77267213Y-84991971D01*
X77267215Y-84991968D01*
X77267219Y-84991966D01*
X77411966Y-84847219D01*
X77414650Y-84843524D01*
X77445100Y-84801615D01*
X77500429Y-84758949D01*
X77545418Y-84750500D01*
X80373920Y-84750500D01*
X80471462Y-84731096D01*
X80518913Y-84721658D01*
X80629675Y-84675779D01*
X80655488Y-84665087D01*
X80655488Y-84665086D01*
X80655495Y-84665084D01*
X80714735Y-84625501D01*
X80778416Y-84582952D01*
X81334895Y-84026470D01*
X81396214Y-83992988D01*
X81441970Y-83991681D01*
X81497648Y-84000500D01*
X81497649Y-84000500D01*
X81702351Y-84000500D01*
X81702352Y-84000500D01*
X81904534Y-83968477D01*
X82099219Y-83905220D01*
X82281610Y-83812287D01*
X82407616Y-83720739D01*
X82447213Y-83691971D01*
X82447215Y-83691968D01*
X82447219Y-83691966D01*
X82591966Y-83547219D01*
X82591968Y-83547215D01*
X82591971Y-83547213D01*
X82667159Y-83443724D01*
X82712287Y-83381610D01*
X82805220Y-83199219D01*
X82868477Y-83004534D01*
X82900500Y-82802352D01*
X82900500Y-82597648D01*
X82868477Y-82395466D01*
X82863946Y-82381522D01*
X82805218Y-82200776D01*
X82751191Y-82094743D01*
X82712287Y-82018390D01*
X82676455Y-81969071D01*
X82591971Y-81852786D01*
X82447213Y-81708028D01*
X82281613Y-81587715D01*
X82281612Y-81587714D01*
X82281610Y-81587713D01*
X82228171Y-81560484D01*
X82177376Y-81512510D01*
X82160581Y-81444689D01*
X82183118Y-81378554D01*
X82228172Y-81339515D01*
X82281610Y-81312287D01*
X82392400Y-81231794D01*
X82447213Y-81191971D01*
X82447215Y-81191968D01*
X82447219Y-81191966D01*
X82591966Y-81047219D01*
X82591968Y-81047215D01*
X82591971Y-81047213D01*
X82654770Y-80960776D01*
X82712287Y-80881610D01*
X82805220Y-80699219D01*
X82868477Y-80504534D01*
X82900500Y-80302352D01*
X82900500Y-80097648D01*
X82879249Y-79963477D01*
X82868477Y-79895465D01*
X82829637Y-79775928D01*
X82805220Y-79700781D01*
X82805218Y-79700778D01*
X82805218Y-79700776D01*
X82757344Y-79606819D01*
X82712287Y-79518390D01*
X82662611Y-79450016D01*
X82591971Y-79352786D01*
X82447213Y-79208028D01*
X82281613Y-79087715D01*
X82281612Y-79087714D01*
X82281610Y-79087713D01*
X82198209Y-79045218D01*
X82099223Y-78994781D01*
X81904534Y-78931522D01*
X81729995Y-78903878D01*
X81702352Y-78899500D01*
X81497648Y-78899500D01*
X81319886Y-78927654D01*
X81250593Y-78918699D01*
X81212808Y-78892862D01*
X80734674Y-78414727D01*
X80734673Y-78414726D01*
X80734669Y-78414723D01*
X80628127Y-78343535D01*
X80617707Y-78339219D01*
X80543190Y-78308353D01*
X80509744Y-78294499D01*
X80509742Y-78294498D01*
X80509741Y-78294498D01*
X80504903Y-78293536D01*
X80504898Y-78293535D01*
X80384071Y-78269500D01*
X80384069Y-78269500D01*
X77618071Y-78269500D01*
X77551032Y-78249815D01*
X77517754Y-78218386D01*
X77411966Y-78072781D01*
X77267219Y-77928034D01*
X77267217Y-77928032D01*
X77267212Y-77928028D01*
X77121615Y-77822246D01*
X77078949Y-77766916D01*
X77070500Y-77721928D01*
X77070500Y-75424500D01*
X77090185Y-75357461D01*
X77142989Y-75311706D01*
X77194500Y-75300500D01*
X77450005Y-75300500D01*
X77450010Y-75300500D01*
X77552798Y-75289999D01*
X77719335Y-75234814D01*
X77868656Y-75142712D01*
X77992712Y-75018656D01*
X78084814Y-74869335D01*
X78139999Y-74702798D01*
X78150500Y-74600010D01*
X78150500Y-72799990D01*
X78139999Y-72697202D01*
X78084814Y-72530665D01*
X77992712Y-72381344D01*
X77868656Y-72257288D01*
X77719335Y-72165186D01*
X77552798Y-72110001D01*
X77552796Y-72110000D01*
X77450017Y-72099500D01*
X77450010Y-72099500D01*
X75649990Y-72099500D01*
X75649982Y-72099500D01*
X75547203Y-72110000D01*
X75547202Y-72110001D01*
X75483738Y-72131031D01*
X75380667Y-72165185D01*
X75380662Y-72165187D01*
X75231342Y-72257289D01*
X75107289Y-72381342D01*
X75015187Y-72530662D01*
X75015185Y-72530667D01*
X75011341Y-72542267D01*
X74960001Y-72697202D01*
X74960001Y-72697203D01*
X74960000Y-72697203D01*
X74949500Y-72799982D01*
X74949500Y-74600017D01*
X74960000Y-74702796D01*
X75015185Y-74869332D01*
X75015187Y-74869337D01*
X75032442Y-74897312D01*
X75107288Y-75018656D01*
X75231344Y-75142712D01*
X75380665Y-75234814D01*
X75547202Y-75289999D01*
X75649990Y-75300500D01*
X75650003Y-75300500D01*
X75651802Y-75300592D01*
X75652178Y-75300723D01*
X75653131Y-75300821D01*
X75653107Y-75301048D01*
X75717754Y-75323658D01*
X75760766Y-75378719D01*
X75769500Y-75424432D01*
X75769500Y-77721928D01*
X75749815Y-77788967D01*
X75718385Y-77822246D01*
X75572787Y-77928028D01*
X75572782Y-77928032D01*
X75428028Y-78072786D01*
X75307715Y-78238386D01*
X75214781Y-78420776D01*
X75151522Y-78615465D01*
X75119500Y-78817648D01*
X75119500Y-78940192D01*
X75099815Y-79007231D01*
X75047011Y-79052986D01*
X74977853Y-79062930D01*
X74914297Y-79033905D01*
X74907819Y-79027873D01*
X74516819Y-78636873D01*
X74483334Y-78575550D01*
X74480500Y-78549192D01*
X74480500Y-70285258D01*
X91099500Y-70285258D01*
X91099500Y-70514741D01*
X91115807Y-70638599D01*
X91129452Y-70742238D01*
X91147984Y-70811400D01*
X91188842Y-70963887D01*
X91276650Y-71175876D01*
X91276657Y-71175890D01*
X91391392Y-71374617D01*
X91531081Y-71556661D01*
X91531089Y-71556670D01*
X91693330Y-71718911D01*
X91693338Y-71718918D01*
X91693339Y-71718919D01*
X91734496Y-71750500D01*
X91875382Y-71858607D01*
X91875385Y-71858608D01*
X91875388Y-71858611D01*
X92074112Y-71973344D01*
X92074117Y-71973346D01*
X92074123Y-71973349D01*
X92165480Y-72011190D01*
X92286113Y-72061158D01*
X92507762Y-72120548D01*
X92735266Y-72150500D01*
X92735273Y-72150500D01*
X94964727Y-72150500D01*
X94964734Y-72150500D01*
X95192238Y-72120548D01*
X95413887Y-72061158D01*
X95625888Y-71973344D01*
X95824612Y-71858611D01*
X96006661Y-71718919D01*
X96006665Y-71718914D01*
X96006670Y-71718911D01*
X96168911Y-71556670D01*
X96168914Y-71556665D01*
X96168919Y-71556661D01*
X96308611Y-71374612D01*
X96423344Y-71175888D01*
X96511158Y-70963887D01*
X96570548Y-70742238D01*
X96600500Y-70514734D01*
X96600500Y-70285266D01*
X96570548Y-70057762D01*
X96511158Y-69836113D01*
X96455936Y-69702795D01*
X96423349Y-69624123D01*
X96423346Y-69624117D01*
X96423344Y-69624112D01*
X96308611Y-69425388D01*
X96308608Y-69425385D01*
X96308607Y-69425382D01*
X96170025Y-69244781D01*
X96168919Y-69243339D01*
X96168918Y-69243338D01*
X96168911Y-69243330D01*
X96006670Y-69081089D01*
X96006661Y-69081081D01*
X95824617Y-68941392D01*
X95780716Y-68916046D01*
X95732352Y-68888123D01*
X95625890Y-68826657D01*
X95625876Y-68826650D01*
X95413887Y-68738842D01*
X95192238Y-68679452D01*
X95154215Y-68674446D01*
X94964741Y-68649500D01*
X94964734Y-68649500D01*
X92735266Y-68649500D01*
X92735258Y-68649500D01*
X92518715Y-68678009D01*
X92507762Y-68679452D01*
X92476827Y-68687741D01*
X92286112Y-68738842D01*
X92074123Y-68826650D01*
X92074109Y-68826657D01*
X91875382Y-68941392D01*
X91693338Y-69081081D01*
X91531081Y-69243338D01*
X91391392Y-69425382D01*
X91276657Y-69624109D01*
X91276650Y-69624123D01*
X91188842Y-69836112D01*
X91171933Y-69899219D01*
X91142777Y-70008034D01*
X91129453Y-70057759D01*
X91129451Y-70057770D01*
X91099500Y-70285258D01*
X74480500Y-70285258D01*
X74480500Y-69054071D01*
X74500185Y-68987032D01*
X74552989Y-68941277D01*
X74622147Y-68931333D01*
X74651950Y-68939509D01*
X74741256Y-68976501D01*
X74741260Y-68976501D01*
X74741261Y-68976502D01*
X74866928Y-69001500D01*
X74866931Y-69001500D01*
X86563071Y-69001500D01*
X86647615Y-68984682D01*
X86688744Y-68976501D01*
X86807127Y-68927465D01*
X86812260Y-68924035D01*
X86913669Y-68856277D01*
X87362808Y-68407136D01*
X87424131Y-68373652D01*
X87469887Y-68372345D01*
X87647648Y-68400500D01*
X87647649Y-68400500D01*
X87852351Y-68400500D01*
X87852352Y-68400500D01*
X88054534Y-68368477D01*
X88249219Y-68305220D01*
X88431610Y-68212287D01*
X88524651Y-68144689D01*
X88597213Y-68091971D01*
X88597215Y-68091968D01*
X88597219Y-68091966D01*
X88741966Y-67947219D01*
X88741968Y-67947215D01*
X88741971Y-67947213D01*
X88805281Y-67860073D01*
X88862287Y-67781610D01*
X88955220Y-67599219D01*
X89018477Y-67404534D01*
X89050500Y-67202352D01*
X89050500Y-66997648D01*
X89030995Y-66874501D01*
X89018477Y-66795465D01*
X88985538Y-66694091D01*
X88955220Y-66600781D01*
X88955218Y-66600778D01*
X88955218Y-66600776D01*
X88915861Y-66523534D01*
X88862287Y-66418390D01*
X88850947Y-66402782D01*
X88741971Y-66252786D01*
X88597213Y-66108028D01*
X88431613Y-65987715D01*
X88431612Y-65987714D01*
X88431610Y-65987713D01*
X88356613Y-65949500D01*
X88249223Y-65894781D01*
X88054534Y-65831522D01*
X87879995Y-65803878D01*
X87852352Y-65799500D01*
X87659097Y-65799500D01*
X87637851Y-65793261D01*
X87615763Y-65791682D01*
X87604979Y-65783609D01*
X87592058Y-65779815D01*
X87577558Y-65763081D01*
X87559830Y-65749810D01*
X87555122Y-65737189D01*
X87546303Y-65727011D01*
X87543151Y-65705093D01*
X87535413Y-65684346D01*
X87538275Y-65671185D01*
X87536359Y-65657853D01*
X87545558Y-65637709D01*
X87550265Y-65616073D01*
X87563533Y-65598347D01*
X87565384Y-65594297D01*
X87571416Y-65587819D01*
X87572416Y-65586819D01*
X87633739Y-65553334D01*
X87660097Y-65550500D01*
X90975501Y-65550500D01*
X91042540Y-65570185D01*
X91088295Y-65622989D01*
X91099501Y-65674500D01*
X91099501Y-66247876D01*
X91105908Y-66307483D01*
X91156202Y-66442328D01*
X91156206Y-66442335D01*
X91242452Y-66557544D01*
X91242455Y-66557547D01*
X91357664Y-66643793D01*
X91357671Y-66643797D01*
X91492517Y-66694091D01*
X91492516Y-66694091D01*
X91499444Y-66694835D01*
X91552127Y-66700500D01*
X96147872Y-66700499D01*
X96207483Y-66694091D01*
X96342331Y-66643796D01*
X96457546Y-66557546D01*
X96543796Y-66442331D01*
X96594091Y-66307483D01*
X96600500Y-66247873D01*
X96600499Y-64323499D01*
X96620184Y-64256461D01*
X96672987Y-64210706D01*
X96724499Y-64199500D01*
X105266060Y-64199500D01*
X105333099Y-64219185D01*
X105353741Y-64235819D01*
X111363898Y-70245976D01*
X111397383Y-70307299D01*
X111399835Y-70343377D01*
X111399500Y-70347637D01*
X111399500Y-70552351D01*
X111431522Y-70754534D01*
X111494781Y-70949223D01*
X111558691Y-71074653D01*
X111572805Y-71102352D01*
X111587715Y-71131613D01*
X111708028Y-71297213D01*
X111852786Y-71441971D01*
X111986383Y-71539033D01*
X112018390Y-71562287D01*
X112134607Y-71621503D01*
X112200776Y-71655218D01*
X112200778Y-71655218D01*
X112200781Y-71655220D01*
X112305137Y-71689127D01*
X112395465Y-71718477D01*
X112496557Y-71734488D01*
X112597648Y-71750500D01*
X112597649Y-71750500D01*
X112802351Y-71750500D01*
X112802352Y-71750500D01*
X113004534Y-71718477D01*
X113199219Y-71655220D01*
X113381610Y-71562287D01*
X113505889Y-71471994D01*
X113547213Y-71441971D01*
X113547215Y-71441968D01*
X113547219Y-71441966D01*
X113691966Y-71297219D01*
X113691968Y-71297215D01*
X113691971Y-71297213D01*
X113761010Y-71202187D01*
X113812287Y-71131610D01*
X113839515Y-71078171D01*
X113887490Y-71027376D01*
X113955311Y-71010581D01*
X114021446Y-71033118D01*
X114060484Y-71078171D01*
X114072805Y-71102352D01*
X114087715Y-71131613D01*
X114208028Y-71297213D01*
X114352786Y-71441971D01*
X114486383Y-71539033D01*
X114518390Y-71562287D01*
X114634607Y-71621503D01*
X114700776Y-71655218D01*
X114700778Y-71655218D01*
X114700781Y-71655220D01*
X114805137Y-71689127D01*
X114895465Y-71718477D01*
X114996557Y-71734488D01*
X115097648Y-71750500D01*
X115097649Y-71750500D01*
X115302351Y-71750500D01*
X115302352Y-71750500D01*
X115504534Y-71718477D01*
X115699219Y-71655220D01*
X115881610Y-71562287D01*
X116005889Y-71471994D01*
X116047213Y-71441971D01*
X116047215Y-71441968D01*
X116047219Y-71441966D01*
X116191966Y-71297219D01*
X116191968Y-71297215D01*
X116191971Y-71297213D01*
X116261010Y-71202187D01*
X116312287Y-71131610D01*
X116405220Y-70949219D01*
X116468477Y-70754534D01*
X116500500Y-70552352D01*
X116500500Y-70347648D01*
X116491369Y-70289998D01*
X116468477Y-70145465D01*
X116423823Y-70008035D01*
X116405220Y-69950781D01*
X116405218Y-69950778D01*
X116405218Y-69950776D01*
X116363722Y-69869336D01*
X116312287Y-69768390D01*
X116300950Y-69752786D01*
X116191971Y-69602786D01*
X116047213Y-69458028D01*
X115881613Y-69337715D01*
X115881612Y-69337714D01*
X115881610Y-69337713D01*
X115802978Y-69297648D01*
X115699223Y-69244781D01*
X115504534Y-69181522D01*
X115329995Y-69153878D01*
X115302352Y-69149500D01*
X115097648Y-69149500D01*
X115073329Y-69153351D01*
X114895465Y-69181522D01*
X114700776Y-69244781D01*
X114518386Y-69337715D01*
X114352786Y-69458028D01*
X114208028Y-69602786D01*
X114087713Y-69768388D01*
X114060484Y-69821828D01*
X114012510Y-69872623D01*
X113944688Y-69889418D01*
X113878554Y-69866880D01*
X113839516Y-69821828D01*
X113812286Y-69768388D01*
X113691971Y-69602786D01*
X113547213Y-69458028D01*
X113381613Y-69337715D01*
X113381612Y-69337714D01*
X113381610Y-69337713D01*
X113302978Y-69297648D01*
X113199223Y-69244781D01*
X113004534Y-69181522D01*
X112829995Y-69153878D01*
X112802352Y-69149500D01*
X112597648Y-69149500D01*
X112597638Y-69149500D01*
X112593377Y-69149835D01*
X112525001Y-69135466D01*
X112495976Y-69113898D01*
X106914201Y-63532123D01*
X106880716Y-63470800D01*
X106885700Y-63401108D01*
X106927572Y-63345175D01*
X106982481Y-63321969D01*
X107004534Y-63318477D01*
X107199219Y-63255220D01*
X107381610Y-63162287D01*
X107513093Y-63066760D01*
X107547213Y-63041971D01*
X107547215Y-63041968D01*
X107547219Y-63041966D01*
X107691966Y-62897219D01*
X107691968Y-62897215D01*
X107691971Y-62897213D01*
X107773632Y-62784814D01*
X107812287Y-62731610D01*
X107839515Y-62678171D01*
X107887490Y-62627376D01*
X107955311Y-62610581D01*
X108021446Y-62633118D01*
X108060484Y-62678171D01*
X108067893Y-62692712D01*
X108087715Y-62731613D01*
X108208028Y-62897213D01*
X108352786Y-63041971D01*
X108498241Y-63147648D01*
X108518390Y-63162287D01*
X108634607Y-63221503D01*
X108700776Y-63255218D01*
X108700778Y-63255218D01*
X108700781Y-63255220D01*
X108805137Y-63289127D01*
X108895465Y-63318477D01*
X108963199Y-63329205D01*
X109097648Y-63350500D01*
X109097649Y-63350500D01*
X109302351Y-63350500D01*
X109302352Y-63350500D01*
X109504534Y-63318477D01*
X109699219Y-63255220D01*
X109881610Y-63162287D01*
X110013093Y-63066760D01*
X110047213Y-63041971D01*
X110047215Y-63041968D01*
X110047219Y-63041966D01*
X110191966Y-62897219D01*
X110297753Y-62751613D01*
X110353082Y-62708949D01*
X110398071Y-62700500D01*
X113564071Y-62700500D01*
X113676316Y-62678172D01*
X113689744Y-62675501D01*
X113736510Y-62656129D01*
X113805977Y-62648661D01*
X113868456Y-62679935D01*
X113871642Y-62683010D01*
X113881344Y-62692712D01*
X114030666Y-62784814D01*
X114197203Y-62839999D01*
X114299991Y-62850500D01*
X115700008Y-62850499D01*
X115802797Y-62839999D01*
X115969334Y-62784814D01*
X116118656Y-62692712D01*
X116242712Y-62568656D01*
X116334814Y-62419334D01*
X116389999Y-62252797D01*
X116400500Y-62150009D01*
X116400499Y-59539778D01*
X117099500Y-59539778D01*
X117099500Y-61560221D01*
X117133985Y-61777952D01*
X117202103Y-61987603D01*
X117202104Y-61987606D01*
X117231237Y-62044781D01*
X117284854Y-62150009D01*
X117302187Y-62184025D01*
X117431752Y-62362358D01*
X117431756Y-62362363D01*
X117587636Y-62518243D01*
X117587641Y-62518247D01*
X117671007Y-62578815D01*
X117765978Y-62647815D01*
X117869377Y-62700500D01*
X117962393Y-62747895D01*
X117962396Y-62747896D01*
X118067221Y-62781955D01*
X118172049Y-62816015D01*
X118389778Y-62850500D01*
X118389779Y-62850500D01*
X118610221Y-62850500D01*
X118610222Y-62850500D01*
X118827951Y-62816015D01*
X119037606Y-62747895D01*
X119234022Y-62647815D01*
X119412365Y-62518242D01*
X119568242Y-62362365D01*
X119697815Y-62184022D01*
X119797895Y-61987606D01*
X119866015Y-61777951D01*
X119900500Y-61560222D01*
X119900500Y-59539778D01*
X119866015Y-59322049D01*
X119797895Y-59112394D01*
X119797895Y-59112393D01*
X119715149Y-58949998D01*
X119697815Y-58915978D01*
X119647848Y-58847204D01*
X119568247Y-58737641D01*
X119568243Y-58737636D01*
X119412363Y-58581756D01*
X119412358Y-58581752D01*
X119234025Y-58452187D01*
X119234024Y-58452186D01*
X119234022Y-58452185D01*
X119145908Y-58407288D01*
X119037606Y-58352104D01*
X119037603Y-58352103D01*
X118827952Y-58283985D01*
X118676516Y-58260000D01*
X118610222Y-58249500D01*
X118389778Y-58249500D01*
X118323484Y-58260000D01*
X118172047Y-58283985D01*
X117962396Y-58352103D01*
X117962393Y-58352104D01*
X117765974Y-58452187D01*
X117587641Y-58581752D01*
X117587636Y-58581756D01*
X117431756Y-58737636D01*
X117431752Y-58737641D01*
X117302187Y-58915974D01*
X117202104Y-59112393D01*
X117202103Y-59112396D01*
X117133985Y-59322047D01*
X117099500Y-59539778D01*
X116400499Y-59539778D01*
X116400499Y-58949992D01*
X116400420Y-58949223D01*
X116389999Y-58847203D01*
X116389998Y-58847200D01*
X116389184Y-58844744D01*
X116334814Y-58680666D01*
X116242712Y-58531344D01*
X116118656Y-58407288D01*
X115969334Y-58315186D01*
X115802797Y-58260001D01*
X115802795Y-58260000D01*
X115700010Y-58249500D01*
X114299998Y-58249500D01*
X114299981Y-58249501D01*
X114197203Y-58260000D01*
X114197200Y-58260001D01*
X114030668Y-58315185D01*
X114030663Y-58315187D01*
X113881342Y-58407289D01*
X113757289Y-58531342D01*
X113665187Y-58680663D01*
X113665185Y-58680668D01*
X113638705Y-58760581D01*
X113610001Y-58847203D01*
X113610001Y-58847204D01*
X113610000Y-58847204D01*
X113599500Y-58949983D01*
X113599500Y-60979191D01*
X113579815Y-61046230D01*
X113563181Y-61066872D01*
X113266873Y-61363181D01*
X113205550Y-61396666D01*
X113179192Y-61399500D01*
X110398071Y-61399500D01*
X110331032Y-61379815D01*
X110297754Y-61348386D01*
X110191966Y-61202781D01*
X110047219Y-61058034D01*
X110047213Y-61058028D01*
X109881613Y-60937715D01*
X109881612Y-60937714D01*
X109881610Y-60937713D01*
X109824653Y-60908691D01*
X109699223Y-60844781D01*
X109504534Y-60781522D01*
X109321918Y-60752599D01*
X109302352Y-60749500D01*
X109097648Y-60749500D01*
X109078082Y-60752599D01*
X108895465Y-60781522D01*
X108700776Y-60844781D01*
X108518386Y-60937715D01*
X108352786Y-61058028D01*
X108208028Y-61202786D01*
X108087713Y-61368388D01*
X108060484Y-61421828D01*
X108012510Y-61472623D01*
X107944688Y-61489418D01*
X107878554Y-61466880D01*
X107839516Y-61421828D01*
X107812286Y-61368388D01*
X107691971Y-61202786D01*
X107547213Y-61058028D01*
X107381613Y-60937715D01*
X107381612Y-60937714D01*
X107381610Y-60937713D01*
X107324653Y-60908691D01*
X107199223Y-60844781D01*
X107004534Y-60781522D01*
X106821918Y-60752599D01*
X106802352Y-60749500D01*
X106597648Y-60749500D01*
X106578082Y-60752599D01*
X106395465Y-60781522D01*
X106200776Y-60844781D01*
X106018386Y-60937715D01*
X105852786Y-61058028D01*
X105708028Y-61202786D01*
X105587715Y-61368386D01*
X105494781Y-61550776D01*
X105431522Y-61745465D01*
X105399500Y-61947648D01*
X105399500Y-62152351D01*
X105431522Y-62354534D01*
X105458052Y-62436181D01*
X105460047Y-62506022D01*
X105423967Y-62565855D01*
X105361267Y-62596684D01*
X105340121Y-62598500D01*
X103290860Y-62598500D01*
X103223821Y-62578815D01*
X103178066Y-62526011D01*
X103168122Y-62456853D01*
X103168387Y-62455102D01*
X103199601Y-62258028D01*
X103200500Y-62252352D01*
X103200500Y-62047648D01*
X103184661Y-61947648D01*
X103168477Y-61845465D01*
X103105218Y-61650776D01*
X103052756Y-61547815D01*
X103012287Y-61468390D01*
X102978458Y-61421828D01*
X102891971Y-61302786D01*
X102747213Y-61158028D01*
X102581613Y-61037715D01*
X102581612Y-61037714D01*
X102581610Y-61037713D01*
X102524653Y-61008691D01*
X102399223Y-60944781D01*
X102204534Y-60881522D01*
X102029995Y-60853878D01*
X102002352Y-60849500D01*
X101797648Y-60849500D01*
X101619886Y-60877654D01*
X101550593Y-60868699D01*
X101512808Y-60842862D01*
X98914674Y-58244727D01*
X98914673Y-58244726D01*
X98914669Y-58244723D01*
X98808127Y-58173535D01*
X98689744Y-58124499D01*
X98689738Y-58124497D01*
X98564071Y-58099500D01*
X98564069Y-58099500D01*
X96340824Y-58099500D01*
X96273785Y-58079815D01*
X96230339Y-58031795D01*
X96191673Y-57955909D01*
X96168870Y-57911155D01*
X96149952Y-57885117D01*
X96020798Y-57707350D01*
X96020794Y-57707345D01*
X95842654Y-57529205D01*
X95842649Y-57529201D01*
X95638848Y-57381132D01*
X95638847Y-57381131D01*
X95638845Y-57381130D01*
X95568747Y-57345413D01*
X95414383Y-57266760D01*
X95174785Y-57188910D01*
X95022416Y-57164777D01*
X94925962Y-57149500D01*
X94674038Y-57149500D01*
X94577584Y-57164777D01*
X94425214Y-57188910D01*
X94185616Y-57266760D01*
X93961151Y-57381132D01*
X93757350Y-57529201D01*
X93757345Y-57529205D01*
X93579205Y-57707345D01*
X93579201Y-57707350D01*
X93431132Y-57911151D01*
X93316760Y-58135616D01*
X93238910Y-58375214D01*
X93226125Y-58455934D01*
X93199500Y-58624038D01*
X93199500Y-58875962D01*
X93211224Y-58949981D01*
X93238910Y-59124785D01*
X93316760Y-59364383D01*
X93431132Y-59588848D01*
X93579201Y-59792649D01*
X93579205Y-59792654D01*
X93757345Y-59970794D01*
X93757350Y-59970798D01*
X93929070Y-60095559D01*
X93961155Y-60118870D01*
X94104184Y-60191747D01*
X94185616Y-60233239D01*
X94185618Y-60233239D01*
X94185621Y-60233241D01*
X94425215Y-60311090D01*
X94674038Y-60350500D01*
X94674039Y-60350500D01*
X94925961Y-60350500D01*
X94925962Y-60350500D01*
X95174785Y-60311090D01*
X95414379Y-60233241D01*
X95638845Y-60118870D01*
X95842656Y-59970793D01*
X96020793Y-59792656D01*
X96168870Y-59588845D01*
X96222490Y-59483609D01*
X96230339Y-59468205D01*
X96278314Y-59417409D01*
X96340824Y-59400500D01*
X98179192Y-59400500D01*
X98246231Y-59420185D01*
X98266873Y-59436819D01*
X99467873Y-60637819D01*
X99501358Y-60699142D01*
X99496374Y-60768834D01*
X99454502Y-60824767D01*
X99389038Y-60849184D01*
X99380192Y-60849500D01*
X99297648Y-60849500D01*
X99273329Y-60853351D01*
X99095465Y-60881522D01*
X98900776Y-60944781D01*
X98718386Y-61037715D01*
X98552786Y-61158028D01*
X98408028Y-61302786D01*
X98287715Y-61468386D01*
X98194781Y-61650776D01*
X98131522Y-61845465D01*
X98115045Y-61949500D01*
X98099500Y-62047648D01*
X98099500Y-62252352D01*
X98100399Y-62258028D01*
X98131613Y-62455102D01*
X98122659Y-62524395D01*
X98077662Y-62577847D01*
X98010911Y-62598487D01*
X98009140Y-62598500D01*
X82778723Y-62598500D01*
X82711684Y-62578815D01*
X82691042Y-62562181D01*
X81052728Y-60923867D01*
X81019243Y-60862544D01*
X81024227Y-60792852D01*
X81066099Y-60736919D01*
X81067524Y-60735868D01*
X81118073Y-60699142D01*
X81246566Y-60605786D01*
X81408286Y-60444066D01*
X81542717Y-60259038D01*
X81646548Y-60055258D01*
X81717222Y-59837745D01*
X81753000Y-59611854D01*
X81753000Y-59288146D01*
X81717222Y-59062255D01*
X81717221Y-59062251D01*
X81717221Y-59062250D01*
X81646549Y-58844744D01*
X81562947Y-58680666D01*
X81542717Y-58640962D01*
X81408286Y-58455934D01*
X81246566Y-58294214D01*
X81061538Y-58159783D01*
X81032103Y-58144785D01*
X80857755Y-58055950D01*
X80640248Y-57985278D01*
X80539403Y-57969306D01*
X80454818Y-57955909D01*
X80414354Y-57949500D01*
X80185646Y-57949500D01*
X80145188Y-57955908D01*
X79959753Y-57985278D01*
X79959750Y-57985278D01*
X79742242Y-58055951D01*
X79742241Y-58055951D01*
X79541632Y-58158166D01*
X79472963Y-58171062D01*
X79408223Y-58144785D01*
X79397657Y-58135362D01*
X79112277Y-57849982D01*
X83039500Y-57849982D01*
X83039500Y-59650017D01*
X83050000Y-59752796D01*
X83105185Y-59919332D01*
X83105187Y-59919337D01*
X83136926Y-59970793D01*
X83197288Y-60068656D01*
X83321344Y-60192712D01*
X83470665Y-60284814D01*
X83637202Y-60339999D01*
X83739990Y-60350500D01*
X83739995Y-60350500D01*
X85540005Y-60350500D01*
X85540010Y-60350500D01*
X85642798Y-60339999D01*
X85809335Y-60284814D01*
X85958656Y-60192712D01*
X86082712Y-60068656D01*
X86174814Y-59919335D01*
X86229999Y-59752798D01*
X86240500Y-59650010D01*
X86240500Y-57849990D01*
X86229999Y-57747202D01*
X86174814Y-57580665D01*
X86082712Y-57431344D01*
X85958656Y-57307288D01*
X85809335Y-57215186D01*
X85642798Y-57160001D01*
X85642796Y-57160000D01*
X85540017Y-57149500D01*
X85540010Y-57149500D01*
X83739990Y-57149500D01*
X83739982Y-57149500D01*
X83637203Y-57160000D01*
X83637202Y-57160001D01*
X83554669Y-57187349D01*
X83470667Y-57215185D01*
X83470662Y-57215187D01*
X83321342Y-57307289D01*
X83197289Y-57431342D01*
X83105187Y-57580662D01*
X83105185Y-57580667D01*
X83078626Y-57660818D01*
X83050001Y-57747202D01*
X83050001Y-57747203D01*
X83050000Y-57747203D01*
X83039500Y-57849982D01*
X79112277Y-57849982D01*
X77338509Y-56076213D01*
X77338505Y-56076210D01*
X77207402Y-55988609D01*
X77207389Y-55988602D01*
X77061718Y-55928264D01*
X77061706Y-55928261D01*
X76907062Y-55897500D01*
X76907059Y-55897500D01*
X34623792Y-55897500D01*
X34466108Y-55897500D01*
X34466105Y-55897500D01*
X34311460Y-55928261D01*
X34311448Y-55928264D01*
X34165777Y-55988602D01*
X34165764Y-55988609D01*
X34034661Y-56076210D01*
X34034657Y-56076213D01*
X33188711Y-56922161D01*
X33132960Y-56977912D01*
X33077209Y-57033662D01*
X32989609Y-57164764D01*
X32989602Y-57164777D01*
X32929264Y-57310448D01*
X32929261Y-57310460D01*
X32898500Y-57465103D01*
X32898500Y-65982846D01*
X32929261Y-66137489D01*
X32929264Y-66137501D01*
X32989602Y-66283172D01*
X32989609Y-66283185D01*
X33077210Y-66414288D01*
X33077213Y-66414292D01*
X35611656Y-68948734D01*
X35645141Y-69010057D01*
X35640157Y-69079749D01*
X35598285Y-69135682D01*
X35543373Y-69158888D01*
X35400465Y-69181522D01*
X35205776Y-69244781D01*
X35023386Y-69337715D01*
X34857786Y-69458028D01*
X34713028Y-69602786D01*
X34592715Y-69768386D01*
X34499781Y-69950776D01*
X34436522Y-70145465D01*
X34404500Y-70347648D01*
X34404500Y-70552351D01*
X34436522Y-70754534D01*
X34499781Y-70949223D01*
X34572311Y-71091569D01*
X34585207Y-71160238D01*
X34558931Y-71224979D01*
X34549507Y-71235545D01*
X30937190Y-74847862D01*
X30875867Y-74881347D01*
X30830111Y-74882654D01*
X30684611Y-74859609D01*
X30652352Y-74854500D01*
X30447648Y-74854500D01*
X30423329Y-74858351D01*
X30245465Y-74886522D01*
X30050776Y-74949781D01*
X29868386Y-75042715D01*
X29702786Y-75163028D01*
X29558028Y-75307786D01*
X29437715Y-75473386D01*
X29344781Y-75655776D01*
X29281522Y-75850465D01*
X29249500Y-76052648D01*
X12950500Y-76052648D01*
X12950500Y-73358104D01*
X12970185Y-73291065D01*
X13022989Y-73245310D01*
X13092147Y-73235366D01*
X13155703Y-73264391D01*
X13192431Y-73319785D01*
X13259433Y-73525996D01*
X13344422Y-73692795D01*
X13366657Y-73736433D01*
X13505483Y-73927510D01*
X13672490Y-74094517D01*
X13863567Y-74233343D01*
X13926308Y-74265311D01*
X14074003Y-74340566D01*
X14074005Y-74340566D01*
X14074008Y-74340568D01*
X14122251Y-74356243D01*
X14298631Y-74413553D01*
X14531903Y-74450500D01*
X14531908Y-74450500D01*
X16368097Y-74450500D01*
X16601368Y-74413553D01*
X16669572Y-74391392D01*
X16825992Y-74340568D01*
X17036433Y-74233343D01*
X17227510Y-74094517D01*
X17394517Y-73927510D01*
X17533343Y-73736433D01*
X17640568Y-73525992D01*
X17713553Y-73301368D01*
X17719410Y-73264391D01*
X17750500Y-73068097D01*
X17750500Y-72831902D01*
X17713553Y-72598631D01*
X17677065Y-72486334D01*
X17640568Y-72374008D01*
X17640566Y-72374005D01*
X17640566Y-72374003D01*
X17534168Y-72165187D01*
X17533343Y-72163567D01*
X17394517Y-71972490D01*
X17227510Y-71805483D01*
X17036433Y-71666657D01*
X17013983Y-71655218D01*
X16825996Y-71559433D01*
X16601368Y-71486446D01*
X16368097Y-71449500D01*
X16368092Y-71449500D01*
X14531908Y-71449500D01*
X14531903Y-71449500D01*
X14298631Y-71486446D01*
X14074003Y-71559433D01*
X13863566Y-71666657D01*
X13774222Y-71731570D01*
X13672490Y-71805483D01*
X13672488Y-71805485D01*
X13672487Y-71805485D01*
X13505485Y-71972487D01*
X13505485Y-71972488D01*
X13505483Y-71972490D01*
X13482146Y-72004611D01*
X13366657Y-72163566D01*
X13259433Y-72374003D01*
X13192431Y-72580214D01*
X13152993Y-72637889D01*
X13088634Y-72665087D01*
X13019788Y-72653172D01*
X12968312Y-72605928D01*
X12950500Y-72541895D01*
X12950500Y-66020807D01*
X12970185Y-65953768D01*
X12986819Y-65933126D01*
X13634620Y-65285325D01*
X14362809Y-64557135D01*
X14424130Y-64523652D01*
X14469886Y-64522345D01*
X14566719Y-64537681D01*
X14647648Y-64550500D01*
X14647649Y-64550500D01*
X14852351Y-64550500D01*
X14852352Y-64550500D01*
X15054534Y-64518477D01*
X15249219Y-64455220D01*
X15431610Y-64362287D01*
X15555896Y-64271989D01*
X15597213Y-64241971D01*
X15597215Y-64241968D01*
X15597219Y-64241966D01*
X15741966Y-64097219D01*
X15741968Y-64097215D01*
X15741971Y-64097213D01*
X15797495Y-64020789D01*
X15862287Y-63931610D01*
X15889515Y-63878171D01*
X15937490Y-63827376D01*
X16005311Y-63810581D01*
X16071446Y-63833118D01*
X16110485Y-63878172D01*
X16137715Y-63931613D01*
X16258028Y-64097213D01*
X16402786Y-64241971D01*
X16539293Y-64341147D01*
X16568390Y-64362287D01*
X16651636Y-64404703D01*
X16750776Y-64455218D01*
X16750778Y-64455218D01*
X16750781Y-64455220D01*
X16855137Y-64489127D01*
X16945465Y-64518477D01*
X17046557Y-64534488D01*
X17147648Y-64550500D01*
X17147649Y-64550500D01*
X17352351Y-64550500D01*
X17352352Y-64550500D01*
X17554534Y-64518477D01*
X17749219Y-64455220D01*
X17931610Y-64362287D01*
X18055896Y-64271989D01*
X18097213Y-64241971D01*
X18097215Y-64241968D01*
X18097219Y-64241966D01*
X18241966Y-64097219D01*
X18241968Y-64097215D01*
X18241971Y-64097213D01*
X18297495Y-64020789D01*
X18362287Y-63931610D01*
X18455220Y-63749219D01*
X18518477Y-63554534D01*
X18550500Y-63352352D01*
X18550500Y-63147648D01*
X18518477Y-62945466D01*
X18455220Y-62750781D01*
X18455218Y-62750778D01*
X18455218Y-62750776D01*
X18402756Y-62647815D01*
X18362287Y-62568390D01*
X18330323Y-62524395D01*
X18241971Y-62402786D01*
X18097213Y-62258028D01*
X17931613Y-62137715D01*
X17931612Y-62137714D01*
X17931610Y-62137713D01*
X17874653Y-62108691D01*
X17749223Y-62044781D01*
X17554534Y-61981522D01*
X17379995Y-61953878D01*
X17352352Y-61949500D01*
X17147648Y-61949500D01*
X17123329Y-61953351D01*
X16945465Y-61981522D01*
X16750776Y-62044781D01*
X16568386Y-62137715D01*
X16402786Y-62258028D01*
X16258028Y-62402786D01*
X16137713Y-62568388D01*
X16110484Y-62621828D01*
X16062510Y-62672623D01*
X15994688Y-62689418D01*
X15928554Y-62666880D01*
X15889516Y-62621828D01*
X15862286Y-62568388D01*
X15741971Y-62402786D01*
X15597213Y-62258028D01*
X15431613Y-62137715D01*
X15431612Y-62137714D01*
X15431610Y-62137713D01*
X15374653Y-62108691D01*
X15249223Y-62044781D01*
X15054534Y-61981522D01*
X14879995Y-61953878D01*
X14852352Y-61949500D01*
X14647648Y-61949500D01*
X14623329Y-61953351D01*
X14445465Y-61981522D01*
X14250776Y-62044781D01*
X14068386Y-62137715D01*
X13902786Y-62258028D01*
X13758028Y-62402786D01*
X13637715Y-62568386D01*
X13544781Y-62750776D01*
X13481522Y-62945465D01*
X13449500Y-63147648D01*
X13449500Y-63352351D01*
X13477654Y-63530111D01*
X13468699Y-63599405D01*
X13442862Y-63637190D01*
X11794727Y-65285325D01*
X11794721Y-65285332D01*
X11740837Y-65365976D01*
X11740838Y-65365977D01*
X11727603Y-65385785D01*
X11673991Y-65430590D01*
X11604666Y-65439299D01*
X11541638Y-65409144D01*
X11504919Y-65349702D01*
X11500500Y-65316895D01*
X11500500Y-52624500D01*
X11520185Y-52557461D01*
X11572989Y-52511706D01*
X11624500Y-52500500D01*
X129375500Y-52500500D01*
X129442539Y-52520185D01*
G37*
%TD.AperFunction*%
%TD*%
M02*
